M48
;Layer_Color=9474304
;FILE_FORMAT=4:2
METRIC,TZ
;TYPE=PLATED
T01F00S00C0.20
T02F00S00C0.90
T03F00S00C1.10
T04F00S00C2.03
T05F00S00C3.18
%
T01
X177Y156
X255Y112
X344Y102
X434
X524
X614
X704
X794
X884
X974
X1064
X1154
X1244
X1334
X1424
X1350Y510
Y590
Y680
X1220Y520
X970Y510
X840
X102Y496
Y406
X102Y316
X122Y228
X102Y586
Y676
Y766
Y856
Y946
X1480Y510
X1514Y102
X1604
X1694
X1784
X1874
X1964
X2015Y176
X2082Y236
X2169Y261
X2259Y262
X2349
X2439
X2529
X2619
X2709
X2799
X2889
X2979
X3069
X3159
X3249
X3339
X3429
X3519
X3609
X3699
X3789
X3879
X3969
X4059
X4149
X4239
X4329
X4419
X4509
X4599
X4689
X4779
X4869
X4959
X5049
X5139Y262
X5229Y262
X5319Y262
X5080Y640
X4940Y620
X4889Y586
X4866Y500
X4770Y540
X4548Y499
Y432
X4510Y820
X4610Y820
X4710
X4850
X4940
X5065Y915
X5008Y995
X5010Y1130
X5110Y1080
X4850Y1060
X4715Y1072
X4605Y1062
X4540Y1068
X4455Y1082
X4380Y1090
X4265Y1072
X4185Y1082
X4120Y1060
X4045Y1072
X3940Y1060
X3960Y820
X4160
X4260
X4410
X4892Y1338
X3660Y1240
X2605Y1274
X2605Y1354
X2505Y1314
X2505Y1154
Y1074
X2605Y1114
X2605Y1194
Y1034
X2605Y954
X2345Y994
X1985Y894
X1905
X1845Y1034
X1845Y1114
Y1274
X1845Y1354
X1945Y1234
X2025Y1234
X2025Y1314
X2105Y1394
X5580Y1300
X6250
X6480Y1230
X6100Y1150
X5990Y700
X5949Y262
X6039Y262
X6129Y262
X6219Y262
X6309Y262
X6399Y262
X6489Y262
X6579Y262
X6669Y262
X6759Y262
X6849Y262
X6939Y262
X7029Y262
X7119Y262
X7207Y217
X7277Y187
X7317Y106
X7407Y102
X7497
X7587
X7677
X7767
X7857
X7947
X8037
X8127
X8217
X8307
X8397
X8487
X8577
X8667
X8757
X8847
X8937
X9027Y107
X9109Y144
X9169Y211
X9197Y297
X9198Y387
Y477
Y567
Y657
Y747
Y837
Y927
Y1017
Y1107
Y1197
Y1287
X9123Y1336
X9064Y1404
X8659Y1277
Y1227
X8609Y1277
X8649Y1007
X8709
X8769
X8990Y930
X8406Y1038
Y1098
X8226
Y1038
X8166
Y1098
X8160Y770
X8400
X7410Y760
Y890
X7090Y1020
Y630
X7720Y1100
X5859Y262
X5769Y262
X5679Y262
X5589Y262
X5499Y262
X5409Y262
X5510Y1580
X5970Y1560
X6100Y1440
X6355Y1600
X6780Y1560
X7410Y1680
X7420Y1750
X7510Y1630
X7460Y2030
X7580
X7710
X7700Y2110
X7860Y2120
X7900Y1970
X7990Y2040
X8020Y2260
X8255Y2255
X8290Y2410
X8400Y2400
X8390Y2495
Y2650
X8414Y2689
X8380Y2749
X8257Y2741
X8155Y2987
X8067Y2989
X7975Y2992
X7875Y2992
X7730Y2980
Y3120
X7815Y3180
X7499Y3212
X7520Y3291
X7517Y3494
X7490Y3630
X7442Y3703
X7296Y3660
X7297Y3529
X7201Y3482
X7250Y3370
X7011Y3291
X6990Y3570
X7011Y3675
X6690Y3620
X6700Y3530
X6745Y3415
X6641Y3307
X6630Y3020
X6540Y3100
X6480Y2990
X6390Y3030
X6310Y2970
X6327Y2919
X6330Y2830
X6228Y2950
X6117Y2878
X5940Y2883
X5900Y2940
X5738Y2983
X5520Y2970
X5471Y3012
X5554Y3058
X5531Y3162
X5471
X5467Y3278
X5571Y3202
X5520Y3440
X5417Y3741
X5710Y3870
Y4050
X5835Y4167
X5865Y4338
X5870Y4440
X5754Y4387
X5770Y4540
X5774Y4649
X5667Y4740
X5870Y4840
X5970Y4940
X6070
X6170
X6170Y4840
X6270Y4840
X6370
X6470Y4840
Y4940
Y5040
X6670
X6670Y4940
X6670Y4840
X6670Y4740
X6670Y4640
Y4540
Y4440
Y4340
X6690Y4180
X6994Y4134
X6900Y4040
X6730Y3810
X6641Y3842
X6551
X6540Y3970
X6450Y3930
X6271Y3702
X6211Y3672
X5990Y3860
X6020Y4120
X6070Y4340
X6170
X6170Y4440
X6270
X6370Y4340
X6470
X6470Y4440
X6470Y4540
Y4640
Y4740
X6366Y4940
X6770Y4940
X7050Y5020
X7000Y5130
X7250Y4960
X7480Y4910
X7405Y4797
X7290Y4710
X7320Y4610
X7260Y4530
X7330Y4410
X7480Y4370
X7765Y4340
X7820
X7830Y4240
X7883Y4280
X7938
X8000Y4250
X8004Y4341
X8059Y4340
X8150Y4220
X8250Y4200
X8310Y4190
X8354Y4223
X8420Y4120
X8370Y3939
X8390Y3860
X8450Y3910
X8470Y4305
X8475Y4597
X8745Y4570
X8790Y4620
X8750Y4670
Y4725
Y4795
Y4850
X8750Y4905
Y4980
X8753Y5045
Y5100
X8820Y5130
X8830Y5260
X8757Y5295
Y5350
X8820Y5390
X8732Y5240
X9038Y5270
Y5180
X9038Y5090
Y5000
Y4910
Y4820
Y4730
Y4640
Y4550
Y4460
Y4370
Y4280
Y4190
Y4100
Y4010
X9038Y3920
Y3830
Y3740
Y3650
Y3560
Y3470
Y3380
Y3290
Y3200
Y3110
Y3020
Y2930
Y2840
Y2750
X9038Y2660
Y2570
Y2480
Y2390
Y2300
Y2210
Y2120
Y2030
Y1940
Y1850
Y1760
Y1670
Y1580
X9039Y1490
X8679Y1487
X8629
Y1537
X8679
X8740Y1790
X8559Y1807
X8473Y1803
X8500Y1860
X8250Y2030
X8156Y1758
X8159Y1707
X8099
X8096Y1758
X8036
X8039Y1707
X7860Y2720
X7710Y2690
X7720Y2770
X7611Y2802
X7621Y2672
X7710Y2590
X7220Y2620
X7195Y2715
X7071Y2602
Y2542
X7050Y2470
X7360Y2410
Y2350
X7380Y2260
X6610Y2310
X6500Y2370
X6430Y2430
X6370Y2400
Y2470
X6410Y2650
X6500Y2640
X6550Y2740
X6750Y2800
X6680Y2880
X6951Y2922
X7026Y2864
X6890Y3010
X7411Y3072
X7510Y3050
X7470Y3000
X8210Y3200
X8259Y3227
X8428Y3336
X8620Y3400
Y3250
Y3100
X8580Y3000
X8620Y2950
X8409Y2976
X8110Y3630
X8003Y3931
X7790Y3940
X7670Y3980
X7665Y4112
X7840Y4120
X7820Y4510
X7910
X8010
X7970Y4670
X7940Y4720
X7885
X7850Y4770
X7779Y4739
X7740Y4700
X7632Y4845
X7710Y5060
X7779Y5056
X7818Y5017
X7868Y4980
X7903Y5033
X7957
X8036Y5036
X8075Y5075
X8150Y5050
X8200Y5080
X8400Y5170
X8362Y5250
X8362Y5340
X7970Y5340
X7870
Y5240
X7920Y5290
X7970Y5240
X8000Y4990
X8040Y4800
X8071Y4749
X8110Y4710
X8160Y4670
X8483Y4947
X8830Y4760
X8800Y4530
X8753Y4475
Y4420
X8753Y4360
X8753Y4225
Y4170
X8790Y4120
X8920Y3460
X9038Y5360
X7498Y5350
X7450Y5390
X7445Y5300
X7498Y5260
X7498Y5170
X7460Y5120
X6971Y4705
X5974Y4739
X5970Y4640
X6070Y4540
X5980Y5040
X6080Y5140
X6170Y5150
X6270Y5296
X6450Y5300
X5724Y5138
X5770Y5040
X5600Y5110
X5433Y4980
X5550Y5360
X5480Y4340
X5941Y3302
X5950Y3150
X5831Y3162
X6140Y3184
X5810Y2710
X5670
X5575Y2725
X5430Y2880
X5460Y2340
X5700Y2370
X5697Y2462
X7310Y3890
X5390Y3860
X5358Y3990
X5260Y4110
X5210Y4390
X5080Y4420
X4989Y4534
X4900Y4480
X5010Y4660
X5116Y4667
X5190Y4660
X5074Y4729
X5071Y4853
X4960Y4910
X4890Y4960
X4742Y4950
X4690Y4860
X4800Y4800
X4705Y4680
X4558Y4677
X4420Y4720
X4410Y4790
X4320Y4780
Y4720
X4120
X4080Y4680
X4006Y4737
X3962Y4648
X4013Y4526
X4143Y4537
X4100Y4458
X3810Y4460
Y4520
X3670Y4580
X3690Y4670
X3570
Y4720
X3510
Y4670
X3420Y4610
X3360
X3180Y4611
X3220Y4660
X3120Y4550
X3050
X3020Y4600
X2880Y4500
X2840Y4460
X2700Y4490
X2730Y4549
X2560Y4540
X2480Y4480
X2436Y4420
X2296Y4374
X2170Y4260
X2230Y4190
X2251Y4139
X2353Y4170
X2510Y4270
X2611Y4363
X2770Y4240
X3018Y4168
X2979Y4129
X2990Y3989
X3020Y3949
X3108Y3932
Y3997
X2900Y3970
Y4030
X2920Y3850
X2720Y3890
X2733Y3640
X2810Y3590
X2910Y3520
Y3410
X2740Y3450
X2520Y3440
X2330Y3410
X2316Y3570
X2306Y3686
X2310Y3890
X2260Y3970
X2430Y3950
X2516Y3952
X2210Y3800
X2154Y3820
X2040Y3840
X1970Y3830
X1980Y3890
X1900Y3810
X1840Y3850
X1880Y3980
X1820Y4050
X1900Y4120
X2056Y4110
X1950Y4240
X2030Y4340
X2041Y4394
X1790Y4324
X1810Y4490
X1800Y4550
X1812Y4610
X1888Y4570
X2200Y4580
X2130Y4795
Y4840
Y4885
X2190Y4930
X2240
Y4980
X2325Y4975
Y4925
Y4872
Y4795
Y4743
X2520Y4795
Y4840
Y4885
X2460Y4930
X2410
Y4980
X2445Y5180
Y5300
X2325Y5300
X2325Y5180
X2205
Y5300
X2010Y5270
X1966Y5325
X1930Y5220
X1947Y5147
X1945Y5046
X2008Y5040
X2090Y5050
X1980Y4970
X1920
X1860
X1800
X1730Y5050
X1720Y4870
X1600
X1540Y4892
Y4947
Y5160
X1480
X1682Y5251
X1810Y5240
X1480Y4680
X1470Y4399
X1462Y4315
X1454Y3730
X1440Y3620
X1540Y3500
X1500Y3450
X1690Y3520
X1745
X1731Y3620
X1719Y3784
X1890Y3680
X1888Y3538
X1946Y3473
X1886Y3384
X2110Y3400
X3035Y3314
X3168Y3316
X3185Y3183
X3236Y3184
X3363Y3183
X3432Y3151
X3433Y3087
X3370Y3086
X3368Y3024
X3304Y3016
X3238Y3022
Y2957
Y2892
X3303Y2892
Y2827
X3238
Y2764
X3175Y2829
X3111Y2831
Y2760
X3108Y2697
X3106Y2631
X3103Y2580
X3039Y2720
X2964Y2724
X2990Y2924
X3122Y2933
X3173Y2957
X3140Y3122
X3005
X3305Y3089
X3498Y3087
X3560Y3089
X3563Y3152
Y3217
Y3282
X3500Y3344
X3428Y3314
X3365Y3359
X3363Y3444
X3368Y3542
X3433Y3542
X3437Y3608
X3498Y3607
X3563
Y3542
Y3477
X3562Y3410
X3628Y3412
X3693Y3347
X3752Y3351
X3758Y3412
Y3477
X3888
X3953
Y3542
Y3607
Y3672
Y3737
Y3802
X3855Y3800
X3845Y3855
X3920Y3872
X4018Y3867
X4115Y3872
X4148Y3802
X4083
X4083Y3737
X4148
Y3672
Y3607
X4213Y3607
Y3542
X4148Y3542
X4083Y3539
X4088Y3444
X4210Y3444
X4265Y3444
X4299Y3509
X4413
X4413Y3704
X4280Y3710
X4278Y3802
Y3867
X4213
X4343Y3932
X4408
X4660Y3900
X4670Y4070
X4571Y4158
X4310Y4200
X4274Y4246
X4420Y4480
X4440Y4992
X4400Y5030
X4418Y5181
X4310Y5280
X4110
X4128Y5116
X4042Y5118
X3920Y5100
X3764Y5047
X3770Y4980
X3772Y4917
X3770Y4845
X3810Y4800
X3910Y4880
X3670
X3520Y4950
X3360Y4890
X3275Y4995
X3100Y5003
X3097Y4948
X3030Y4935
Y4990
X3090Y5076
Y5131
X2915Y5135
Y5230
Y5325
X2725Y5297
Y5253
X2660Y5126
X2670Y4970
X2730
X2790
X2850
X3170Y4900
X3250Y5240
Y5340
X3370Y5390
X3540Y5330
X3545Y5197
X3782Y5308
X3790Y5362
X4210Y5010
X4900Y5120
X4919Y5239
X4990Y5190
X5078Y5085
X5320Y5120
X5270Y5210
X5320Y5380
X4935Y5370
X5314Y4976
X5320Y4917
X5378Y4875
X5260Y4510
X4920Y4175
Y4120
Y4030
X4930Y3970
X4920Y3830
X4919Y3490
X4930Y3380
X4900Y3281
X4917Y3195
X4930Y3060
X4920Y2950
X4930Y2870
X4925Y2785
X4930Y2670
X5190Y2680
X5270Y2670
X5347Y2692
X5350Y2770
X5281Y2761
X5160Y2780
Y2880
X5360Y2870
X5280Y2530
X5205Y2580
X5200Y2480
X5150Y2280
X5340Y2270
X5280Y2200
X5230Y2150
X4900Y2180
Y2280
Y2380
X4583Y2447
X4500Y2200
X4430Y2210
X4420Y2110
X4300Y2120
X4180Y2150
X4080Y2100
X4028Y1981
X3935Y2011
X3930Y1950
X3959Y1904
X3780Y1890
X3740Y1930
X3680Y2090
X3770Y2210
Y2310
X3710
X3830Y2283
X3840Y2370
X3855Y2455
X3750Y2570
X3725Y2627
X3623Y2578
X3531Y2582
X3532Y2713
X3629Y2762
X3629Y2827
X3680Y2900
X3630Y2954
X3558Y2957
X3563Y3022
X3498Y3022
X3433Y2957
X3439Y2901
X3439Y2828
X3498Y2826
X3369Y2826
X3368Y2762
X3333Y2721
X3335Y2592
X3366Y2889
X3628Y3152
X3628Y3217
X3693
X3758
X3823Y3217
X3888Y3217
X3826Y3284
X3826Y3350
X3888Y3347
X4023Y3314
X4018Y3152
X4088Y3184
X4083Y3087
X4148
X4213
Y3022
X4148
Y2957
Y2892
X4083
Y2957
X4018
X3940Y2950
X3953Y2892
Y2827
X3855Y2833
X3853Y2778
X3920Y2742
X3920Y2627
X3960Y2580
X4010Y2550
X4115Y2627
Y2757
X4081Y2825
X4018Y2762
X4213
X4278
Y2827
X4279Y2922
X4328Y2947
X4413Y2924
X4530Y2971
X4584Y2995
X4650Y2980
X4620Y3070
X4584Y3116
X4540Y3160
X4413Y3119
X4283Y3119
X4263Y3184
X4208Y3186
X4282Y3314
X4429Y3314
X4278Y3607
X4018Y3672
X3855Y3677
X3725Y3612
X3612Y3680
X3498Y3672
X3438Y3737
X3367Y3733
X3303Y3737
Y3802
X3238
Y3737
Y3672
Y3607
X3303
X3304Y3540
X3238Y3542
X3168Y3509
X3188Y3454
X3173Y3607
X3168Y3704
X3038
Y3509
X3495Y3479
X3498Y3802
X3530Y3872
X3433Y3867
X3433Y3932
X3353Y3872
X3368Y3802
X3238Y3867
X3333Y4012
X3341Y4081
X3298Y4116
X3244Y4105
X3380Y4120
X3530Y4002
X3733Y3999
X3733Y3876
X3615Y3812
X3920Y4002
X3892Y4122
X3896Y4216
X4115Y4002
X3660Y4459
X3573Y4458
X3693Y3282
X3760Y3152
X3758Y3087
X3888
X3953
Y3022
X3888
X3855Y2958
X4278Y3022
X4343Y2697
X4408
X4120Y2460
X4125Y2265
X4307Y2266
X4500Y1960
X4590Y1970
X4765Y2092
X5140Y1860
X5100Y1750
X5020Y1690
X4950Y1660
X4975Y1562
X3735Y1452
X2605Y1434
X2605Y1514
X2505Y1474
Y1634
X2425Y1634
X2345Y1634
Y1714
X2425Y1714
X2425Y1794
X2428Y1872
X2505Y1875
X2505Y1954
X2425Y1954
X2425Y2034
X2505
X2503Y2114
X2425Y2114
Y2194
X2605Y2154
X2605Y2074
X2603Y1993
X2605Y1914
X2505Y1794
X2105Y1794
X2025
X1945
X1945Y1874
X2025Y1874
X2025Y1954
X1945Y1954
X1945Y2034
X1844Y2072
X1870Y2114
X1844Y2157
X1845Y2212
Y2272
X1845Y1994
X1844Y1914
X1845Y1834
X1845Y1714
X2025
X2105
Y1634
X2025
X1945
X1845Y1514
X1845Y1434
X2025Y1474
X2954Y2110
X2956Y2294
X5160Y3180
X5310Y3280
X5220Y3380
X5210Y3480
X5220Y3580
X5325Y3547
X5390Y3660
X5320Y3760
X5220Y3780
X5150Y3680
X1350Y3840
Y3900
X1310Y3970
X1390Y4020
X1380Y4190
X1350Y4360
X1410Y4590
X1420Y4680
X1340Y4690
Y4840
X1410Y4930
X1420Y5160
X1320Y5240
Y5340
X1310Y3530
X1250Y3540
X1270Y3430
X1320Y3340
X1390Y3250
X1360Y3180
X1330Y3050
Y2970
X1400
Y2890
X1380Y2700
X1260Y2330
X1420Y5440
X1360Y5860
X1310Y5859
Y5930
X1360Y5930
X1420Y6020
X1250Y6160
X1389Y6812
X1388Y7632
X1320Y7830
X1277Y7998
X1221Y7990
X1313Y8039
X1400Y8000
X1405Y8140
X1350
X1310Y8230
X1146Y8299
X1147Y8389
X1155Y8567
X1314Y8600
X1310Y8780
X1270Y8899
X1360
X1180
X1090
X1000
X910
X820
X730
X640
X550
X460
X370
X280Y8895
X197Y8861
X135Y8796
X104Y8711
X102Y8531
Y8441
Y8351
Y8261
Y8171
X819Y8298
X820Y8370
X819Y8478
X840Y8780
X740Y8760
X980Y8720
X1110Y8780
X1410Y8710
X980Y8170
X1080Y8060
Y7960
Y7900
X890Y7980
X770Y7926
X1460Y7838
X1506Y7807
X1508Y7632
X1448
X1500Y7400
X1550
Y7350
X1500
X1478Y7152
X1528
Y7102
X1478
X1449Y6812
X1509
X1698Y6832
X1752Y6780
Y6720
X1932
Y6780
X1992
Y6720
X2002Y6880
X1998Y6932
X2058
X2062Y6880
X2122
X2118Y6932
X2400Y6877
X2429Y6812
X2489
X2369
X2253Y6647
X2481Y6580
Y6530
X2531
Y6580
X2509Y6332
X2459
Y6282
X2509
X2500Y6020
X2670Y6030
X2723Y5803
X2730Y5630
X2790
X2850
X2910Y5534
Y5479
X2915Y5415
X3050Y5510
Y5565
Y5640
X3110Y5740
X3305Y5622
X3480Y5550
X3564Y5591
X3560Y5490
X3540Y5399
X3790Y5450
X3920
X3860Y5600
X3787Y5667
X3840Y5730
Y5830
Y5920
X3800Y5958
X3680Y5780
X3570Y5810
Y5860
X3510
Y5810
X3280Y5900
X3300Y5940
X3250
X3290Y6142
Y6197
X3490Y6230
Y6305
Y6380
X3260Y6509
X3177Y6470
X3260Y6720
Y6770
X3320
Y6720
X3214Y6942
X3230Y7000
X3099Y6927
X3103Y6875
X3043
X3039Y6927
X2979
X2983Y6875
X2972Y6780
Y6720
X2912
Y6780
X2732
Y6720
X2679Y6827
X2509Y7097
X2459
Y7147
X2509
X2531Y7345
X2481
Y7395
X2531
X2489Y7627
X2429
X2369
X2290Y7640
Y7560
X1992Y7540
Y7600
X1932
Y7540
X1752
Y7596
X1748Y7708
Y7763
X1600Y8000
X1630Y8140
X1465Y8140
X1790Y8110
X1824Y8376
X1840Y8500
X1580Y8595
X1590Y8710
X1680
X1690Y8845
X1720Y8899
X1810
X1900
X1987Y8876
X2034Y8799
X2110Y8751
X2199Y8739
X2289Y8739
X2379Y8739
X2469Y8739
X2559Y8739
X2649Y8739
X2739Y8739
X2829Y8739
X2919Y8739
X3009Y8739
X3099Y8739
X3189Y8739
X3279Y8739
X3369Y8739
X3459Y8739
X3549Y8739
X3639Y8739
X3729Y8739
X3819Y8739
X3909Y8739
X3999Y8739
X4089Y8739
X4179Y8739
X4269
X4359
X4449
X4539
X4629
X4719
X4809
X4899
X4989
X5079
X5169
X5259
X5349
X5340Y8490
X5319Y8258
X5108Y8280
X5040Y8350
X5090Y8150
X5180Y8140
X5220Y8000
X5390Y7950
X5320Y7870
X5220Y7640
X5180Y7470
X5230Y7430
X5300Y7310
X5150Y7220
X5009Y7115
X4825Y7070
X4840Y7010
X4790
X4740
X4750Y7330
X4800
X4950Y7381
X4710Y7460
X4680Y7510
X4588Y7590
X4547Y7679
X4630Y7690
X4780Y7680
X4870Y7659
X4659Y7869
X4601
X4630Y7940
X4370
X4345Y7870
X4400
X4370Y7690
X4211Y7720
X4280Y7480
Y7430
Y7380
X4220Y7395
X4041Y7400
X3991
X3780Y7420
Y7370
X3730
Y7420
X3760Y7540
X3320Y7560
Y7610
X3260
Y7560
X3308Y7497
X3274Y7327
X3530Y7180
Y7130
Y7080
X3480
Y7130
X3720Y6770
Y6720
X3780
Y6770
X4017Y6747
X4021Y6590
X4000Y6360
X4071Y6370
X4121
X4290Y6375
X4352Y6388
X4350Y6340
Y6290
X4330Y6100
X4280
Y6050
X4330
Y6000
X4280
X4400Y6010
X4430Y6070
X4320Y5880
X4510Y5830
X4653Y5867
X4690Y5970
X4700Y5700
X4560Y5620
X4195Y5610
X4150Y5650
X4110Y5400
X4310
X4900Y5550
X5120
X5230Y5800
Y5920
Y6010
X5180Y6200
X5090
X5100Y6265
X5167Y6287
X5230Y6340
X5020Y6170
X4780Y6340
X4712Y6497
X4700Y6630
Y6690
X4640
X4530Y6750
Y6810
Y6870
X4435
Y6810
Y6750
X4350
Y6810
Y6870
X4260Y6970
X4210Y6950
X4200Y7130
X4010Y7030
X4440Y7050
X4405Y6589
X4340Y6580
X4470
X4200Y6680
X4004Y6243
X3970Y6180
X3770Y6460
X3731Y6499
X3099Y6112
X3102Y6060
X3042
X3039Y6112
X2979
X2982Y6060
X2300Y6043
Y5988
X2325Y5857
Y5805
Y5728
Y5675
Y5625
X2410Y5620
Y5670
X2460
X2520Y5715
Y5760
Y5805
X2670Y5630
X2650Y5510
X2710
X2445Y5420
X2325
X2205
X2240Y5620
Y5670
X2190
X2130Y5715
Y5760
Y5805
X2122Y6060
X2119Y6112
X2059
X2062Y6060
X1848Y6000
X1792
X1690Y6030
X1509Y6012
X1529Y6282
X1479
Y6332
X1529
X1550Y6530
X1500
Y6580
X1550
X1530Y5708
Y5653
X1540Y5440
X1480
X1748Y5527
X1800Y5630
X1860
X1920
X1980
X1952Y5518
X1950Y5425
X2239Y6170
X2310Y7100
X2570Y7660
X2733Y7595
Y7535
X2913
X2973
Y7595
X2913
X2970Y7690
X2810Y7710
X2942Y7870
X2998
X2970Y7940
X3230Y7950
X3258Y7880
X3203
X3230Y7700
X3140Y8131
X3080Y8130
X2790Y8140
X2624Y8142
X2530Y8030
X2340Y8130
X2160Y8170
X2010Y8200
X2470Y8270
X2350Y8510
X2390Y8570
X2690Y8540
X2750Y8380
X2943Y8463
X2982Y8502
X3510Y8540
X3430Y8370
X3407Y8140
X3430Y8090
X3660Y8120
X3760Y8140
X3830
X3945Y8110
X3960Y8350
X3830Y8360
X3770
X4110Y8260
X4190Y8140
X4178Y8057
X4470Y8130
X4530
X4810
X4888Y8176
X4940Y8160
X4790Y8380
X4780Y8580
X4560Y8510
X4340Y8450
X4230Y8380
X4190Y8640
X4120Y8600
X4921Y6658
X4975Y6650
X5030Y6620
X5118Y6663
X5150Y6800
X5260Y6960
X5380Y7010
X4860Y5771
X1465Y8712
X1530Y8780
X1540Y8899
X1450
X1630
X5439Y8739
X5529
X5619
X5709
X5799
X5889
X5979
X6069
X6159
X6249
X6339
X6429
X6519
X6609
X6699
X6789
X6879
X6969
X7059Y8739
X7149Y8742
X7233Y8774
X7294Y8840
X7363Y8899
X7453
X7543
X7633
X7723
X7813
X7903
X7993
X8082
X8172
X8262
X8352
X8442
X8532
X8622
X8712
X8802
X8892
X8982Y8899
X9093Y8867
X9159Y8806
X9194Y8723
X9198Y8633
Y8543
Y8453
Y8363
Y8273
Y8183
Y8093
Y8003
Y7913
Y7823
X9166Y7739
X9092Y7688
X9048Y7610
X9038Y7520
Y7430
Y7340
Y7250
Y7160
Y7070
Y6980
Y6890
Y6800
Y6710
Y6620
Y6530
Y6440
Y6350
X9038Y6260
Y6170
Y6080
Y5990
Y5900
Y5810
Y5720
Y5630
Y5540
Y5450
X8362Y5430
Y5520
X8080Y5490
X8150Y5650
X7990Y5712
X7900
X7800
X7710
X7640Y5680
X7750Y5430
X7498Y5440
X7170Y5550
X7080
X6990
X6900
X6810
X6720
X6630
X6530
X6440
X6350
X6368Y5968
X6468Y5968
X6468Y6168
X6368Y6268
Y6368
X6268
X6168
Y6468
X6068
Y6368
Y6268
X6168
X6268
X6060Y6160
X5968Y6168
Y6368
Y6668
X5868
Y6568
X5668
X5668Y6368
X5568Y6368
Y6068
X5568Y5968
X5600Y5810
X5700Y5490
X5480Y5420
X5868Y5968
X5968Y5968
X6068Y6568
Y6668
X6168Y6668
X6068Y6768
X5968
X5868Y6868
X5968Y6968
X6068
Y7068
Y7168
X5968Y7168
X5968Y7068
X5768
X5668
X5668Y6868
X5468Y6968
X5568Y7368
X5668Y7368
X5650Y7630
X5520Y7590
X5470Y7868
X5567Y7874
X5500Y7960
X5620Y7980
X5810Y7930
Y7870
X5900Y7960
X6124Y7974
X6150Y7810
X6240Y7770
X6260Y7900
X6340Y7940
X6420
X6485Y7873
X6590Y7880
X6600Y7950
X6660Y7960
X6720Y7880
X6845Y7873
X6850Y7950
X6940Y7940
X7050Y7870
X7082Y8330
X7050Y8450
X6970Y8460
X6880Y8560
X6760
X6680Y8460
X6557Y8330
X6560Y8230
X6115Y8322
X6020Y8260
X5830Y8240
X5730Y8250
X5675
X5540Y8240
X5910Y8490
X5840Y8620
X6349Y7661
X6418Y7613
X6552Y7654
X6518Y7480
X6468Y7268
Y7168
Y7068
Y6968
Y6868
X6568
Y6968
Y7068
Y7168
X6668Y7168
X6668Y7068
X6868
X6868Y7168
X6768Y7168
X6730Y7360
X6968Y7368
X6968Y7268
X7086Y6954
X6870Y6780
X6768Y6768
X6768Y6668
Y6568
X6868
X6668
X6568
Y6668
Y6768
X6668Y6668
X6468Y6668
X6468Y6568
X6368
X6368Y6668
X6268Y6768
X6368Y6868
X6268Y6968
X6168
Y6868
Y7068
X6268
X6368Y7168
X6268Y7268
X6168Y7368
X6068Y7368
X7400Y7455
Y7540
X7480Y7610
X7590Y7530
X7530Y7460
X7591Y7399
X7530Y7330
X7534Y7192
X7530Y7120
X7460Y6890
X7510Y6670
X7660Y6620
X7810Y6680
X7830Y6940
X7960Y6980
X8000Y7070
X7910Y7080
X7860Y7150
X8000Y7220
X8040Y7300
X8100Y7270
X8170Y7210
Y7330
X8100Y7400
Y7490
X8020Y7560
X8065Y7615
X8160Y7720
Y7940
X8253Y7942
X8350Y7966
X8400Y7870
X8407Y7780
X8510Y7910
Y7988
X8590Y8170
X8700
X8820Y7930
X8920Y8030
X9020
X9090
X8660Y7760
X8440Y7530
X8400Y7400
Y7140
X8170Y7070
X8160Y6940
X8230Y6840
X8380Y6770
X8140Y6620
X8043Y6612
X7969Y6421
Y6291
Y6161
X7970Y6030
X8100Y6040
X8170Y6100
Y6230
X8100Y6170
Y6300
X8170Y6360
X7849Y6361
Y6231
Y6101
X7850Y5970
Y5840
X8100Y5910
X8170Y5970
X8415Y5900
X8720Y6210
X8880Y6718
X8820Y6810
X8750Y6990
X8740Y7080
X8737Y7150
X8810Y7190
X8840Y7250
Y7320
X8890Y7380
X8930Y7460
X8740Y7370
X8099Y7139
X7860Y7400
Y7460
X7840Y7530
X7828Y7780
X7880Y7940
X7670Y7930
X7600Y7780
X7460Y6350
Y6260
Y6150
X7400Y6020
X7068Y5868
X6868Y6068
X6868Y6168
X6668Y6168
X6668Y6268
X6568Y6368
X6968Y6468
T02
X357Y1388
X611
X865
X1119
Y1642
X865
Y1896
X1119
Y2150
Y2404
Y2658
Y2912
Y3166
X865
Y3420
Y3674
X1119
Y3928
Y4182
X865
X611
Y4436
X357
Y4182
Y3928
Y3674
X611
Y3420
X357
Y3166
X611
Y2912
X865
Y2658
Y2404
Y2150
X611
X357
Y2404
Y2658
X611
Y2404
Y1896
Y1642
X357
Y1896
Y2912
X1119Y3420
X865Y3928
X611
X865Y4436
X1119
Y4690
X865
Y4944
X611
Y5198
X357
Y4944
Y4690
X611
X1119Y4944
Y5198
X865
Y5452
X1119
Y5706
Y5960
X865
Y5706
X611
X357
Y5452
X611
Y5960
X357
Y6214
Y6468
X611
X865
X1119
Y6214
X865
X611
Y6722
X865
Y6976
X1119
Y6722
Y7230
Y7484
X865
Y7738
X1119
X611
X357
Y7484
Y7230
X611
X865
X611Y7484
Y6976
X357
Y6722
T03
X5434Y8100
X5688
X5942
X6196
X6450
X6704
X6958
X7212
X7620Y8128
X7874
X8128
X8382
Y8382
X8128
X7874
X7620
Y8636
X7874
X8128
X8382
T04
X5171Y1300
X7329
T05
X357Y880
X8930Y500
X357Y8246
X8930Y8500
M30
