G04*
G04 #@! TF.GenerationSoftware,Altium Limited,Altium Designer,26.4.1 (12)*
G04*
G04 Layer_Color=8388736*
%FSLAX44Y44*%
%MOMM*%
G71*
G04*
G04 #@! TF.SameCoordinates,5FFEAE5A-4657-4525-8EA9-9AA3AE1B16BF*
G04*
G04*
G04 #@! TF.FilePolarity,Negative*
G04*
G01*
G75*
%ADD25R,0.2540X0.8128*%
%ADD26R,0.8128X0.2540*%
%ADD35R,0.1778X0.6096*%
%ADD36R,1.4478X1.4478*%
%ADD38R,0.6096X0.1778*%
%ADD52R,0.2032X0.6096*%
%ADD53R,2.7432X0.9398*%
G04:AMPARAMS|DCode=55|XSize=1.1mm|YSize=0.6mm|CornerRadius=0.05mm|HoleSize=0mm|Usage=FLASHONLY|Rotation=0.000|XOffset=0mm|YOffset=0mm|HoleType=Round|Shape=RoundedRectangle|*
%AMROUNDEDRECTD55*
21,1,1.1000,0.5000,0,0,0.0*
21,1,1.0000,0.6000,0,0,0.0*
1,1,0.1000,0.5000,-0.2500*
1,1,0.1000,-0.5000,-0.2500*
1,1,0.1000,-0.5000,0.2500*
1,1,0.1000,0.5000,0.2500*
%
%ADD55ROUNDEDRECTD55*%
%ADD59R,1.0414X0.6604*%
%ADD70R,1.4732X0.5334*%
%ADD84C,0.4064*%
%ADD86R,0.6096X0.2032*%
%ADD103C,1.0000*%
G04:AMPARAMS|DCode=104|XSize=1.1032mm|YSize=1.0032mm|CornerRadius=0.3016mm|HoleSize=0mm|Usage=FLASHONLY|Rotation=270.000|XOffset=0mm|YOffset=0mm|HoleType=Round|Shape=RoundedRectangle|*
%AMROUNDEDRECTD104*
21,1,1.1032,0.4000,0,0,270.0*
21,1,0.5000,1.0032,0,0,270.0*
1,1,0.6032,-0.2000,-0.2500*
1,1,0.6032,-0.2000,0.2500*
1,1,0.6032,0.2000,0.2500*
1,1,0.6032,0.2000,-0.2500*
%
%ADD104ROUNDEDRECTD104*%
%ADD105R,0.9524X1.7524*%
%ADD106R,2.2524X3.1524*%
%ADD107R,1.0032X1.8032*%
%ADD108R,2.3032X3.2032*%
%ADD109R,2.6416X1.6510*%
G04:AMPARAMS|DCode=110|XSize=1.8532mm|YSize=2.7532mm|CornerRadius=0.3491mm|HoleSize=0mm|Usage=FLASHONLY|Rotation=0.000|XOffset=0mm|YOffset=0mm|HoleType=Round|Shape=RoundedRectangle|*
%AMROUNDEDRECTD110*
21,1,1.8532,2.0550,0,0,0.0*
21,1,1.1550,2.7532,0,0,0.0*
1,1,0.6982,0.5775,-1.0275*
1,1,0.6982,-0.5775,-1.0275*
1,1,0.6982,-0.5775,1.0275*
1,1,0.6982,0.5775,1.0275*
%
%ADD110ROUNDEDRECTD110*%
G04:AMPARAMS|DCode=111|XSize=0.65mm|YSize=0.7mm|CornerRadius=0.1875mm|HoleSize=0mm|Usage=FLASHONLY|Rotation=180.000|XOffset=0mm|YOffset=0mm|HoleType=Round|Shape=RoundedRectangle|*
%AMROUNDEDRECTD111*
21,1,0.6500,0.3250,0,0,180.0*
21,1,0.2750,0.7000,0,0,180.0*
1,1,0.3750,-0.1375,0.1625*
1,1,0.3750,0.1375,0.1625*
1,1,0.3750,0.1375,-0.1625*
1,1,0.3750,-0.1375,-0.1625*
%
%ADD111ROUNDEDRECTD111*%
G04:AMPARAMS|DCode=112|XSize=1.1532mm|YSize=1.0532mm|CornerRadius=0.3141mm|HoleSize=0mm|Usage=FLASHONLY|Rotation=270.000|XOffset=0mm|YOffset=0mm|HoleType=Round|Shape=RoundedRectangle|*
%AMROUNDEDRECTD112*
21,1,1.1532,0.4250,0,0,270.0*
21,1,0.5250,1.0532,0,0,270.0*
1,1,0.6282,-0.2125,-0.2625*
1,1,0.6282,-0.2125,0.2625*
1,1,0.6282,0.2125,0.2625*
1,1,0.6282,0.2125,-0.2625*
%
%ADD112ROUNDEDRECTD112*%
%ADD113R,3.1524X2.2524*%
%ADD114C,0.6532*%
%ADD115R,1.7524X0.9524*%
G04:AMPARAMS|DCode=116|XSize=1.67mm|YSize=0.51mm|CornerRadius=0.1013mm|HoleSize=0mm|Usage=FLASHONLY|Rotation=0.000|XOffset=0mm|YOffset=0mm|HoleType=Round|Shape=RoundedRectangle|*
%AMROUNDEDRECTD116*
21,1,1.6700,0.3075,0,0,0.0*
21,1,1.4675,0.5100,0,0,0.0*
1,1,0.2025,0.7338,-0.1538*
1,1,0.2025,-0.7338,-0.1538*
1,1,0.2025,-0.7338,0.1538*
1,1,0.2025,0.7338,0.1538*
%
%ADD116ROUNDEDRECTD116*%
G04:AMPARAMS|DCode=117|XSize=0.75mm|YSize=0.7mm|CornerRadius=0.2mm|HoleSize=0mm|Usage=FLASHONLY|Rotation=270.000|XOffset=0mm|YOffset=0mm|HoleType=Round|Shape=RoundedRectangle|*
%AMROUNDEDRECTD117*
21,1,0.7500,0.3000,0,0,270.0*
21,1,0.3500,0.7000,0,0,270.0*
1,1,0.4000,-0.1500,-0.1750*
1,1,0.4000,-0.1500,0.1750*
1,1,0.4000,0.1500,0.1750*
1,1,0.4000,0.1500,-0.1750*
%
%ADD117ROUNDEDRECTD117*%
G04:AMPARAMS|DCode=118|XSize=0.75mm|YSize=0.7mm|CornerRadius=0.2mm|HoleSize=0mm|Usage=FLASHONLY|Rotation=180.000|XOffset=0mm|YOffset=0mm|HoleType=Round|Shape=RoundedRectangle|*
%AMROUNDEDRECTD118*
21,1,0.7500,0.3000,0,0,180.0*
21,1,0.3500,0.7000,0,0,180.0*
1,1,0.4000,-0.1750,0.1500*
1,1,0.4000,0.1750,0.1500*
1,1,0.4000,0.1750,-0.1500*
1,1,0.4000,-0.1750,-0.1500*
%
%ADD118ROUNDEDRECTD118*%
%ADD119C,0.6932*%
%ADD120R,1.5032X1.8032*%
%ADD121R,1.7526X1.6256*%
%ADD122R,2.0032X1.8032*%
G04:AMPARAMS|DCode=123|XSize=0.6604mm|YSize=1.5748mm|CornerRadius=0.2159mm|HoleSize=0mm|Usage=FLASHONLY|Rotation=180.000|XOffset=0mm|YOffset=0mm|HoleType=Round|Shape=RoundedRectangle|*
%AMROUNDEDRECTD123*
21,1,0.6604,1.1430,0,0,180.0*
21,1,0.2286,1.5748,0,0,180.0*
1,1,0.4318,-0.1143,0.5715*
1,1,0.4318,0.1143,0.5715*
1,1,0.4318,0.1143,-0.5715*
1,1,0.4318,-0.1143,-0.5715*
%
%ADD123ROUNDEDRECTD123*%
%ADD124R,1.2032X1.8032*%
G04:AMPARAMS|DCode=125|XSize=1.4132mm|YSize=0.7932mm|CornerRadius=0.1754mm|HoleSize=0mm|Usage=FLASHONLY|Rotation=90.000|XOffset=0mm|YOffset=0mm|HoleType=Round|Shape=RoundedRectangle|*
%AMROUNDEDRECTD125*
21,1,1.4132,0.4425,0,0,90.0*
21,1,1.0625,0.7932,0,0,90.0*
1,1,0.3507,0.2213,0.5313*
1,1,0.3507,0.2213,-0.5313*
1,1,0.3507,-0.2213,-0.5313*
1,1,0.3507,-0.2213,0.5313*
%
%ADD125ROUNDEDRECTD125*%
%ADD126R,1.3970X1.6002*%
G04:AMPARAMS|DCode=127|XSize=1.1032mm|YSize=1.0032mm|CornerRadius=0.3016mm|HoleSize=0mm|Usage=FLASHONLY|Rotation=180.000|XOffset=0mm|YOffset=0mm|HoleType=Round|Shape=RoundedRectangle|*
%AMROUNDEDRECTD127*
21,1,1.1032,0.4000,0,0,180.0*
21,1,0.5000,1.0032,0,0,180.0*
1,1,0.6032,-0.2500,0.2000*
1,1,0.6032,0.2500,0.2000*
1,1,0.6032,0.2500,-0.2000*
1,1,0.6032,-0.2500,-0.2000*
%
%ADD127ROUNDEDRECTD127*%
%ADD128R,1.6532X1.7632*%
G04:AMPARAMS|DCode=129|XSize=0.74mm|YSize=0.36mm|CornerRadius=0.135mm|HoleSize=0mm|Usage=FLASHONLY|Rotation=0.000|XOffset=0mm|YOffset=0mm|HoleType=Round|Shape=RoundedRectangle|*
%AMROUNDEDRECTD129*
21,1,0.7400,0.0900,0,0,0.0*
21,1,0.4700,0.3600,0,0,0.0*
1,1,0.2700,0.2350,-0.0450*
1,1,0.2700,-0.2350,-0.0450*
1,1,0.2700,-0.2350,0.0450*
1,1,0.2700,0.2350,0.0450*
%
%ADD129ROUNDEDRECTD129*%
G04:AMPARAMS|DCode=130|XSize=1.5097mm|YSize=0.4556mm|CornerRadius=0.1389mm|HoleSize=0mm|Usage=FLASHONLY|Rotation=180.000|XOffset=0mm|YOffset=0mm|HoleType=Round|Shape=RoundedRectangle|*
%AMROUNDEDRECTD130*
21,1,1.5097,0.1778,0,0,180.0*
21,1,1.2319,0.4556,0,0,180.0*
1,1,0.2778,-0.6160,0.0889*
1,1,0.2778,0.6160,0.0889*
1,1,0.2778,0.6160,-0.0889*
1,1,0.2778,-0.6160,-0.0889*
%
%ADD130ROUNDEDRECTD130*%
%ADD131R,2.0574X1.4986*%
G04:AMPARAMS|DCode=132|XSize=0.65mm|YSize=0.7mm|CornerRadius=0.1875mm|HoleSize=0mm|Usage=FLASHONLY|Rotation=90.000|XOffset=0mm|YOffset=0mm|HoleType=Round|Shape=RoundedRectangle|*
%AMROUNDEDRECTD132*
21,1,0.6500,0.3250,0,0,90.0*
21,1,0.2750,0.7000,0,0,90.0*
1,1,0.3750,0.1625,0.1375*
1,1,0.3750,0.1625,-0.1375*
1,1,0.3750,-0.1625,-0.1375*
1,1,0.3750,-0.1625,0.1375*
%
%ADD132ROUNDEDRECTD132*%
G04:AMPARAMS|DCode=133|XSize=1.4032mm|YSize=1.5032mm|CornerRadius=0.3476mm|HoleSize=0mm|Usage=FLASHONLY|Rotation=180.000|XOffset=0mm|YOffset=0mm|HoleType=Round|Shape=RoundedRectangle|*
%AMROUNDEDRECTD133*
21,1,1.4032,0.8080,0,0,180.0*
21,1,0.7080,1.5032,0,0,180.0*
1,1,0.6952,-0.3540,0.4040*
1,1,0.6952,0.3540,0.4040*
1,1,0.6952,0.3540,-0.4040*
1,1,0.6952,-0.3540,-0.4040*
%
%ADD133ROUNDEDRECTD133*%
G04:AMPARAMS|DCode=134|XSize=1.4032mm|YSize=1.5032mm|CornerRadius=0.3476mm|HoleSize=0mm|Usage=FLASHONLY|Rotation=270.000|XOffset=0mm|YOffset=0mm|HoleType=Round|Shape=RoundedRectangle|*
%AMROUNDEDRECTD134*
21,1,1.4032,0.8080,0,0,270.0*
21,1,0.7080,1.5032,0,0,270.0*
1,1,0.6952,-0.4040,-0.3540*
1,1,0.6952,-0.4040,0.3540*
1,1,0.6952,0.4040,0.3540*
1,1,0.6952,0.4040,-0.3540*
%
%ADD134ROUNDEDRECTD134*%
G04:AMPARAMS|DCode=135|XSize=1.8432mm|YSize=0.7932mm|CornerRadius=0.2491mm|HoleSize=0mm|Usage=FLASHONLY|Rotation=180.000|XOffset=0mm|YOffset=0mm|HoleType=Round|Shape=RoundedRectangle|*
%AMROUNDEDRECTD135*
21,1,1.8432,0.2950,0,0,180.0*
21,1,1.3450,0.7932,0,0,180.0*
1,1,0.4982,-0.6725,0.1475*
1,1,0.4982,0.6725,0.1475*
1,1,0.4982,0.6725,-0.1475*
1,1,0.4982,-0.6725,-0.1475*
%
%ADD135ROUNDEDRECTD135*%
G04:AMPARAMS|DCode=136|XSize=1.5232mm|YSize=0.8032mm|CornerRadius=0.1766mm|HoleSize=0mm|Usage=FLASHONLY|Rotation=180.000|XOffset=0mm|YOffset=0mm|HoleType=Round|Shape=RoundedRectangle|*
%AMROUNDEDRECTD136*
21,1,1.5232,0.4500,0,0,180.0*
21,1,1.1700,0.8032,0,0,180.0*
1,1,0.3532,-0.5850,0.2250*
1,1,0.3532,0.5850,0.2250*
1,1,0.3532,0.5850,-0.2250*
1,1,0.3532,-0.5850,-0.2250*
%
%ADD136ROUNDEDRECTD136*%
%ADD137R,0.4532X0.8532*%
%ADD138R,3.1496X1.9558*%
%ADD139R,0.5318X1.4335*%
%ADD140C,0.8000*%
%ADD141R,0.6032X0.6032*%
%ADD142R,0.9000X0.6000*%
%ADD143R,1.2446X1.3970*%
%ADD144R,1.2446X1.2954*%
%ADD145R,4.2032X4.2032*%
G04:AMPARAMS|DCode=146|XSize=1.5232mm|YSize=0.8032mm|CornerRadius=0.1766mm|HoleSize=0mm|Usage=FLASHONLY|Rotation=90.000|XOffset=0mm|YOffset=0mm|HoleType=Round|Shape=RoundedRectangle|*
%AMROUNDEDRECTD146*
21,1,1.5232,0.4500,0,0,90.0*
21,1,1.1700,0.8032,0,0,90.0*
1,1,0.3532,0.2250,0.5850*
1,1,0.3532,0.2250,-0.5850*
1,1,0.3532,-0.2250,-0.5850*
1,1,0.3532,-0.2250,0.5850*
%
%ADD146ROUNDEDRECTD146*%
%ADD147R,1.1532X2.3532*%
G04:AMPARAMS|DCode=148|XSize=1.5097mm|YSize=0.4556mm|CornerRadius=0.1389mm|HoleSize=0mm|Usage=FLASHONLY|Rotation=90.000|XOffset=0mm|YOffset=0mm|HoleType=Round|Shape=RoundedRectangle|*
%AMROUNDEDRECTD148*
21,1,1.5097,0.1778,0,0,90.0*
21,1,1.2319,0.4556,0,0,90.0*
1,1,0.2778,0.0889,0.6160*
1,1,0.2778,0.0889,-0.6160*
1,1,0.2778,-0.0889,-0.6160*
1,1,0.2778,-0.0889,0.6160*
%
%ADD148ROUNDEDRECTD148*%
G04:AMPARAMS|DCode=149|XSize=0.5mm|YSize=0.95mm|CornerRadius=0.1625mm|HoleSize=0mm|Usage=FLASHONLY|Rotation=270.000|XOffset=0mm|YOffset=0mm|HoleType=Round|Shape=RoundedRectangle|*
%AMROUNDEDRECTD149*
21,1,0.5000,0.6250,0,0,270.0*
21,1,0.1750,0.9500,0,0,270.0*
1,1,0.3250,-0.3125,-0.0875*
1,1,0.3250,-0.3125,0.0875*
1,1,0.3250,0.3125,0.0875*
1,1,0.3250,0.3125,-0.0875*
%
%ADD149ROUNDEDRECTD149*%
%ADD150R,2.7500X2.7500*%
G04:AMPARAMS|DCode=151|XSize=0.91mm|YSize=0.34mm|CornerRadius=0.0491mm|HoleSize=0mm|Usage=FLASHONLY|Rotation=270.000|XOffset=0mm|YOffset=0mm|HoleType=Round|Shape=RoundedRectangle|*
%AMROUNDEDRECTD151*
21,1,0.9100,0.2418,0,0,270.0*
21,1,0.8118,0.3400,0,0,270.0*
1,1,0.0982,-0.1209,-0.4059*
1,1,0.0982,-0.1209,0.4059*
1,1,0.0982,0.1209,0.4059*
1,1,0.0982,0.1209,-0.4059*
%
%ADD151ROUNDEDRECTD151*%
%ADD152R,1.7800X1.7800*%
G04:AMPARAMS|DCode=153|XSize=0.38mm|YSize=0.78mm|CornerRadius=0.115mm|HoleSize=0mm|Usage=FLASHONLY|Rotation=180.000|XOffset=0mm|YOffset=0mm|HoleType=Round|Shape=RoundedRectangle|*
%AMROUNDEDRECTD153*
21,1,0.3800,0.5500,0,0,180.0*
21,1,0.1500,0.7800,0,0,180.0*
1,1,0.2300,-0.0750,0.2750*
1,1,0.2300,0.0750,0.2750*
1,1,0.2300,0.0750,-0.2750*
1,1,0.2300,-0.0750,-0.2750*
%
%ADD153ROUNDEDRECTD153*%
%ADD154R,3.8000X3.8000*%
G04:AMPARAMS|DCode=155|XSize=0.38mm|YSize=0.78mm|CornerRadius=0.115mm|HoleSize=0mm|Usage=FLASHONLY|Rotation=90.000|XOffset=0mm|YOffset=0mm|HoleType=Round|Shape=RoundedRectangle|*
%AMROUNDEDRECTD155*
21,1,0.3800,0.5500,0,0,90.0*
21,1,0.1500,0.7800,0,0,90.0*
1,1,0.2300,0.2750,0.0750*
1,1,0.2300,0.2750,-0.0750*
1,1,0.2300,-0.2750,-0.0750*
1,1,0.2300,-0.2750,0.0750*
%
%ADD155ROUNDEDRECTD155*%
%ADD156C,0.3500*%
G04:AMPARAMS|DCode=157|XSize=0.7032mm|YSize=0.9032mm|CornerRadius=0.2266mm|HoleSize=0mm|Usage=FLASHONLY|Rotation=90.000|XOffset=0mm|YOffset=0mm|HoleType=Round|Shape=RoundedRectangle|*
%AMROUNDEDRECTD157*
21,1,0.7032,0.4500,0,0,90.0*
21,1,0.2500,0.9032,0,0,90.0*
1,1,0.4532,0.2250,0.1250*
1,1,0.4532,0.2250,-0.1250*
1,1,0.4532,-0.2250,-0.1250*
1,1,0.4532,-0.2250,0.1250*
%
%ADD157ROUNDEDRECTD157*%
%ADD158R,0.7112X1.1938*%
%ADD159R,1.2446X2.5908*%
G04:AMPARAMS|DCode=160|XSize=0.8532mm|YSize=1.1032mm|CornerRadius=0.2641mm|HoleSize=0mm|Usage=FLASHONLY|Rotation=270.000|XOffset=0mm|YOffset=0mm|HoleType=Round|Shape=RoundedRectangle|*
%AMROUNDEDRECTD160*
21,1,0.8532,0.5750,0,0,270.0*
21,1,0.3250,1.1032,0,0,270.0*
1,1,0.5282,-0.2875,-0.1625*
1,1,0.5282,-0.2875,0.1625*
1,1,0.5282,0.2875,0.1625*
1,1,0.5282,0.2875,-0.1625*
%
%ADD160ROUNDEDRECTD160*%
G04:AMPARAMS|DCode=161|XSize=0.375mm|YSize=0.4mm|CornerRadius=0.1188mm|HoleSize=0mm|Usage=FLASHONLY|Rotation=0.000|XOffset=0mm|YOffset=0mm|HoleType=Round|Shape=RoundedRectangle|*
%AMROUNDEDRECTD161*
21,1,0.3750,0.1625,0,0,0.0*
21,1,0.1375,0.4000,0,0,0.0*
1,1,0.2375,0.0688,-0.0813*
1,1,0.2375,-0.0688,-0.0813*
1,1,0.2375,-0.0688,0.0813*
1,1,0.2375,0.0688,0.0813*
%
%ADD161ROUNDEDRECTD161*%
%ADD162R,0.9432X2.2032*%
G04:AMPARAMS|DCode=163|XSize=1.1532mm|YSize=1.0532mm|CornerRadius=0.3141mm|HoleSize=0mm|Usage=FLASHONLY|Rotation=0.000|XOffset=0mm|YOffset=0mm|HoleType=Round|Shape=RoundedRectangle|*
%AMROUNDEDRECTD163*
21,1,1.1532,0.4250,0,0,0.0*
21,1,0.5250,1.0532,0,0,0.0*
1,1,0.6282,0.2625,-0.2125*
1,1,0.6282,-0.2625,-0.2125*
1,1,0.6282,-0.2625,0.2125*
1,1,0.6282,0.2625,0.2125*
%
%ADD163ROUNDEDRECTD163*%
%ADD164R,3.4532X2.3532*%
G04:AMPARAMS|DCode=165|XSize=0.34mm|YSize=0.91mm|CornerRadius=0.0491mm|HoleSize=0mm|Usage=FLASHONLY|Rotation=270.000|XOffset=0mm|YOffset=0mm|HoleType=Round|Shape=RoundedRectangle|*
%AMROUNDEDRECTD165*
21,1,0.3400,0.8118,0,0,270.0*
21,1,0.2418,0.9100,0,0,270.0*
1,1,0.0982,-0.4059,-0.1209*
1,1,0.0982,-0.4059,0.1209*
1,1,0.0982,0.4059,0.1209*
1,1,0.0982,0.4059,-0.1209*
%
%ADD165ROUNDEDRECTD165*%
%ADD166R,2.5500X1.0500*%
G04:AMPARAMS|DCode=167|XSize=0.464mm|YSize=0.914mm|CornerRadius=0.1445mm|HoleSize=0mm|Usage=FLASHONLY|Rotation=180.000|XOffset=0mm|YOffset=0mm|HoleType=Round|Shape=RoundedRectangle|*
%AMROUNDEDRECTD167*
21,1,0.4640,0.6250,0,0,180.0*
21,1,0.1750,0.9140,0,0,180.0*
1,1,0.2890,-0.0875,0.3125*
1,1,0.2890,0.0875,0.3125*
1,1,0.2890,0.0875,-0.3125*
1,1,0.2890,-0.0875,-0.3125*
%
%ADD167ROUNDEDRECTD167*%
%ADD168R,0.7000X1.2000*%
%ADD169R,1.2000X0.7000*%
%ADD170R,1.0500X2.5500*%
%ADD171R,2.6032X0.5032*%
%ADD172R,0.5032X0.8532*%
%ADD173R,0.8532X0.4532*%
%ADD174R,3.1242X0.7620*%
%ADD175R,0.9144X0.9906*%
%ADD176R,1.2000X0.5500*%
%ADD177R,0.5500X1.2000*%
%ADD178R,1.2192X1.4732*%
%ADD179C,6.2032*%
%ADD180C,1.8032*%
%ADD181C,1.7332*%
%ADD182C,3.2482*%
%ADD183R,1.8032X1.8032*%
%ADD184R,1.7332X1.7332*%
G36*
X145557Y759267D02*
X145590D01*
X145623Y759263D01*
X145657Y759261D01*
X145689Y759254D01*
X145723Y759250D01*
X146133Y759168D01*
X146165Y759159D01*
X146198Y759153D01*
X146229Y759142D01*
X146262Y759134D01*
X146292Y759121D01*
X146324Y759110D01*
X146711Y758950D01*
X146741Y758935D01*
X146771Y758923D01*
X146800Y758906D01*
X146830Y758891D01*
X146858Y758873D01*
X146887Y758856D01*
X147235Y758623D01*
X147261Y758603D01*
X147289Y758585D01*
X147314Y758563D01*
X147340Y758542D01*
X147364Y758519D01*
X147389Y758497D01*
X147685Y758201D01*
X147707Y758176D01*
X147731Y758152D01*
X147751Y758126D01*
X147773Y758101D01*
X147791Y758073D01*
X147812Y758046D01*
X148044Y757698D01*
X148061Y757670D01*
X148080Y757642D01*
X148094Y757612D01*
X148111Y757583D01*
X148124Y757552D01*
X148138Y757522D01*
X148299Y757136D01*
X148309Y757104D01*
X148322Y757073D01*
X148331Y757041D01*
X148341Y757010D01*
X148348Y756977D01*
X148356Y756945D01*
X148438Y756534D01*
X148442Y756501D01*
X148449Y756468D01*
X148451Y756435D01*
X148455Y756402D01*
Y756369D01*
X148458Y756336D01*
Y756126D01*
Y745383D01*
X148449Y745250D01*
X148423Y745120D01*
X148380Y744994D01*
X148321Y744874D01*
X148247Y744763D01*
X148160Y744663D01*
X148059Y744576D01*
X147949Y744502D01*
X147829Y744443D01*
X147703Y744400D01*
X147572Y744374D01*
X147446Y744366D01*
X148157Y743660D01*
X148158Y743659D01*
X148160Y743657D01*
X148203Y743608D01*
X148245Y743560D01*
X148246Y743559D01*
X148247Y743557D01*
X148283Y743504D01*
X148319Y743450D01*
X148320Y743448D01*
X148321Y743447D01*
X148350Y743389D01*
X148379Y743331D01*
X148379Y743329D01*
X148380Y743327D01*
X148401Y743266D01*
X148422Y743205D01*
X148422Y743203D01*
X148423Y743201D01*
X148436Y743135D01*
X148448Y743074D01*
X148449Y743072D01*
X148449Y743070D01*
X148454Y743001D01*
X148458Y742941D01*
X148458Y742940D01*
X148458Y742937D01*
Y736506D01*
Y736297D01*
X148455Y736264D01*
Y736230D01*
X148451Y736197D01*
X148449Y736164D01*
X148442Y736131D01*
X148438Y736098D01*
X148356Y735688D01*
X148348Y735656D01*
X148341Y735623D01*
X148331Y735591D01*
X148322Y735559D01*
X148309Y735528D01*
X148299Y735497D01*
X148138Y735110D01*
X148124Y735080D01*
X148111Y735049D01*
X148094Y735020D01*
X148080Y734991D01*
X148061Y734963D01*
X148044Y734934D01*
X147812Y734586D01*
X147791Y734559D01*
X147773Y734532D01*
X147751Y734507D01*
X147731Y734480D01*
X147707Y734457D01*
X147685Y734432D01*
X147389Y734136D01*
X147364Y734114D01*
X147340Y734090D01*
X147314Y734070D01*
X147289Y734048D01*
X147261Y734029D01*
X147235Y734009D01*
X146887Y733776D01*
X146858Y733760D01*
X146830Y733741D01*
X146800Y733727D01*
X146771Y733710D01*
X146741Y733697D01*
X146711Y733682D01*
X146324Y733522D01*
X146292Y733512D01*
X146262Y733499D01*
X146229Y733490D01*
X146198Y733479D01*
X146165Y733473D01*
X146133Y733464D01*
X145723Y733383D01*
X145689Y733378D01*
X145657Y733372D01*
X145623Y733370D01*
X145590Y733365D01*
X145557D01*
X145524Y733363D01*
X139855D01*
X139822Y733365D01*
X139789D01*
X139756Y733370D01*
X139722Y733372D01*
X139690Y733378D01*
X139657Y733383D01*
X139246Y733464D01*
X139214Y733473D01*
X139181Y733479D01*
X139150Y733490D01*
X139117Y733499D01*
X139087Y733512D01*
X139055Y733522D01*
X138668Y733682D01*
X138639Y733697D01*
X138608Y733710D01*
X138579Y733727D01*
X138549Y733741D01*
X138521Y733760D01*
X138492Y733776D01*
X138144Y734009D01*
X138118Y734029D01*
X138090Y734048D01*
X138065Y734070D01*
X138039Y734090D01*
X138015Y734114D01*
X137990Y734136D01*
X137694Y734432D01*
X137672Y734457D01*
X137648Y734480D01*
X137628Y734507D01*
X137606Y734532D01*
X137588Y734559D01*
X137567Y734586D01*
X137335Y734934D01*
X137318Y734963D01*
X137300Y734991D01*
X137285Y735020D01*
X137268Y735049D01*
X137255Y735080D01*
X137241Y735110D01*
X137080Y735497D01*
X137070Y735528D01*
X137057Y735559D01*
X137049Y735591D01*
X137038Y735623D01*
X137031Y735656D01*
X137023Y735688D01*
X136941Y736098D01*
X136937Y736131D01*
X136930Y736164D01*
X136928Y736197D01*
X136924Y736230D01*
Y736264D01*
X136921Y736297D01*
Y736506D01*
Y736506D01*
Y742937D01*
X136922Y742939D01*
X136921Y742941D01*
X136926Y743008D01*
X136930Y743070D01*
X136930Y743072D01*
X136931Y743074D01*
X136944Y743138D01*
X136956Y743201D01*
X136957Y743203D01*
X136957Y743205D01*
X136978Y743266D01*
X136999Y743327D01*
X137000Y743329D01*
X137000Y743331D01*
X137030Y743391D01*
X137058Y743447D01*
X137059Y743448D01*
X137060Y743450D01*
X137097Y743505D01*
X137132Y743557D01*
X137133Y743559D01*
X137134Y743560D01*
X137178Y743610D01*
X137220Y743657D01*
X137221Y743659D01*
X137222Y743660D01*
X137982Y744414D01*
X137940Y744411D01*
X137807Y744420D01*
X137676Y744446D01*
X137550Y744489D01*
X137430Y744548D01*
X137320Y744622D01*
X137219Y744709D01*
X137132Y744809D01*
X137058Y744920D01*
X136999Y745040D01*
X136956Y745166D01*
X136930Y745296D01*
X136921Y745429D01*
X136921Y756126D01*
Y756336D01*
X136924Y756369D01*
Y756402D01*
X136928Y756435D01*
X136930Y756468D01*
X136937Y756501D01*
X136941Y756534D01*
X137023Y756945D01*
X137031Y756977D01*
X137038Y757010D01*
X137048Y757041D01*
X137057Y757073D01*
X137070Y757104D01*
X137080Y757136D01*
X137241Y757522D01*
X137255Y757552D01*
X137268Y757583D01*
X137285Y757612D01*
X137300Y757642D01*
X137318Y757670D01*
X137335Y757698D01*
X137567Y758046D01*
X137588Y758073D01*
X137606Y758101D01*
X137628Y758126D01*
X137648Y758152D01*
X137672Y758176D01*
X137694Y758201D01*
X137990Y758497D01*
X138015Y758519D01*
X138039Y758542D01*
X138065Y758562D01*
X138090Y758585D01*
X138118Y758603D01*
X138144Y758623D01*
X138492Y758856D01*
X138521Y758873D01*
X138549Y758891D01*
X138579Y758906D01*
X138608Y758923D01*
X138638Y758935D01*
X138668Y758950D01*
X139055Y759110D01*
X139087Y759121D01*
X139117Y759134D01*
X139150Y759142D01*
X139181Y759153D01*
X139214Y759159D01*
X139246Y759168D01*
X139657Y759250D01*
X139690Y759254D01*
X139722Y759261D01*
X139756Y759263D01*
X139789Y759267D01*
X139822D01*
X139855Y759269D01*
X145524D01*
X145557Y759267D01*
D02*
G37*
G36*
X243640Y758767D02*
X243674D01*
X243707Y758763D01*
X243740Y758760D01*
X243773Y758754D01*
X243806Y758750D01*
X244216Y758668D01*
X244249Y758659D01*
X244281Y758653D01*
X244313Y758642D01*
X244345Y758633D01*
X244376Y758621D01*
X244407Y758610D01*
X244794Y758450D01*
X244824Y758435D01*
X244855Y758422D01*
X244884Y758406D01*
X244914Y758391D01*
X244941Y758372D01*
X244970Y758356D01*
X245318Y758123D01*
X245345Y758103D01*
X245372Y758084D01*
X245397Y758062D01*
X245424Y758042D01*
X245447Y758018D01*
X245472Y757997D01*
X245768Y757701D01*
X245790Y757675D01*
X245814Y757652D01*
X245834Y757626D01*
X245856Y757600D01*
X245875Y757573D01*
X245895Y757546D01*
X246128Y757198D01*
X246144Y757169D01*
X246163Y757142D01*
X246178Y757112D01*
X246194Y757083D01*
X246207Y757052D01*
X246222Y757022D01*
X246382Y756635D01*
X246393Y756604D01*
X246405Y756573D01*
X246414Y756541D01*
X246425Y756509D01*
X246431Y756477D01*
X246440Y756444D01*
X246521Y756034D01*
X246526Y756001D01*
X246532Y755968D01*
X246535Y755935D01*
X246539Y755902D01*
Y755869D01*
X246541Y755835D01*
Y755626D01*
Y744883D01*
X246532Y744750D01*
X246506Y744620D01*
X246464Y744493D01*
X246405Y744374D01*
X246331Y744263D01*
X246243Y744163D01*
X246143Y744075D01*
X246032Y744001D01*
X245912Y743942D01*
X245786Y743900D01*
X245656Y743874D01*
X245529Y743865D01*
X246240Y743160D01*
X246241Y743158D01*
X246243Y743157D01*
X246286Y743108D01*
X246328Y743060D01*
X246329Y743058D01*
X246331Y743057D01*
X246366Y743003D01*
X246403Y742950D01*
X246404Y742948D01*
X246405Y742946D01*
X246433Y742889D01*
X246462Y742830D01*
X246463Y742829D01*
X246464Y742827D01*
X246484Y742766D01*
X246505Y742704D01*
X246506Y742702D01*
X246506Y742701D01*
X246519Y742635D01*
X246532Y742574D01*
X246532Y742572D01*
X246532Y742570D01*
X246537Y742501D01*
X246541Y742441D01*
X246541Y742439D01*
X246541Y742437D01*
Y736006D01*
Y735797D01*
X246539Y735763D01*
Y735730D01*
X246535Y735697D01*
X246532Y735664D01*
X246526Y735631D01*
X246521Y735598D01*
X246440Y735188D01*
X246431Y735155D01*
X246425Y735123D01*
X246414Y735091D01*
X246405Y735059D01*
X246392Y735028D01*
X246382Y734996D01*
X246222Y734610D01*
X246207Y734580D01*
X246194Y734549D01*
X246178Y734520D01*
X246163Y734490D01*
X246144Y734463D01*
X246128Y734434D01*
X245895Y734086D01*
X245875Y734059D01*
X245856Y734032D01*
X245834Y734007D01*
X245814Y733980D01*
X245790Y733956D01*
X245768Y733931D01*
X245472Y733635D01*
X245447Y733613D01*
X245424Y733590D01*
X245397Y733570D01*
X245372Y733548D01*
X245345Y733529D01*
X245318Y733509D01*
X244970Y733276D01*
X244941Y733260D01*
X244914Y733241D01*
X244884Y733226D01*
X244855Y733210D01*
X244824Y733197D01*
X244794Y733182D01*
X244407Y733022D01*
X244376Y733011D01*
X244345Y732999D01*
X244313Y732990D01*
X244281Y732979D01*
X244248Y732973D01*
X244216Y732964D01*
X243806Y732882D01*
X243773Y732878D01*
X243740Y732871D01*
X243707Y732869D01*
X243674Y732865D01*
X243640D01*
X243607Y732863D01*
X237939D01*
X237905Y732865D01*
X237872D01*
X237839Y732869D01*
X237806Y732871D01*
X237773Y732878D01*
X237740Y732882D01*
X237329Y732964D01*
X237297Y732973D01*
X237264Y732979D01*
X237233Y732990D01*
X237201Y732999D01*
X237170Y733011D01*
X237138Y733022D01*
X236752Y733182D01*
X236722Y733197D01*
X236691Y733210D01*
X236662Y733226D01*
X236632Y733241D01*
X236604Y733260D01*
X236576Y733276D01*
X236228Y733509D01*
X236201Y733529D01*
X236173Y733548D01*
X236148Y733569D01*
X236122Y733590D01*
X236098Y733614D01*
X236073Y733635D01*
X235777Y733931D01*
X235755Y733957D01*
X235732Y733980D01*
X235711Y734006D01*
X235690Y734032D01*
X235671Y734059D01*
X235651Y734086D01*
X235418Y734434D01*
X235401Y734463D01*
X235383Y734490D01*
X235368Y734520D01*
X235352Y734549D01*
X235339Y734580D01*
X235324Y734610D01*
X235164Y734996D01*
X235153Y735028D01*
X235140Y735059D01*
X235132Y735091D01*
X235121Y735123D01*
X235114Y735155D01*
X235106Y735188D01*
X235024Y735598D01*
X235020Y735631D01*
X235013Y735664D01*
X235011Y735697D01*
X235007Y735730D01*
Y735763D01*
X235005Y735797D01*
Y736006D01*
Y736006D01*
Y742437D01*
X235005Y742439D01*
X235005Y742441D01*
X235009Y742507D01*
X235013Y742570D01*
X235014Y742572D01*
X235014Y742574D01*
X235027Y742638D01*
X235039Y742701D01*
X235040Y742702D01*
X235040Y742704D01*
X235061Y742766D01*
X235082Y742827D01*
X235083Y742829D01*
X235084Y742830D01*
X235114Y742890D01*
X235141Y742946D01*
X235142Y742948D01*
X235143Y742950D01*
X235180Y743005D01*
X235215Y743057D01*
X235216Y743058D01*
X235217Y743060D01*
X235261Y743110D01*
X235303Y743157D01*
X235304Y743158D01*
X235306Y743160D01*
X236065Y743914D01*
X236023Y743911D01*
X235890Y743920D01*
X235759Y743946D01*
X235633Y743988D01*
X235514Y744047D01*
X235403Y744121D01*
X235303Y744209D01*
X235215Y744309D01*
X235141Y744420D01*
X235082Y744539D01*
X235039Y744666D01*
X235013Y744796D01*
X235005Y744929D01*
X235005Y755626D01*
Y755835D01*
X235007Y755869D01*
Y755902D01*
X235011Y755935D01*
X235013Y755968D01*
X235020Y756001D01*
X235024Y756034D01*
X235106Y756444D01*
X235114Y756477D01*
X235121Y756509D01*
X235132Y756541D01*
X235140Y756573D01*
X235153Y756604D01*
X235164Y756635D01*
X235324Y757022D01*
X235339Y757052D01*
X235352Y757083D01*
X235368Y757112D01*
X235383Y757142D01*
X235401Y757169D01*
X235418Y757198D01*
X235651Y757546D01*
X235671Y757573D01*
X235690Y757600D01*
X235711Y757625D01*
X235732Y757652D01*
X235755Y757675D01*
X235777Y757701D01*
X236073Y757997D01*
X236098Y758018D01*
X236122Y758042D01*
X236148Y758062D01*
X236173Y758084D01*
X236201Y758103D01*
X236228Y758123D01*
X236576Y758356D01*
X236604Y758372D01*
X236632Y758391D01*
X236662Y758406D01*
X236691Y758422D01*
X236722Y758435D01*
X236752Y758450D01*
X237138Y758610D01*
X237170Y758621D01*
X237201Y758633D01*
X237233Y758642D01*
X237264Y758653D01*
X237297Y758659D01*
X237329Y758668D01*
X237740Y758750D01*
X237773Y758754D01*
X237806Y758760D01*
X237839Y758763D01*
X237872Y758767D01*
X237905D01*
X237939Y758769D01*
X243607D01*
X243640Y758767D01*
D02*
G37*
G36*
X243790Y676798D02*
X243823D01*
X243856Y676794D01*
X243889Y676792D01*
X243922Y676785D01*
X243955Y676781D01*
X244366Y676699D01*
X244398Y676691D01*
X244431Y676684D01*
X244462Y676673D01*
X244494Y676665D01*
X244525Y676652D01*
X244557Y676641D01*
X244943Y676481D01*
X244973Y676466D01*
X245004Y676453D01*
X245033Y676437D01*
X245063Y676422D01*
X245091Y676404D01*
X245119Y676387D01*
X245467Y676154D01*
X245494Y676134D01*
X245522Y676116D01*
X245547Y676094D01*
X245573Y676073D01*
X245597Y676050D01*
X245622Y676028D01*
X245918Y675732D01*
X245940Y675707D01*
X245963Y675683D01*
X245984Y675657D01*
X246006Y675632D01*
X246024Y675604D01*
X246044Y675577D01*
X246277Y675229D01*
X246294Y675201D01*
X246312Y675173D01*
X246327Y675143D01*
X246343Y675114D01*
X246356Y675083D01*
X246371Y675053D01*
X246531Y674667D01*
X246542Y674635D01*
X246555Y674604D01*
X246563Y674572D01*
X246574Y674541D01*
X246581Y674508D01*
X246589Y674476D01*
X246671Y674065D01*
X246675Y674032D01*
X246682Y673999D01*
X246684Y673966D01*
X246688Y673933D01*
Y673900D01*
X246690Y673867D01*
Y673657D01*
Y662914D01*
X246682Y662782D01*
X246656Y662651D01*
X246613Y662525D01*
X246554Y662405D01*
X246480Y662294D01*
X246392Y662194D01*
X246292Y662107D01*
X246181Y662033D01*
X246062Y661974D01*
X245936Y661931D01*
X245805Y661905D01*
X245679Y661897D01*
X246389Y661191D01*
X246391Y661190D01*
X246392Y661188D01*
X246436Y661139D01*
X246478Y661091D01*
X246479Y661090D01*
X246480Y661088D01*
X246516Y661035D01*
X246552Y660981D01*
X246553Y660979D01*
X246554Y660977D01*
X246582Y660920D01*
X246611Y660862D01*
X246612Y660860D01*
X246613Y660858D01*
X246634Y660797D01*
X246655Y660736D01*
X246655Y660734D01*
X246656Y660732D01*
X246669Y660666D01*
X246681Y660605D01*
X246681Y660603D01*
X246682Y660601D01*
X246686Y660532D01*
X246690Y660472D01*
X246690Y660471D01*
X246690Y660468D01*
Y654037D01*
Y653828D01*
X246688Y653795D01*
Y653761D01*
X246684Y653728D01*
X246682Y653695D01*
X246675Y653662D01*
X246671Y653629D01*
X246589Y653219D01*
X246581Y653187D01*
X246574Y653154D01*
X246563Y653122D01*
X246555Y653090D01*
X246542Y653059D01*
X246531Y653028D01*
X246371Y652641D01*
X246356Y652611D01*
X246343Y652580D01*
X246327Y652551D01*
X246312Y652522D01*
X246294Y652494D01*
X246277Y652465D01*
X246044Y652117D01*
X246024Y652090D01*
X246006Y652063D01*
X245984Y652038D01*
X245963Y652011D01*
X245940Y651988D01*
X245918Y651963D01*
X245622Y651667D01*
X245597Y651645D01*
X245573Y651621D01*
X245547Y651601D01*
X245522Y651579D01*
X245494Y651560D01*
X245467Y651540D01*
X245119Y651308D01*
X245091Y651291D01*
X245063Y651272D01*
X245033Y651258D01*
X245004Y651241D01*
X244973Y651228D01*
X244943Y651213D01*
X244557Y651053D01*
X244525Y651042D01*
X244494Y651030D01*
X244462Y651021D01*
X244431Y651010D01*
X244398Y651004D01*
X244366Y650995D01*
X243955Y650914D01*
X243922Y650909D01*
X243889Y650903D01*
X243856Y650901D01*
X243823Y650896D01*
X243790D01*
X243757Y650894D01*
X238088D01*
X238055Y650896D01*
X238021D01*
X237988Y650901D01*
X237955Y650903D01*
X237922Y650909D01*
X237889Y650914D01*
X237479Y650995D01*
X237446Y651004D01*
X237414Y651010D01*
X237382Y651021D01*
X237350Y651030D01*
X237319Y651042D01*
X237288Y651053D01*
X236901Y651213D01*
X236871Y651228D01*
X236840Y651241D01*
X236811Y651258D01*
X236782Y651272D01*
X236754Y651291D01*
X236725Y651308D01*
X236377Y651540D01*
X236350Y651560D01*
X236323Y651579D01*
X236298Y651601D01*
X236271Y651621D01*
X236248Y651645D01*
X236223Y651667D01*
X235927Y651963D01*
X235905Y651988D01*
X235881Y652011D01*
X235861Y652038D01*
X235839Y652063D01*
X235820Y652091D01*
X235800Y652117D01*
X235567Y652465D01*
X235551Y652494D01*
X235532Y652522D01*
X235518Y652551D01*
X235501Y652580D01*
X235488Y652611D01*
X235473Y652641D01*
X235313Y653028D01*
X235303Y653059D01*
X235290Y653090D01*
X235281Y653122D01*
X235270Y653154D01*
X235264Y653187D01*
X235255Y653219D01*
X235174Y653629D01*
X235169Y653662D01*
X235163Y653695D01*
X235161Y653728D01*
X235156Y653761D01*
Y653795D01*
X235154Y653828D01*
Y654037D01*
Y654037D01*
Y660468D01*
X235154Y660470D01*
X235154Y660472D01*
X235159Y660539D01*
X235163Y660601D01*
X235163Y660603D01*
X235163Y660605D01*
X235176Y660669D01*
X235189Y660732D01*
X235189Y660734D01*
X235190Y660736D01*
X235211Y660797D01*
X235231Y660858D01*
X235232Y660860D01*
X235233Y660862D01*
X235263Y660922D01*
X235290Y660977D01*
X235292Y660979D01*
X235292Y660981D01*
X235330Y661036D01*
X235364Y661088D01*
X235366Y661090D01*
X235367Y661091D01*
X235411Y661141D01*
X235452Y661188D01*
X235454Y661190D01*
X235455Y661191D01*
X236215Y661945D01*
X236172Y661942D01*
X236039Y661951D01*
X235909Y661977D01*
X235783Y662020D01*
X235663Y662079D01*
X235552Y662152D01*
X235452Y662240D01*
X235364Y662340D01*
X235290Y662451D01*
X235231Y662571D01*
X235189Y662697D01*
X235163Y662827D01*
X235154Y662960D01*
X235154Y673657D01*
Y673867D01*
X235156Y673900D01*
Y673933D01*
X235161Y673966D01*
X235163Y673999D01*
X235169Y674032D01*
X235174Y674065D01*
X235255Y674476D01*
X235264Y674508D01*
X235270Y674540D01*
X235281Y674572D01*
X235290Y674604D01*
X235303Y674635D01*
X235313Y674667D01*
X235473Y675053D01*
X235488Y675083D01*
X235501Y675114D01*
X235518Y675143D01*
X235532Y675173D01*
X235551Y675201D01*
X235567Y675229D01*
X235800Y675577D01*
X235820Y675604D01*
X235839Y675632D01*
X235861Y675657D01*
X235881Y675683D01*
X235905Y675707D01*
X235927Y675732D01*
X236223Y676028D01*
X236248Y676050D01*
X236271Y676073D01*
X236298Y676094D01*
X236323Y676116D01*
X236350Y676134D01*
X236377Y676154D01*
X236725Y676387D01*
X236754Y676404D01*
X236782Y676422D01*
X236811Y676437D01*
X236840Y676453D01*
X236871Y676466D01*
X236901Y676481D01*
X237288Y676641D01*
X237319Y676652D01*
X237350Y676665D01*
X237382Y676673D01*
X237414Y676684D01*
X237447Y676691D01*
X237479Y676699D01*
X237889Y676781D01*
X237922Y676785D01*
X237955Y676792D01*
X237988Y676794D01*
X238021Y676798D01*
X238055D01*
X238088Y676800D01*
X243757D01*
X243790Y676798D01*
D02*
G37*
G36*
X145757Y676789D02*
X145790D01*
X145823Y676785D01*
X145857Y676782D01*
X145889Y676776D01*
X145922Y676771D01*
X146333Y676690D01*
X146365Y676681D01*
X146398Y676675D01*
X146429Y676664D01*
X146461Y676655D01*
X146492Y676643D01*
X146524Y676632D01*
X146910Y676472D01*
X146940Y676457D01*
X146971Y676444D01*
X147000Y676428D01*
X147030Y676413D01*
X147058Y676394D01*
X147087Y676378D01*
X147435Y676145D01*
X147461Y676125D01*
X147489Y676106D01*
X147514Y676084D01*
X147540Y676064D01*
X147564Y676040D01*
X147589Y676018D01*
X147885Y675722D01*
X147907Y675697D01*
X147930Y675674D01*
X147951Y675647D01*
X147973Y675622D01*
X147991Y675595D01*
X148012Y675568D01*
X148244Y675220D01*
X148261Y675191D01*
X148279Y675163D01*
X148294Y675134D01*
X148311Y675105D01*
X148323Y675074D01*
X148338Y675044D01*
X148498Y674657D01*
X148509Y674626D01*
X148522Y674595D01*
X148530Y674563D01*
X148541Y674531D01*
X148548Y674499D01*
X148556Y674466D01*
X148638Y674056D01*
X148642Y674023D01*
X148649Y673990D01*
X148651Y673957D01*
X148655Y673924D01*
Y673891D01*
X148658Y673857D01*
Y673648D01*
Y662905D01*
X148649Y662772D01*
X148623Y662642D01*
X148580Y662515D01*
X148521Y662396D01*
X148447Y662285D01*
X148359Y662185D01*
X148259Y662097D01*
X148148Y662023D01*
X148029Y661964D01*
X147903Y661921D01*
X147772Y661896D01*
X147646Y661887D01*
X148357Y661182D01*
X148358Y661180D01*
X148359Y661179D01*
X148403Y661130D01*
X148445Y661082D01*
X148446Y661080D01*
X148447Y661079D01*
X148483Y661025D01*
X148519Y660972D01*
X148520Y660970D01*
X148521Y660968D01*
X148549Y660911D01*
X148579Y660852D01*
X148579Y660850D01*
X148580Y660849D01*
X148601Y660788D01*
X148622Y660726D01*
X148622Y660724D01*
X148623Y660723D01*
X148636Y660657D01*
X148648Y660596D01*
X148648Y660594D01*
X148649Y660592D01*
X148653Y660523D01*
X148658Y660463D01*
X148657Y660461D01*
X148658Y660459D01*
Y654028D01*
Y653819D01*
X148655Y653785D01*
Y653752D01*
X148651Y653719D01*
X148649Y653686D01*
X148642Y653653D01*
X148638Y653620D01*
X148556Y653209D01*
X148548Y653177D01*
X148541Y653145D01*
X148531Y653113D01*
X148522Y653081D01*
X148509Y653050D01*
X148498Y653018D01*
X148338Y652632D01*
X148323Y652602D01*
X148311Y652571D01*
X148294Y652542D01*
X148279Y652512D01*
X148261Y652485D01*
X148244Y652456D01*
X148012Y652108D01*
X147991Y652081D01*
X147973Y652054D01*
X147951Y652029D01*
X147930Y652002D01*
X147907Y651978D01*
X147885Y651953D01*
X147589Y651657D01*
X147564Y651635D01*
X147540Y651612D01*
X147514Y651592D01*
X147489Y651570D01*
X147461Y651551D01*
X147435Y651531D01*
X147087Y651298D01*
X147058Y651282D01*
X147030Y651263D01*
X147000Y651248D01*
X146971Y651232D01*
X146940Y651219D01*
X146910Y651204D01*
X146524Y651044D01*
X146492Y651033D01*
X146461Y651020D01*
X146429Y651012D01*
X146398Y651001D01*
X146365Y650995D01*
X146333Y650986D01*
X145922Y650904D01*
X145889Y650900D01*
X145857Y650893D01*
X145823Y650891D01*
X145790Y650887D01*
X145757D01*
X145724Y650885D01*
X140055D01*
X140022Y650887D01*
X139988D01*
X139955Y650891D01*
X139922Y650893D01*
X139889Y650900D01*
X139856Y650904D01*
X139446Y650986D01*
X139414Y650995D01*
X139381Y651001D01*
X139349Y651012D01*
X139317Y651020D01*
X139286Y651033D01*
X139255Y651044D01*
X138868Y651204D01*
X138838Y651219D01*
X138807Y651232D01*
X138779Y651248D01*
X138749Y651263D01*
X138721Y651282D01*
X138692Y651298D01*
X138344Y651531D01*
X138317Y651551D01*
X138290Y651570D01*
X138265Y651591D01*
X138238Y651612D01*
X138215Y651636D01*
X138190Y651657D01*
X137894Y651953D01*
X137872Y651979D01*
X137848Y652002D01*
X137828Y652028D01*
X137806Y652054D01*
X137788Y652081D01*
X137767Y652108D01*
X137535Y652456D01*
X137518Y652485D01*
X137499Y652512D01*
X137485Y652542D01*
X137468Y652571D01*
X137455Y652602D01*
X137441Y652632D01*
X137280Y653018D01*
X137270Y653050D01*
X137257Y653081D01*
X137248Y653113D01*
X137238Y653145D01*
X137231Y653177D01*
X137222Y653209D01*
X137141Y653620D01*
X137136Y653653D01*
X137130Y653686D01*
X137128Y653719D01*
X137123Y653752D01*
Y653785D01*
X137121Y653819D01*
Y654028D01*
Y654028D01*
Y660459D01*
X137121Y660461D01*
X137121Y660463D01*
X137126Y660529D01*
X137130Y660592D01*
X137130Y660594D01*
X137130Y660596D01*
X137143Y660660D01*
X137156Y660723D01*
X137156Y660724D01*
X137157Y660726D01*
X137178Y660788D01*
X137199Y660849D01*
X137199Y660850D01*
X137200Y660852D01*
X137230Y660912D01*
X137258Y660968D01*
X137259Y660970D01*
X137260Y660972D01*
X137297Y661027D01*
X137332Y661079D01*
X137333Y661080D01*
X137334Y661082D01*
X137378Y661132D01*
X137419Y661179D01*
X137421Y661180D01*
X137422Y661182D01*
X138182Y661936D01*
X138139Y661933D01*
X138006Y661942D01*
X137876Y661967D01*
X137750Y662010D01*
X137630Y662069D01*
X137520Y662143D01*
X137419Y662231D01*
X137332Y662331D01*
X137258Y662442D01*
X137199Y662561D01*
X137156Y662688D01*
X137130Y662818D01*
X137121Y662951D01*
X137121Y673648D01*
Y673857D01*
X137123Y673891D01*
Y673924D01*
X137128Y673957D01*
X137130Y673990D01*
X137136Y674023D01*
X137141Y674056D01*
X137222Y674466D01*
X137231Y674499D01*
X137238Y674531D01*
X137248Y674563D01*
X137257Y674595D01*
X137270Y674626D01*
X137280Y674657D01*
X137441Y675044D01*
X137455Y675074D01*
X137468Y675105D01*
X137485Y675134D01*
X137499Y675163D01*
X137518Y675191D01*
X137535Y675220D01*
X137767Y675568D01*
X137788Y675595D01*
X137806Y675622D01*
X137828Y675647D01*
X137848Y675674D01*
X137872Y675697D01*
X137894Y675722D01*
X138190Y676018D01*
X138215Y676040D01*
X138238Y676064D01*
X138265Y676084D01*
X138290Y676106D01*
X138318Y676125D01*
X138344Y676145D01*
X138692Y676378D01*
X138721Y676394D01*
X138749Y676413D01*
X138779Y676428D01*
X138807Y676444D01*
X138838Y676457D01*
X138868Y676472D01*
X139255Y676632D01*
X139286Y676643D01*
X139317Y676655D01*
X139349Y676664D01*
X139381Y676675D01*
X139414Y676681D01*
X139446Y676690D01*
X139856Y676771D01*
X139889Y676776D01*
X139922Y676782D01*
X139955Y676785D01*
X139988Y676789D01*
X140022D01*
X140055Y676791D01*
X145724D01*
X145757Y676789D01*
D02*
G37*
G36*
X806745Y338768D02*
X806954D01*
X806988Y338766D01*
X807021D01*
X807054Y338762D01*
X807087Y338759D01*
X807120Y338753D01*
X807153Y338749D01*
X807563Y338667D01*
X807596Y338658D01*
X807628Y338652D01*
X807660Y338641D01*
X807692Y338632D01*
X807723Y338620D01*
X807754Y338609D01*
X808141Y338449D01*
X808171Y338434D01*
X808202Y338421D01*
X808231Y338405D01*
X808261Y338390D01*
X808288Y338371D01*
X808317Y338355D01*
X808665Y338122D01*
X808692Y338102D01*
X808719Y338083D01*
X808744Y338061D01*
X808771Y338041D01*
X808795Y338017D01*
X808820Y337995D01*
X809116Y337700D01*
X809138Y337674D01*
X809161Y337651D01*
X809181Y337625D01*
X809203Y337599D01*
X809222Y337572D01*
X809242Y337545D01*
X809475Y337197D01*
X809491Y337168D01*
X809510Y337141D01*
X809525Y337111D01*
X809541Y337082D01*
X809554Y337051D01*
X809569Y337021D01*
X809729Y336634D01*
X809740Y336603D01*
X809753Y336572D01*
X809761Y336540D01*
X809772Y336508D01*
X809778Y336476D01*
X809787Y336443D01*
X809869Y336033D01*
X809873Y336000D01*
X809880Y335967D01*
X809882Y335934D01*
X809886Y335901D01*
Y335868D01*
X809888Y335834D01*
Y335625D01*
Y330375D01*
Y330166D01*
X809886Y330132D01*
Y330099D01*
X809882Y330066D01*
X809880Y330033D01*
X809873Y330000D01*
X809869Y329967D01*
X809787Y329557D01*
X809778Y329524D01*
X809772Y329492D01*
X809761Y329460D01*
X809753Y329428D01*
X809740Y329397D01*
X809729Y329366D01*
X809569Y328979D01*
X809554Y328949D01*
X809541Y328918D01*
X809525Y328889D01*
X809510Y328859D01*
X809491Y328832D01*
X809475Y328803D01*
X809242Y328455D01*
X809222Y328428D01*
X809203Y328401D01*
X809182Y328376D01*
X809161Y328349D01*
X809137Y328325D01*
X809116Y328300D01*
X808820Y328004D01*
X808794Y327982D01*
X808771Y327959D01*
X808745Y327939D01*
X808719Y327917D01*
X808692Y327898D01*
X808665Y327878D01*
X808317Y327645D01*
X808288Y327629D01*
X808261Y327610D01*
X808231Y327595D01*
X808202Y327579D01*
X808171Y327566D01*
X808141Y327551D01*
X807755Y327391D01*
X807723Y327380D01*
X807692Y327368D01*
X807660Y327359D01*
X807628Y327348D01*
X807596Y327342D01*
X807563Y327333D01*
X807153Y327251D01*
X807120Y327247D01*
X807087Y327240D01*
X807054Y327238D01*
X807021Y327234D01*
X806988D01*
X806954Y327232D01*
X796002D01*
X795869Y327240D01*
X795739Y327267D01*
X795612Y327309D01*
X795493Y327368D01*
X795382Y327442D01*
X795282Y327530D01*
X795194Y327630D01*
X795120Y327741D01*
X795061Y327860D01*
X795019Y327986D01*
X794993Y328117D01*
X794984Y328244D01*
X794279Y327533D01*
X794277Y327532D01*
X794276Y327530D01*
X794227Y327487D01*
X794179Y327445D01*
X794177Y327444D01*
X794176Y327442D01*
X794122Y327406D01*
X794069Y327370D01*
X794067Y327369D01*
X794065Y327368D01*
X794008Y327340D01*
X793949Y327311D01*
X793948Y327310D01*
X793946Y327309D01*
X793885Y327289D01*
X793823Y327267D01*
X793822Y327267D01*
X793820Y327267D01*
X793754Y327253D01*
X793693Y327241D01*
X793691Y327241D01*
X793689Y327240D01*
X793620Y327236D01*
X793560Y327232D01*
X793558Y327232D01*
X793556Y327232D01*
X786916D01*
X786882Y327234D01*
X786849D01*
X786816Y327238D01*
X786783Y327240D01*
X786750Y327247D01*
X786717Y327251D01*
X786307Y327333D01*
X786274Y327342D01*
X786242Y327348D01*
X786210Y327359D01*
X786178Y327368D01*
X786147Y327380D01*
X786116Y327391D01*
X785729Y327551D01*
X785699Y327566D01*
X785668Y327579D01*
X785639Y327595D01*
X785609Y327610D01*
X785582Y327629D01*
X785553Y327645D01*
X785205Y327878D01*
X785178Y327898D01*
X785151Y327917D01*
X785126Y327938D01*
X785099Y327959D01*
X785075Y327983D01*
X785050Y328004D01*
X784754Y328300D01*
X784732Y328326D01*
X784709Y328349D01*
X784689Y328375D01*
X784667Y328401D01*
X784648Y328428D01*
X784628Y328455D01*
X784395Y328803D01*
X784379Y328832D01*
X784360Y328859D01*
X784345Y328889D01*
X784329Y328918D01*
X784316Y328949D01*
X784301Y328979D01*
X784141Y329366D01*
X784130Y329397D01*
X784118Y329428D01*
X784109Y329460D01*
X784098Y329492D01*
X784092Y329524D01*
X784083Y329557D01*
X784001Y329967D01*
X783997Y330000D01*
X783990Y330033D01*
X783988Y330066D01*
X783984Y330099D01*
Y330132D01*
X783982Y330166D01*
Y330375D01*
Y330375D01*
Y335625D01*
Y335834D01*
X783984Y335868D01*
Y335901D01*
X783988Y335934D01*
X783990Y335967D01*
X783997Y336000D01*
X784001Y336033D01*
X784083Y336443D01*
X784092Y336476D01*
X784098Y336508D01*
X784109Y336540D01*
X784118Y336572D01*
X784130Y336603D01*
X784141Y336634D01*
X784301Y337021D01*
X784316Y337051D01*
X784329Y337082D01*
X784345Y337111D01*
X784360Y337141D01*
X784379Y337168D01*
X784395Y337197D01*
X784628Y337545D01*
X784648Y337572D01*
X784667Y337599D01*
X784688Y337624D01*
X784709Y337651D01*
X784733Y337675D01*
X784754Y337700D01*
X785050Y337995D01*
X785076Y338018D01*
X785099Y338041D01*
X785126Y338061D01*
X785151Y338083D01*
X785178Y338102D01*
X785205Y338122D01*
X785553Y338355D01*
X785582Y338371D01*
X785609Y338390D01*
X785639Y338405D01*
X785668Y338421D01*
X785699Y338434D01*
X785729Y338449D01*
X786115Y338609D01*
X786147Y338620D01*
X786178Y338632D01*
X786210Y338641D01*
X786242Y338652D01*
X786274Y338658D01*
X786307Y338667D01*
X786717Y338749D01*
X786750Y338753D01*
X786783Y338759D01*
X786816Y338762D01*
X786849Y338766D01*
X786882D01*
X786916Y338768D01*
X793556D01*
X793558Y338768D01*
X793560Y338768D01*
X793626Y338764D01*
X793689Y338759D01*
X793691Y338759D01*
X793693Y338759D01*
X793757Y338746D01*
X793820Y338733D01*
X793822Y338733D01*
X793823Y338732D01*
X793885Y338711D01*
X793946Y338691D01*
X793948Y338690D01*
X793949Y338689D01*
X794009Y338659D01*
X794065Y338632D01*
X794067Y338631D01*
X794069Y338630D01*
X794124Y338593D01*
X794176Y338558D01*
X794177Y338557D01*
X794179Y338555D01*
X794229Y338512D01*
X794276Y338470D01*
X794277Y338469D01*
X794279Y338467D01*
X795033Y337708D01*
X795030Y337750D01*
X795039Y337883D01*
X795065Y338013D01*
X795107Y338140D01*
X795166Y338259D01*
X795240Y338370D01*
X795328Y338470D01*
X795428Y338558D01*
X795539Y338632D01*
X795658Y338691D01*
X795785Y338733D01*
X795915Y338759D01*
X796048Y338768D01*
X806745Y338768D01*
D02*
G37*
G36*
Y324768D02*
X806954D01*
X806988Y324766D01*
X807021D01*
X807054Y324762D01*
X807087Y324759D01*
X807120Y324753D01*
X807153Y324749D01*
X807563Y324667D01*
X807596Y324658D01*
X807628Y324652D01*
X807660Y324641D01*
X807692Y324632D01*
X807723Y324620D01*
X807754Y324609D01*
X808141Y324449D01*
X808171Y324434D01*
X808202Y324421D01*
X808231Y324405D01*
X808261Y324390D01*
X808288Y324371D01*
X808317Y324355D01*
X808665Y324122D01*
X808692Y324102D01*
X808719Y324083D01*
X808744Y324062D01*
X808771Y324041D01*
X808795Y324017D01*
X808820Y323996D01*
X809116Y323700D01*
X809138Y323674D01*
X809161Y323651D01*
X809181Y323624D01*
X809203Y323599D01*
X809222Y323572D01*
X809242Y323545D01*
X809475Y323197D01*
X809491Y323168D01*
X809510Y323141D01*
X809525Y323111D01*
X809541Y323082D01*
X809554Y323051D01*
X809569Y323021D01*
X809729Y322635D01*
X809740Y322603D01*
X809753Y322572D01*
X809761Y322540D01*
X809772Y322508D01*
X809778Y322476D01*
X809787Y322444D01*
X809869Y322033D01*
X809873Y322000D01*
X809880Y321967D01*
X809882Y321934D01*
X809886Y321901D01*
Y321868D01*
X809888Y321834D01*
Y321625D01*
Y316375D01*
Y316166D01*
X809886Y316132D01*
Y316099D01*
X809882Y316066D01*
X809880Y316033D01*
X809873Y316000D01*
X809869Y315967D01*
X809787Y315557D01*
X809778Y315524D01*
X809772Y315492D01*
X809761Y315460D01*
X809753Y315428D01*
X809740Y315397D01*
X809729Y315366D01*
X809569Y314979D01*
X809554Y314949D01*
X809541Y314918D01*
X809525Y314889D01*
X809510Y314859D01*
X809491Y314832D01*
X809475Y314803D01*
X809242Y314455D01*
X809222Y314428D01*
X809203Y314401D01*
X809182Y314376D01*
X809161Y314349D01*
X809137Y314325D01*
X809116Y314300D01*
X808820Y314004D01*
X808794Y313982D01*
X808771Y313959D01*
X808745Y313939D01*
X808719Y313917D01*
X808692Y313898D01*
X808665Y313878D01*
X808317Y313645D01*
X808288Y313629D01*
X808261Y313610D01*
X808231Y313595D01*
X808202Y313579D01*
X808171Y313566D01*
X808141Y313551D01*
X807755Y313391D01*
X807723Y313380D01*
X807692Y313368D01*
X807660Y313359D01*
X807628Y313348D01*
X807596Y313342D01*
X807563Y313333D01*
X807153Y313251D01*
X807120Y313247D01*
X807087Y313241D01*
X807054Y313238D01*
X807021Y313234D01*
X806988D01*
X806954Y313232D01*
X796002D01*
X795869Y313241D01*
X795739Y313267D01*
X795612Y313309D01*
X795493Y313368D01*
X795382Y313442D01*
X795282Y313530D01*
X795194Y313630D01*
X795120Y313741D01*
X795061Y313860D01*
X795019Y313986D01*
X794993Y314117D01*
X794984Y314244D01*
X794279Y313533D01*
X794277Y313532D01*
X794276Y313530D01*
X794227Y313487D01*
X794179Y313445D01*
X794177Y313444D01*
X794176Y313442D01*
X794122Y313406D01*
X794069Y313370D01*
X794067Y313369D01*
X794065Y313368D01*
X794008Y313340D01*
X793949Y313311D01*
X793948Y313310D01*
X793946Y313309D01*
X793885Y313289D01*
X793823Y313267D01*
X793822Y313267D01*
X793820Y313267D01*
X793754Y313253D01*
X793693Y313241D01*
X793691Y313241D01*
X793689Y313241D01*
X793620Y313236D01*
X793560Y313232D01*
X793558Y313232D01*
X793556Y313232D01*
X786916D01*
X786882Y313234D01*
X786849D01*
X786816Y313238D01*
X786783Y313241D01*
X786750Y313247D01*
X786717Y313251D01*
X786307Y313333D01*
X786274Y313342D01*
X786242Y313348D01*
X786210Y313359D01*
X786178Y313368D01*
X786147Y313380D01*
X786116Y313391D01*
X785729Y313551D01*
X785699Y313566D01*
X785668Y313579D01*
X785639Y313595D01*
X785609Y313610D01*
X785582Y313629D01*
X785553Y313645D01*
X785205Y313878D01*
X785178Y313898D01*
X785151Y313917D01*
X785126Y313939D01*
X785099Y313959D01*
X785075Y313983D01*
X785050Y314004D01*
X784754Y314300D01*
X784732Y314326D01*
X784709Y314349D01*
X784689Y314375D01*
X784667Y314401D01*
X784648Y314428D01*
X784628Y314455D01*
X784395Y314803D01*
X784379Y314832D01*
X784360Y314859D01*
X784345Y314889D01*
X784329Y314918D01*
X784316Y314949D01*
X784301Y314979D01*
X784141Y315366D01*
X784130Y315397D01*
X784118Y315428D01*
X784109Y315460D01*
X784098Y315492D01*
X784092Y315524D01*
X784083Y315557D01*
X784001Y315967D01*
X783997Y316000D01*
X783990Y316033D01*
X783988Y316066D01*
X783984Y316099D01*
Y316132D01*
X783982Y316166D01*
Y316375D01*
Y316375D01*
Y321625D01*
Y321834D01*
X783984Y321868D01*
Y321901D01*
X783988Y321934D01*
X783990Y321967D01*
X783997Y322000D01*
X784001Y322033D01*
X784083Y322444D01*
X784092Y322476D01*
X784098Y322508D01*
X784109Y322540D01*
X784118Y322572D01*
X784130Y322603D01*
X784141Y322634D01*
X784301Y323021D01*
X784316Y323051D01*
X784329Y323082D01*
X784345Y323111D01*
X784360Y323141D01*
X784379Y323168D01*
X784395Y323197D01*
X784628Y323545D01*
X784648Y323572D01*
X784667Y323599D01*
X784688Y323624D01*
X784709Y323651D01*
X784733Y323675D01*
X784754Y323700D01*
X785050Y323996D01*
X785076Y324018D01*
X785099Y324041D01*
X785126Y324061D01*
X785151Y324083D01*
X785178Y324102D01*
X785205Y324122D01*
X785553Y324355D01*
X785582Y324371D01*
X785609Y324390D01*
X785639Y324405D01*
X785668Y324421D01*
X785699Y324434D01*
X785729Y324449D01*
X786115Y324609D01*
X786147Y324620D01*
X786178Y324632D01*
X786210Y324641D01*
X786242Y324652D01*
X786274Y324658D01*
X786307Y324667D01*
X786717Y324749D01*
X786750Y324753D01*
X786783Y324759D01*
X786816Y324762D01*
X786849Y324766D01*
X786882D01*
X786916Y324768D01*
X793556D01*
X793558Y324768D01*
X793560Y324768D01*
X793626Y324764D01*
X793689Y324759D01*
X793691Y324759D01*
X793693Y324759D01*
X793757Y324746D01*
X793820Y324734D01*
X793822Y324733D01*
X793823Y324733D01*
X793885Y324711D01*
X793946Y324691D01*
X793948Y324690D01*
X793949Y324689D01*
X794009Y324659D01*
X794065Y324632D01*
X794067Y324631D01*
X794069Y324630D01*
X794124Y324593D01*
X794176Y324558D01*
X794177Y324557D01*
X794179Y324555D01*
X794229Y324512D01*
X794276Y324470D01*
X794277Y324468D01*
X794279Y324467D01*
X795033Y323708D01*
X795030Y323750D01*
X795039Y323883D01*
X795065Y324014D01*
X795107Y324140D01*
X795166Y324259D01*
X795240Y324370D01*
X795328Y324470D01*
X795428Y324558D01*
X795539Y324632D01*
X795658Y324691D01*
X795785Y324734D01*
X795915Y324759D01*
X796048Y324768D01*
X806745Y324768D01*
D02*
G37*
G36*
X875788Y129669D02*
X875821D01*
X875854Y129664D01*
X875887Y129662D01*
X875920Y129656D01*
X875953Y129651D01*
X876364Y129570D01*
X876396Y129561D01*
X876428Y129555D01*
X876460Y129544D01*
X876492Y129535D01*
X876523Y129522D01*
X876554Y129512D01*
X876941Y129352D01*
X876971Y129337D01*
X877002Y129324D01*
X877031Y129307D01*
X877061Y129293D01*
X877088Y129274D01*
X877117Y129257D01*
X877465Y129025D01*
X877492Y129004D01*
X877520Y128986D01*
X877544Y128964D01*
X877571Y128944D01*
X877595Y128920D01*
X877620Y128898D01*
X877916Y128602D01*
X877938Y128577D01*
X877961Y128554D01*
X877981Y128527D01*
X878003Y128502D01*
X878022Y128474D01*
X878042Y128448D01*
X878275Y128100D01*
X878291Y128071D01*
X878310Y128043D01*
X878325Y128013D01*
X878341Y127985D01*
X878354Y127954D01*
X878369Y127924D01*
X878529Y127537D01*
X878540Y127506D01*
X878552Y127475D01*
X878561Y127443D01*
X878572Y127411D01*
X878578Y127378D01*
X878587Y127346D01*
X878669Y126936D01*
X878673Y126903D01*
X878680Y126870D01*
X878682Y126837D01*
X878686Y126804D01*
Y126770D01*
X878688Y126737D01*
Y126528D01*
Y120097D01*
X878688Y120095D01*
X878688Y120093D01*
X878684Y120026D01*
X878680Y119964D01*
X878679Y119962D01*
X878679Y119960D01*
X878666Y119895D01*
X878653Y119833D01*
X878653Y119831D01*
X878652Y119829D01*
X878632Y119768D01*
X878611Y119707D01*
X878610Y119705D01*
X878609Y119703D01*
X878579Y119643D01*
X878552Y119587D01*
X878551Y119586D01*
X878550Y119584D01*
X878513Y119529D01*
X878478Y119477D01*
X878476Y119475D01*
X878475Y119474D01*
X878432Y119424D01*
X878390Y119376D01*
X878389Y119375D01*
X878387Y119374D01*
X877628Y118620D01*
X877670Y118623D01*
X877803Y118614D01*
X877934Y118588D01*
X878060Y118545D01*
X878179Y118486D01*
X878290Y118412D01*
X878390Y118324D01*
X878478Y118224D01*
X878552Y118114D01*
X878611Y117994D01*
X878653Y117868D01*
X878680Y117738D01*
X878688Y117605D01*
X878688Y106908D01*
Y106698D01*
X878686Y106665D01*
Y106632D01*
X878682Y106599D01*
X878680Y106566D01*
X878673Y106533D01*
X878669Y106500D01*
X878587Y106089D01*
X878578Y106057D01*
X878572Y106024D01*
X878561Y105993D01*
X878552Y105961D01*
X878540Y105930D01*
X878529Y105898D01*
X878369Y105512D01*
X878354Y105482D01*
X878341Y105451D01*
X878325Y105422D01*
X878310Y105392D01*
X878291Y105364D01*
X878275Y105336D01*
X878042Y104987D01*
X878022Y104961D01*
X878003Y104933D01*
X877981Y104908D01*
X877961Y104882D01*
X877937Y104858D01*
X877916Y104833D01*
X877620Y104537D01*
X877594Y104515D01*
X877571Y104492D01*
X877545Y104471D01*
X877520Y104449D01*
X877492Y104431D01*
X877465Y104410D01*
X877117Y104178D01*
X877088Y104161D01*
X877061Y104143D01*
X877031Y104128D01*
X877002Y104111D01*
X876971Y104099D01*
X876941Y104084D01*
X876554Y103924D01*
X876523Y103913D01*
X876492Y103900D01*
X876460Y103892D01*
X876428Y103881D01*
X876396Y103874D01*
X876364Y103866D01*
X875953Y103784D01*
X875920Y103780D01*
X875887Y103773D01*
X875854Y103771D01*
X875821Y103767D01*
X875788D01*
X875754Y103764D01*
X870086D01*
X870052Y103767D01*
X870019D01*
X869986Y103771D01*
X869953Y103773D01*
X869920Y103780D01*
X869887Y103784D01*
X869476Y103866D01*
X869444Y103874D01*
X869412Y103881D01*
X869380Y103892D01*
X869348Y103900D01*
X869317Y103913D01*
X869286Y103924D01*
X868899Y104084D01*
X868869Y104099D01*
X868838Y104111D01*
X868809Y104128D01*
X868779Y104143D01*
X868752Y104161D01*
X868723Y104178D01*
X868375Y104410D01*
X868348Y104431D01*
X868321Y104449D01*
X868296Y104471D01*
X868269Y104492D01*
X868245Y104515D01*
X868221Y104537D01*
X867924Y104833D01*
X867902Y104858D01*
X867879Y104882D01*
X867859Y104908D01*
X867837Y104933D01*
X867818Y104961D01*
X867798Y104987D01*
X867565Y105336D01*
X867549Y105364D01*
X867530Y105392D01*
X867515Y105422D01*
X867499Y105451D01*
X867486Y105482D01*
X867471Y105512D01*
X867311Y105898D01*
X867300Y105930D01*
X867288Y105961D01*
X867279Y105993D01*
X867268Y106024D01*
X867262Y106057D01*
X867253Y106089D01*
X867171Y106500D01*
X867167Y106533D01*
X867160Y106566D01*
X867158Y106599D01*
X867154Y106632D01*
Y106665D01*
X867152Y106698D01*
Y106908D01*
Y106908D01*
Y117650D01*
X867160Y117783D01*
X867187Y117914D01*
X867229Y118040D01*
X867288Y118160D01*
X867362Y118270D01*
X867450Y118371D01*
X867550Y118458D01*
X867661Y118532D01*
X867780Y118591D01*
X867906Y118634D01*
X868037Y118660D01*
X868164Y118668D01*
X867453Y119374D01*
X867452Y119375D01*
X867450Y119376D01*
X867407Y119426D01*
X867365Y119474D01*
X867364Y119475D01*
X867362Y119477D01*
X867327Y119530D01*
X867290Y119584D01*
X867289Y119586D01*
X867288Y119587D01*
X867260Y119645D01*
X867231Y119703D01*
X867230Y119705D01*
X867229Y119707D01*
X867209Y119768D01*
X867188Y119829D01*
X867187Y119831D01*
X867187Y119833D01*
X867173Y119899D01*
X867161Y119960D01*
X867161Y119962D01*
X867160Y119964D01*
X867156Y120033D01*
X867152Y120093D01*
X867152Y120094D01*
X867152Y120097D01*
Y126528D01*
Y126737D01*
X867154Y126770D01*
Y126804D01*
X867158Y126837D01*
X867160Y126870D01*
X867167Y126903D01*
X867171Y126936D01*
X867253Y127346D01*
X867262Y127378D01*
X867268Y127411D01*
X867279Y127443D01*
X867288Y127475D01*
X867300Y127506D01*
X867311Y127537D01*
X867471Y127924D01*
X867486Y127954D01*
X867499Y127985D01*
X867515Y128013D01*
X867530Y128043D01*
X867549Y128071D01*
X867565Y128100D01*
X867798Y128448D01*
X867818Y128475D01*
X867837Y128502D01*
X867859Y128527D01*
X867879Y128554D01*
X867903Y128577D01*
X867924Y128602D01*
X868221Y128898D01*
X868246Y128920D01*
X868269Y128944D01*
X868296Y128964D01*
X868321Y128986D01*
X868348Y129005D01*
X868375Y129025D01*
X868723Y129257D01*
X868752Y129274D01*
X868779Y129293D01*
X868809Y129307D01*
X868838Y129324D01*
X868869Y129337D01*
X868899Y129352D01*
X869286Y129512D01*
X869317Y129522D01*
X869348Y129535D01*
X869380Y129544D01*
X869412Y129555D01*
X869444Y129561D01*
X869476Y129570D01*
X869887Y129651D01*
X869920Y129656D01*
X869953Y129662D01*
X869986Y129664D01*
X870019Y129669D01*
X870052D01*
X870086Y129671D01*
X875754D01*
X875788Y129669D01*
D02*
G37*
%LPC*%
G36*
X142667Y748716D02*
X142615Y748664D01*
X142620Y748665D01*
X142686Y748669D01*
X142690Y748669D01*
X142693Y748669D01*
X142715Y748668D01*
X142667Y748716D01*
D02*
G37*
G36*
X240750Y748216D02*
X240698Y748164D01*
X240703Y748165D01*
X240769Y748169D01*
X240773Y748169D01*
X240777Y748169D01*
X240798Y748168D01*
X240750Y748216D01*
D02*
G37*
G36*
X240899Y666247D02*
X240847Y666196D01*
X240853Y666196D01*
X240918Y666200D01*
X240922Y666200D01*
X240926Y666200D01*
X240948Y666199D01*
X240899Y666247D01*
D02*
G37*
G36*
X142866Y666238D02*
X142814Y666186D01*
X142820Y666187D01*
X142886Y666191D01*
X142890Y666191D01*
X142893Y666191D01*
X142915Y666189D01*
X142866Y666238D01*
D02*
G37*
G36*
X799283Y333075D02*
X799284Y333070D01*
X799288Y333004D01*
X799288Y333000D01*
X799288Y332996D01*
X799287Y332974D01*
X799335Y333023D01*
X799283Y333075D01*
D02*
G37*
G36*
Y319075D02*
X799284Y319070D01*
X799288Y319004D01*
X799288Y319000D01*
X799288Y318996D01*
X799287Y318974D01*
X799335Y319023D01*
X799283Y319075D01*
D02*
G37*
G36*
X872995Y114369D02*
X872990Y114369D01*
X872924Y114365D01*
X872920Y114365D01*
X872916Y114365D01*
X872895Y114366D01*
X872943Y114317D01*
X872995Y114369D01*
D02*
G37*
%LPD*%
D25*
X445501Y695478D02*
D03*
X435498D02*
D03*
X430497D02*
D03*
X435498Y666522D02*
D03*
X440499D02*
D03*
X445501D02*
D03*
X450502Y695478D02*
D03*
X440499D02*
D03*
X455503Y666522D02*
D03*
X430497D02*
D03*
X450502D02*
D03*
X455503Y695478D02*
D03*
D26*
X423569Y673498D02*
D03*
X462431D02*
D03*
Y678499D02*
D03*
X423569Y683501D02*
D03*
Y688502D02*
D03*
Y678499D02*
D03*
X462431Y683501D02*
D03*
Y688502D02*
D03*
D35*
X792024Y541500D02*
D03*
Y516500D02*
D03*
X781524Y541500D02*
D03*
X802524D02*
D03*
X785024Y516500D02*
D03*
X781524D02*
D03*
X795524D02*
D03*
X788524D02*
D03*
X802524D02*
D03*
X799024D02*
D03*
X795524Y541500D02*
D03*
X785024D02*
D03*
X799024D02*
D03*
X788524D02*
D03*
D36*
X792024Y529000D02*
D03*
D38*
X779524Y522000D02*
D03*
Y532500D02*
D03*
Y525500D02*
D03*
X804524Y529000D02*
D03*
Y536000D02*
D03*
X779524D02*
D03*
Y529000D02*
D03*
X804524Y525500D02*
D03*
Y532500D02*
D03*
Y522000D02*
D03*
D52*
X797024Y440713D02*
D03*
Y461287D02*
D03*
X785023D02*
D03*
Y440713D02*
D03*
X809026D02*
D03*
X773021Y461287D02*
D03*
X793024D02*
D03*
X789023D02*
D03*
X781022D02*
D03*
X777022D02*
D03*
X805025D02*
D03*
X801025D02*
D03*
X793024Y440713D02*
D03*
X789023D02*
D03*
X781022D02*
D03*
X777022D02*
D03*
X805025D02*
D03*
X801025D02*
D03*
X809026Y461287D02*
D03*
X773021Y440713D02*
D03*
D53*
X791024Y451000D02*
D03*
D55*
X803000Y362710D02*
D03*
X829000Y372210D02*
D03*
Y353210D02*
D03*
X803000D02*
D03*
Y372210D02*
D03*
D59*
X849580Y265000D02*
D03*
Y250000D02*
D03*
Y280000D02*
D03*
Y295000D02*
D03*
Y310000D02*
D03*
Y340000D02*
D03*
Y325000D02*
D03*
Y235000D02*
D03*
Y220000D02*
D03*
D70*
X416805Y570950D02*
D03*
X489195Y583650D02*
D03*
X416805Y609050D02*
D03*
Y583650D02*
D03*
X489195Y596350D02*
D03*
X416805D02*
D03*
X489195Y570950D02*
D03*
Y609050D02*
D03*
D84*
X254544Y215435D02*
D03*
X190544D02*
D03*
X254544Y199435D02*
D03*
Y183435D02*
D03*
Y143435D02*
D03*
X246544Y159435D02*
D03*
X198544D02*
D03*
Y143435D02*
D03*
X254544Y127435D02*
D03*
Y119435D02*
D03*
Y103435D02*
D03*
X246544Y127435D02*
D03*
X238544Y103435D02*
D03*
X198544Y127435D02*
D03*
Y119435D02*
D03*
X190544Y199435D02*
D03*
Y183435D02*
D03*
Y143435D02*
D03*
Y135435D02*
D03*
Y103435D02*
D03*
Y95435D02*
D03*
X198544Y175435D02*
D03*
X190544Y207435D02*
D03*
X254544D02*
D03*
X190544Y191435D02*
D03*
X254544D02*
D03*
X198544Y167435D02*
D03*
X246544D02*
D03*
X190544Y151435D02*
D03*
X246544D02*
D03*
X206544Y143435D02*
D03*
X254544Y135435D02*
D03*
X190544Y127435D02*
D03*
Y119435D02*
D03*
X246544D02*
D03*
X190544Y111435D02*
D03*
X254544D02*
D03*
X246544Y103435D02*
D03*
X198544Y95435D02*
D03*
X254544D02*
D03*
X238544Y175435D02*
D03*
X198544Y183435D02*
D03*
X254544Y151435D02*
D03*
X246544Y215435D02*
D03*
X238544Y159435D02*
D03*
X254544Y167435D02*
D03*
X206544Y111435D02*
D03*
Y103435D02*
D03*
X238544Y135435D02*
D03*
Y143435D02*
D03*
Y119435D02*
D03*
X206544Y127435D02*
D03*
X238544Y95435D02*
D03*
X198544Y103435D02*
D03*
X246544Y95435D02*
D03*
X206544D02*
D03*
X246544Y111435D02*
D03*
X198544D02*
D03*
X238544D02*
D03*
X206544Y119435D02*
D03*
Y151435D02*
D03*
X246544Y143435D02*
D03*
X198544Y151435D02*
D03*
X238544D02*
D03*
X198544Y135435D02*
D03*
X246544D02*
D03*
X206544D02*
D03*
X238544Y127435D02*
D03*
X246544Y175435D02*
D03*
X190544Y167435D02*
D03*
X206544Y159435D02*
D03*
Y167435D02*
D03*
X238544D02*
D03*
Y183435D02*
D03*
X198544Y191435D02*
D03*
X246544Y183435D02*
D03*
X206544D02*
D03*
Y215435D02*
D03*
X238544D02*
D03*
X206544Y191435D02*
D03*
Y207435D02*
D03*
Y175435D02*
D03*
X238544Y207435D02*
D03*
X198544Y215435D02*
D03*
X246544Y207435D02*
D03*
X198544D02*
D03*
X246544Y199435D02*
D03*
X198544D02*
D03*
X246544Y191435D02*
D03*
X238544Y199435D02*
D03*
X206544D02*
D03*
X238544Y191435D02*
D03*
X254544Y159435D02*
D03*
X190544D02*
D03*
X254544Y175435D02*
D03*
X190544D02*
D03*
D86*
X811217Y449000D02*
D03*
Y453000D02*
D03*
X770831D02*
D03*
Y449000D02*
D03*
D103*
X920000Y868098D02*
G03*
X898151Y890040I-22000J-58D01*
G01*
X920000Y774999D02*
G03*
X904000Y757111I2000J-17889D01*
G01*
X723279Y876677D02*
G03*
X731782Y890036I-9385J15359D01*
G01*
X717494Y874400D02*
G03*
X723279Y876677I-3601J17636D01*
G01*
X714287Y874041D02*
G03*
X717494Y874400I-394J17996D01*
G01*
X904000Y147992D02*
G03*
X920000Y130152I18000J48D01*
G01*
X898000Y10040D02*
G03*
X920000Y32040I0J22000D01*
G01*
X731889Y10040D02*
G03*
X714285Y26038I-17889J-2000D01*
G01*
X198005Y890036D02*
G03*
X215608Y874038I17889J2000D01*
G01*
X31627Y890037D02*
G03*
X10000Y868040I373J-21997D01*
G01*
X215606Y26036D02*
G03*
X198111Y10040I394J-17996D01*
G01*
X10000Y32040D02*
G03*
X32000Y10040I22000J0D01*
G01*
X920000Y774999D02*
Y868098D01*
X920000Y32040D02*
Y130152D01*
X9999Y32173D02*
Y94565D01*
X10000Y817127D02*
Y868040D01*
X31745Y890036D02*
X198005D01*
X32000Y10040D02*
X198111D01*
X369872Y26040D02*
X509746D01*
X420147Y874036D02*
X534000D01*
X534902D02*
X552000D01*
X579902Y874036D02*
X597901D01*
X601000D02*
X713993D01*
X731782Y890036D02*
X897893D01*
X731889Y10040D02*
X898000D01*
X904000Y311019D02*
Y329019D01*
X904000Y338019D02*
Y446019D01*
X904000Y455019D02*
Y572019D01*
X904000Y581019D02*
Y689018D01*
X904000Y698018D02*
Y757056D01*
X215900Y26040D02*
X360872D01*
X904000Y212019D02*
Y306050D01*
X904000Y689018D02*
X904000Y698018D01*
X904000Y572019D02*
X904000Y581019D01*
X570902Y874036D02*
X578000D01*
X561902Y874036D02*
X570902Y874036D01*
X552902Y874036D02*
X561902D01*
X904000Y446019D02*
X904000Y455019D01*
X904000Y329019D02*
X904000Y338019D01*
X904000Y203019D02*
X904000Y212019D01*
X904000Y148950D02*
Y203019D01*
X711872Y26042D02*
X713994Y26042D01*
X702872Y26042D02*
X711872Y26042D01*
X693872Y26042D02*
X702872Y26042D01*
X684872Y26042D02*
X693872Y26042D01*
X675872Y26042D02*
X684872Y26042D01*
X666872Y26042D02*
X675872Y26042D01*
X657872Y26042D02*
X666872Y26042D01*
X648872Y26041D02*
X657872Y26042D01*
X639872Y26041D02*
X648872Y26041D01*
X630872Y26041D02*
X639872Y26041D01*
X621872Y26041D02*
X630872Y26041D01*
X620260Y26041D02*
X621872Y26041D01*
X612872Y26041D02*
X620260Y26041D01*
X603872Y26041D02*
X612872Y26041D01*
X594872Y26041D02*
X603872Y26041D01*
X585872Y26041D02*
X594872Y26041D01*
X576872Y26041D02*
X585872Y26041D01*
X567872Y26041D02*
X576872Y26041D01*
X558872Y26040D02*
X567872Y26041D01*
X549872Y26040D02*
X558872Y26040D01*
X540872Y26040D02*
X549872Y26040D01*
X531872Y26040D02*
X540872Y26040D01*
X522872Y26040D02*
X531872Y26040D01*
X513872Y26040D02*
X522872Y26040D01*
X509746Y26040D02*
X513872Y26040D01*
X417902Y874036D02*
X420147Y874036D01*
X408902Y874036D02*
X417902Y874036D01*
X408538Y874036D02*
X408902D01*
X406751Y874036D02*
X408538Y874036D01*
X400266Y874036D02*
X406751Y874036D01*
X399902Y874036D02*
X400266D01*
X393250Y874036D02*
X399902Y874036D01*
X390902Y874036D02*
X393250Y874036D01*
X393250D01*
X381902Y874036D02*
X390902Y874036D01*
X372902Y874036D02*
X381190Y874036D01*
X381902D01*
X366750Y874036D02*
X372902Y874036D01*
X366750Y874036D02*
X366750D01*
X363902Y874036D02*
X366750Y874036D01*
X354902Y874035D02*
X363902Y874036D01*
X345902Y874035D02*
X354902Y874035D01*
X336902Y874035D02*
X345902Y874035D01*
X327902Y874035D02*
X336902Y874035D01*
X318902Y874035D02*
X327902Y874035D01*
X309902Y874035D02*
X318902Y874035D01*
X300902Y874035D02*
X309902Y874035D01*
X291902Y874035D02*
X300902Y874035D01*
X282902Y874035D02*
X291902Y874035D01*
X273902Y874035D02*
X282902Y874035D01*
X264902Y874035D02*
X273902Y874035D01*
X253250Y874035D02*
X255902Y874035D01*
X246902Y874035D02*
X253250Y874035D01*
X237902Y874034D02*
X246902Y874035D01*
X228902Y874034D02*
X237902Y874034D01*
X219902Y874034D02*
X228902Y874034D01*
X215899Y874034D02*
X219902Y874034D01*
X360872Y26040D02*
X369872Y26040D01*
D104*
X748000Y377000D02*
D03*
X732000D02*
D03*
X493000Y658000D02*
D03*
X404000Y747000D02*
D03*
X427000Y712000D02*
D03*
X412000Y630000D02*
D03*
X239000Y591000D02*
D03*
Y469000D02*
D03*
X226000Y591000D02*
D03*
Y469000D02*
D03*
X210000D02*
D03*
Y591000D02*
D03*
X255000Y469000D02*
D03*
X420000Y747000D02*
D03*
X255000Y591000D02*
D03*
X428000Y630000D02*
D03*
X443000Y712000D02*
D03*
X477000Y658000D02*
D03*
D105*
X688250Y833000D02*
D03*
X675750D02*
D03*
X700750D02*
D03*
X663250D02*
D03*
D106*
X637750Y862000D02*
D03*
X726250D02*
D03*
D107*
X481250Y825500D02*
D03*
X418750D02*
D03*
X456250D02*
D03*
X468750D02*
D03*
X431250D02*
D03*
X443750D02*
D03*
X303750D02*
D03*
X291250D02*
D03*
X328750D02*
D03*
X316250D02*
D03*
X278750D02*
D03*
X341250D02*
D03*
D108*
X393250Y854500D02*
D03*
X506750D02*
D03*
X366750D02*
D03*
X253250D02*
D03*
D109*
X443000Y681000D02*
D03*
D110*
X803920Y155153D02*
D03*
Y114153D02*
D03*
X309931Y749153D02*
D03*
X309922Y667662D02*
D03*
X211848Y749653D02*
D03*
X211889Y667653D02*
D03*
X211848Y708653D02*
D03*
X309931Y708153D02*
D03*
X211889Y626653D02*
D03*
X309922Y626662D02*
D03*
D111*
X499500Y228000D02*
D03*
X508500D02*
D03*
X825500Y786900D02*
D03*
X815500Y787000D02*
D03*
X825500Y777900D02*
D03*
X766500Y778000D02*
D03*
X813500Y677000D02*
D03*
X823500Y668000D02*
D03*
Y677000D02*
D03*
X766500Y668000D02*
D03*
X517500Y807000D02*
D03*
X475500Y759000D02*
D03*
X487500Y726000D02*
D03*
X517500Y614000D02*
D03*
X498000Y555000D02*
D03*
X663590Y377171D02*
D03*
X689090Y305921D02*
D03*
X702590Y281171D02*
D03*
X556590Y344171D02*
D03*
Y368171D02*
D03*
X484500Y431000D02*
D03*
X508500Y378000D02*
D03*
X462500Y460000D02*
D03*
X472500D02*
D03*
X484500Y328000D02*
D03*
X626514Y301346D02*
D03*
X557514Y298346D02*
D03*
X484500Y298000D02*
D03*
X387500Y804000D02*
D03*
X371620Y571211D02*
D03*
X366500Y804000D02*
D03*
X370850Y494390D02*
D03*
X333220D02*
D03*
X238000Y576000D02*
D03*
X286500Y537000D02*
D03*
Y518000D02*
D03*
Y527500D02*
D03*
X238500Y484000D02*
D03*
X227000Y576000D02*
D03*
X180998Y531220D02*
D03*
X226500Y484000D02*
D03*
X142002Y533999D02*
D03*
Y523999D02*
D03*
X399500Y202000D02*
D03*
X387500D02*
D03*
X203500Y428000D02*
D03*
X238500Y410000D02*
D03*
X266500Y389000D02*
D03*
Y350000D02*
D03*
Y341000D02*
D03*
X499500Y411000D02*
D03*
X508500D02*
D03*
X499500Y399000D02*
D03*
X508500D02*
D03*
X499500Y368000D02*
D03*
X508500D02*
D03*
X499500Y358000D02*
D03*
X508500D02*
D03*
X499500Y338000D02*
D03*
X508500D02*
D03*
X499500Y308000D02*
D03*
X508500D02*
D03*
X499500Y298000D02*
D03*
X508500D02*
D03*
X499500Y278000D02*
D03*
X508500D02*
D03*
X503500Y268000D02*
D03*
X512500D02*
D03*
Y238000D02*
D03*
X503500D02*
D03*
X512500Y248000D02*
D03*
X503500D02*
D03*
Y258000D02*
D03*
X512500D02*
D03*
X508500Y288000D02*
D03*
X499500D02*
D03*
Y318000D02*
D03*
X508500D02*
D03*
X499500Y328000D02*
D03*
X508500D02*
D03*
X499500Y348000D02*
D03*
X508500D02*
D03*
X499500Y378000D02*
D03*
Y388000D02*
D03*
X508500D02*
D03*
X248500Y360000D02*
D03*
X238500Y350000D02*
D03*
X654590Y377171D02*
D03*
X626514Y289346D02*
D03*
Y280346D02*
D03*
X557514Y310346D02*
D03*
X566514Y298346D02*
D03*
X557514Y289346D02*
D03*
Y280346D02*
D03*
X190046Y542386D02*
D03*
X247500Y341000D02*
D03*
X257500D02*
D03*
X508500Y614000D02*
D03*
Y592000D02*
D03*
X517500D02*
D03*
X508500Y580000D02*
D03*
X517500D02*
D03*
Y571000D02*
D03*
X508500D02*
D03*
X399500Y573000D02*
D03*
X390500D02*
D03*
X508500Y601000D02*
D03*
X517500D02*
D03*
X399500Y602000D02*
D03*
X390500D02*
D03*
Y592000D02*
D03*
X399500D02*
D03*
Y583000D02*
D03*
X390500D02*
D03*
Y611000D02*
D03*
X399500D02*
D03*
X834500Y786900D02*
D03*
Y777900D02*
D03*
X766500Y787000D02*
D03*
X775500Y778000D02*
D03*
X815500Y777900D02*
D03*
X832500Y677000D02*
D03*
X813500Y668000D02*
D03*
X832500D02*
D03*
X775500D02*
D03*
X766500Y678000D02*
D03*
X508500Y807000D02*
D03*
X498500D02*
D03*
X521000Y689000D02*
D03*
X487500Y708000D02*
D03*
Y717000D02*
D03*
X519500Y460000D02*
D03*
X510500Y449000D02*
D03*
X507000Y555000D02*
D03*
X485000D02*
D03*
X500500Y460000D02*
D03*
X453500D02*
D03*
X387751Y475472D02*
D03*
X521000Y671000D02*
D03*
Y680000D02*
D03*
X740000Y662000D02*
D03*
Y671000D02*
D03*
Y689000D02*
D03*
X806500Y777900D02*
D03*
X804500Y668000D02*
D03*
X484500Y441000D02*
D03*
X371620Y561051D02*
D03*
Y550891D02*
D03*
Y519141D02*
D03*
Y508981D02*
D03*
X181046Y552000D02*
D03*
Y542386D02*
D03*
X361850Y494390D02*
D03*
X342220D02*
D03*
X212500Y428000D02*
D03*
X238500Y401000D02*
D03*
Y389000D02*
D03*
Y341000D02*
D03*
X190046Y552000D02*
D03*
X362620Y550891D02*
D03*
X566514Y280346D02*
D03*
X277500Y518000D02*
D03*
X189500Y514525D02*
D03*
X257500Y371000D02*
D03*
X617514Y280346D02*
D03*
X362620Y561051D02*
D03*
X277500Y537000D02*
D03*
X484500Y412000D02*
D03*
Y338000D02*
D03*
Y400000D02*
D03*
X396750Y475472D02*
D03*
X155500Y318000D02*
D03*
X146500D02*
D03*
Y326250D02*
D03*
X155500D02*
D03*
X266500Y371000D02*
D03*
X739500Y389000D02*
D03*
X705590Y384171D02*
D03*
Y374171D02*
D03*
X257500Y401000D02*
D03*
X484500Y348000D02*
D03*
Y318000D02*
D03*
X257500Y419000D02*
D03*
X643590Y321171D02*
D03*
X634590D02*
D03*
X663590Y365171D02*
D03*
X654590D02*
D03*
Y347171D02*
D03*
X663590D02*
D03*
X565590Y335171D02*
D03*
X556590D02*
D03*
X654590Y337171D02*
D03*
X663590D02*
D03*
X556590Y356171D02*
D03*
X565590D02*
D03*
X617514Y289346D02*
D03*
Y301346D02*
D03*
X663590Y356171D02*
D03*
X654590D02*
D03*
X696590Y374171D02*
D03*
X566514Y310346D02*
D03*
Y289346D02*
D03*
X654590Y321171D02*
D03*
X663590D02*
D03*
X711590Y281171D02*
D03*
X565590Y344171D02*
D03*
Y326171D02*
D03*
X556590D02*
D03*
X702590Y272171D02*
D03*
X711590D02*
D03*
X556590Y377171D02*
D03*
X565590D02*
D03*
X696590Y384171D02*
D03*
X565590Y368171D02*
D03*
X680090Y305921D02*
D03*
X748500Y389000D02*
D03*
X484500Y308000D02*
D03*
Y358000D02*
D03*
X804500Y677000D02*
D03*
X775500Y678000D02*
D03*
X806500Y787000D02*
D03*
X775500D02*
D03*
X740000Y644000D02*
D03*
Y653000D02*
D03*
Y698000D02*
D03*
Y680000D02*
D03*
X802500Y304000D02*
D03*
X811500D02*
D03*
X792500D02*
D03*
X783500D02*
D03*
X484500Y379000D02*
D03*
X362620Y508981D02*
D03*
Y571211D02*
D03*
X151002Y523999D02*
D03*
X180500Y514525D02*
D03*
X277500Y527500D02*
D03*
X247500Y484000D02*
D03*
X247000Y576000D02*
D03*
X218000D02*
D03*
X217500Y484000D02*
D03*
X362620Y519141D02*
D03*
X189503Y504594D02*
D03*
X180503D02*
D03*
X151002Y533999D02*
D03*
X189998Y531220D02*
D03*
X491500Y460000D02*
D03*
X466500Y759000D02*
D03*
X530000Y689000D02*
D03*
X740000Y635000D02*
D03*
X731000Y653000D02*
D03*
X530000Y644000D02*
D03*
X521000D02*
D03*
X530000Y708000D02*
D03*
Y662000D02*
D03*
X521000D02*
D03*
X731000Y644000D02*
D03*
X740000Y608000D02*
D03*
Y617000D02*
D03*
X257500Y428000D02*
D03*
X740000Y626000D02*
D03*
X731000Y671000D02*
D03*
X521000Y708000D02*
D03*
X530000Y680000D02*
D03*
X731000Y689000D02*
D03*
X530000Y671000D02*
D03*
X731000Y662000D02*
D03*
Y635000D02*
D03*
Y680000D02*
D03*
Y608000D02*
D03*
Y698000D02*
D03*
Y626000D02*
D03*
Y617000D02*
D03*
X475500Y338000D02*
D03*
X159500Y878000D02*
D03*
X168500D02*
D03*
X484500Y248000D02*
D03*
Y278000D02*
D03*
Y258000D02*
D03*
X475500Y348000D02*
D03*
Y248000D02*
D03*
X489500Y807000D02*
D03*
X484500Y268000D02*
D03*
X378500Y804000D02*
D03*
X357500D02*
D03*
X496500Y708000D02*
D03*
X496500Y726000D02*
D03*
X496500Y717000D02*
D03*
X484500Y218000D02*
D03*
X257500Y350000D02*
D03*
X247500D02*
D03*
X397500Y236000D02*
D03*
X408500Y202000D02*
D03*
X257500Y360000D02*
D03*
X388500Y236000D02*
D03*
X411500D02*
D03*
X378500Y202000D02*
D03*
X407500Y246000D02*
D03*
X257500Y410000D02*
D03*
X247500D02*
D03*
Y401000D02*
D03*
X475500Y441000D02*
D03*
Y431000D02*
D03*
X420500Y236000D02*
D03*
X475500Y298000D02*
D03*
Y328000D02*
D03*
X257500Y380000D02*
D03*
X475500Y318000D02*
D03*
Y308000D02*
D03*
Y288000D02*
D03*
Y268000D02*
D03*
Y228000D02*
D03*
Y238000D02*
D03*
Y258000D02*
D03*
Y218000D02*
D03*
Y412000D02*
D03*
Y278000D02*
D03*
X398500Y246000D02*
D03*
X484500Y238000D02*
D03*
Y368000D02*
D03*
X466000Y546000D02*
D03*
X476000Y555000D02*
D03*
X466000D02*
D03*
X510500Y460000D02*
D03*
X484500Y228000D02*
D03*
X519500Y449000D02*
D03*
X481500Y460000D02*
D03*
X466000Y537000D02*
D03*
X457000D02*
D03*
X466000Y528000D02*
D03*
X457000D02*
D03*
Y555000D02*
D03*
Y546000D02*
D03*
X484500Y288000D02*
D03*
X266500Y419000D02*
D03*
X475500Y379000D02*
D03*
X266500Y428000D02*
D03*
Y401000D02*
D03*
Y410000D02*
D03*
Y380000D02*
D03*
X257500Y389000D02*
D03*
X247500D02*
D03*
X475500Y368000D02*
D03*
Y358000D02*
D03*
Y400000D02*
D03*
D112*
X906750Y794000D02*
D03*
X874750Y808000D02*
D03*
Y794000D02*
D03*
X477000Y746000D02*
D03*
X842024Y468000D02*
D03*
Y454000D02*
D03*
X741024Y458000D02*
D03*
Y444000D02*
D03*
X146250Y419000D02*
D03*
Y402000D02*
D03*
Y384000D02*
D03*
X435000Y759000D02*
D03*
X161750Y419000D02*
D03*
Y384000D02*
D03*
Y402000D02*
D03*
X451000Y759000D02*
D03*
X493000Y746000D02*
D03*
X757024Y444000D02*
D03*
Y430000D02*
D03*
Y458000D02*
D03*
Y472000D02*
D03*
X826024Y468000D02*
D03*
Y482000D02*
D03*
Y454000D02*
D03*
Y440000D02*
D03*
X741024Y430000D02*
D03*
Y472000D02*
D03*
X842024Y482000D02*
D03*
Y440000D02*
D03*
X891250Y794000D02*
D03*
X859250Y808000D02*
D03*
Y794000D02*
D03*
X492750Y643000D02*
D03*
X477250D02*
D03*
D113*
X889000Y771000D02*
D03*
Y595000D02*
D03*
X888000Y564000D02*
D03*
Y388000D02*
D03*
D114*
X691847Y721847D02*
D03*
X651847Y741847D02*
D03*
X701847Y691847D02*
D03*
X691847Y621847D02*
D03*
X681847Y651847D02*
D03*
X671847Y681847D02*
D03*
X661847Y711847D02*
D03*
X651847Y681847D02*
D03*
Y641847D02*
D03*
Y661847D02*
D03*
X701847Y591847D02*
D03*
X661847Y611847D02*
D03*
X621847Y731847D02*
D03*
X631847Y701847D02*
D03*
X551847Y741847D02*
D03*
X591847Y721847D02*
D03*
X561847Y711847D02*
D03*
X641847Y681847D02*
D03*
X631847D02*
D03*
X621847Y671847D02*
D03*
Y631847D02*
D03*
Y651847D02*
D03*
X601847Y691847D02*
D03*
Y671847D02*
D03*
X611847Y641847D02*
D03*
X631847Y601847D02*
D03*
X591847Y621847D02*
D03*
X601847Y591847D02*
D03*
X581847Y651847D02*
D03*
X571847Y681847D02*
D03*
X551847Y641847D02*
D03*
X561847Y611847D02*
D03*
X621847Y691847D02*
D03*
X551847Y731847D02*
D03*
X691847Y591847D02*
D03*
X681847D02*
D03*
X671847D02*
D03*
X661847D02*
D03*
X641847D02*
D03*
X631847D02*
D03*
X621847D02*
D03*
X611847D02*
D03*
X591847D02*
D03*
X581847D02*
D03*
X571847D02*
D03*
X561847D02*
D03*
X701847Y601847D02*
D03*
X691847D02*
D03*
X671847D02*
D03*
X661847D02*
D03*
X651847D02*
D03*
X641847D02*
D03*
X621847D02*
D03*
X611847D02*
D03*
X601847D02*
D03*
X591847D02*
D03*
X571847D02*
D03*
X561847D02*
D03*
X551847D02*
D03*
X701847Y611847D02*
D03*
X691847D02*
D03*
X681847D02*
D03*
X671847D02*
D03*
X651847D02*
D03*
X641847D02*
D03*
X631847D02*
D03*
X621847D02*
D03*
X601847D02*
D03*
X591847D02*
D03*
X581847D02*
D03*
X571847D02*
D03*
X551847D02*
D03*
X701847Y621847D02*
D03*
X681847D02*
D03*
X671847D02*
D03*
X661847D02*
D03*
X651847D02*
D03*
X631847D02*
D03*
X621847D02*
D03*
X611847D02*
D03*
X601847D02*
D03*
X581847D02*
D03*
X571847D02*
D03*
X561847D02*
D03*
X551847D02*
D03*
X701847Y631847D02*
D03*
X691847D02*
D03*
X681847D02*
D03*
X661847D02*
D03*
X651847D02*
D03*
X641847D02*
D03*
X631847D02*
D03*
X611847D02*
D03*
X601847D02*
D03*
X591847D02*
D03*
X581847D02*
D03*
X561847D02*
D03*
X551847D02*
D03*
X691847Y641847D02*
D03*
X681847D02*
D03*
X671847D02*
D03*
X661847D02*
D03*
X641847D02*
D03*
X621847D02*
D03*
X601847D02*
D03*
X591847D02*
D03*
X581847D02*
D03*
X571847D02*
D03*
X561847D02*
D03*
X701847Y651847D02*
D03*
X691847D02*
D03*
X671847D02*
D03*
X661847D02*
D03*
X651847D02*
D03*
X641847D02*
D03*
X631847D02*
D03*
X601847D02*
D03*
X591847D02*
D03*
X571847D02*
D03*
X561847D02*
D03*
X551847D02*
D03*
X701847Y661847D02*
D03*
X691847D02*
D03*
X681847D02*
D03*
X671847D02*
D03*
X661847D02*
D03*
X641847D02*
D03*
X631847D02*
D03*
X621847D02*
D03*
X611847D02*
D03*
X601847D02*
D03*
X591847D02*
D03*
X581847D02*
D03*
X571847D02*
D03*
X551847D02*
D03*
X701847Y671847D02*
D03*
X681847D02*
D03*
X671847D02*
D03*
X661847D02*
D03*
X651847D02*
D03*
X641847D02*
D03*
X631847D02*
D03*
X581847D02*
D03*
X571847D02*
D03*
X561847D02*
D03*
X551847D02*
D03*
X701847Y681847D02*
D03*
X691847D02*
D03*
X681847D02*
D03*
X661847D02*
D03*
X621847D02*
D03*
X611847D02*
D03*
X591847D02*
D03*
X581847D02*
D03*
X561847D02*
D03*
X551847D02*
D03*
X691847Y691847D02*
D03*
X681847D02*
D03*
X671847D02*
D03*
X661847D02*
D03*
X641847D02*
D03*
X631847D02*
D03*
X591847D02*
D03*
X581847D02*
D03*
X571847D02*
D03*
X561847D02*
D03*
X701847Y701847D02*
D03*
X691847D02*
D03*
X671847D02*
D03*
X661847D02*
D03*
X651847D02*
D03*
X641847D02*
D03*
X621847D02*
D03*
X611847D02*
D03*
X601847D02*
D03*
X591847D02*
D03*
X571847D02*
D03*
X561847D02*
D03*
X551847D02*
D03*
X701847Y711847D02*
D03*
X691847D02*
D03*
X681847D02*
D03*
X671847D02*
D03*
X651847D02*
D03*
X641847D02*
D03*
X631847D02*
D03*
X621847D02*
D03*
X601847D02*
D03*
X591847D02*
D03*
X581847D02*
D03*
X571847D02*
D03*
X551847D02*
D03*
X701847Y721847D02*
D03*
X681847D02*
D03*
X671847D02*
D03*
X661847D02*
D03*
X651847D02*
D03*
X631847D02*
D03*
X621847D02*
D03*
X611847D02*
D03*
X601847D02*
D03*
X581847D02*
D03*
X571847D02*
D03*
X561847D02*
D03*
X551847D02*
D03*
X701847Y731847D02*
D03*
X691847D02*
D03*
X681847D02*
D03*
X661847D02*
D03*
X651847D02*
D03*
X641847D02*
D03*
X631847D02*
D03*
X611847D02*
D03*
X601847D02*
D03*
X591847D02*
D03*
X581847D02*
D03*
X561847D02*
D03*
X691847Y741847D02*
D03*
X681847D02*
D03*
X671847D02*
D03*
X661847D02*
D03*
X641847D02*
D03*
X631847D02*
D03*
X621847D02*
D03*
X611847D02*
D03*
X591847D02*
D03*
X581847D02*
D03*
X571847D02*
D03*
X561847D02*
D03*
X611847Y651847D02*
D03*
X631847Y641847D02*
D03*
X601847Y681847D02*
D03*
X611847Y671847D02*
D03*
Y691847D02*
D03*
X551847Y591847D02*
D03*
X581847Y601847D02*
D03*
X571847Y631847D02*
D03*
X551847Y691847D02*
D03*
X561847Y661847D02*
D03*
X591847Y671847D02*
D03*
X581847Y701847D02*
D03*
X571847Y731847D02*
D03*
X601847Y741847D02*
D03*
X611847Y611847D02*
D03*
X641847Y621847D02*
D03*
X651847Y591847D02*
D03*
X681847Y601847D02*
D03*
X611847Y711847D02*
D03*
X651847Y691847D02*
D03*
X641847Y721847D02*
D03*
X671847Y631847D02*
D03*
X681847Y701847D02*
D03*
X701847Y641847D02*
D03*
X691847Y671847D02*
D03*
X671847Y731847D02*
D03*
X701847Y741847D02*
D03*
D115*
X860000Y620500D02*
D03*
X859000Y526000D02*
D03*
Y488500D02*
D03*
X860000Y708000D02*
D03*
Y720500D02*
D03*
Y670500D02*
D03*
Y683000D02*
D03*
Y695500D02*
D03*
Y633000D02*
D03*
Y645500D02*
D03*
Y658000D02*
D03*
Y745500D02*
D03*
Y733000D02*
D03*
X859000Y463500D02*
D03*
Y476000D02*
D03*
Y413500D02*
D03*
Y426000D02*
D03*
Y438500D02*
D03*
Y451000D02*
D03*
Y501000D02*
D03*
Y513500D02*
D03*
Y538500D02*
D03*
D116*
X828700Y694250D02*
D03*
Y584250D02*
D03*
X771300Y694250D02*
D03*
Y584250D02*
D03*
X638790Y370421D02*
D03*
X771300Y759250D02*
D03*
Y752750D02*
D03*
Y746250D02*
D03*
Y739750D02*
D03*
Y733250D02*
D03*
Y726750D02*
D03*
Y720250D02*
D03*
Y713750D02*
D03*
Y707250D02*
D03*
Y700750D02*
D03*
X828700D02*
D03*
Y707250D02*
D03*
Y713750D02*
D03*
Y720250D02*
D03*
Y726750D02*
D03*
Y733250D02*
D03*
Y739750D02*
D03*
Y746250D02*
D03*
Y752750D02*
D03*
X771300Y765750D02*
D03*
X828700Y759250D02*
D03*
Y765750D02*
D03*
Y636250D02*
D03*
Y629750D02*
D03*
Y623250D02*
D03*
Y616750D02*
D03*
Y610250D02*
D03*
Y603750D02*
D03*
Y597250D02*
D03*
Y590750D02*
D03*
X771300D02*
D03*
Y597250D02*
D03*
Y603750D02*
D03*
Y610250D02*
D03*
Y616750D02*
D03*
Y623250D02*
D03*
Y629750D02*
D03*
Y636250D02*
D03*
Y642750D02*
D03*
Y649250D02*
D03*
X828700Y642750D02*
D03*
X771300Y655750D02*
D03*
X828700Y649250D02*
D03*
Y655750D02*
D03*
X638790Y337921D02*
D03*
Y331421D02*
D03*
X581390D02*
D03*
Y337921D02*
D03*
Y344421D02*
D03*
Y350921D02*
D03*
Y357421D02*
D03*
Y363921D02*
D03*
Y370421D02*
D03*
Y376921D02*
D03*
X638790Y344421D02*
D03*
Y357421D02*
D03*
Y363921D02*
D03*
Y350921D02*
D03*
Y376921D02*
D03*
D117*
X808024Y565000D02*
D03*
X810024Y412000D02*
D03*
X764000Y110000D02*
D03*
X683892Y249921D02*
D03*
X656892Y249921D02*
D03*
X675000Y250000D02*
D03*
X666000D02*
D03*
X683892Y259921D02*
D03*
X666000Y260000D02*
D03*
X675000D02*
D03*
X656892Y259921D02*
D03*
X764000Y120000D02*
D03*
X175000Y395000D02*
D03*
Y405000D02*
D03*
Y417000D02*
D03*
Y427000D02*
D03*
X773024Y422000D02*
D03*
X780024Y555000D02*
D03*
X799024D02*
D03*
X771024D02*
D03*
X790024D02*
D03*
X780024Y565000D02*
D03*
X799024D02*
D03*
X771024D02*
D03*
X790024D02*
D03*
X773024Y412000D02*
D03*
X808024Y555000D02*
D03*
X810024Y422000D02*
D03*
D118*
X830024Y516000D02*
D03*
X748024Y484000D02*
D03*
X835024Y428000D02*
D03*
X637892Y282921D02*
D03*
Y291921D02*
D03*
Y273921D02*
D03*
X391000Y821000D02*
D03*
X369000D02*
D03*
X98000Y856850D02*
D03*
Y847850D02*
D03*
Y838890D02*
D03*
Y829850D02*
D03*
X647892Y291921D02*
D03*
Y282921D02*
D03*
X779000Y386000D02*
D03*
X108000Y847850D02*
D03*
Y856850D02*
D03*
X108000Y866000D02*
D03*
X647892Y273921D02*
D03*
X789000Y386000D02*
D03*
X162000Y370000D02*
D03*
X152000D02*
D03*
X820024Y516000D02*
D03*
Y543000D02*
D03*
Y525000D02*
D03*
X766024Y526000D02*
D03*
Y544000D02*
D03*
X820024Y552000D02*
D03*
Y534000D02*
D03*
X766024Y517000D02*
D03*
X766024Y535000D02*
D03*
X830024Y543000D02*
D03*
Y525000D02*
D03*
X756024Y526000D02*
D03*
Y544000D02*
D03*
X830024Y552000D02*
D03*
Y534000D02*
D03*
X756024Y517000D02*
D03*
X756024Y535000D02*
D03*
X758024Y484000D02*
D03*
X825024Y428000D02*
D03*
X401000Y821000D02*
D03*
X108000Y838890D02*
D03*
Y829850D02*
D03*
X98000Y866000D02*
D03*
X359000Y821000D02*
D03*
D119*
X652000Y499000D02*
D03*
Y509000D02*
D03*
Y479000D02*
D03*
Y489000D02*
D03*
X642000Y509000D02*
D03*
X632000Y479000D02*
D03*
X612000Y499000D02*
D03*
X602000Y489000D02*
D03*
X582000Y509000D02*
D03*
X652000Y469000D02*
D03*
Y459000D02*
D03*
Y439000D02*
D03*
Y449000D02*
D03*
X642000Y439000D02*
D03*
X602000Y459000D02*
D03*
X612000Y449000D02*
D03*
X582000Y439000D02*
D03*
X662000Y509000D02*
D03*
Y499000D02*
D03*
X642000D02*
D03*
X662000Y489000D02*
D03*
Y479000D02*
D03*
Y459000D02*
D03*
Y469000D02*
D03*
X612000Y509000D02*
D03*
X582000Y499000D02*
D03*
X612000Y489000D02*
D03*
Y459000D02*
D03*
X662000Y449000D02*
D03*
Y439000D02*
D03*
X642000Y449000D02*
D03*
X612000Y439000D02*
D03*
X582000Y449000D02*
D03*
X712000Y519000D02*
D03*
Y509000D02*
D03*
Y439000D02*
D03*
Y429000D02*
D03*
X702000Y519000D02*
D03*
Y429000D02*
D03*
X682000Y509000D02*
D03*
Y499000D02*
D03*
Y489000D02*
D03*
Y479000D02*
D03*
Y469000D02*
D03*
Y459000D02*
D03*
Y449000D02*
D03*
Y439000D02*
D03*
X672000Y509000D02*
D03*
Y499000D02*
D03*
Y479000D02*
D03*
Y469000D02*
D03*
Y459000D02*
D03*
Y449000D02*
D03*
Y439000D02*
D03*
X642000Y489000D02*
D03*
Y479000D02*
D03*
Y469000D02*
D03*
Y459000D02*
D03*
X632000Y509000D02*
D03*
Y499000D02*
D03*
Y489000D02*
D03*
Y469000D02*
D03*
Y459000D02*
D03*
Y449000D02*
D03*
Y439000D02*
D03*
X622000Y489000D02*
D03*
Y469000D02*
D03*
Y459000D02*
D03*
X612000Y479000D02*
D03*
Y469000D02*
D03*
X602000Y509000D02*
D03*
Y499000D02*
D03*
Y469000D02*
D03*
Y449000D02*
D03*
Y439000D02*
D03*
X592000Y489000D02*
D03*
Y479000D02*
D03*
Y469000D02*
D03*
Y459000D02*
D03*
X582000Y489000D02*
D03*
Y459000D02*
D03*
X562000Y519000D02*
D03*
Y429000D02*
D03*
X552000Y519000D02*
D03*
Y509000D02*
D03*
Y439000D02*
D03*
Y429000D02*
D03*
X672000Y489000D02*
D03*
X602000Y479000D02*
D03*
X582000Y469000D02*
D03*
Y479000D02*
D03*
X622000Y509000D02*
D03*
X592000D02*
D03*
X622000Y499000D02*
D03*
X592000D02*
D03*
Y449000D02*
D03*
X622000D02*
D03*
X592000Y439000D02*
D03*
X622000D02*
D03*
Y479000D02*
D03*
D120*
X600750Y861798D02*
D03*
X533250D02*
D03*
D121*
X591875Y836048D02*
D03*
X542125D02*
D03*
D122*
X578500Y861798D02*
D03*
D123*
X554000Y835198D02*
D03*
X580000D02*
D03*
X567000D02*
D03*
X573500D02*
D03*
X560500D02*
D03*
D124*
X551506Y861798D02*
D03*
D125*
X463000Y777450D02*
D03*
X323000Y778450D02*
D03*
X472500Y802550D02*
D03*
X453500D02*
D03*
X332500Y803550D02*
D03*
X313500D02*
D03*
X463000Y802550D02*
D03*
X472500Y777450D02*
D03*
X453500D02*
D03*
X332500Y778450D02*
D03*
X313500D02*
D03*
X323000Y803550D02*
D03*
D126*
X495491Y766951D02*
D03*
X221103Y370436D02*
D03*
X204086Y348338D02*
D03*
X495491Y789049D02*
D03*
X512509Y766951D02*
D03*
Y789049D02*
D03*
X204086Y370436D02*
D03*
X221103Y348338D02*
D03*
D127*
X475000Y725000D02*
D03*
Y709000D02*
D03*
D128*
X493500Y537000D02*
D03*
D129*
X507100Y529500D02*
D03*
Y534500D02*
D03*
Y539500D02*
D03*
Y544500D02*
D03*
X479900D02*
D03*
Y539500D02*
D03*
Y534500D02*
D03*
Y529500D02*
D03*
D130*
X518527Y517749D02*
D03*
X459473Y472251D02*
D03*
Y478750D02*
D03*
Y485250D02*
D03*
Y491750D02*
D03*
Y498250D02*
D03*
Y504750D02*
D03*
Y511250D02*
D03*
Y517749D02*
D03*
X518527Y511250D02*
D03*
Y504750D02*
D03*
Y498250D02*
D03*
Y491750D02*
D03*
Y485250D02*
D03*
Y478750D02*
D03*
Y472251D02*
D03*
D131*
X901480Y363050D02*
D03*
Y196950D02*
D03*
D132*
X821000Y313500D02*
D03*
X765590Y335421D02*
D03*
X755590Y335421D02*
D03*
X874920Y150653D02*
D03*
X855920Y173653D02*
D03*
X847920Y106782D02*
D03*
X856920Y106780D02*
D03*
X821000Y211500D02*
D03*
X779000Y268500D02*
D03*
X803000Y220500D02*
D03*
X833047Y106780D02*
D03*
X441000Y809208D02*
D03*
X402750Y809210D02*
D03*
X404000Y734500D02*
D03*
X411000Y642500D02*
D03*
X386250Y544972D02*
D03*
Y534972D02*
D03*
X372200Y539461D02*
D03*
X301000Y809208D02*
D03*
X362118Y539465D02*
D03*
X244000Y813500D02*
D03*
X262750Y809210D02*
D03*
X222000Y813500D02*
D03*
X201000D02*
D03*
X182485Y756790D02*
D03*
X167848Y757153D02*
D03*
X158848D02*
D03*
X280568Y756290D02*
D03*
X280795Y675164D02*
D03*
X265931Y756653D02*
D03*
X256931D02*
D03*
X267931Y689153D02*
D03*
X256922Y675162D02*
D03*
X265922D02*
D03*
X257922Y608162D02*
D03*
X248922D02*
D03*
X238931Y711653D02*
D03*
X239172Y630162D02*
D03*
X169848Y689653D02*
D03*
X182762Y675154D02*
D03*
X167889Y675153D02*
D03*
X158889D02*
D03*
X140848Y712153D02*
D03*
X159889Y608153D02*
D03*
X141139Y630153D02*
D03*
X150889Y608153D02*
D03*
X167563Y443997D02*
D03*
X450000Y214500D02*
D03*
X296631Y215886D02*
D03*
X182501Y365227D02*
D03*
X182501Y353427D02*
D03*
X238000Y368500D02*
D03*
X182501Y374227D02*
D03*
X238000Y359500D02*
D03*
X182501Y344427D02*
D03*
X368000Y193000D02*
D03*
X412000Y439500D02*
D03*
X779000Y211500D02*
D03*
X821000Y220500D02*
D03*
X779000Y277500D02*
D03*
X830000Y313500D02*
D03*
X765590Y344421D02*
D03*
X755590Y344421D02*
D03*
X576000Y771500D02*
D03*
X567000D02*
D03*
X386250Y553973D02*
D03*
Y506973D02*
D03*
Y487972D02*
D03*
X663500Y561500D02*
D03*
X653500D02*
D03*
X167563Y452998D02*
D03*
X158562D02*
D03*
Y443997D02*
D03*
X372200Y530461D02*
D03*
X362118Y530466D02*
D03*
X450000Y205500D02*
D03*
X422000Y734500D02*
D03*
X413000D02*
D03*
X158848Y748153D02*
D03*
X140848Y721153D02*
D03*
X191927Y698653D02*
D03*
Y689653D02*
D03*
X167848Y748153D02*
D03*
X169848Y698653D02*
D03*
X160848D02*
D03*
Y689653D02*
D03*
X182927D02*
D03*
Y698653D02*
D03*
X182485Y747790D02*
D03*
X149848Y698653D02*
D03*
Y689653D02*
D03*
X301000Y800208D02*
D03*
X432000Y439500D02*
D03*
X403000D02*
D03*
X280568Y747290D02*
D03*
X247931Y698153D02*
D03*
Y689153D02*
D03*
X287931D02*
D03*
Y698153D02*
D03*
X265931Y747653D02*
D03*
X267931Y698153D02*
D03*
X278931Y689153D02*
D03*
Y698153D02*
D03*
X256931Y747653D02*
D03*
X258931Y689153D02*
D03*
Y698153D02*
D03*
X238931Y720653D02*
D03*
X150889Y617153D02*
D03*
X180889D02*
D03*
Y608153D02*
D03*
X167889Y666153D02*
D03*
X141139Y639153D02*
D03*
X159889Y617153D02*
D03*
X189889D02*
D03*
Y608153D02*
D03*
X158889Y666153D02*
D03*
X182762Y666154D02*
D03*
X168889Y608150D02*
D03*
Y617150D02*
D03*
X141889Y617156D02*
D03*
Y608156D02*
D03*
X239922Y608166D02*
D03*
X367999Y236500D02*
D03*
X313000Y439500D02*
D03*
X702090Y301671D02*
D03*
X394000Y439500D02*
D03*
X349000D02*
D03*
X304000D02*
D03*
X340000D02*
D03*
X286000D02*
D03*
X295000D02*
D03*
X452000Y430500D02*
D03*
Y439500D02*
D03*
X779000Y258500D02*
D03*
X702090Y292671D02*
D03*
X812000Y211500D02*
D03*
X576000Y780500D02*
D03*
X567000D02*
D03*
X699500Y561500D02*
D03*
X708500D02*
D03*
X644500D02*
D03*
X635500D02*
D03*
X717500D02*
D03*
X672500D02*
D03*
X681500D02*
D03*
X690500D02*
D03*
X821000Y304500D02*
D03*
X803000Y211500D02*
D03*
X779000Y220500D02*
D03*
X812000D02*
D03*
X794000Y211500D02*
D03*
Y220500D02*
D03*
X830000Y304500D02*
D03*
X779000Y230500D02*
D03*
Y239500D02*
D03*
Y249500D02*
D03*
X429000Y642500D02*
D03*
X420000D02*
D03*
X641500Y780500D02*
D03*
X548500D02*
D03*
X672500Y570500D02*
D03*
X594000Y780500D02*
D03*
X681500Y570500D02*
D03*
X650500Y780500D02*
D03*
X367000Y439500D02*
D03*
X690500Y570500D02*
D03*
X668500Y780500D02*
D03*
X385000Y439500D02*
D03*
X421000D02*
D03*
X659500Y780500D02*
D03*
X708500Y570500D02*
D03*
X699500D02*
D03*
X717500D02*
D03*
X585000Y780500D02*
D03*
Y771500D02*
D03*
X641500Y771500D02*
D03*
X650500D02*
D03*
X557500Y780500D02*
D03*
X530500D02*
D03*
X659500Y771500D02*
D03*
X557500D02*
D03*
X668500D02*
D03*
X722500Y780500D02*
D03*
X731500D02*
D03*
X677500Y771500D02*
D03*
X704500D02*
D03*
X603000Y771500D02*
D03*
X539500Y771500D02*
D03*
X704500Y780500D02*
D03*
X713500D02*
D03*
X386250Y515973D02*
D03*
X722500Y771500D02*
D03*
X530500D02*
D03*
X594000Y771500D02*
D03*
X713500Y771500D02*
D03*
X635500Y570500D02*
D03*
X677500Y780500D02*
D03*
X548500Y771500D02*
D03*
X731500D02*
D03*
X603000Y780500D02*
D03*
X653500Y570500D02*
D03*
X644500D02*
D03*
X539500Y780500D02*
D03*
X663500Y570500D02*
D03*
X239172Y639162D02*
D03*
X266922Y608159D02*
D03*
X376999Y245500D02*
D03*
Y236500D02*
D03*
X431750Y809210D02*
D03*
X239922Y617165D02*
D03*
X248922Y617162D02*
D03*
X265922Y666162D02*
D03*
X287922Y617162D02*
D03*
X278922D02*
D03*
X257922D02*
D03*
X266922Y617159D02*
D03*
X431750Y800210D02*
D03*
X222000Y804500D02*
D03*
X280795Y666164D02*
D03*
X256922Y666162D02*
D03*
X411750Y809210D02*
D03*
X287922Y608162D02*
D03*
X278922D02*
D03*
X402750Y800210D02*
D03*
X411750D02*
D03*
X847920Y115782D02*
D03*
X855920Y164653D02*
D03*
X847170D02*
D03*
X825920Y164656D02*
D03*
X835718D02*
D03*
X864774D02*
D03*
X847170Y173653D02*
D03*
X833047Y115780D02*
D03*
X856920D02*
D03*
X825920Y173656D02*
D03*
X835718D02*
D03*
X864774D02*
D03*
X874920Y141653D02*
D03*
X291750Y809210D02*
D03*
X358000Y439500D02*
D03*
X421000Y460500D02*
D03*
X443000Y439500D02*
D03*
X291750Y800210D02*
D03*
X412000Y712500D02*
D03*
X244000Y804500D02*
D03*
X411000Y651500D02*
D03*
X429000Y651500D02*
D03*
X420000D02*
D03*
X422000Y725500D02*
D03*
X413000D02*
D03*
X404000Y725500D02*
D03*
X271750Y809210D02*
D03*
X412000Y703500D02*
D03*
X368000Y223500D02*
D03*
X385000Y430500D02*
D03*
X248000Y369500D02*
D03*
X432000Y460500D02*
D03*
X461000Y439500D02*
D03*
X358000Y430500D02*
D03*
X421000Y451500D02*
D03*
X412000Y430500D02*
D03*
X421000D02*
D03*
X367000D02*
D03*
X248000Y378500D02*
D03*
X262750Y800210D02*
D03*
X271750D02*
D03*
X201000Y804500D02*
D03*
X376000Y430500D02*
D03*
X432000D02*
D03*
X403000D02*
D03*
X443000D02*
D03*
X432000Y451500D02*
D03*
X367999Y245500D02*
D03*
X461000Y430500D02*
D03*
X313000D02*
D03*
X286000D02*
D03*
X340000D02*
D03*
X304000D02*
D03*
X394000D02*
D03*
X295000D02*
D03*
X349000D02*
D03*
X296631Y224886D02*
D03*
X368000Y202000D02*
D03*
Y214500D02*
D03*
X441000Y800209D02*
D03*
X376000Y439500D02*
D03*
X386250Y496973D02*
D03*
Y525973D02*
D03*
D133*
X808000Y390998D02*
D03*
X826000D02*
D03*
D134*
X781752Y354250D02*
D03*
Y372250D02*
D03*
D135*
X737440Y333821D02*
D03*
Y346521D02*
D03*
X684740Y333821D02*
D03*
Y346521D02*
D03*
Y359221D02*
D03*
Y321121D02*
D03*
X737440Y359221D02*
D03*
Y321121D02*
D03*
D136*
X737090Y300671D02*
D03*
Y281671D02*
D03*
X717090Y291171D02*
D03*
D137*
X841592Y130565D02*
D03*
X272259Y732740D02*
D03*
X272250Y651250D02*
D03*
X174175Y733241D02*
D03*
X174217Y651241D02*
D03*
X174175Y714741D02*
D03*
X169684Y733241D02*
D03*
Y714771D02*
D03*
X272259Y714241D02*
D03*
X267767Y714270D02*
D03*
Y732740D02*
D03*
X169726Y651241D02*
D03*
X174217Y632741D02*
D03*
X169726Y632771D02*
D03*
X267759Y651250D02*
D03*
X272250Y632751D02*
D03*
X267759Y632780D02*
D03*
X846084Y130565D02*
D03*
Y149035D02*
D03*
X841592Y149064D02*
D03*
D138*
X807000Y263000D02*
D03*
D139*
X823256Y240839D02*
D03*
X790744Y285161D02*
D03*
X816754Y240839D02*
D03*
X810251D02*
D03*
X790744D02*
D03*
X816754Y285161D02*
D03*
X810251D02*
D03*
X797246D02*
D03*
X803749D02*
D03*
X797246Y240839D02*
D03*
X803749D02*
D03*
X823256Y285161D02*
D03*
D140*
X816000Y86000D02*
D03*
X840000D02*
D03*
X74000Y867000D02*
D03*
X156744Y103435D02*
D03*
X164000Y469000D02*
D03*
X278000Y508764D02*
D03*
X160000Y591125D02*
D03*
X278000Y547166D02*
D03*
X296000Y469000D02*
D03*
X355000Y592000D02*
D03*
X284000Y352000D02*
D03*
X354000Y478000D02*
D03*
X161000Y523000D02*
D03*
X296000Y591000D02*
D03*
X163000Y544000D02*
D03*
D141*
X686892Y295921D02*
D03*
X662892Y287921D02*
D03*
Y295921D02*
D03*
Y279921D02*
D03*
X686892Y271921D02*
D03*
Y287921D02*
D03*
X662892Y271921D02*
D03*
X686892Y279921D02*
D03*
D142*
X603090Y278171D02*
D03*
X581090Y302171D02*
D03*
Y286171D02*
D03*
Y278171D02*
D03*
X603090Y310171D02*
D03*
Y294171D02*
D03*
Y302171D02*
D03*
X581090Y310171D02*
D03*
X603090Y286171D02*
D03*
X581090Y294171D02*
D03*
D143*
X488750Y182600D02*
D03*
X382250Y176900D02*
D03*
D144*
X488750Y156500D02*
D03*
D145*
X625000Y130000D02*
D03*
D146*
X431500Y776000D02*
D03*
X291500Y776000D02*
D03*
X422000Y796000D02*
D03*
X412500Y776000D02*
D03*
X282000Y796000D02*
D03*
X272500Y776000D02*
D03*
D147*
X385002Y752000D02*
D03*
X385000Y668000D02*
D03*
X339000D02*
D03*
X362000D02*
D03*
X362002Y752000D02*
D03*
X339002D02*
D03*
D148*
X444000Y490945D02*
D03*
X398501D02*
D03*
X405001D02*
D03*
X411501D02*
D03*
X418001D02*
D03*
X424500D02*
D03*
X431000D02*
D03*
X437500D02*
D03*
X444000Y550000D02*
D03*
X437500D02*
D03*
X431000D02*
D03*
X424500D02*
D03*
X418001D02*
D03*
X411501D02*
D03*
X405001D02*
D03*
X398501D02*
D03*
D149*
X346546Y532540D02*
D03*
Y526040D02*
D03*
Y539040D02*
D03*
Y519540D02*
D03*
X306546Y532540D02*
D03*
Y539040D02*
D03*
Y526040D02*
D03*
Y519540D02*
D03*
D150*
X326546Y529290D02*
D03*
D151*
X153500Y860700D02*
D03*
X148500D02*
D03*
X143500D02*
D03*
X138500Y831300D02*
D03*
X143500D02*
D03*
X148500D02*
D03*
X153500D02*
D03*
X138500Y860700D02*
D03*
D152*
X146000Y846000D02*
D03*
D153*
X235000Y555000D02*
D03*
X230000D02*
D03*
X235000Y505000D02*
D03*
X230000D02*
D03*
X215000D02*
D03*
X225000D02*
D03*
X215000Y555000D02*
D03*
X250000Y505000D02*
D03*
X245000Y555000D02*
D03*
X220000D02*
D03*
X245000Y505000D02*
D03*
X220000D02*
D03*
X240000D02*
D03*
Y555000D02*
D03*
X225000D02*
D03*
X250000D02*
D03*
D154*
X232502Y529999D02*
D03*
D155*
X207500Y537500D02*
D03*
Y542500D02*
D03*
Y547500D02*
D03*
Y522500D02*
D03*
X257500D02*
D03*
Y547500D02*
D03*
X207500Y517500D02*
D03*
Y527500D02*
D03*
X257500Y532500D02*
D03*
Y517500D02*
D03*
Y512500D02*
D03*
Y527500D02*
D03*
X207500Y532500D02*
D03*
X257500Y537500D02*
D03*
Y542500D02*
D03*
X207500Y512500D02*
D03*
D156*
X437544Y396435D02*
D03*
Y370435D02*
D03*
X411544Y396435D02*
D03*
X392044D02*
D03*
X411544Y363935D02*
D03*
X398544Y370435D02*
D03*
Y357435D02*
D03*
X437544Y350935D02*
D03*
Y331435D02*
D03*
Y311935D02*
D03*
X411544Y357435D02*
D03*
X418044Y344435D02*
D03*
X392044Y350935D02*
D03*
X418044Y318435D02*
D03*
X398544Y331435D02*
D03*
X392044Y311935D02*
D03*
X372544Y396435D02*
D03*
X385544Y376935D02*
D03*
X359544D02*
D03*
X353044Y396435D02*
D03*
X333544D02*
D03*
X372544Y357435D02*
D03*
X353044Y350935D02*
D03*
X372544Y337935D02*
D03*
Y331435D02*
D03*
X353044Y311935D02*
D03*
X346544Y370435D02*
D03*
Y357435D02*
D03*
X333544Y363935D02*
D03*
Y357435D02*
D03*
X346544Y331435D02*
D03*
X437544Y292435D02*
D03*
X411544Y298935D02*
D03*
Y305435D02*
D03*
X437544Y266435D02*
D03*
X411544D02*
D03*
X398544Y305435D02*
D03*
Y292435D02*
D03*
X392044Y266435D02*
D03*
X372544Y305435D02*
D03*
X385544Y285935D02*
D03*
X359544D02*
D03*
X346544Y305435D02*
D03*
X333544D02*
D03*
X346544Y292435D02*
D03*
X333544Y298935D02*
D03*
X372544Y266435D02*
D03*
X359544D02*
D03*
X353044D02*
D03*
X333544Y279435D02*
D03*
X327044Y344435D02*
D03*
Y318435D02*
D03*
X307544Y396435D02*
D03*
Y370435D02*
D03*
Y350935D02*
D03*
Y331435D02*
D03*
Y311935D02*
D03*
Y292435D02*
D03*
Y266435D02*
D03*
X346544Y344435D02*
D03*
X366044Y357435D02*
D03*
X398544Y376935D02*
D03*
X424544D02*
D03*
X398544Y266435D02*
D03*
X424544Y292435D02*
D03*
X398544Y363935D02*
D03*
X424544Y331435D02*
D03*
Y311935D02*
D03*
X411544Y292435D02*
D03*
X405044D02*
D03*
X431044Y272935D02*
D03*
X411544Y279435D02*
D03*
X359544Y363935D02*
D03*
X340044D02*
D03*
X385544Y344435D02*
D03*
X359544D02*
D03*
X320544Y331435D02*
D03*
X385544Y318435D02*
D03*
X437544Y376935D02*
D03*
X366044Y344435D02*
D03*
X405044Y357435D02*
D03*
X379044Y324935D02*
D03*
X411544Y285935D02*
D03*
X437544Y305435D02*
D03*
X431044D02*
D03*
X418044Y311935D02*
D03*
Y305435D02*
D03*
X437544Y318435D02*
D03*
X431044D02*
D03*
X353044Y337935D02*
D03*
X424544Y363935D02*
D03*
X398544Y350935D02*
D03*
X431044Y344435D02*
D03*
X437544D02*
D03*
X392044Y292435D02*
D03*
X424544Y272935D02*
D03*
X385544Y305435D02*
D03*
X398544Y272935D02*
D03*
Y285935D02*
D03*
X327044Y396435D02*
D03*
Y389935D02*
D03*
X320544Y396435D02*
D03*
Y389935D02*
D03*
X392044Y344435D02*
D03*
Y305435D02*
D03*
X366044D02*
D03*
X418044Y363935D02*
D03*
X385544Y389935D02*
D03*
X307544Y344435D02*
D03*
X385544Y266435D02*
D03*
X314044Y344435D02*
D03*
X385544Y272935D02*
D03*
X392044Y279435D02*
D03*
X385544Y298935D02*
D03*
X372544Y311935D02*
D03*
X405044Y318435D02*
D03*
Y344435D02*
D03*
X424544Y350935D02*
D03*
X320544D02*
D03*
X385544Y363935D02*
D03*
X346544D02*
D03*
X320544Y370435D02*
D03*
X411544Y383435D02*
D03*
X392044D02*
D03*
X372544D02*
D03*
X353044D02*
D03*
X333544D02*
D03*
X314044Y389935D02*
D03*
Y396435D02*
D03*
X340044Y350935D02*
D03*
X346544D02*
D03*
X327044Y357435D02*
D03*
X372544Y344435D02*
D03*
X379044Y357435D02*
D03*
X405044Y396435D02*
D03*
X398544D02*
D03*
Y389935D02*
D03*
X379044Y350935D02*
D03*
X424544Y266435D02*
D03*
Y305435D02*
D03*
X392044Y376935D02*
D03*
X398544Y337935D02*
D03*
X405044Y311935D02*
D03*
X346544Y389935D02*
D03*
X353044Y376935D02*
D03*
X327044Y350935D02*
D03*
X340044Y383435D02*
D03*
X314044Y266435D02*
D03*
X392044Y370435D02*
D03*
X385544Y357435D02*
D03*
X405044Y389935D02*
D03*
X398544Y383435D02*
D03*
X418044Y396435D02*
D03*
X392044Y363935D02*
D03*
X405044Y383435D02*
D03*
X385544Y350935D02*
D03*
X379044Y344435D02*
D03*
X418044Y383435D02*
D03*
X372544Y318435D02*
D03*
X424544Y389935D02*
D03*
X418044Y357435D02*
D03*
Y376935D02*
D03*
X379044Y305435D02*
D03*
X424544Y383435D02*
D03*
X418044Y350935D02*
D03*
X379044Y311935D02*
D03*
X431044Y396435D02*
D03*
X327044Y363935D02*
D03*
X320544D02*
D03*
Y383435D02*
D03*
X327044Y370435D02*
D03*
Y376935D02*
D03*
X353044Y357435D02*
D03*
X327044Y383435D02*
D03*
X333544Y376935D02*
D03*
X359544Y350935D02*
D03*
X340044Y376935D02*
D03*
X353044Y363935D02*
D03*
X359544Y337935D02*
D03*
X366044Y324935D02*
D03*
X353044Y344435D02*
D03*
X333544Y350935D02*
D03*
X346544Y396435D02*
D03*
X366044Y350935D02*
D03*
X359544Y396435D02*
D03*
X385544D02*
D03*
X359544Y389935D02*
D03*
X372544Y350935D02*
D03*
X385544Y324935D02*
D03*
X392044D02*
D03*
X398544Y318435D02*
D03*
X392044D02*
D03*
X405044Y305435D02*
D03*
X398544Y324935D02*
D03*
Y311935D02*
D03*
X411544D02*
D03*
X418044Y298935D02*
D03*
X424544D02*
D03*
X418044Y285935D02*
D03*
X431044Y298935D02*
D03*
X424544Y285935D02*
D03*
X437544Y298935D02*
D03*
Y279435D02*
D03*
X418044Y292435D02*
D03*
X431044Y279435D02*
D03*
X424544D02*
D03*
X392044Y298935D02*
D03*
X418044Y279435D02*
D03*
X405044D02*
D03*
X418044Y272935D02*
D03*
X437544D02*
D03*
X431044Y285935D02*
D03*
X405044Y272935D02*
D03*
Y285935D02*
D03*
X431044Y266435D02*
D03*
X405044D02*
D03*
X392044Y285935D02*
D03*
X398544Y344435D02*
D03*
X437544Y389935D02*
D03*
X405044Y350935D02*
D03*
X392044Y337935D02*
D03*
X385544D02*
D03*
X392044Y331435D02*
D03*
X385544D02*
D03*
X411544Y350935D02*
D03*
X340044Y344435D02*
D03*
X405044Y298935D02*
D03*
X398544D02*
D03*
X340044Y357435D02*
D03*
Y370435D02*
D03*
X333544D02*
D03*
X372544Y324935D02*
D03*
X340044Y318435D02*
D03*
X359544D02*
D03*
X379044D02*
D03*
X320544Y311935D02*
D03*
X385544D02*
D03*
X340044Y298935D02*
D03*
X346544D02*
D03*
X359544D02*
D03*
X320544Y292435D02*
D03*
X333544D02*
D03*
X340044D02*
D03*
X353044Y279435D02*
D03*
X314044Y272935D02*
D03*
X333544Y266435D02*
D03*
X431044Y389935D02*
D03*
X405044Y370435D02*
D03*
X411544D02*
D03*
X424544D02*
D03*
X405044Y363935D02*
D03*
X359544Y305435D02*
D03*
X437544Y285935D02*
D03*
X359544Y311935D02*
D03*
X398544Y279435D02*
D03*
X366044Y318435D02*
D03*
X307544Y272935D02*
D03*
Y285935D02*
D03*
X353044Y292435D02*
D03*
X307544Y279435D02*
D03*
X340044Y272935D02*
D03*
Y266435D02*
D03*
X307544Y305435D02*
D03*
X314044D02*
D03*
X327044Y272935D02*
D03*
X307544Y318435D02*
D03*
X320544Y279435D02*
D03*
X346544D02*
D03*
X320544Y266435D02*
D03*
X346544D02*
D03*
X320544Y272935D02*
D03*
X359544D02*
D03*
X327044Y266435D02*
D03*
X346544Y272935D02*
D03*
Y318435D02*
D03*
X307544Y298935D02*
D03*
X353044Y318435D02*
D03*
X314044Y298935D02*
D03*
X353044Y324935D02*
D03*
X320544Y305435D02*
D03*
X346544Y324935D02*
D03*
X314044Y318435D02*
D03*
X346544Y285935D02*
D03*
X320544D02*
D03*
X327044Y292435D02*
D03*
Y298935D02*
D03*
X353044D02*
D03*
Y305435D02*
D03*
X327044Y311935D02*
D03*
X353044Y285935D02*
D03*
X327044Y305435D02*
D03*
X359544Y331435D02*
D03*
X314044Y285935D02*
D03*
X333544Y311935D02*
D03*
X359544Y324935D02*
D03*
X320544Y298935D02*
D03*
X327044Y285935D02*
D03*
X353044Y331435D02*
D03*
X314044Y279435D02*
D03*
X346544Y311935D02*
D03*
X327044Y279435D02*
D03*
X340044Y305435D02*
D03*
Y285935D02*
D03*
X333544D02*
D03*
X340044Y311935D02*
D03*
Y279435D02*
D03*
X431044Y383435D02*
D03*
X424544Y357435D02*
D03*
X340044Y396435D02*
D03*
Y389935D02*
D03*
X307544Y383435D02*
D03*
Y389935D02*
D03*
X314044Y376935D02*
D03*
X418044Y370435D02*
D03*
X320544Y357435D02*
D03*
X314044Y383435D02*
D03*
X320544Y376935D02*
D03*
X307544D02*
D03*
X314044Y357435D02*
D03*
X307544Y363935D02*
D03*
X314044D02*
D03*
X307544Y357435D02*
D03*
X437544Y363935D02*
D03*
Y357435D02*
D03*
X431044Y363935D02*
D03*
Y376935D02*
D03*
X437544Y383435D02*
D03*
X431044Y357435D02*
D03*
X418044Y266435D02*
D03*
X372544Y279435D02*
D03*
X366044Y311935D02*
D03*
X379044Y337935D02*
D03*
X366044D02*
D03*
X346544D02*
D03*
X392044Y357435D02*
D03*
X359544D02*
D03*
X353044Y370435D02*
D03*
X411544Y376935D02*
D03*
X405044D02*
D03*
X346544D02*
D03*
Y383435D02*
D03*
X418044Y389935D02*
D03*
X424544Y396435D02*
D03*
D157*
X434250Y221750D02*
D03*
Y206250D02*
D03*
X423750Y206250D02*
D03*
Y221750D02*
D03*
D158*
X416000Y117000D02*
D03*
X438000D02*
D03*
X427000D02*
D03*
X449000D02*
D03*
X405000D02*
D03*
X394000D02*
D03*
X471000D02*
D03*
X460000D02*
D03*
D159*
X382250Y145050D02*
D03*
D160*
X197595Y395136D02*
D03*
X213594Y411637D02*
D03*
Y395136D02*
D03*
X197595Y411637D02*
D03*
D161*
X289222Y216988D02*
D03*
X289170Y211383D02*
D03*
Y229185D02*
D03*
X289222Y223326D02*
D03*
X269226Y231456D02*
D03*
X283920Y211383D02*
D03*
X283972Y223326D02*
D03*
X283920Y229185D02*
D03*
X283972Y216988D02*
D03*
X263976Y231456D02*
D03*
D162*
X96950Y36000D02*
D03*
X84250D02*
D03*
X147750D02*
D03*
X109650D02*
D03*
X122350D02*
D03*
X160450D02*
D03*
X135050D02*
D03*
X71550D02*
D03*
D163*
X383000Y791750D02*
D03*
Y776250D02*
D03*
X362000Y791750D02*
D03*
Y776250D02*
D03*
X244000D02*
D03*
Y791750D02*
D03*
X222000Y776500D02*
D03*
Y792000D02*
D03*
X509000Y699250D02*
D03*
Y731250D02*
D03*
X763000Y371000D02*
D03*
X681090Y371171D02*
D03*
Y387171D02*
D03*
X763000Y387000D02*
D03*
X509000Y746750D02*
D03*
Y714750D02*
D03*
X201000Y791750D02*
D03*
Y776250D02*
D03*
D164*
X362000Y610000D02*
D03*
X362002Y694000D02*
D03*
D165*
X131300Y848500D02*
D03*
Y853500D02*
D03*
Y843500D02*
D03*
Y838500D02*
D03*
X160700D02*
D03*
Y843500D02*
D03*
Y848500D02*
D03*
Y853500D02*
D03*
D166*
X487000Y694000D02*
D03*
X189000Y469000D02*
D03*
Y489000D02*
D03*
X189000Y591000D02*
D03*
X276000Y469000D02*
D03*
X276000Y591000D02*
D03*
Y571000D02*
D03*
X189000D02*
D03*
X276000Y489000D02*
D03*
X487000Y674000D02*
D03*
D167*
X329796Y509290D02*
D03*
X336296Y549290D02*
D03*
Y509290D02*
D03*
X316796Y549290D02*
D03*
X323296D02*
D03*
X316796Y509290D02*
D03*
X323296D02*
D03*
X329796Y549290D02*
D03*
D168*
X142000Y477000D02*
D03*
X154000D02*
D03*
Y583000D02*
D03*
X142000D02*
D03*
Y553000D02*
D03*
X154000D02*
D03*
X142000Y507000D02*
D03*
X154000D02*
D03*
D169*
X310000Y479000D02*
D03*
Y467000D02*
D03*
X340000Y593000D02*
D03*
Y581000D02*
D03*
Y479000D02*
D03*
Y467000D02*
D03*
X310000Y581000D02*
D03*
Y593000D02*
D03*
D170*
X435000Y735000D02*
D03*
X443000Y639000D02*
D03*
X463000D02*
D03*
X455000Y735000D02*
D03*
D171*
X171927Y721500D02*
D03*
X171917Y726500D02*
D03*
X270000Y726000D02*
D03*
X270011Y721000D02*
D03*
X171969Y639500D02*
D03*
X171958Y644500D02*
D03*
X270002Y639509D02*
D03*
X269991Y644510D02*
D03*
X843851Y137305D02*
D03*
X843840Y142306D02*
D03*
D172*
X164927Y733241D02*
D03*
X178927Y714741D02*
D03*
Y733241D02*
D03*
X164927Y714771D02*
D03*
X277011Y732740D02*
D03*
X263011D02*
D03*
X263011Y714270D02*
D03*
X277011Y714241D02*
D03*
X164969Y632771D02*
D03*
X178969Y632741D02*
D03*
Y651241D02*
D03*
X164969D02*
D03*
X263002Y632780D02*
D03*
X277002Y632751D02*
D03*
Y651250D02*
D03*
X263002D02*
D03*
X836840Y149064D02*
D03*
X850840Y149035D02*
D03*
X836840Y130565D02*
D03*
X850840D02*
D03*
D173*
X180677Y716741D02*
D03*
Y731241D02*
D03*
X163177Y731241D02*
D03*
Y716770D02*
D03*
X278761Y730740D02*
D03*
X261261Y730740D02*
D03*
Y716270D02*
D03*
X278761Y716241D02*
D03*
X163219Y634771D02*
D03*
X180719Y634741D02*
D03*
Y649241D02*
D03*
X163219Y649241D02*
D03*
X261252Y634780D02*
D03*
X278752Y634751D02*
D03*
Y649250D02*
D03*
X261252Y649250D02*
D03*
X835090Y147064D02*
D03*
X852590Y147035D02*
D03*
X835090Y132565D02*
D03*
X852590Y132565D02*
D03*
D174*
X455950Y189350D02*
D03*
X414050D02*
D03*
D175*
X488600Y143800D02*
D03*
D176*
X340000Y473000D02*
D03*
X310000D02*
D03*
Y587000D02*
D03*
X340000D02*
D03*
D177*
X148000Y583000D02*
D03*
Y553000D02*
D03*
Y507000D02*
D03*
Y477000D02*
D03*
D178*
X400620Y219000D02*
D03*
X385380D02*
D03*
D179*
X893000Y850000D02*
D03*
Y50000D02*
D03*
X35700Y824600D02*
D03*
Y88000D02*
D03*
D180*
X670400Y810000D02*
D03*
X543400D02*
D03*
X645000D02*
D03*
X619600D02*
D03*
X568800D02*
D03*
X594200D02*
D03*
X695800D02*
D03*
X762000Y812800D02*
D03*
X787400D02*
D03*
X812800D02*
D03*
X762000Y838200D02*
D03*
X787400D02*
D03*
X812800D02*
D03*
X762000Y863600D02*
D03*
X787400D02*
D03*
X812800D02*
D03*
D181*
X35700Y723000D02*
D03*
X61100D02*
D03*
Y519800D02*
D03*
X35700D02*
D03*
Y494400D02*
D03*
X61100D02*
D03*
X111900Y596000D02*
D03*
X86500D02*
D03*
Y418200D02*
D03*
X111900Y164200D02*
D03*
Y265800D02*
D03*
Y240400D02*
D03*
Y316600D02*
D03*
Y291200D02*
D03*
X35700Y443600D02*
D03*
X61100D02*
D03*
X111900Y367400D02*
D03*
X86500D02*
D03*
X111900Y646800D02*
D03*
Y621400D02*
D03*
X61100Y367400D02*
D03*
X35700D02*
D03*
Y418200D02*
D03*
X61100D02*
D03*
X86500Y443600D02*
D03*
Y672200D02*
D03*
Y697600D02*
D03*
X111900D02*
D03*
Y672200D02*
D03*
Y748400D02*
D03*
Y723000D02*
D03*
Y469000D02*
D03*
Y443600D02*
D03*
Y418200D02*
D03*
X86500Y392800D02*
D03*
X111900D02*
D03*
X86500Y164200D02*
D03*
Y138800D02*
D03*
Y469000D02*
D03*
Y316600D02*
D03*
X111900Y342000D02*
D03*
X86500D02*
D03*
X111900Y545200D02*
D03*
X86500D02*
D03*
X111900Y570600D02*
D03*
X86500D02*
D03*
Y621400D02*
D03*
Y646800D02*
D03*
Y748400D02*
D03*
X111900Y773800D02*
D03*
X86500D02*
D03*
X111900Y189600D02*
D03*
X86500D02*
D03*
X111900Y215000D02*
D03*
X86500D02*
D03*
Y265800D02*
D03*
Y291200D02*
D03*
Y240400D02*
D03*
Y494400D02*
D03*
X111900D02*
D03*
Y519800D02*
D03*
X86500D02*
D03*
Y723000D02*
D03*
X35700Y240400D02*
D03*
Y265800D02*
D03*
Y215000D02*
D03*
X61100D02*
D03*
Y189600D02*
D03*
X35700Y164200D02*
D03*
Y138800D02*
D03*
Y773800D02*
D03*
X61100D02*
D03*
X35700Y748400D02*
D03*
X61100D02*
D03*
X35700Y646800D02*
D03*
Y621400D02*
D03*
Y570600D02*
D03*
X61100D02*
D03*
X35700Y545200D02*
D03*
X61100D02*
D03*
X35700Y469000D02*
D03*
Y392800D02*
D03*
Y342000D02*
D03*
X61100D02*
D03*
X35700Y316600D02*
D03*
X61100Y164200D02*
D03*
Y392800D02*
D03*
Y469000D02*
D03*
X35700Y189600D02*
D03*
X61100Y240400D02*
D03*
Y265800D02*
D03*
Y291200D02*
D03*
Y316600D02*
D03*
Y596000D02*
D03*
X35700D02*
D03*
X61100Y621400D02*
D03*
Y672200D02*
D03*
X35700Y291200D02*
D03*
X61100Y697600D02*
D03*
X35700D02*
D03*
X61100Y646800D02*
D03*
X35700Y672200D02*
D03*
D182*
X732950Y130000D02*
D03*
X517050D02*
D03*
D183*
X721200Y810000D02*
D03*
X838200Y812800D02*
D03*
Y838200D02*
D03*
Y863600D02*
D03*
D184*
X111900Y138800D02*
D03*
X61100D02*
D03*
M02*
