G04*
G04 #@! TF.GenerationSoftware,Altium Limited,Altium Designer,26.4.1 (12)*
G04*
G04 Layer_Color=8421504*
%FSLAX44Y44*%
%MOMM*%
G71*
G04*
G04 #@! TF.SameCoordinates,5FFEAE5A-4657-4525-8EA9-9AA3AE1B16BF*
G04*
G04*
G04 #@! TF.FilePolarity,Positive*
G04*
G01*
G75*
G04:AMPARAMS|DCode=22|XSize=0.9mm|YSize=0.8mm|CornerRadius=0.2mm|HoleSize=0mm|Usage=FLASHONLY|Rotation=270.000|XOffset=0mm|YOffset=0mm|HoleType=Round|Shape=RoundedRectangle|*
%AMROUNDEDRECTD22*
21,1,0.9000,0.4000,0,0,270.0*
21,1,0.5000,0.8000,0,0,270.0*
1,1,0.4000,-0.2000,-0.2500*
1,1,0.4000,-0.2000,0.2500*
1,1,0.4000,0.2000,0.2500*
1,1,0.4000,0.2000,-0.2500*
%
%ADD22ROUNDEDRECTD22*%
%ADD23R,0.8000X1.6000*%
%ADD24R,2.1000X3.0000*%
%ADD25R,0.2540X0.8128*%
%ADD26R,0.8128X0.2540*%
G04:AMPARAMS|DCode=27|XSize=1.65mm|YSize=2.55mm|CornerRadius=0.2475mm|HoleSize=0mm|Usage=FLASHONLY|Rotation=0.000|XOffset=0mm|YOffset=0mm|HoleType=Round|Shape=RoundedRectangle|*
%AMROUNDEDRECTD27*
21,1,1.6500,2.0550,0,0,0.0*
21,1,1.1550,2.5500,0,0,0.0*
1,1,0.4950,0.5775,-1.0275*
1,1,0.4950,-0.5775,-1.0275*
1,1,0.4950,-0.5775,1.0275*
1,1,0.4950,0.5775,1.0275*
%
%ADD27ROUNDEDRECTD27*%
G04:AMPARAMS|DCode=28|XSize=0.55mm|YSize=0.6mm|CornerRadius=0.1375mm|HoleSize=0mm|Usage=FLASHONLY|Rotation=180.000|XOffset=0mm|YOffset=0mm|HoleType=Round|Shape=RoundedRectangle|*
%AMROUNDEDRECTD28*
21,1,0.5500,0.3250,0,0,180.0*
21,1,0.2750,0.6000,0,0,180.0*
1,1,0.2750,-0.1375,0.1625*
1,1,0.2750,0.1375,0.1625*
1,1,0.2750,0.1375,-0.1625*
1,1,0.2750,-0.1375,-0.1625*
%
%ADD28ROUNDEDRECTD28*%
G04:AMPARAMS|DCode=29|XSize=0.95mm|YSize=0.85mm|CornerRadius=0.2125mm|HoleSize=0mm|Usage=FLASHONLY|Rotation=270.000|XOffset=0mm|YOffset=0mm|HoleType=Round|Shape=RoundedRectangle|*
%AMROUNDEDRECTD29*
21,1,0.9500,0.4250,0,0,270.0*
21,1,0.5250,0.8500,0,0,270.0*
1,1,0.4250,-0.2125,-0.2625*
1,1,0.4250,-0.2125,0.2625*
1,1,0.4250,0.2125,0.2625*
1,1,0.4250,0.2125,-0.2625*
%
%ADD29ROUNDEDRECTD29*%
%ADD30R,3.0000X2.1000*%
%ADD31C,0.4500*%
%ADD32R,1.6000X0.8000*%
G04:AMPARAMS|DCode=33|XSize=1.57mm|YSize=0.41mm|CornerRadius=0.0513mm|HoleSize=0mm|Usage=FLASHONLY|Rotation=0.000|XOffset=0mm|YOffset=0mm|HoleType=Round|Shape=RoundedRectangle|*
%AMROUNDEDRECTD33*
21,1,1.5700,0.3075,0,0,0.0*
21,1,1.4675,0.4100,0,0,0.0*
1,1,0.1025,0.7338,-0.1538*
1,1,0.1025,-0.7338,-0.1538*
1,1,0.1025,-0.7338,0.1538*
1,1,0.1025,0.7338,0.1538*
%
%ADD33ROUNDEDRECTD33*%
G04:AMPARAMS|DCode=34|XSize=0.65mm|YSize=0.6mm|CornerRadius=0.15mm|HoleSize=0mm|Usage=FLASHONLY|Rotation=270.000|XOffset=0mm|YOffset=0mm|HoleType=Round|Shape=RoundedRectangle|*
%AMROUNDEDRECTD34*
21,1,0.6500,0.3000,0,0,270.0*
21,1,0.3500,0.6000,0,0,270.0*
1,1,0.3000,-0.1500,-0.1750*
1,1,0.3000,-0.1500,0.1750*
1,1,0.3000,0.1500,0.1750*
1,1,0.3000,0.1500,-0.1750*
%
%ADD34ROUNDEDRECTD34*%
%ADD35R,0.1778X0.6096*%
%ADD36R,1.4478X1.4478*%
G04:AMPARAMS|DCode=37|XSize=0.65mm|YSize=0.6mm|CornerRadius=0.15mm|HoleSize=0mm|Usage=FLASHONLY|Rotation=180.000|XOffset=0mm|YOffset=0mm|HoleType=Round|Shape=RoundedRectangle|*
%AMROUNDEDRECTD37*
21,1,0.6500,0.3000,0,0,180.0*
21,1,0.3500,0.6000,0,0,180.0*
1,1,0.3000,-0.1750,0.1500*
1,1,0.3000,0.1750,0.1500*
1,1,0.3000,0.1750,-0.1500*
1,1,0.3000,-0.1750,-0.1500*
%
%ADD37ROUNDEDRECTD37*%
%ADD38R,0.6096X0.1778*%
%ADD39C,0.4900*%
%ADD40R,1.1000X1.4000*%
%ADD41R,1.3494X1.2224*%
%ADD42R,1.6000X1.4000*%
G04:AMPARAMS|DCode=43|XSize=0.4572mm|YSize=1.3716mm|CornerRadius=0.1143mm|HoleSize=0mm|Usage=FLASHONLY|Rotation=180.000|XOffset=0mm|YOffset=0mm|HoleType=Round|Shape=RoundedRectangle|*
%AMROUNDEDRECTD43*
21,1,0.4572,1.1430,0,0,180.0*
21,1,0.2286,1.3716,0,0,180.0*
1,1,0.2286,-0.1143,0.5715*
1,1,0.2286,0.1143,0.5715*
1,1,0.2286,0.1143,-0.5715*
1,1,0.2286,-0.1143,-0.5715*
%
%ADD43ROUNDEDRECTD43*%
%ADD44R,0.8000X1.4000*%
G04:AMPARAMS|DCode=45|XSize=1.21mm|YSize=0.59mm|CornerRadius=0.0738mm|HoleSize=0mm|Usage=FLASHONLY|Rotation=90.000|XOffset=0mm|YOffset=0mm|HoleType=Round|Shape=RoundedRectangle|*
%AMROUNDEDRECTD45*
21,1,1.2100,0.4425,0,0,90.0*
21,1,1.0625,0.5900,0,0,90.0*
1,1,0.1475,0.2213,0.5313*
1,1,0.1475,0.2213,-0.5313*
1,1,0.1475,-0.2213,-0.5313*
1,1,0.1475,-0.2213,0.5313*
%
%ADD45ROUNDEDRECTD45*%
%ADD46R,1.1938X1.3970*%
G04:AMPARAMS|DCode=47|XSize=0.9mm|YSize=0.8mm|CornerRadius=0.2mm|HoleSize=0mm|Usage=FLASHONLY|Rotation=180.000|XOffset=0mm|YOffset=0mm|HoleType=Round|Shape=RoundedRectangle|*
%AMROUNDEDRECTD47*
21,1,0.9000,0.4000,0,0,180.0*
21,1,0.5000,0.8000,0,0,180.0*
1,1,0.4000,-0.2500,0.2000*
1,1,0.4000,0.2500,0.2000*
1,1,0.4000,0.2500,-0.2000*
1,1,0.4000,-0.2500,-0.2000*
%
%ADD47ROUNDEDRECTD47*%
G04:AMPARAMS|DCode=48|XSize=0.68mm|YSize=0.3mm|CornerRadius=0.105mm|HoleSize=0mm|Usage=FLASHONLY|Rotation=0.000|XOffset=0mm|YOffset=0mm|HoleType=Round|Shape=RoundedRectangle|*
%AMROUNDEDRECTD48*
21,1,0.6800,0.0900,0,0,0.0*
21,1,0.4700,0.3000,0,0,0.0*
1,1,0.2100,0.2350,-0.0450*
1,1,0.2100,-0.2350,-0.0450*
1,1,0.2100,-0.2350,0.0450*
1,1,0.2100,0.2350,0.0450*
%
%ADD48ROUNDEDRECTD48*%
G04:AMPARAMS|DCode=49|XSize=1.4097mm|YSize=0.3556mm|CornerRadius=0.0889mm|HoleSize=0mm|Usage=FLASHONLY|Rotation=180.000|XOffset=0mm|YOffset=0mm|HoleType=Round|Shape=RoundedRectangle|*
%AMROUNDEDRECTD49*
21,1,1.4097,0.1778,0,0,180.0*
21,1,1.2319,0.3556,0,0,180.0*
1,1,0.1778,-0.6160,0.0889*
1,1,0.1778,0.6160,0.0889*
1,1,0.1778,0.6160,-0.0889*
1,1,0.1778,-0.6160,-0.0889*
%
%ADD49ROUNDEDRECTD49*%
%ADD50R,1.8542X1.2954*%
G04:AMPARAMS|DCode=51|XSize=0.55mm|YSize=0.6mm|CornerRadius=0.1375mm|HoleSize=0mm|Usage=FLASHONLY|Rotation=90.000|XOffset=0mm|YOffset=0mm|HoleType=Round|Shape=RoundedRectangle|*
%AMROUNDEDRECTD51*
21,1,0.5500,0.3250,0,0,90.0*
21,1,0.2750,0.6000,0,0,90.0*
1,1,0.2750,0.1625,0.1375*
1,1,0.2750,0.1625,-0.1375*
1,1,0.2750,-0.1625,-0.1375*
1,1,0.2750,-0.1625,0.1375*
%
%ADD51ROUNDEDRECTD51*%
%ADD52R,0.2032X0.6096*%
%ADD53R,2.7432X0.9398*%
G04:AMPARAMS|DCode=54|XSize=1.2mm|YSize=1.3mm|CornerRadius=0.246mm|HoleSize=0mm|Usage=FLASHONLY|Rotation=180.000|XOffset=0mm|YOffset=0mm|HoleType=Round|Shape=RoundedRectangle|*
%AMROUNDEDRECTD54*
21,1,1.2000,0.8080,0,0,180.0*
21,1,0.7080,1.3000,0,0,180.0*
1,1,0.4920,-0.3540,0.4040*
1,1,0.4920,0.3540,0.4040*
1,1,0.4920,0.3540,-0.4040*
1,1,0.4920,-0.3540,-0.4040*
%
%ADD54ROUNDEDRECTD54*%
G04:AMPARAMS|DCode=55|XSize=1.1mm|YSize=0.6mm|CornerRadius=0.05mm|HoleSize=0mm|Usage=FLASHONLY|Rotation=0.000|XOffset=0mm|YOffset=0mm|HoleType=Round|Shape=RoundedRectangle|*
%AMROUNDEDRECTD55*
21,1,1.1000,0.5000,0,0,0.0*
21,1,1.0000,0.6000,0,0,0.0*
1,1,0.1000,0.5000,-0.2500*
1,1,0.1000,-0.5000,-0.2500*
1,1,0.1000,-0.5000,0.2500*
1,1,0.1000,0.5000,0.2500*
%
%ADD55ROUNDEDRECTD55*%
G04:AMPARAMS|DCode=56|XSize=1.2mm|YSize=1.3mm|CornerRadius=0.246mm|HoleSize=0mm|Usage=FLASHONLY|Rotation=270.000|XOffset=0mm|YOffset=0mm|HoleType=Round|Shape=RoundedRectangle|*
%AMROUNDEDRECTD56*
21,1,1.2000,0.8080,0,0,270.0*
21,1,0.7080,1.3000,0,0,270.0*
1,1,0.4920,-0.4040,-0.3540*
1,1,0.4920,-0.4040,0.3540*
1,1,0.4920,0.4040,0.3540*
1,1,0.4920,0.4040,-0.3540*
%
%ADD56ROUNDEDRECTD56*%
G04:AMPARAMS|DCode=57|XSize=1.64mm|YSize=0.59mm|CornerRadius=0.1475mm|HoleSize=0mm|Usage=FLASHONLY|Rotation=180.000|XOffset=0mm|YOffset=0mm|HoleType=Round|Shape=RoundedRectangle|*
%AMROUNDEDRECTD57*
21,1,1.6400,0.2950,0,0,180.0*
21,1,1.3450,0.5900,0,0,180.0*
1,1,0.2950,-0.6725,0.1475*
1,1,0.2950,0.6725,0.1475*
1,1,0.2950,0.6725,-0.1475*
1,1,0.2950,-0.6725,-0.1475*
%
%ADD57ROUNDEDRECTD57*%
G04:AMPARAMS|DCode=58|XSize=1.32mm|YSize=0.6mm|CornerRadius=0.075mm|HoleSize=0mm|Usage=FLASHONLY|Rotation=180.000|XOffset=0mm|YOffset=0mm|HoleType=Round|Shape=RoundedRectangle|*
%AMROUNDEDRECTD58*
21,1,1.3200,0.4500,0,0,180.0*
21,1,1.1700,0.6000,0,0,180.0*
1,1,0.1500,-0.5850,0.2250*
1,1,0.1500,0.5850,0.2250*
1,1,0.1500,0.5850,-0.2250*
1,1,0.1500,-0.5850,-0.2250*
%
%ADD58ROUNDEDRECTD58*%
%ADD59R,1.0414X0.6604*%
%ADD60R,0.2500X0.6500*%
%ADD61R,2.9464X1.7526*%
%ADD62R,0.4318X1.3335*%
%ADD63R,0.4000X0.4000*%
%ADD64R,0.8000X0.5000*%
%ADD65R,1.0414X1.1938*%
%ADD66R,1.0414X1.0922*%
G04:AMPARAMS|DCode=67|XSize=1.32mm|YSize=0.6mm|CornerRadius=0.075mm|HoleSize=0mm|Usage=FLASHONLY|Rotation=90.000|XOffset=0mm|YOffset=0mm|HoleType=Round|Shape=RoundedRectangle|*
%AMROUNDEDRECTD67*
21,1,1.3200,0.4500,0,0,90.0*
21,1,1.1700,0.6000,0,0,90.0*
1,1,0.1500,0.2250,0.5850*
1,1,0.1500,0.2250,-0.5850*
1,1,0.1500,-0.2250,-0.5850*
1,1,0.1500,-0.2250,0.5850*
%
%ADD67ROUNDEDRECTD67*%
%ADD68R,0.9500X2.1500*%
G04:AMPARAMS|DCode=69|XSize=1.4097mm|YSize=0.3556mm|CornerRadius=0.0889mm|HoleSize=0mm|Usage=FLASHONLY|Rotation=90.000|XOffset=0mm|YOffset=0mm|HoleType=Round|Shape=RoundedRectangle|*
%AMROUNDEDRECTD69*
21,1,1.4097,0.1778,0,0,90.0*
21,1,1.2319,0.3556,0,0,90.0*
1,1,0.1778,0.0889,0.6160*
1,1,0.1778,0.0889,-0.6160*
1,1,0.1778,-0.0889,-0.6160*
1,1,0.1778,-0.0889,0.6160*
%
%ADD69ROUNDEDRECTD69*%
%ADD70R,1.4732X0.5334*%
G04:AMPARAMS|DCode=71|XSize=0.35mm|YSize=0.8mm|CornerRadius=0.0875mm|HoleSize=0mm|Usage=FLASHONLY|Rotation=270.000|XOffset=0mm|YOffset=0mm|HoleType=Round|Shape=RoundedRectangle|*
%AMROUNDEDRECTD71*
21,1,0.3500,0.6250,0,0,270.0*
21,1,0.1750,0.8000,0,0,270.0*
1,1,0.1750,-0.3125,-0.0875*
1,1,0.1750,-0.3125,0.0875*
1,1,0.1750,0.3125,0.0875*
1,1,0.1750,0.3125,-0.0875*
%
%ADD71ROUNDEDRECTD71*%
%ADD72R,2.1000X2.1000*%
G04:AMPARAMS|DCode=73|XSize=0.83mm|YSize=0.26mm|CornerRadius=0.0091mm|HoleSize=0mm|Usage=FLASHONLY|Rotation=270.000|XOffset=0mm|YOffset=0mm|HoleType=Round|Shape=RoundedRectangle|*
%AMROUNDEDRECTD73*
21,1,0.8300,0.2418,0,0,270.0*
21,1,0.8118,0.2600,0,0,270.0*
1,1,0.0182,-0.1209,-0.4059*
1,1,0.0182,-0.1209,0.4059*
1,1,0.0182,0.1209,0.4059*
1,1,0.0182,0.1209,-0.4059*
%
%ADD73ROUNDEDRECTD73*%
%ADD74R,1.3000X1.3000*%
G04:AMPARAMS|DCode=75|XSize=0.3mm|YSize=0.7mm|CornerRadius=0.075mm|HoleSize=0mm|Usage=FLASHONLY|Rotation=180.000|XOffset=0mm|YOffset=0mm|HoleType=Round|Shape=RoundedRectangle|*
%AMROUNDEDRECTD75*
21,1,0.3000,0.5500,0,0,180.0*
21,1,0.1500,0.7000,0,0,180.0*
1,1,0.1500,-0.0750,0.2750*
1,1,0.1500,0.0750,0.2750*
1,1,0.1500,0.0750,-0.2750*
1,1,0.1500,-0.0750,-0.2750*
%
%ADD75ROUNDEDRECTD75*%
%ADD76R,3.7000X3.7000*%
G04:AMPARAMS|DCode=77|XSize=0.3mm|YSize=0.7mm|CornerRadius=0.075mm|HoleSize=0mm|Usage=FLASHONLY|Rotation=90.000|XOffset=0mm|YOffset=0mm|HoleType=Round|Shape=RoundedRectangle|*
%AMROUNDEDRECTD77*
21,1,0.3000,0.5500,0,0,90.0*
21,1,0.1500,0.7000,0,0,90.0*
1,1,0.1500,0.2750,0.0750*
1,1,0.1500,0.2750,-0.0750*
1,1,0.1500,-0.2750,-0.0750*
1,1,0.1500,-0.2750,0.0750*
%
%ADD77ROUNDEDRECTD77*%
%ADD78C,0.2500*%
G04:AMPARAMS|DCode=79|XSize=0.5mm|YSize=0.7mm|CornerRadius=0.125mm|HoleSize=0mm|Usage=FLASHONLY|Rotation=90.000|XOffset=0mm|YOffset=0mm|HoleType=Round|Shape=RoundedRectangle|*
%AMROUNDEDRECTD79*
21,1,0.5000,0.4500,0,0,90.0*
21,1,0.2500,0.7000,0,0,90.0*
1,1,0.2500,0.2250,0.1250*
1,1,0.2500,0.2250,-0.1250*
1,1,0.2500,-0.2250,-0.1250*
1,1,0.2500,-0.2250,0.1250*
%
%ADD79ROUNDEDRECTD79*%
%ADD80R,0.5080X0.9906*%
%ADD81R,1.0414X2.3876*%
G04:AMPARAMS|DCode=82|XSize=0.65mm|YSize=0.9mm|CornerRadius=0.1625mm|HoleSize=0mm|Usage=FLASHONLY|Rotation=270.000|XOffset=0mm|YOffset=0mm|HoleType=Round|Shape=RoundedRectangle|*
%AMROUNDEDRECTD82*
21,1,0.6500,0.5750,0,0,270.0*
21,1,0.3250,0.9000,0,0,270.0*
1,1,0.3250,-0.2875,-0.1625*
1,1,0.3250,-0.2875,0.1625*
1,1,0.3250,0.2875,0.1625*
1,1,0.3250,0.2875,-0.1625*
%
%ADD82ROUNDEDRECTD82*%
G04:AMPARAMS|DCode=83|XSize=0.275mm|YSize=0.3mm|CornerRadius=0.0688mm|HoleSize=0mm|Usage=FLASHONLY|Rotation=0.000|XOffset=0mm|YOffset=0mm|HoleType=Round|Shape=RoundedRectangle|*
%AMROUNDEDRECTD83*
21,1,0.2750,0.1625,0,0,0.0*
21,1,0.1375,0.3000,0,0,0.0*
1,1,0.1375,0.0688,-0.0813*
1,1,0.1375,-0.0688,-0.0813*
1,1,0.1375,-0.0688,0.0813*
1,1,0.1375,0.0688,0.0813*
%
%ADD83ROUNDEDRECTD83*%
%ADD84C,0.4064*%
%ADD85R,0.7400X2.0000*%
%ADD86R,0.6096X0.2032*%
G04:AMPARAMS|DCode=87|XSize=0.95mm|YSize=0.85mm|CornerRadius=0.2125mm|HoleSize=0mm|Usage=FLASHONLY|Rotation=0.000|XOffset=0mm|YOffset=0mm|HoleType=Round|Shape=RoundedRectangle|*
%AMROUNDEDRECTD87*
21,1,0.9500,0.4250,0,0,0.0*
21,1,0.5250,0.8500,0,0,0.0*
1,1,0.4250,0.2625,-0.2125*
1,1,0.4250,-0.2625,-0.2125*
1,1,0.4250,-0.2625,0.2125*
1,1,0.4250,0.2625,0.2125*
%
%ADD87ROUNDEDRECTD87*%
%ADD88R,3.2500X2.1500*%
G04:AMPARAMS|DCode=89|XSize=0.26mm|YSize=0.83mm|CornerRadius=0.0091mm|HoleSize=0mm|Usage=FLASHONLY|Rotation=270.000|XOffset=0mm|YOffset=0mm|HoleType=Round|Shape=RoundedRectangle|*
%AMROUNDEDRECTD89*
21,1,0.2600,0.8118,0,0,270.0*
21,1,0.2418,0.8300,0,0,270.0*
1,1,0.0182,-0.4059,-0.1209*
1,1,0.0182,-0.4059,0.1209*
1,1,0.0182,0.4059,0.1209*
1,1,0.0182,0.4059,-0.1209*
%
%ADD89ROUNDEDRECTD89*%
%ADD90R,2.4000X0.9000*%
G04:AMPARAMS|DCode=91|XSize=0.35mm|YSize=0.8mm|CornerRadius=0.0875mm|HoleSize=0mm|Usage=FLASHONLY|Rotation=180.000|XOffset=0mm|YOffset=0mm|HoleType=Round|Shape=RoundedRectangle|*
%AMROUNDEDRECTD91*
21,1,0.3500,0.6250,0,0,180.0*
21,1,0.1750,0.8000,0,0,180.0*
1,1,0.1750,-0.0875,0.3125*
1,1,0.1750,0.0875,0.3125*
1,1,0.1750,0.0875,-0.3125*
1,1,0.1750,-0.0875,-0.3125*
%
%ADD91ROUNDEDRECTD91*%
%ADD92R,0.5000X1.0000*%
%ADD93R,1.0000X0.5000*%
%ADD94R,0.9000X2.4000*%
%ADD95R,2.4000X0.3000*%
%ADD96R,0.3000X0.6500*%
%ADD97R,0.6500X0.2500*%
%ADD98R,2.9210X0.5588*%
%ADD99R,0.7112X0.7874*%
%ADD100R,1.0000X0.3500*%
%ADD101R,0.3500X1.0000*%
%ADD102R,0.9652X1.2192*%
G36*
X139141Y839150D02*
Y845149D01*
X145150D01*
Y839150D01*
X139141D01*
D02*
G37*
G36*
X139150Y846850D02*
Y852850D01*
X145150D01*
Y846850D01*
X139150D01*
D02*
G37*
G36*
X146851Y839150D02*
Y845149D01*
X152850D01*
Y839150D01*
X146851D01*
D02*
G37*
G36*
X146851Y846850D02*
Y852855D01*
X152850D01*
Y846850D01*
X146851D01*
D02*
G37*
G36*
X497600Y532600D02*
X489400D01*
Y541400D01*
X497600D01*
Y532600D01*
D02*
G37*
G36*
X793268Y270763D02*
Y255237D01*
X806000D01*
Y270763D01*
X793268D01*
D02*
G37*
G36*
X808000D02*
Y255237D01*
X820732D01*
Y270763D01*
X808000D01*
D02*
G37*
G36*
X442000Y673745D02*
Y688255D01*
X430792D01*
Y673745D01*
X442000D01*
D02*
G37*
G36*
X455208D02*
Y688255D01*
X444000D01*
Y673745D01*
X455208D01*
D02*
G37*
D22*
X748000Y377000D02*
D03*
X732000D02*
D03*
X493000Y658000D02*
D03*
X404000Y747000D02*
D03*
X427000Y712000D02*
D03*
X412000Y630000D02*
D03*
X239000Y591000D02*
D03*
Y469000D02*
D03*
X226000Y591000D02*
D03*
Y469000D02*
D03*
X210000D02*
D03*
Y591000D02*
D03*
X255000Y469000D02*
D03*
X420000Y747000D02*
D03*
X255000Y591000D02*
D03*
X428000Y630000D02*
D03*
X443000Y712000D02*
D03*
X477000Y658000D02*
D03*
D23*
X688250Y833000D02*
D03*
X675750D02*
D03*
X700750D02*
D03*
X663250D02*
D03*
X481250Y825500D02*
D03*
X418750D02*
D03*
X456250D02*
D03*
X468750D02*
D03*
X431250D02*
D03*
X443750D02*
D03*
X303750D02*
D03*
X291250D02*
D03*
X328750D02*
D03*
X316250D02*
D03*
X278750D02*
D03*
X341250D02*
D03*
D24*
X637750Y862000D02*
D03*
X726250D02*
D03*
X393250Y854500D02*
D03*
X506750D02*
D03*
X366750D02*
D03*
X253250D02*
D03*
D25*
X445501Y695478D02*
D03*
X435498D02*
D03*
X430497D02*
D03*
X435498Y666522D02*
D03*
X440499D02*
D03*
X445501D02*
D03*
X450502Y695478D02*
D03*
X440499D02*
D03*
X455503Y666522D02*
D03*
X430497D02*
D03*
X450502D02*
D03*
X455503Y695478D02*
D03*
D26*
X423569Y673498D02*
D03*
X462431D02*
D03*
Y678499D02*
D03*
X423569Y683501D02*
D03*
Y688502D02*
D03*
Y678499D02*
D03*
X462431Y683501D02*
D03*
Y688502D02*
D03*
D27*
X803920Y155153D02*
D03*
Y114153D02*
D03*
X309931Y749153D02*
D03*
X309922Y667662D02*
D03*
X211848Y749653D02*
D03*
X211889Y667653D02*
D03*
X211848Y708653D02*
D03*
X309931Y708153D02*
D03*
X211889Y626653D02*
D03*
X309922Y626662D02*
D03*
D28*
X499500Y228000D02*
D03*
X508500D02*
D03*
X825500Y786900D02*
D03*
X815500Y787000D02*
D03*
X825500Y777900D02*
D03*
X766500Y778000D02*
D03*
X813500Y677000D02*
D03*
X823500Y668000D02*
D03*
Y677000D02*
D03*
X766500Y668000D02*
D03*
X517500Y807000D02*
D03*
X475500Y759000D02*
D03*
X487500Y726000D02*
D03*
X517500Y614000D02*
D03*
X498000Y555000D02*
D03*
X663590Y377171D02*
D03*
X689090Y305921D02*
D03*
X702590Y281171D02*
D03*
X556590Y344171D02*
D03*
Y368171D02*
D03*
X484500Y431000D02*
D03*
X508500Y378000D02*
D03*
X462500Y460000D02*
D03*
X472500D02*
D03*
X484500Y328000D02*
D03*
X626514Y301346D02*
D03*
X557514Y298346D02*
D03*
X484500Y298000D02*
D03*
X387500Y804000D02*
D03*
X371620Y571211D02*
D03*
X366500Y804000D02*
D03*
X370850Y494390D02*
D03*
X333220D02*
D03*
X238000Y576000D02*
D03*
X286500Y537000D02*
D03*
Y518000D02*
D03*
Y527500D02*
D03*
X238500Y484000D02*
D03*
X227000Y576000D02*
D03*
X180998Y531220D02*
D03*
X226500Y484000D02*
D03*
X142002Y533999D02*
D03*
Y523999D02*
D03*
X399500Y202000D02*
D03*
X387500D02*
D03*
X203500Y428000D02*
D03*
X238500Y410000D02*
D03*
X266500Y389000D02*
D03*
Y350000D02*
D03*
Y341000D02*
D03*
X499500Y411000D02*
D03*
X508500D02*
D03*
X499500Y399000D02*
D03*
X508500D02*
D03*
X499500Y368000D02*
D03*
X508500D02*
D03*
X499500Y358000D02*
D03*
X508500D02*
D03*
X499500Y338000D02*
D03*
X508500D02*
D03*
X499500Y308000D02*
D03*
X508500D02*
D03*
X499500Y298000D02*
D03*
X508500D02*
D03*
X499500Y278000D02*
D03*
X508500D02*
D03*
X503500Y268000D02*
D03*
X512500D02*
D03*
Y238000D02*
D03*
X503500D02*
D03*
X512500Y248000D02*
D03*
X503500D02*
D03*
Y258000D02*
D03*
X512500D02*
D03*
X508500Y288000D02*
D03*
X499500D02*
D03*
Y318000D02*
D03*
X508500D02*
D03*
X499500Y328000D02*
D03*
X508500D02*
D03*
X499500Y348000D02*
D03*
X508500D02*
D03*
X499500Y378000D02*
D03*
Y388000D02*
D03*
X508500D02*
D03*
X248500Y360000D02*
D03*
X238500Y350000D02*
D03*
X654590Y377171D02*
D03*
X626514Y289346D02*
D03*
Y280346D02*
D03*
X557514Y310346D02*
D03*
X566514Y298346D02*
D03*
X557514Y289346D02*
D03*
Y280346D02*
D03*
X190046Y542386D02*
D03*
X247500Y341000D02*
D03*
X257500D02*
D03*
X508500Y614000D02*
D03*
Y592000D02*
D03*
X517500D02*
D03*
X508500Y580000D02*
D03*
X517500D02*
D03*
Y571000D02*
D03*
X508500D02*
D03*
X399500Y573000D02*
D03*
X390500D02*
D03*
X508500Y601000D02*
D03*
X517500D02*
D03*
X399500Y602000D02*
D03*
X390500D02*
D03*
Y592000D02*
D03*
X399500D02*
D03*
Y583000D02*
D03*
X390500D02*
D03*
Y611000D02*
D03*
X399500D02*
D03*
X834500Y786900D02*
D03*
Y777900D02*
D03*
X766500Y787000D02*
D03*
X775500Y778000D02*
D03*
X815500Y777900D02*
D03*
X832500Y677000D02*
D03*
X813500Y668000D02*
D03*
X832500D02*
D03*
X775500D02*
D03*
X766500Y678000D02*
D03*
X508500Y807000D02*
D03*
X498500D02*
D03*
X521000Y689000D02*
D03*
X487500Y708000D02*
D03*
Y717000D02*
D03*
X519500Y460000D02*
D03*
X510500Y449000D02*
D03*
X507000Y555000D02*
D03*
X485000D02*
D03*
X500500Y460000D02*
D03*
X453500D02*
D03*
X387751Y475472D02*
D03*
X521000Y671000D02*
D03*
Y680000D02*
D03*
X740000Y662000D02*
D03*
Y671000D02*
D03*
Y689000D02*
D03*
X806500Y777900D02*
D03*
X804500Y668000D02*
D03*
X484500Y441000D02*
D03*
X371620Y561051D02*
D03*
Y550891D02*
D03*
Y519141D02*
D03*
Y508981D02*
D03*
X181046Y552000D02*
D03*
Y542386D02*
D03*
X361850Y494390D02*
D03*
X342220D02*
D03*
X212500Y428000D02*
D03*
X238500Y401000D02*
D03*
Y389000D02*
D03*
Y341000D02*
D03*
X190046Y552000D02*
D03*
X362620Y550891D02*
D03*
X566514Y280346D02*
D03*
X277500Y518000D02*
D03*
X189500Y514525D02*
D03*
X257500Y371000D02*
D03*
X617514Y280346D02*
D03*
X362620Y561051D02*
D03*
X277500Y537000D02*
D03*
X484500Y412000D02*
D03*
Y338000D02*
D03*
Y400000D02*
D03*
X396750Y475472D02*
D03*
X155500Y318000D02*
D03*
X146500D02*
D03*
Y326250D02*
D03*
X155500D02*
D03*
X266500Y371000D02*
D03*
X739500Y389000D02*
D03*
X705590Y384171D02*
D03*
Y374171D02*
D03*
X257500Y401000D02*
D03*
X484500Y348000D02*
D03*
Y318000D02*
D03*
X257500Y419000D02*
D03*
X643590Y321171D02*
D03*
X634590D02*
D03*
X663590Y365171D02*
D03*
X654590D02*
D03*
Y347171D02*
D03*
X663590D02*
D03*
X565590Y335171D02*
D03*
X556590D02*
D03*
X654590Y337171D02*
D03*
X663590D02*
D03*
X556590Y356171D02*
D03*
X565590D02*
D03*
X617514Y289346D02*
D03*
Y301346D02*
D03*
X663590Y356171D02*
D03*
X654590D02*
D03*
X696590Y374171D02*
D03*
X566514Y310346D02*
D03*
Y289346D02*
D03*
X654590Y321171D02*
D03*
X663590D02*
D03*
X711590Y281171D02*
D03*
X565590Y344171D02*
D03*
Y326171D02*
D03*
X556590D02*
D03*
X702590Y272171D02*
D03*
X711590D02*
D03*
X556590Y377171D02*
D03*
X565590D02*
D03*
X696590Y384171D02*
D03*
X565590Y368171D02*
D03*
X680090Y305921D02*
D03*
X748500Y389000D02*
D03*
X484500Y308000D02*
D03*
Y358000D02*
D03*
X804500Y677000D02*
D03*
X775500Y678000D02*
D03*
X806500Y787000D02*
D03*
X775500D02*
D03*
X740000Y644000D02*
D03*
Y653000D02*
D03*
Y698000D02*
D03*
Y680000D02*
D03*
X802500Y304000D02*
D03*
X811500D02*
D03*
X792500D02*
D03*
X783500D02*
D03*
X484500Y379000D02*
D03*
X362620Y508981D02*
D03*
Y571211D02*
D03*
X151002Y523999D02*
D03*
X180500Y514525D02*
D03*
X277500Y527500D02*
D03*
X247500Y484000D02*
D03*
X247000Y576000D02*
D03*
X218000D02*
D03*
X217500Y484000D02*
D03*
X362620Y519141D02*
D03*
X189503Y504594D02*
D03*
X180503D02*
D03*
X151002Y533999D02*
D03*
X189998Y531220D02*
D03*
X491500Y460000D02*
D03*
X466500Y759000D02*
D03*
X530000Y689000D02*
D03*
X740000Y635000D02*
D03*
X731000Y653000D02*
D03*
X530000Y644000D02*
D03*
X521000D02*
D03*
X530000Y708000D02*
D03*
Y662000D02*
D03*
X521000D02*
D03*
X731000Y644000D02*
D03*
X740000Y608000D02*
D03*
Y617000D02*
D03*
X257500Y428000D02*
D03*
X740000Y626000D02*
D03*
X731000Y671000D02*
D03*
X521000Y708000D02*
D03*
X530000Y680000D02*
D03*
X731000Y689000D02*
D03*
X530000Y671000D02*
D03*
X731000Y662000D02*
D03*
Y635000D02*
D03*
Y680000D02*
D03*
Y608000D02*
D03*
Y698000D02*
D03*
Y626000D02*
D03*
Y617000D02*
D03*
X475500Y338000D02*
D03*
X159500Y878000D02*
D03*
X168500D02*
D03*
X484500Y248000D02*
D03*
Y278000D02*
D03*
Y258000D02*
D03*
X475500Y348000D02*
D03*
Y248000D02*
D03*
X489500Y807000D02*
D03*
X484500Y268000D02*
D03*
X378500Y804000D02*
D03*
X357500D02*
D03*
X496500Y708000D02*
D03*
X496500Y726000D02*
D03*
X496500Y717000D02*
D03*
X484500Y218000D02*
D03*
X257500Y350000D02*
D03*
X247500D02*
D03*
X397500Y236000D02*
D03*
X408500Y202000D02*
D03*
X257500Y360000D02*
D03*
X388500Y236000D02*
D03*
X411500D02*
D03*
X378500Y202000D02*
D03*
X407500Y246000D02*
D03*
X257500Y410000D02*
D03*
X247500D02*
D03*
Y401000D02*
D03*
X475500Y441000D02*
D03*
Y431000D02*
D03*
X420500Y236000D02*
D03*
X475500Y298000D02*
D03*
Y328000D02*
D03*
X257500Y380000D02*
D03*
X475500Y318000D02*
D03*
Y308000D02*
D03*
Y288000D02*
D03*
Y268000D02*
D03*
Y228000D02*
D03*
Y238000D02*
D03*
Y258000D02*
D03*
Y218000D02*
D03*
Y412000D02*
D03*
Y278000D02*
D03*
X398500Y246000D02*
D03*
X484500Y238000D02*
D03*
Y368000D02*
D03*
X466000Y546000D02*
D03*
X476000Y555000D02*
D03*
X466000D02*
D03*
X510500Y460000D02*
D03*
X484500Y228000D02*
D03*
X519500Y449000D02*
D03*
X481500Y460000D02*
D03*
X466000Y537000D02*
D03*
X457000D02*
D03*
X466000Y528000D02*
D03*
X457000D02*
D03*
Y555000D02*
D03*
Y546000D02*
D03*
X484500Y288000D02*
D03*
X266500Y419000D02*
D03*
X475500Y379000D02*
D03*
X266500Y428000D02*
D03*
Y401000D02*
D03*
Y410000D02*
D03*
Y380000D02*
D03*
X257500Y389000D02*
D03*
X247500D02*
D03*
X475500Y368000D02*
D03*
Y358000D02*
D03*
Y400000D02*
D03*
D29*
X906750Y794000D02*
D03*
X874750Y808000D02*
D03*
Y794000D02*
D03*
X477000Y746000D02*
D03*
X842024Y468000D02*
D03*
Y454000D02*
D03*
X741024Y458000D02*
D03*
Y444000D02*
D03*
X146250Y419000D02*
D03*
Y402000D02*
D03*
Y384000D02*
D03*
X435000Y759000D02*
D03*
X161750Y419000D02*
D03*
Y384000D02*
D03*
Y402000D02*
D03*
X451000Y759000D02*
D03*
X493000Y746000D02*
D03*
X757024Y444000D02*
D03*
Y430000D02*
D03*
Y458000D02*
D03*
Y472000D02*
D03*
X826024Y468000D02*
D03*
Y482000D02*
D03*
Y454000D02*
D03*
Y440000D02*
D03*
X741024Y430000D02*
D03*
Y472000D02*
D03*
X842024Y482000D02*
D03*
Y440000D02*
D03*
X891250Y794000D02*
D03*
X859250Y808000D02*
D03*
Y794000D02*
D03*
X492750Y643000D02*
D03*
X477250D02*
D03*
D30*
X889000Y771000D02*
D03*
Y595000D02*
D03*
X888000Y564000D02*
D03*
Y388000D02*
D03*
D31*
X691847Y721847D02*
D03*
X651847Y741847D02*
D03*
X701847Y691847D02*
D03*
X691847Y621847D02*
D03*
X681847Y651847D02*
D03*
X671847Y681847D02*
D03*
X661847Y711847D02*
D03*
X651847Y681847D02*
D03*
Y641847D02*
D03*
Y661847D02*
D03*
X701847Y591847D02*
D03*
X661847Y611847D02*
D03*
X621847Y731847D02*
D03*
X631847Y701847D02*
D03*
X551847Y741847D02*
D03*
X591847Y721847D02*
D03*
X561847Y711847D02*
D03*
X641847Y681847D02*
D03*
X631847D02*
D03*
X621847Y671847D02*
D03*
Y631847D02*
D03*
Y651847D02*
D03*
X601847Y691847D02*
D03*
Y671847D02*
D03*
X611847Y641847D02*
D03*
X631847Y601847D02*
D03*
X591847Y621847D02*
D03*
X601847Y591847D02*
D03*
X581847Y651847D02*
D03*
X571847Y681847D02*
D03*
X551847Y641847D02*
D03*
X561847Y611847D02*
D03*
X621847Y691847D02*
D03*
X551847Y731847D02*
D03*
X691847Y591847D02*
D03*
X681847D02*
D03*
X671847D02*
D03*
X661847D02*
D03*
X641847D02*
D03*
X631847D02*
D03*
X621847D02*
D03*
X611847D02*
D03*
X591847D02*
D03*
X581847D02*
D03*
X571847D02*
D03*
X561847D02*
D03*
X701847Y601847D02*
D03*
X691847D02*
D03*
X671847D02*
D03*
X661847D02*
D03*
X651847D02*
D03*
X641847D02*
D03*
X621847D02*
D03*
X611847D02*
D03*
X601847D02*
D03*
X591847D02*
D03*
X571847D02*
D03*
X561847D02*
D03*
X551847D02*
D03*
X701847Y611847D02*
D03*
X691847D02*
D03*
X681847D02*
D03*
X671847D02*
D03*
X651847D02*
D03*
X641847D02*
D03*
X631847D02*
D03*
X621847D02*
D03*
X601847D02*
D03*
X591847D02*
D03*
X581847D02*
D03*
X571847D02*
D03*
X551847D02*
D03*
X701847Y621847D02*
D03*
X681847D02*
D03*
X671847D02*
D03*
X661847D02*
D03*
X651847D02*
D03*
X631847D02*
D03*
X621847D02*
D03*
X611847D02*
D03*
X601847D02*
D03*
X581847D02*
D03*
X571847D02*
D03*
X561847D02*
D03*
X551847D02*
D03*
X701847Y631847D02*
D03*
X691847D02*
D03*
X681847D02*
D03*
X661847D02*
D03*
X651847D02*
D03*
X641847D02*
D03*
X631847D02*
D03*
X611847D02*
D03*
X601847D02*
D03*
X591847D02*
D03*
X581847D02*
D03*
X561847D02*
D03*
X551847D02*
D03*
X691847Y641847D02*
D03*
X681847D02*
D03*
X671847D02*
D03*
X661847D02*
D03*
X641847D02*
D03*
X621847D02*
D03*
X601847D02*
D03*
X591847D02*
D03*
X581847D02*
D03*
X571847D02*
D03*
X561847D02*
D03*
X701847Y651847D02*
D03*
X691847D02*
D03*
X671847D02*
D03*
X661847D02*
D03*
X651847D02*
D03*
X641847D02*
D03*
X631847D02*
D03*
X601847D02*
D03*
X591847D02*
D03*
X571847D02*
D03*
X561847D02*
D03*
X551847D02*
D03*
X701847Y661847D02*
D03*
X691847D02*
D03*
X681847D02*
D03*
X671847D02*
D03*
X661847D02*
D03*
X641847D02*
D03*
X631847D02*
D03*
X621847D02*
D03*
X611847D02*
D03*
X601847D02*
D03*
X591847D02*
D03*
X581847D02*
D03*
X571847D02*
D03*
X551847D02*
D03*
X701847Y671847D02*
D03*
X681847D02*
D03*
X671847D02*
D03*
X661847D02*
D03*
X651847D02*
D03*
X641847D02*
D03*
X631847D02*
D03*
X581847D02*
D03*
X571847D02*
D03*
X561847D02*
D03*
X551847D02*
D03*
X701847Y681847D02*
D03*
X691847D02*
D03*
X681847D02*
D03*
X661847D02*
D03*
X621847D02*
D03*
X611847D02*
D03*
X591847D02*
D03*
X581847D02*
D03*
X561847D02*
D03*
X551847D02*
D03*
X691847Y691847D02*
D03*
X681847D02*
D03*
X671847D02*
D03*
X661847D02*
D03*
X641847D02*
D03*
X631847D02*
D03*
X591847D02*
D03*
X581847D02*
D03*
X571847D02*
D03*
X561847D02*
D03*
X701847Y701847D02*
D03*
X691847D02*
D03*
X671847D02*
D03*
X661847D02*
D03*
X651847D02*
D03*
X641847D02*
D03*
X621847D02*
D03*
X611847D02*
D03*
X601847D02*
D03*
X591847D02*
D03*
X571847D02*
D03*
X561847D02*
D03*
X551847D02*
D03*
X701847Y711847D02*
D03*
X691847D02*
D03*
X681847D02*
D03*
X671847D02*
D03*
X651847D02*
D03*
X641847D02*
D03*
X631847D02*
D03*
X621847D02*
D03*
X601847D02*
D03*
X591847D02*
D03*
X581847D02*
D03*
X571847D02*
D03*
X551847D02*
D03*
X701847Y721847D02*
D03*
X681847D02*
D03*
X671847D02*
D03*
X661847D02*
D03*
X651847D02*
D03*
X631847D02*
D03*
X621847D02*
D03*
X611847D02*
D03*
X601847D02*
D03*
X581847D02*
D03*
X571847D02*
D03*
X561847D02*
D03*
X551847D02*
D03*
X701847Y731847D02*
D03*
X691847D02*
D03*
X681847D02*
D03*
X661847D02*
D03*
X651847D02*
D03*
X641847D02*
D03*
X631847D02*
D03*
X611847D02*
D03*
X601847D02*
D03*
X591847D02*
D03*
X581847D02*
D03*
X561847D02*
D03*
X691847Y741847D02*
D03*
X681847D02*
D03*
X671847D02*
D03*
X661847D02*
D03*
X641847D02*
D03*
X631847D02*
D03*
X621847D02*
D03*
X611847D02*
D03*
X591847D02*
D03*
X581847D02*
D03*
X571847D02*
D03*
X561847D02*
D03*
X611847Y651847D02*
D03*
X631847Y641847D02*
D03*
X601847Y681847D02*
D03*
X611847Y671847D02*
D03*
Y691847D02*
D03*
X551847Y591847D02*
D03*
X581847Y601847D02*
D03*
X571847Y631847D02*
D03*
X551847Y691847D02*
D03*
X561847Y661847D02*
D03*
X591847Y671847D02*
D03*
X581847Y701847D02*
D03*
X571847Y731847D02*
D03*
X601847Y741847D02*
D03*
X611847Y611847D02*
D03*
X641847Y621847D02*
D03*
X651847Y591847D02*
D03*
X681847Y601847D02*
D03*
X611847Y711847D02*
D03*
X651847Y691847D02*
D03*
X641847Y721847D02*
D03*
X671847Y631847D02*
D03*
X681847Y701847D02*
D03*
X701847Y641847D02*
D03*
X691847Y671847D02*
D03*
X671847Y731847D02*
D03*
X701847Y741847D02*
D03*
D32*
X860000Y620500D02*
D03*
X859000Y526000D02*
D03*
Y488500D02*
D03*
X860000Y708000D02*
D03*
Y720500D02*
D03*
Y670500D02*
D03*
Y683000D02*
D03*
Y695500D02*
D03*
Y633000D02*
D03*
Y645500D02*
D03*
Y658000D02*
D03*
Y745500D02*
D03*
Y733000D02*
D03*
X859000Y463500D02*
D03*
Y476000D02*
D03*
Y413500D02*
D03*
Y426000D02*
D03*
Y438500D02*
D03*
Y451000D02*
D03*
Y501000D02*
D03*
Y513500D02*
D03*
Y538500D02*
D03*
D33*
X828700Y694250D02*
D03*
Y584250D02*
D03*
X771300Y694250D02*
D03*
Y584250D02*
D03*
X638790Y370421D02*
D03*
X771300Y759250D02*
D03*
Y752750D02*
D03*
Y746250D02*
D03*
Y739750D02*
D03*
Y733250D02*
D03*
Y726750D02*
D03*
Y720250D02*
D03*
Y713750D02*
D03*
Y707250D02*
D03*
Y700750D02*
D03*
X828700D02*
D03*
Y707250D02*
D03*
Y713750D02*
D03*
Y720250D02*
D03*
Y726750D02*
D03*
Y733250D02*
D03*
Y739750D02*
D03*
Y746250D02*
D03*
Y752750D02*
D03*
X771300Y765750D02*
D03*
X828700Y759250D02*
D03*
Y765750D02*
D03*
Y636250D02*
D03*
Y629750D02*
D03*
Y623250D02*
D03*
Y616750D02*
D03*
Y610250D02*
D03*
Y603750D02*
D03*
Y597250D02*
D03*
Y590750D02*
D03*
X771300D02*
D03*
Y597250D02*
D03*
Y603750D02*
D03*
Y610250D02*
D03*
Y616750D02*
D03*
Y623250D02*
D03*
Y629750D02*
D03*
Y636250D02*
D03*
Y642750D02*
D03*
Y649250D02*
D03*
X828700Y642750D02*
D03*
X771300Y655750D02*
D03*
X828700Y649250D02*
D03*
Y655750D02*
D03*
X638790Y337921D02*
D03*
Y331421D02*
D03*
X581390D02*
D03*
Y337921D02*
D03*
Y344421D02*
D03*
Y350921D02*
D03*
Y357421D02*
D03*
Y363921D02*
D03*
Y370421D02*
D03*
Y376921D02*
D03*
X638790Y344421D02*
D03*
Y357421D02*
D03*
Y363921D02*
D03*
Y350921D02*
D03*
Y376921D02*
D03*
D34*
X808024Y565000D02*
D03*
X810024Y412000D02*
D03*
X764000Y110000D02*
D03*
X683892Y249921D02*
D03*
X656892Y249921D02*
D03*
X675000Y250000D02*
D03*
X666000D02*
D03*
X683892Y259921D02*
D03*
X666000Y260000D02*
D03*
X675000D02*
D03*
X656892Y259921D02*
D03*
X764000Y120000D02*
D03*
X175000Y395000D02*
D03*
Y405000D02*
D03*
Y417000D02*
D03*
Y427000D02*
D03*
X773024Y422000D02*
D03*
X780024Y555000D02*
D03*
X799024D02*
D03*
X771024D02*
D03*
X790024D02*
D03*
X780024Y565000D02*
D03*
X799024D02*
D03*
X771024D02*
D03*
X790024D02*
D03*
X773024Y412000D02*
D03*
X808024Y555000D02*
D03*
X810024Y422000D02*
D03*
D35*
X792024Y541500D02*
D03*
Y516500D02*
D03*
X781524Y541500D02*
D03*
X802524D02*
D03*
X785024Y516500D02*
D03*
X781524D02*
D03*
X795524D02*
D03*
X788524D02*
D03*
X802524D02*
D03*
X799024D02*
D03*
X795524Y541500D02*
D03*
X785024D02*
D03*
X799024D02*
D03*
X788524D02*
D03*
D36*
X792024Y529000D02*
D03*
D37*
X830024Y516000D02*
D03*
X748024Y484000D02*
D03*
X835024Y428000D02*
D03*
X637892Y282921D02*
D03*
Y291921D02*
D03*
Y273921D02*
D03*
X391000Y821000D02*
D03*
X369000D02*
D03*
X98000Y856850D02*
D03*
Y847850D02*
D03*
Y838890D02*
D03*
Y829850D02*
D03*
X647892Y291921D02*
D03*
Y282921D02*
D03*
X779000Y386000D02*
D03*
X108000Y847850D02*
D03*
Y856850D02*
D03*
X108000Y866000D02*
D03*
X647892Y273921D02*
D03*
X789000Y386000D02*
D03*
X162000Y370000D02*
D03*
X152000D02*
D03*
X820024Y516000D02*
D03*
Y543000D02*
D03*
Y525000D02*
D03*
X766024Y526000D02*
D03*
Y544000D02*
D03*
X820024Y552000D02*
D03*
Y534000D02*
D03*
X766024Y517000D02*
D03*
X766024Y535000D02*
D03*
X830024Y543000D02*
D03*
Y525000D02*
D03*
X756024Y526000D02*
D03*
Y544000D02*
D03*
X830024Y552000D02*
D03*
Y534000D02*
D03*
X756024Y517000D02*
D03*
X756024Y535000D02*
D03*
X758024Y484000D02*
D03*
X825024Y428000D02*
D03*
X401000Y821000D02*
D03*
X108000Y838890D02*
D03*
Y829850D02*
D03*
X98000Y866000D02*
D03*
X359000Y821000D02*
D03*
D38*
X779524Y522000D02*
D03*
Y532500D02*
D03*
Y525500D02*
D03*
X804524Y529000D02*
D03*
Y536000D02*
D03*
X779524D02*
D03*
Y529000D02*
D03*
X804524Y525500D02*
D03*
Y532500D02*
D03*
Y522000D02*
D03*
D39*
X652000Y499000D02*
D03*
Y509000D02*
D03*
Y479000D02*
D03*
Y489000D02*
D03*
X642000Y509000D02*
D03*
X632000Y479000D02*
D03*
X612000Y499000D02*
D03*
X602000Y489000D02*
D03*
X582000Y509000D02*
D03*
X652000Y469000D02*
D03*
Y459000D02*
D03*
Y439000D02*
D03*
Y449000D02*
D03*
X642000Y439000D02*
D03*
X602000Y459000D02*
D03*
X612000Y449000D02*
D03*
X582000Y439000D02*
D03*
X662000Y509000D02*
D03*
Y499000D02*
D03*
X642000D02*
D03*
X662000Y489000D02*
D03*
Y479000D02*
D03*
Y459000D02*
D03*
Y469000D02*
D03*
X612000Y509000D02*
D03*
X582000Y499000D02*
D03*
X612000Y489000D02*
D03*
Y459000D02*
D03*
X662000Y449000D02*
D03*
Y439000D02*
D03*
X642000Y449000D02*
D03*
X612000Y439000D02*
D03*
X582000Y449000D02*
D03*
X712000Y519000D02*
D03*
Y509000D02*
D03*
Y439000D02*
D03*
Y429000D02*
D03*
X702000Y519000D02*
D03*
Y429000D02*
D03*
X682000Y509000D02*
D03*
Y499000D02*
D03*
Y489000D02*
D03*
Y479000D02*
D03*
Y469000D02*
D03*
Y459000D02*
D03*
Y449000D02*
D03*
Y439000D02*
D03*
X672000Y509000D02*
D03*
Y499000D02*
D03*
Y479000D02*
D03*
Y469000D02*
D03*
Y459000D02*
D03*
Y449000D02*
D03*
Y439000D02*
D03*
X642000Y489000D02*
D03*
Y479000D02*
D03*
Y469000D02*
D03*
Y459000D02*
D03*
X632000Y509000D02*
D03*
Y499000D02*
D03*
Y489000D02*
D03*
Y469000D02*
D03*
Y459000D02*
D03*
Y449000D02*
D03*
Y439000D02*
D03*
X622000Y489000D02*
D03*
Y469000D02*
D03*
Y459000D02*
D03*
X612000Y479000D02*
D03*
Y469000D02*
D03*
X602000Y509000D02*
D03*
Y499000D02*
D03*
Y469000D02*
D03*
Y449000D02*
D03*
Y439000D02*
D03*
X592000Y489000D02*
D03*
Y479000D02*
D03*
Y469000D02*
D03*
Y459000D02*
D03*
X582000Y489000D02*
D03*
Y459000D02*
D03*
X562000Y519000D02*
D03*
Y429000D02*
D03*
X552000Y519000D02*
D03*
Y509000D02*
D03*
Y439000D02*
D03*
Y429000D02*
D03*
X672000Y489000D02*
D03*
X602000Y479000D02*
D03*
X582000Y469000D02*
D03*
Y479000D02*
D03*
X622000Y509000D02*
D03*
X592000D02*
D03*
X622000Y499000D02*
D03*
X592000D02*
D03*
Y449000D02*
D03*
X622000D02*
D03*
X592000Y439000D02*
D03*
X622000D02*
D03*
Y479000D02*
D03*
D40*
X600750Y861798D02*
D03*
X533250D02*
D03*
D41*
X591875Y836048D02*
D03*
X542125D02*
D03*
D42*
X578500Y861798D02*
D03*
D43*
X554000Y835198D02*
D03*
X580000D02*
D03*
X567000D02*
D03*
X573500D02*
D03*
X560500D02*
D03*
D44*
X551506Y861798D02*
D03*
D45*
X463000Y777450D02*
D03*
X323000Y778450D02*
D03*
X472500Y802550D02*
D03*
X453500D02*
D03*
X332500Y803550D02*
D03*
X313500D02*
D03*
X463000Y802550D02*
D03*
X472500Y777450D02*
D03*
X453500D02*
D03*
X332500Y778450D02*
D03*
X313500D02*
D03*
X323000Y803550D02*
D03*
D46*
X495491Y766951D02*
D03*
X221103Y370436D02*
D03*
X204086Y348338D02*
D03*
X495491Y789049D02*
D03*
X512509Y766951D02*
D03*
Y789049D02*
D03*
X204086Y370436D02*
D03*
X221103Y348338D02*
D03*
D47*
X475000Y725000D02*
D03*
Y709000D02*
D03*
D48*
X507100Y529500D02*
D03*
Y534500D02*
D03*
Y539500D02*
D03*
Y544500D02*
D03*
X479900D02*
D03*
Y539500D02*
D03*
Y534500D02*
D03*
Y529500D02*
D03*
D49*
X518527Y517749D02*
D03*
X459473Y472251D02*
D03*
Y478750D02*
D03*
Y485250D02*
D03*
Y491750D02*
D03*
Y498250D02*
D03*
Y504750D02*
D03*
Y511250D02*
D03*
Y517749D02*
D03*
X518527Y511250D02*
D03*
Y504750D02*
D03*
Y498250D02*
D03*
Y491750D02*
D03*
Y485250D02*
D03*
Y478750D02*
D03*
Y472251D02*
D03*
D50*
X901480Y363050D02*
D03*
Y196950D02*
D03*
D51*
X821000Y313500D02*
D03*
X765590Y335421D02*
D03*
X755590Y335421D02*
D03*
X874920Y150653D02*
D03*
X855920Y173653D02*
D03*
X847920Y106782D02*
D03*
X856920Y106780D02*
D03*
X821000Y211500D02*
D03*
X779000Y268500D02*
D03*
X803000Y220500D02*
D03*
X833047Y106780D02*
D03*
X441000Y809208D02*
D03*
X402750Y809210D02*
D03*
X404000Y734500D02*
D03*
X411000Y642500D02*
D03*
X386250Y544972D02*
D03*
Y534972D02*
D03*
X372200Y539461D02*
D03*
X301000Y809208D02*
D03*
X362118Y539465D02*
D03*
X244000Y813500D02*
D03*
X262750Y809210D02*
D03*
X222000Y813500D02*
D03*
X201000D02*
D03*
X182485Y756790D02*
D03*
X167848Y757153D02*
D03*
X158848D02*
D03*
X280568Y756290D02*
D03*
X280795Y675164D02*
D03*
X265931Y756653D02*
D03*
X256931D02*
D03*
X267931Y689153D02*
D03*
X256922Y675162D02*
D03*
X265922D02*
D03*
X257922Y608162D02*
D03*
X248922D02*
D03*
X238931Y711653D02*
D03*
X239172Y630162D02*
D03*
X169848Y689653D02*
D03*
X182762Y675154D02*
D03*
X167889Y675153D02*
D03*
X158889D02*
D03*
X140848Y712153D02*
D03*
X159889Y608153D02*
D03*
X141139Y630153D02*
D03*
X150889Y608153D02*
D03*
X167563Y443997D02*
D03*
X450000Y214500D02*
D03*
X296631Y215886D02*
D03*
X182501Y365227D02*
D03*
X182501Y353427D02*
D03*
X238000Y368500D02*
D03*
X182501Y374227D02*
D03*
X238000Y359500D02*
D03*
X182501Y344427D02*
D03*
X368000Y193000D02*
D03*
X412000Y439500D02*
D03*
X779000Y211500D02*
D03*
X821000Y220500D02*
D03*
X779000Y277500D02*
D03*
X830000Y313500D02*
D03*
X765590Y344421D02*
D03*
X755590Y344421D02*
D03*
X576000Y771500D02*
D03*
X567000D02*
D03*
X386250Y553973D02*
D03*
Y506973D02*
D03*
Y487972D02*
D03*
X663500Y561500D02*
D03*
X653500D02*
D03*
X167563Y452998D02*
D03*
X158562D02*
D03*
Y443997D02*
D03*
X372200Y530461D02*
D03*
X362118Y530466D02*
D03*
X450000Y205500D02*
D03*
X422000Y734500D02*
D03*
X413000D02*
D03*
X158848Y748153D02*
D03*
X140848Y721153D02*
D03*
X191927Y698653D02*
D03*
Y689653D02*
D03*
X167848Y748153D02*
D03*
X169848Y698653D02*
D03*
X160848D02*
D03*
Y689653D02*
D03*
X182927D02*
D03*
Y698653D02*
D03*
X182485Y747790D02*
D03*
X149848Y698653D02*
D03*
Y689653D02*
D03*
X301000Y800208D02*
D03*
X432000Y439500D02*
D03*
X403000D02*
D03*
X280568Y747290D02*
D03*
X247931Y698153D02*
D03*
Y689153D02*
D03*
X287931D02*
D03*
Y698153D02*
D03*
X265931Y747653D02*
D03*
X267931Y698153D02*
D03*
X278931Y689153D02*
D03*
Y698153D02*
D03*
X256931Y747653D02*
D03*
X258931Y689153D02*
D03*
Y698153D02*
D03*
X238931Y720653D02*
D03*
X150889Y617153D02*
D03*
X180889D02*
D03*
Y608153D02*
D03*
X167889Y666153D02*
D03*
X141139Y639153D02*
D03*
X159889Y617153D02*
D03*
X189889D02*
D03*
Y608153D02*
D03*
X158889Y666153D02*
D03*
X182762Y666154D02*
D03*
X168889Y608150D02*
D03*
Y617150D02*
D03*
X141889Y617156D02*
D03*
Y608156D02*
D03*
X239922Y608166D02*
D03*
X367999Y236500D02*
D03*
X313000Y439500D02*
D03*
X702090Y301671D02*
D03*
X394000Y439500D02*
D03*
X349000D02*
D03*
X304000D02*
D03*
X340000D02*
D03*
X286000D02*
D03*
X295000D02*
D03*
X452000Y430500D02*
D03*
Y439500D02*
D03*
X779000Y258500D02*
D03*
X702090Y292671D02*
D03*
X812000Y211500D02*
D03*
X576000Y780500D02*
D03*
X567000D02*
D03*
X699500Y561500D02*
D03*
X708500D02*
D03*
X644500D02*
D03*
X635500D02*
D03*
X717500D02*
D03*
X672500D02*
D03*
X681500D02*
D03*
X690500D02*
D03*
X821000Y304500D02*
D03*
X803000Y211500D02*
D03*
X779000Y220500D02*
D03*
X812000D02*
D03*
X794000Y211500D02*
D03*
Y220500D02*
D03*
X830000Y304500D02*
D03*
X779000Y230500D02*
D03*
Y239500D02*
D03*
Y249500D02*
D03*
X429000Y642500D02*
D03*
X420000D02*
D03*
X641500Y780500D02*
D03*
X548500D02*
D03*
X672500Y570500D02*
D03*
X594000Y780500D02*
D03*
X681500Y570500D02*
D03*
X650500Y780500D02*
D03*
X367000Y439500D02*
D03*
X690500Y570500D02*
D03*
X668500Y780500D02*
D03*
X385000Y439500D02*
D03*
X421000D02*
D03*
X659500Y780500D02*
D03*
X708500Y570500D02*
D03*
X699500D02*
D03*
X717500D02*
D03*
X585000Y780500D02*
D03*
Y771500D02*
D03*
X641500Y771500D02*
D03*
X650500D02*
D03*
X557500Y780500D02*
D03*
X530500D02*
D03*
X659500Y771500D02*
D03*
X557500D02*
D03*
X668500D02*
D03*
X722500Y780500D02*
D03*
X731500D02*
D03*
X677500Y771500D02*
D03*
X704500D02*
D03*
X603000Y771500D02*
D03*
X539500Y771500D02*
D03*
X704500Y780500D02*
D03*
X713500D02*
D03*
X386250Y515973D02*
D03*
X722500Y771500D02*
D03*
X530500D02*
D03*
X594000Y771500D02*
D03*
X713500Y771500D02*
D03*
X635500Y570500D02*
D03*
X677500Y780500D02*
D03*
X548500Y771500D02*
D03*
X731500D02*
D03*
X603000Y780500D02*
D03*
X653500Y570500D02*
D03*
X644500D02*
D03*
X539500Y780500D02*
D03*
X663500Y570500D02*
D03*
X239172Y639162D02*
D03*
X266922Y608159D02*
D03*
X376999Y245500D02*
D03*
Y236500D02*
D03*
X431750Y809210D02*
D03*
X239922Y617165D02*
D03*
X248922Y617162D02*
D03*
X265922Y666162D02*
D03*
X287922Y617162D02*
D03*
X278922D02*
D03*
X257922D02*
D03*
X266922Y617159D02*
D03*
X431750Y800210D02*
D03*
X222000Y804500D02*
D03*
X280795Y666164D02*
D03*
X256922Y666162D02*
D03*
X411750Y809210D02*
D03*
X287922Y608162D02*
D03*
X278922D02*
D03*
X402750Y800210D02*
D03*
X411750D02*
D03*
X847920Y115782D02*
D03*
X855920Y164653D02*
D03*
X847170D02*
D03*
X825920Y164656D02*
D03*
X835718D02*
D03*
X864774D02*
D03*
X847170Y173653D02*
D03*
X833047Y115780D02*
D03*
X856920D02*
D03*
X825920Y173656D02*
D03*
X835718D02*
D03*
X864774D02*
D03*
X874920Y141653D02*
D03*
X291750Y809210D02*
D03*
X358000Y439500D02*
D03*
X421000Y460500D02*
D03*
X443000Y439500D02*
D03*
X291750Y800210D02*
D03*
X412000Y712500D02*
D03*
X244000Y804500D02*
D03*
X411000Y651500D02*
D03*
X429000Y651500D02*
D03*
X420000D02*
D03*
X422000Y725500D02*
D03*
X413000D02*
D03*
X404000Y725500D02*
D03*
X271750Y809210D02*
D03*
X412000Y703500D02*
D03*
X368000Y223500D02*
D03*
X385000Y430500D02*
D03*
X248000Y369500D02*
D03*
X432000Y460500D02*
D03*
X461000Y439500D02*
D03*
X358000Y430500D02*
D03*
X421000Y451500D02*
D03*
X412000Y430500D02*
D03*
X421000D02*
D03*
X367000D02*
D03*
X248000Y378500D02*
D03*
X262750Y800210D02*
D03*
X271750D02*
D03*
X201000Y804500D02*
D03*
X376000Y430500D02*
D03*
X432000D02*
D03*
X403000D02*
D03*
X443000D02*
D03*
X432000Y451500D02*
D03*
X367999Y245500D02*
D03*
X461000Y430500D02*
D03*
X313000D02*
D03*
X286000D02*
D03*
X340000D02*
D03*
X304000D02*
D03*
X394000D02*
D03*
X295000D02*
D03*
X349000D02*
D03*
X296631Y224886D02*
D03*
X368000Y202000D02*
D03*
Y214500D02*
D03*
X441000Y800209D02*
D03*
X376000Y439500D02*
D03*
X386250Y496973D02*
D03*
Y525973D02*
D03*
D52*
X797024Y440713D02*
D03*
Y461287D02*
D03*
X785023D02*
D03*
Y440713D02*
D03*
X809026D02*
D03*
X773021Y461287D02*
D03*
X793024D02*
D03*
X789023D02*
D03*
X781022D02*
D03*
X777022D02*
D03*
X805025D02*
D03*
X801025D02*
D03*
X793024Y440713D02*
D03*
X789023D02*
D03*
X781022D02*
D03*
X777022D02*
D03*
X805025D02*
D03*
X801025D02*
D03*
X809026Y461287D02*
D03*
X773021Y440713D02*
D03*
D53*
X791024Y451000D02*
D03*
D54*
X808000Y390998D02*
D03*
X826000D02*
D03*
D55*
X803000Y362710D02*
D03*
X829000Y372210D02*
D03*
Y353210D02*
D03*
X803000D02*
D03*
Y372210D02*
D03*
D56*
X781752Y354250D02*
D03*
Y372250D02*
D03*
D57*
X737440Y333821D02*
D03*
Y346521D02*
D03*
X684740Y333821D02*
D03*
Y346521D02*
D03*
Y359221D02*
D03*
Y321121D02*
D03*
X737440Y359221D02*
D03*
Y321121D02*
D03*
D58*
X737090Y300671D02*
D03*
Y281671D02*
D03*
X717090Y291171D02*
D03*
D59*
X849580Y265000D02*
D03*
Y250000D02*
D03*
Y280000D02*
D03*
Y295000D02*
D03*
Y310000D02*
D03*
Y340000D02*
D03*
Y325000D02*
D03*
Y235000D02*
D03*
Y220000D02*
D03*
D60*
X841592Y130565D02*
D03*
X272259Y732740D02*
D03*
X272250Y651250D02*
D03*
X174175Y733241D02*
D03*
X174217Y651241D02*
D03*
X174175Y714741D02*
D03*
X169684Y733241D02*
D03*
Y714771D02*
D03*
X272259Y714241D02*
D03*
X267767Y714270D02*
D03*
Y732740D02*
D03*
X169726Y651241D02*
D03*
X174217Y632741D02*
D03*
X169726Y632771D02*
D03*
X267759Y651250D02*
D03*
X272250Y632751D02*
D03*
X267759Y632780D02*
D03*
X846084Y130565D02*
D03*
Y149035D02*
D03*
X841592Y149064D02*
D03*
D61*
X807000Y263000D02*
D03*
D62*
X823256Y240839D02*
D03*
X790744Y285161D02*
D03*
X816754Y240839D02*
D03*
X810251D02*
D03*
X790744D02*
D03*
X816754Y285161D02*
D03*
X810251D02*
D03*
X797246D02*
D03*
X803749D02*
D03*
X797246Y240839D02*
D03*
X803749D02*
D03*
X823256Y285161D02*
D03*
D63*
X686892Y295921D02*
D03*
X662892Y287921D02*
D03*
Y295921D02*
D03*
Y279921D02*
D03*
X686892Y271921D02*
D03*
Y287921D02*
D03*
X662892Y271921D02*
D03*
X686892Y279921D02*
D03*
D64*
X603090Y278171D02*
D03*
X581090Y302171D02*
D03*
Y286171D02*
D03*
Y278171D02*
D03*
X603090Y310171D02*
D03*
Y294171D02*
D03*
Y302171D02*
D03*
X581090Y310171D02*
D03*
X603090Y286171D02*
D03*
X581090Y294171D02*
D03*
D65*
X488750Y182600D02*
D03*
X382250Y176900D02*
D03*
D66*
X488750Y156500D02*
D03*
D67*
X431500Y776000D02*
D03*
X291500Y776000D02*
D03*
X422000Y796000D02*
D03*
X412500Y776000D02*
D03*
X282000Y796000D02*
D03*
X272500Y776000D02*
D03*
D68*
X385002Y752000D02*
D03*
X385000Y668000D02*
D03*
X339000D02*
D03*
X362000D02*
D03*
X362002Y752000D02*
D03*
X339002D02*
D03*
D69*
X444000Y490945D02*
D03*
X398501D02*
D03*
X405001D02*
D03*
X411501D02*
D03*
X418001D02*
D03*
X424500D02*
D03*
X431000D02*
D03*
X437500D02*
D03*
X444000Y550000D02*
D03*
X437500D02*
D03*
X431000D02*
D03*
X424500D02*
D03*
X418001D02*
D03*
X411501D02*
D03*
X405001D02*
D03*
X398501D02*
D03*
D70*
X416805Y570950D02*
D03*
X489195Y583650D02*
D03*
X416805Y609050D02*
D03*
Y583650D02*
D03*
X489195Y596350D02*
D03*
X416805D02*
D03*
X489195Y570950D02*
D03*
Y609050D02*
D03*
D71*
X346546Y532540D02*
D03*
Y526040D02*
D03*
Y539040D02*
D03*
Y519540D02*
D03*
X306546Y532540D02*
D03*
Y539040D02*
D03*
Y526040D02*
D03*
Y519540D02*
D03*
D72*
X326546Y529290D02*
D03*
D73*
X153500Y860700D02*
D03*
X148500D02*
D03*
X143500D02*
D03*
X138500Y831300D02*
D03*
X143500D02*
D03*
X148500D02*
D03*
X153500D02*
D03*
X138500Y860700D02*
D03*
D74*
X146000Y846000D02*
D03*
D75*
X235000Y555000D02*
D03*
X230000D02*
D03*
X235000Y505000D02*
D03*
X230000D02*
D03*
X215000D02*
D03*
X225000D02*
D03*
X215000Y555000D02*
D03*
X250000Y505000D02*
D03*
X245000Y555000D02*
D03*
X220000D02*
D03*
X245000Y505000D02*
D03*
X220000D02*
D03*
X240000D02*
D03*
Y555000D02*
D03*
X225000D02*
D03*
X250000D02*
D03*
D76*
X232502Y529999D02*
D03*
D77*
X207500Y537500D02*
D03*
Y542500D02*
D03*
Y547500D02*
D03*
Y522500D02*
D03*
X257500D02*
D03*
Y547500D02*
D03*
X207500Y517500D02*
D03*
Y527500D02*
D03*
X257500Y532500D02*
D03*
Y517500D02*
D03*
Y512500D02*
D03*
Y527500D02*
D03*
X207500Y532500D02*
D03*
X257500Y537500D02*
D03*
Y542500D02*
D03*
X207500Y512500D02*
D03*
D78*
X437544Y396435D02*
D03*
Y370435D02*
D03*
X411544Y396435D02*
D03*
X392044D02*
D03*
X411544Y363935D02*
D03*
X398544Y370435D02*
D03*
Y357435D02*
D03*
X437544Y350935D02*
D03*
Y331435D02*
D03*
Y311935D02*
D03*
X411544Y357435D02*
D03*
X418044Y344435D02*
D03*
X392044Y350935D02*
D03*
X418044Y318435D02*
D03*
X398544Y331435D02*
D03*
X392044Y311935D02*
D03*
X372544Y396435D02*
D03*
X385544Y376935D02*
D03*
X359544D02*
D03*
X353044Y396435D02*
D03*
X333544D02*
D03*
X372544Y357435D02*
D03*
X353044Y350935D02*
D03*
X372544Y337935D02*
D03*
Y331435D02*
D03*
X353044Y311935D02*
D03*
X346544Y370435D02*
D03*
Y357435D02*
D03*
X333544Y363935D02*
D03*
Y357435D02*
D03*
X346544Y331435D02*
D03*
X437544Y292435D02*
D03*
X411544Y298935D02*
D03*
Y305435D02*
D03*
X437544Y266435D02*
D03*
X411544D02*
D03*
X398544Y305435D02*
D03*
Y292435D02*
D03*
X392044Y266435D02*
D03*
X372544Y305435D02*
D03*
X385544Y285935D02*
D03*
X359544D02*
D03*
X346544Y305435D02*
D03*
X333544D02*
D03*
X346544Y292435D02*
D03*
X333544Y298935D02*
D03*
X372544Y266435D02*
D03*
X359544D02*
D03*
X353044D02*
D03*
X333544Y279435D02*
D03*
X327044Y344435D02*
D03*
Y318435D02*
D03*
X307544Y396435D02*
D03*
Y370435D02*
D03*
Y350935D02*
D03*
Y331435D02*
D03*
Y311935D02*
D03*
Y292435D02*
D03*
Y266435D02*
D03*
X346544Y344435D02*
D03*
X366044Y357435D02*
D03*
X398544Y376935D02*
D03*
X424544D02*
D03*
X398544Y266435D02*
D03*
X424544Y292435D02*
D03*
X398544Y363935D02*
D03*
X424544Y331435D02*
D03*
Y311935D02*
D03*
X411544Y292435D02*
D03*
X405044D02*
D03*
X431044Y272935D02*
D03*
X411544Y279435D02*
D03*
X359544Y363935D02*
D03*
X340044D02*
D03*
X385544Y344435D02*
D03*
X359544D02*
D03*
X320544Y331435D02*
D03*
X385544Y318435D02*
D03*
X437544Y376935D02*
D03*
X366044Y344435D02*
D03*
X405044Y357435D02*
D03*
X379044Y324935D02*
D03*
X411544Y285935D02*
D03*
X437544Y305435D02*
D03*
X431044D02*
D03*
X418044Y311935D02*
D03*
Y305435D02*
D03*
X437544Y318435D02*
D03*
X431044D02*
D03*
X353044Y337935D02*
D03*
X424544Y363935D02*
D03*
X398544Y350935D02*
D03*
X431044Y344435D02*
D03*
X437544D02*
D03*
X392044Y292435D02*
D03*
X424544Y272935D02*
D03*
X385544Y305435D02*
D03*
X398544Y272935D02*
D03*
Y285935D02*
D03*
X327044Y396435D02*
D03*
Y389935D02*
D03*
X320544Y396435D02*
D03*
Y389935D02*
D03*
X392044Y344435D02*
D03*
Y305435D02*
D03*
X366044D02*
D03*
X418044Y363935D02*
D03*
X385544Y389935D02*
D03*
X307544Y344435D02*
D03*
X385544Y266435D02*
D03*
X314044Y344435D02*
D03*
X385544Y272935D02*
D03*
X392044Y279435D02*
D03*
X385544Y298935D02*
D03*
X372544Y311935D02*
D03*
X405044Y318435D02*
D03*
Y344435D02*
D03*
X424544Y350935D02*
D03*
X320544D02*
D03*
X385544Y363935D02*
D03*
X346544D02*
D03*
X320544Y370435D02*
D03*
X411544Y383435D02*
D03*
X392044D02*
D03*
X372544D02*
D03*
X353044D02*
D03*
X333544D02*
D03*
X314044Y389935D02*
D03*
Y396435D02*
D03*
X340044Y350935D02*
D03*
X346544D02*
D03*
X327044Y357435D02*
D03*
X372544Y344435D02*
D03*
X379044Y357435D02*
D03*
X405044Y396435D02*
D03*
X398544D02*
D03*
Y389935D02*
D03*
X379044Y350935D02*
D03*
X424544Y266435D02*
D03*
Y305435D02*
D03*
X392044Y376935D02*
D03*
X398544Y337935D02*
D03*
X405044Y311935D02*
D03*
X346544Y389935D02*
D03*
X353044Y376935D02*
D03*
X327044Y350935D02*
D03*
X340044Y383435D02*
D03*
X314044Y266435D02*
D03*
X392044Y370435D02*
D03*
X385544Y357435D02*
D03*
X405044Y389935D02*
D03*
X398544Y383435D02*
D03*
X418044Y396435D02*
D03*
X392044Y363935D02*
D03*
X405044Y383435D02*
D03*
X385544Y350935D02*
D03*
X379044Y344435D02*
D03*
X418044Y383435D02*
D03*
X372544Y318435D02*
D03*
X424544Y389935D02*
D03*
X418044Y357435D02*
D03*
Y376935D02*
D03*
X379044Y305435D02*
D03*
X424544Y383435D02*
D03*
X418044Y350935D02*
D03*
X379044Y311935D02*
D03*
X431044Y396435D02*
D03*
X327044Y363935D02*
D03*
X320544D02*
D03*
Y383435D02*
D03*
X327044Y370435D02*
D03*
Y376935D02*
D03*
X353044Y357435D02*
D03*
X327044Y383435D02*
D03*
X333544Y376935D02*
D03*
X359544Y350935D02*
D03*
X340044Y376935D02*
D03*
X353044Y363935D02*
D03*
X359544Y337935D02*
D03*
X366044Y324935D02*
D03*
X353044Y344435D02*
D03*
X333544Y350935D02*
D03*
X346544Y396435D02*
D03*
X366044Y350935D02*
D03*
X359544Y396435D02*
D03*
X385544D02*
D03*
X359544Y389935D02*
D03*
X372544Y350935D02*
D03*
X385544Y324935D02*
D03*
X392044D02*
D03*
X398544Y318435D02*
D03*
X392044D02*
D03*
X405044Y305435D02*
D03*
X398544Y324935D02*
D03*
Y311935D02*
D03*
X411544D02*
D03*
X418044Y298935D02*
D03*
X424544D02*
D03*
X418044Y285935D02*
D03*
X431044Y298935D02*
D03*
X424544Y285935D02*
D03*
X437544Y298935D02*
D03*
Y279435D02*
D03*
X418044Y292435D02*
D03*
X431044Y279435D02*
D03*
X424544D02*
D03*
X392044Y298935D02*
D03*
X418044Y279435D02*
D03*
X405044D02*
D03*
X418044Y272935D02*
D03*
X437544D02*
D03*
X431044Y285935D02*
D03*
X405044Y272935D02*
D03*
Y285935D02*
D03*
X431044Y266435D02*
D03*
X405044D02*
D03*
X392044Y285935D02*
D03*
X398544Y344435D02*
D03*
X437544Y389935D02*
D03*
X405044Y350935D02*
D03*
X392044Y337935D02*
D03*
X385544D02*
D03*
X392044Y331435D02*
D03*
X385544D02*
D03*
X411544Y350935D02*
D03*
X340044Y344435D02*
D03*
X405044Y298935D02*
D03*
X398544D02*
D03*
X340044Y357435D02*
D03*
Y370435D02*
D03*
X333544D02*
D03*
X372544Y324935D02*
D03*
X340044Y318435D02*
D03*
X359544D02*
D03*
X379044D02*
D03*
X320544Y311935D02*
D03*
X385544D02*
D03*
X340044Y298935D02*
D03*
X346544D02*
D03*
X359544D02*
D03*
X320544Y292435D02*
D03*
X333544D02*
D03*
X340044D02*
D03*
X353044Y279435D02*
D03*
X314044Y272935D02*
D03*
X333544Y266435D02*
D03*
X431044Y389935D02*
D03*
X405044Y370435D02*
D03*
X411544D02*
D03*
X424544D02*
D03*
X405044Y363935D02*
D03*
X359544Y305435D02*
D03*
X437544Y285935D02*
D03*
X359544Y311935D02*
D03*
X398544Y279435D02*
D03*
X366044Y318435D02*
D03*
X307544Y272935D02*
D03*
Y285935D02*
D03*
X353044Y292435D02*
D03*
X307544Y279435D02*
D03*
X340044Y272935D02*
D03*
Y266435D02*
D03*
X307544Y305435D02*
D03*
X314044D02*
D03*
X327044Y272935D02*
D03*
X307544Y318435D02*
D03*
X320544Y279435D02*
D03*
X346544D02*
D03*
X320544Y266435D02*
D03*
X346544D02*
D03*
X320544Y272935D02*
D03*
X359544D02*
D03*
X327044Y266435D02*
D03*
X346544Y272935D02*
D03*
Y318435D02*
D03*
X307544Y298935D02*
D03*
X353044Y318435D02*
D03*
X314044Y298935D02*
D03*
X353044Y324935D02*
D03*
X320544Y305435D02*
D03*
X346544Y324935D02*
D03*
X314044Y318435D02*
D03*
X346544Y285935D02*
D03*
X320544D02*
D03*
X327044Y292435D02*
D03*
Y298935D02*
D03*
X353044D02*
D03*
Y305435D02*
D03*
X327044Y311935D02*
D03*
X353044Y285935D02*
D03*
X327044Y305435D02*
D03*
X359544Y331435D02*
D03*
X314044Y285935D02*
D03*
X333544Y311935D02*
D03*
X359544Y324935D02*
D03*
X320544Y298935D02*
D03*
X327044Y285935D02*
D03*
X353044Y331435D02*
D03*
X314044Y279435D02*
D03*
X346544Y311935D02*
D03*
X327044Y279435D02*
D03*
X340044Y305435D02*
D03*
Y285935D02*
D03*
X333544D02*
D03*
X340044Y311935D02*
D03*
Y279435D02*
D03*
X431044Y383435D02*
D03*
X424544Y357435D02*
D03*
X340044Y396435D02*
D03*
Y389935D02*
D03*
X307544Y383435D02*
D03*
Y389935D02*
D03*
X314044Y376935D02*
D03*
X418044Y370435D02*
D03*
X320544Y357435D02*
D03*
X314044Y383435D02*
D03*
X320544Y376935D02*
D03*
X307544D02*
D03*
X314044Y357435D02*
D03*
X307544Y363935D02*
D03*
X314044D02*
D03*
X307544Y357435D02*
D03*
X437544Y363935D02*
D03*
Y357435D02*
D03*
X431044Y363935D02*
D03*
Y376935D02*
D03*
X437544Y383435D02*
D03*
X431044Y357435D02*
D03*
X418044Y266435D02*
D03*
X372544Y279435D02*
D03*
X366044Y311935D02*
D03*
X379044Y337935D02*
D03*
X366044D02*
D03*
X346544D02*
D03*
X392044Y357435D02*
D03*
X359544D02*
D03*
X353044Y370435D02*
D03*
X411544Y376935D02*
D03*
X405044D02*
D03*
X346544D02*
D03*
Y383435D02*
D03*
X418044Y389935D02*
D03*
X424544Y396435D02*
D03*
D79*
X434250Y221750D02*
D03*
Y206250D02*
D03*
X423750Y206250D02*
D03*
Y221750D02*
D03*
D80*
X416000Y117000D02*
D03*
X438000D02*
D03*
X427000D02*
D03*
X449000D02*
D03*
X405000D02*
D03*
X394000D02*
D03*
X471000D02*
D03*
X460000D02*
D03*
D81*
X382250Y145050D02*
D03*
D82*
X197595Y395136D02*
D03*
X213594Y411637D02*
D03*
Y395136D02*
D03*
X197595Y411637D02*
D03*
D83*
X289222Y216988D02*
D03*
X289170Y211383D02*
D03*
Y229185D02*
D03*
X289222Y223326D02*
D03*
X269226Y231456D02*
D03*
X283920Y211383D02*
D03*
X283972Y223326D02*
D03*
X283920Y229185D02*
D03*
X283972Y216988D02*
D03*
X263976Y231456D02*
D03*
D84*
X254544Y215435D02*
D03*
X190544D02*
D03*
X254544Y199435D02*
D03*
Y183435D02*
D03*
Y143435D02*
D03*
X246544Y159435D02*
D03*
X198544D02*
D03*
Y143435D02*
D03*
X254544Y127435D02*
D03*
Y119435D02*
D03*
Y103435D02*
D03*
X246544Y127435D02*
D03*
X238544Y103435D02*
D03*
X198544Y127435D02*
D03*
Y119435D02*
D03*
X190544Y199435D02*
D03*
Y183435D02*
D03*
Y143435D02*
D03*
Y135435D02*
D03*
Y103435D02*
D03*
Y95435D02*
D03*
X198544Y175435D02*
D03*
X190544Y207435D02*
D03*
X254544D02*
D03*
X190544Y191435D02*
D03*
X254544D02*
D03*
X198544Y167435D02*
D03*
X246544D02*
D03*
X190544Y151435D02*
D03*
X246544D02*
D03*
X206544Y143435D02*
D03*
X254544Y135435D02*
D03*
X190544Y127435D02*
D03*
Y119435D02*
D03*
X246544D02*
D03*
X190544Y111435D02*
D03*
X254544D02*
D03*
X246544Y103435D02*
D03*
X198544Y95435D02*
D03*
X254544D02*
D03*
X238544Y175435D02*
D03*
X198544Y183435D02*
D03*
X254544Y151435D02*
D03*
X246544Y215435D02*
D03*
X238544Y159435D02*
D03*
X254544Y167435D02*
D03*
X206544Y111435D02*
D03*
Y103435D02*
D03*
X238544Y135435D02*
D03*
Y143435D02*
D03*
Y119435D02*
D03*
X206544Y127435D02*
D03*
X238544Y95435D02*
D03*
X198544Y103435D02*
D03*
X246544Y95435D02*
D03*
X206544D02*
D03*
X246544Y111435D02*
D03*
X198544D02*
D03*
X238544D02*
D03*
X206544Y119435D02*
D03*
Y151435D02*
D03*
X246544Y143435D02*
D03*
X198544Y151435D02*
D03*
X238544D02*
D03*
X198544Y135435D02*
D03*
X246544D02*
D03*
X206544D02*
D03*
X238544Y127435D02*
D03*
X246544Y175435D02*
D03*
X190544Y167435D02*
D03*
X206544Y159435D02*
D03*
Y167435D02*
D03*
X238544D02*
D03*
Y183435D02*
D03*
X198544Y191435D02*
D03*
X246544Y183435D02*
D03*
X206544D02*
D03*
Y215435D02*
D03*
X238544D02*
D03*
X206544Y191435D02*
D03*
Y207435D02*
D03*
Y175435D02*
D03*
X238544Y207435D02*
D03*
X198544Y215435D02*
D03*
X246544Y207435D02*
D03*
X198544D02*
D03*
X246544Y199435D02*
D03*
X198544D02*
D03*
X246544Y191435D02*
D03*
X238544Y199435D02*
D03*
X206544D02*
D03*
X238544Y191435D02*
D03*
X254544Y159435D02*
D03*
X190544D02*
D03*
X254544Y175435D02*
D03*
X190544D02*
D03*
D85*
X96950Y36000D02*
D03*
X84250D02*
D03*
X147750D02*
D03*
X109650D02*
D03*
X122350D02*
D03*
X160450D02*
D03*
X135050D02*
D03*
X71550D02*
D03*
D86*
X811217Y449000D02*
D03*
Y453000D02*
D03*
X770831D02*
D03*
Y449000D02*
D03*
D87*
X383000Y791750D02*
D03*
Y776250D02*
D03*
X362000Y791750D02*
D03*
Y776250D02*
D03*
X244000D02*
D03*
Y791750D02*
D03*
X222000Y776500D02*
D03*
Y792000D02*
D03*
X509000Y699250D02*
D03*
Y731250D02*
D03*
X763000Y371000D02*
D03*
X681090Y371171D02*
D03*
Y387171D02*
D03*
X763000Y387000D02*
D03*
X509000Y746750D02*
D03*
Y714750D02*
D03*
X201000Y791750D02*
D03*
Y776250D02*
D03*
D88*
X362000Y610000D02*
D03*
X362002Y694000D02*
D03*
D89*
X131300Y848500D02*
D03*
Y853500D02*
D03*
Y843500D02*
D03*
Y838500D02*
D03*
X160700D02*
D03*
Y843500D02*
D03*
Y848500D02*
D03*
Y853500D02*
D03*
D90*
X487000Y694000D02*
D03*
X189000Y469000D02*
D03*
Y489000D02*
D03*
X189000Y591000D02*
D03*
X276000Y469000D02*
D03*
X276000Y591000D02*
D03*
Y571000D02*
D03*
X189000D02*
D03*
X276000Y489000D02*
D03*
X487000Y674000D02*
D03*
D91*
X329796Y509290D02*
D03*
X336296Y549290D02*
D03*
Y509290D02*
D03*
X316796Y549290D02*
D03*
X323296D02*
D03*
X316796Y509290D02*
D03*
X323296D02*
D03*
X329796Y549290D02*
D03*
D92*
X142000Y477000D02*
D03*
X154000D02*
D03*
Y583000D02*
D03*
X142000D02*
D03*
Y553000D02*
D03*
X154000D02*
D03*
X142000Y507000D02*
D03*
X154000D02*
D03*
D93*
X310000Y479000D02*
D03*
Y467000D02*
D03*
X340000Y593000D02*
D03*
Y581000D02*
D03*
Y479000D02*
D03*
Y467000D02*
D03*
X310000Y581000D02*
D03*
Y593000D02*
D03*
D94*
X435000Y735000D02*
D03*
X443000Y639000D02*
D03*
X463000D02*
D03*
X455000Y735000D02*
D03*
D95*
X171927Y721500D02*
D03*
X171917Y726500D02*
D03*
X270000Y726000D02*
D03*
X270011Y721000D02*
D03*
X171969Y639500D02*
D03*
X171958Y644500D02*
D03*
X270002Y639509D02*
D03*
X269991Y644510D02*
D03*
X843851Y137305D02*
D03*
X843840Y142306D02*
D03*
D96*
X164927Y733241D02*
D03*
X178927Y714741D02*
D03*
Y733241D02*
D03*
X164927Y714771D02*
D03*
X277011Y732740D02*
D03*
X263011D02*
D03*
X263011Y714270D02*
D03*
X277011Y714241D02*
D03*
X164969Y632771D02*
D03*
X178969Y632741D02*
D03*
Y651241D02*
D03*
X164969D02*
D03*
X263002Y632780D02*
D03*
X277002Y632751D02*
D03*
Y651250D02*
D03*
X263002D02*
D03*
X836840Y149064D02*
D03*
X850840Y149035D02*
D03*
X836840Y130565D02*
D03*
X850840D02*
D03*
D97*
X180677Y716741D02*
D03*
Y731241D02*
D03*
X163177Y731241D02*
D03*
Y716770D02*
D03*
X278761Y730740D02*
D03*
X261261Y730740D02*
D03*
Y716270D02*
D03*
X278761Y716241D02*
D03*
X163219Y634771D02*
D03*
X180719Y634741D02*
D03*
Y649241D02*
D03*
X163219Y649241D02*
D03*
X261252Y634780D02*
D03*
X278752Y634751D02*
D03*
Y649250D02*
D03*
X261252Y649250D02*
D03*
X835090Y147064D02*
D03*
X852590Y147035D02*
D03*
X835090Y132565D02*
D03*
X852590Y132565D02*
D03*
D98*
X455950Y189350D02*
D03*
X414050D02*
D03*
D99*
X488600Y143800D02*
D03*
D100*
X340000Y473000D02*
D03*
X310000D02*
D03*
Y587000D02*
D03*
X340000D02*
D03*
D101*
X148000Y583000D02*
D03*
Y553000D02*
D03*
Y507000D02*
D03*
Y477000D02*
D03*
D102*
X400620Y219000D02*
D03*
X385380D02*
D03*
M02*
