G04*
G04 #@! TF.GenerationSoftware,Altium Limited,Altium Designer,26.4.1 (12)*
G04*
G04 Layer_Color=255*
%FSLAX44Y44*%
%MOMM*%
G71*
G04*
G04 #@! TF.SameCoordinates,C5C9B83A-38C2-4380-AA32-BAC20A77E787*
G04*
G04*
G04 #@! TF.FilePolarity,Positive*
G04*
G01*
G75*
G04:AMPARAMS|DCode=23|XSize=0.55mm|YSize=0.6mm|CornerRadius=0.1375mm|HoleSize=0mm|Usage=FLASHONLY|Rotation=90.000|XOffset=0mm|YOffset=0mm|HoleType=Round|Shape=RoundedRectangle|*
%AMROUNDEDRECTD23*
21,1,0.5500,0.3250,0,0,90.0*
21,1,0.2750,0.6000,0,0,90.0*
1,1,0.2750,0.1625,0.1375*
1,1,0.2750,0.1625,-0.1375*
1,1,0.2750,-0.1625,-0.1375*
1,1,0.2750,-0.1625,0.1375*
%
%ADD23ROUNDEDRECTD23*%
G04:AMPARAMS|DCode=24|XSize=0.55mm|YSize=0.6mm|CornerRadius=0.1375mm|HoleSize=0mm|Usage=FLASHONLY|Rotation=180.000|XOffset=0mm|YOffset=0mm|HoleType=Round|Shape=RoundedRectangle|*
%AMROUNDEDRECTD24*
21,1,0.5500,0.3250,0,0,180.0*
21,1,0.2750,0.6000,0,0,180.0*
1,1,0.2750,-0.1375,0.1625*
1,1,0.2750,0.1375,0.1625*
1,1,0.2750,0.1375,-0.1625*
1,1,0.2750,-0.1375,-0.1625*
%
%ADD24ROUNDEDRECTD24*%
G04:AMPARAMS|DCode=25|XSize=0.65mm|YSize=0.6mm|CornerRadius=0.15mm|HoleSize=0mm|Usage=FLASHONLY|Rotation=180.000|XOffset=0mm|YOffset=0mm|HoleType=Round|Shape=RoundedRectangle|*
%AMROUNDEDRECTD25*
21,1,0.6500,0.3000,0,0,180.0*
21,1,0.3500,0.6000,0,0,180.0*
1,1,0.3000,-0.1750,0.1500*
1,1,0.3000,0.1750,0.1500*
1,1,0.3000,0.1750,-0.1500*
1,1,0.3000,-0.1750,-0.1500*
%
%ADD25ROUNDEDRECTD25*%
%ADD27R,1.6000X0.8000*%
%ADD28R,3.0000X2.1000*%
G04:AMPARAMS|DCode=29|XSize=0.9mm|YSize=0.8mm|CornerRadius=0.2mm|HoleSize=0mm|Usage=FLASHONLY|Rotation=270.000|XOffset=0mm|YOffset=0mm|HoleType=Round|Shape=RoundedRectangle|*
%AMROUNDEDRECTD29*
21,1,0.9000,0.4000,0,0,270.0*
21,1,0.5000,0.8000,0,0,270.0*
1,1,0.4000,-0.2000,-0.2500*
1,1,0.4000,-0.2000,0.2500*
1,1,0.4000,0.2000,0.2500*
1,1,0.4000,0.2000,-0.2500*
%
%ADD29ROUNDEDRECTD29*%
G04:AMPARAMS|DCode=35|XSize=1.57mm|YSize=0.41mm|CornerRadius=0.0513mm|HoleSize=0mm|Usage=FLASHONLY|Rotation=0.000|XOffset=0mm|YOffset=0mm|HoleType=Round|Shape=RoundedRectangle|*
%AMROUNDEDRECTD35*
21,1,1.5700,0.3075,0,0,0.0*
21,1,1.4675,0.4100,0,0,0.0*
1,1,0.1025,0.7338,-0.1538*
1,1,0.1025,-0.7338,-0.1538*
1,1,0.1025,-0.7338,0.1538*
1,1,0.1025,0.7338,0.1538*
%
%ADD35ROUNDEDRECTD35*%
%ADD37R,0.8000X1.6000*%
G04:AMPARAMS|DCode=38|XSize=0.95mm|YSize=0.85mm|CornerRadius=0.2125mm|HoleSize=0mm|Usage=FLASHONLY|Rotation=270.000|XOffset=0mm|YOffset=0mm|HoleType=Round|Shape=RoundedRectangle|*
%AMROUNDEDRECTD38*
21,1,0.9500,0.4250,0,0,270.0*
21,1,0.5250,0.8500,0,0,270.0*
1,1,0.4250,-0.2125,-0.2625*
1,1,0.4250,-0.2125,0.2625*
1,1,0.4250,0.2125,0.2625*
1,1,0.4250,0.2125,-0.2625*
%
%ADD38ROUNDEDRECTD38*%
%ADD39R,2.1000X3.0000*%
G04:AMPARAMS|DCode=49|XSize=1.21mm|YSize=0.59mm|CornerRadius=0.0738mm|HoleSize=0mm|Usage=FLASHONLY|Rotation=90.000|XOffset=0mm|YOffset=0mm|HoleType=Round|Shape=RoundedRectangle|*
%AMROUNDEDRECTD49*
21,1,1.2100,0.4425,0,0,90.0*
21,1,1.0625,0.5900,0,0,90.0*
1,1,0.1475,0.2213,0.5313*
1,1,0.1475,0.2213,-0.5313*
1,1,0.1475,-0.2213,-0.5313*
1,1,0.1475,-0.2213,0.5313*
%
%ADD49ROUNDEDRECTD49*%
G04:AMPARAMS|DCode=50|XSize=0.9mm|YSize=0.8mm|CornerRadius=0.2mm|HoleSize=0mm|Usage=FLASHONLY|Rotation=180.000|XOffset=0mm|YOffset=0mm|HoleType=Round|Shape=RoundedRectangle|*
%AMROUNDEDRECTD50*
21,1,0.9000,0.4000,0,0,180.0*
21,1,0.5000,0.8000,0,0,180.0*
1,1,0.4000,-0.2500,0.2000*
1,1,0.4000,0.2500,0.2000*
1,1,0.4000,0.2500,-0.2000*
1,1,0.4000,-0.2500,-0.2000*
%
%ADD50ROUNDEDRECTD50*%
G04:AMPARAMS|DCode=56|XSize=1.64mm|YSize=0.59mm|CornerRadius=0.1475mm|HoleSize=0mm|Usage=FLASHONLY|Rotation=180.000|XOffset=0mm|YOffset=0mm|HoleType=Round|Shape=RoundedRectangle|*
%AMROUNDEDRECTD56*
21,1,1.6400,0.2950,0,0,180.0*
21,1,1.3450,0.5900,0,0,180.0*
1,1,0.2950,-0.6725,0.1475*
1,1,0.2950,0.6725,0.1475*
1,1,0.2950,0.6725,-0.1475*
1,1,0.2950,-0.6725,-0.1475*
%
%ADD56ROUNDEDRECTD56*%
G04:AMPARAMS|DCode=58|XSize=1.32mm|YSize=0.6mm|CornerRadius=0.075mm|HoleSize=0mm|Usage=FLASHONLY|Rotation=180.000|XOffset=0mm|YOffset=0mm|HoleType=Round|Shape=RoundedRectangle|*
%AMROUNDEDRECTD58*
21,1,1.3200,0.4500,0,0,180.0*
21,1,1.1700,0.6000,0,0,180.0*
1,1,0.1500,-0.5850,0.2250*
1,1,0.1500,0.5850,0.2250*
1,1,0.1500,0.5850,-0.2250*
1,1,0.1500,-0.5850,-0.2250*
%
%ADD58ROUNDEDRECTD58*%
G04:AMPARAMS|DCode=66|XSize=1.32mm|YSize=0.6mm|CornerRadius=0.075mm|HoleSize=0mm|Usage=FLASHONLY|Rotation=90.000|XOffset=0mm|YOffset=0mm|HoleType=Round|Shape=RoundedRectangle|*
%AMROUNDEDRECTD66*
21,1,1.3200,0.4500,0,0,90.0*
21,1,1.1700,0.6000,0,0,90.0*
1,1,0.1500,0.2250,0.5850*
1,1,0.1500,0.2250,-0.5850*
1,1,0.1500,-0.2250,-0.5850*
1,1,0.1500,-0.2250,0.5850*
%
%ADD66ROUNDEDRECTD66*%
G04:AMPARAMS|DCode=68|XSize=0.35mm|YSize=0.8mm|CornerRadius=0.0875mm|HoleSize=0mm|Usage=FLASHONLY|Rotation=270.000|XOffset=0mm|YOffset=0mm|HoleType=Round|Shape=RoundedRectangle|*
%AMROUNDEDRECTD68*
21,1,0.3500,0.6250,0,0,270.0*
21,1,0.1750,0.8000,0,0,270.0*
1,1,0.1750,-0.3125,-0.0875*
1,1,0.1750,-0.3125,0.0875*
1,1,0.1750,0.3125,0.0875*
1,1,0.1750,0.3125,-0.0875*
%
%ADD68ROUNDEDRECTD68*%
G04:AMPARAMS|DCode=81|XSize=0.275mm|YSize=0.3mm|CornerRadius=0.0688mm|HoleSize=0mm|Usage=FLASHONLY|Rotation=0.000|XOffset=0mm|YOffset=0mm|HoleType=Round|Shape=RoundedRectangle|*
%AMROUNDEDRECTD81*
21,1,0.2750,0.1625,0,0,0.0*
21,1,0.1375,0.3000,0,0,0.0*
1,1,0.1375,0.0688,-0.0813*
1,1,0.1375,-0.0688,-0.0813*
1,1,0.1375,-0.0688,0.0813*
1,1,0.1375,0.0688,0.0813*
%
%ADD81ROUNDEDRECTD81*%
G04:AMPARAMS|DCode=86|XSize=0.65mm|YSize=0.6mm|CornerRadius=0.15mm|HoleSize=0mm|Usage=FLASHONLY|Rotation=90.000|XOffset=0mm|YOffset=0mm|HoleType=Round|Shape=RoundedRectangle|*
%AMROUNDEDRECTD86*
21,1,0.6500,0.3000,0,0,90.0*
21,1,0.3500,0.6000,0,0,90.0*
1,1,0.3000,0.1500,0.1750*
1,1,0.3000,0.1500,-0.1750*
1,1,0.3000,-0.1500,-0.1750*
1,1,0.3000,-0.1500,0.1750*
%
%ADD86ROUNDEDRECTD86*%
G04:AMPARAMS|DCode=87|XSize=0.35mm|YSize=0.8mm|CornerRadius=0.0875mm|HoleSize=0mm|Usage=FLASHONLY|Rotation=180.000|XOffset=0mm|YOffset=0mm|HoleType=Round|Shape=RoundedRectangle|*
%AMROUNDEDRECTD87*
21,1,0.3500,0.6250,0,0,180.0*
21,1,0.1750,0.8000,0,0,180.0*
1,1,0.1750,-0.0875,0.3125*
1,1,0.1750,0.0875,0.3125*
1,1,0.1750,0.0875,-0.3125*
1,1,0.1750,-0.0875,-0.3125*
%
%ADD87ROUNDEDRECTD87*%
%ADD88R,0.5000X1.0000*%
%ADD89R,1.0000X0.5000*%
%ADD95R,1.0000X0.3500*%
%ADD96R,0.3500X1.0000*%
G04:AMPARAMS|DCode=98|XSize=0.275mm|YSize=0.3mm|CornerRadius=0.0688mm|HoleSize=0mm|Usage=FLASHONLY|Rotation=90.000|XOffset=0mm|YOffset=0mm|HoleType=Round|Shape=RoundedRectangle|*
%AMROUNDEDRECTD98*
21,1,0.2750,0.1625,0,0,90.0*
21,1,0.1375,0.3000,0,0,90.0*
1,1,0.1375,0.0813,0.0688*
1,1,0.1375,0.0813,-0.0688*
1,1,0.1375,-0.0813,-0.0688*
1,1,0.1375,-0.0813,0.0688*
%
%ADD98ROUNDEDRECTD98*%
%ADD188R,2.6000X2.6000*%
%ADD195C,1.6000*%
%ADD196C,6.0000*%
%ADD197C,1.5300*%
%ADD198C,3.0450*%
%ADD199R,1.6000X1.6000*%
%ADD200R,1.5300X1.5300*%
G04:AMPARAMS|DCode=205|XSize=1.2mm|YSize=1.3mm|CornerRadius=0.246mm|HoleSize=0mm|Usage=FLASHONLY|Rotation=0.000|XOffset=0mm|YOffset=0mm|HoleType=Round|Shape=RoundedRectangle|*
%AMROUNDEDRECTD205*
21,1,1.2000,0.8080,0,0,0.0*
21,1,0.7080,1.3000,0,0,0.0*
1,1,0.4920,0.3540,-0.4040*
1,1,0.4920,-0.3540,-0.4040*
1,1,0.4920,-0.3540,0.4040*
1,1,0.4920,0.3540,0.4040*
%
%ADD205ROUNDEDRECTD205*%
G04:AMPARAMS|DCode=206|XSize=1.2mm|YSize=1.3mm|CornerRadius=0.246mm|HoleSize=0mm|Usage=FLASHONLY|Rotation=270.000|XOffset=0mm|YOffset=0mm|HoleType=Round|Shape=RoundedRectangle|*
%AMROUNDEDRECTD206*
21,1,1.2000,0.8080,0,0,270.0*
21,1,0.7080,1.3000,0,0,270.0*
1,1,0.4920,-0.4040,-0.3540*
1,1,0.4920,-0.4040,0.3540*
1,1,0.4920,0.4040,0.3540*
1,1,0.4920,0.4040,-0.3540*
%
%ADD206ROUNDEDRECTD206*%
G04:AMPARAMS|DCode=207|XSize=1.21mm|YSize=0.59mm|CornerRadius=0.0738mm|HoleSize=0mm|Usage=FLASHONLY|Rotation=0.000|XOffset=0mm|YOffset=0mm|HoleType=Round|Shape=RoundedRectangle|*
%AMROUNDEDRECTD207*
21,1,1.2100,0.4425,0,0,0.0*
21,1,1.0625,0.5900,0,0,0.0*
1,1,0.1475,0.5313,-0.2213*
1,1,0.1475,-0.5313,-0.2213*
1,1,0.1475,-0.5313,0.2213*
1,1,0.1475,0.5313,0.2213*
%
%ADD207ROUNDEDRECTD207*%
%ADD208R,1.8000X1.2500*%
G04:AMPARAMS|DCode=209|XSize=1.64mm|YSize=0.59mm|CornerRadius=0.1475mm|HoleSize=0mm|Usage=FLASHONLY|Rotation=90.000|XOffset=0mm|YOffset=0mm|HoleType=Round|Shape=RoundedRectangle|*
%AMROUNDEDRECTD209*
21,1,1.6400,0.2950,0,0,90.0*
21,1,1.3450,0.5900,0,0,90.0*
1,1,0.2950,0.1475,0.6725*
1,1,0.2950,0.1475,-0.6725*
1,1,0.2950,-0.1475,-0.6725*
1,1,0.2950,-0.1475,0.6725*
%
%ADD209ROUNDEDRECTD209*%
G04:AMPARAMS|DCode=210|XSize=2.7mm|YSize=1.3mm|CornerRadius=0.247mm|HoleSize=0mm|Usage=FLASHONLY|Rotation=180.000|XOffset=0mm|YOffset=0mm|HoleType=Round|Shape=RoundedRectangle|*
%AMROUNDEDRECTD210*
21,1,2.7000,0.8060,0,0,180.0*
21,1,2.2060,1.3000,0,0,180.0*
1,1,0.4940,-1.1030,0.4030*
1,1,0.4940,1.1030,0.4030*
1,1,0.4940,1.1030,-0.4030*
1,1,0.4940,-1.1030,-0.4030*
%
%ADD210ROUNDEDRECTD210*%
%ADD211R,1.4732X0.5588*%
G04:AMPARAMS|DCode=212|XSize=1.45mm|YSize=0.59mm|CornerRadius=0.0738mm|HoleSize=0mm|Usage=FLASHONLY|Rotation=0.000|XOffset=0mm|YOffset=0mm|HoleType=Round|Shape=RoundedRectangle|*
%AMROUNDEDRECTD212*
21,1,1.4500,0.4425,0,0,0.0*
21,1,1.3025,0.5900,0,0,0.0*
1,1,0.1475,0.6513,-0.2213*
1,1,0.1475,-0.6513,-0.2213*
1,1,0.1475,-0.6513,0.2213*
1,1,0.1475,0.6513,0.2213*
%
%ADD212ROUNDEDRECTD212*%
%ADD213O,1.4000X0.3500*%
G04:AMPARAMS|DCode=214|XSize=2.7mm|YSize=1.3mm|CornerRadius=0.247mm|HoleSize=0mm|Usage=FLASHONLY|Rotation=90.000|XOffset=0mm|YOffset=0mm|HoleType=Round|Shape=RoundedRectangle|*
%AMROUNDEDRECTD214*
21,1,2.7000,0.8060,0,0,90.0*
21,1,2.2060,1.3000,0,0,90.0*
1,1,0.4940,0.4030,1.1030*
1,1,0.4940,0.4030,-1.1030*
1,1,0.4940,-0.4030,-1.1030*
1,1,0.4940,-0.4030,1.1030*
%
%ADD214ROUNDEDRECTD214*%
%ADD215R,1.9812X0.5408*%
%ADD216O,0.3500X1.4000*%
%ADD217R,1.0000X0.6000*%
G36*
G01X546364Y767630D02*
G01X541637Y772357D01*
G01X541637Y761661D01*
G03X543762Y759536I2125J0D01*
G01X549012D01*
G03X551137Y761661I0J2125D01*
G01Y772403D01*
G01X546364Y767630D01*
D02*
G37*
G36*
G01X531364D02*
G01X526637Y772357D01*
G01X526637Y761661D01*
G03X528762Y759536I2125J0D01*
G01X534012D01*
G03X536137Y761661I0J2125D01*
G01Y772403D01*
G01X531364Y767630D01*
D02*
G37*
G36*
G01X280238Y588711D02*
G01X284965Y583984D01*
G01X284965Y594681D01*
G03X282840Y596806I-2125J0D01*
G01X277590D01*
G03X275465Y594681I0J-2125D01*
G01Y583938D01*
G01X280238Y588711D01*
D02*
G37*
G36*
G01X166479Y537224D02*
G01X161752Y541951D01*
G01X161752Y531254D01*
G03X163877Y529129I2125J0D01*
G01X169127D01*
G03X171252Y531254I0J2125D01*
G01Y541997D01*
G01X166479Y537224D01*
D02*
G37*
G36*
G01X409225Y191773D02*
G01X413952Y196500D01*
G01X403255Y196500D01*
G03X401130Y194375I0J-2125D01*
G01Y189125D01*
G03X403255Y187000I2125J0D01*
G01X413998D01*
G01X409225Y191773D01*
D02*
G37*
G36*
G01X612125Y283500D02*
G01X605694D01*
G01X600980Y278750D01*
G01X605694Y274000D01*
G01X612125D01*
G03X614250Y276125I0J2125D01*
G01Y281375D01*
G03X612125Y283500I-2125J0D01*
D02*
G37*
G36*
G01X598475Y278773D02*
G01X603202Y283500D01*
G01X592505Y283500D01*
G03X590380Y281375I0J-2125D01*
G01Y276125D01*
G03X592505Y274000I2125J0D01*
G01X603248D01*
G01X598475Y278773D01*
D02*
G37*
G36*
G01X161752Y550874D02*
G01Y544443D01*
G01X166502Y539729D01*
G01X171252Y544443D01*
G01Y550874D01*
G03X169127Y552999I-2125J0D01*
G01X163877D01*
G03X161752Y550874I0J-2125D01*
D02*
G37*
G36*
G01X422875Y196500D02*
G01X416444D01*
G01X411730Y191750D01*
G01X416444Y187000D01*
G01X422875D01*
G03X425000Y189125I0J2125D01*
G01Y194375D01*
G03X422875Y196500I-2125J0D01*
D02*
G37*
G36*
G01X284965Y575061D02*
G01Y581492D01*
G01X280215Y586206D01*
G01X275465Y581492D01*
G01Y575061D01*
G03X277590Y572936I2125J0D01*
G01X282840D01*
G03X284965Y575061I0J2125D01*
D02*
G37*
G36*
G01X473375Y187750D02*
G01X479806D01*
G01X484520Y192500D01*
G01X479806Y197250D01*
G01X473375D01*
G03X471250Y195125I0J-2125D01*
G01Y189875D01*
G03X473375Y187750I2125J0D01*
D02*
G37*
G36*
G01X487025Y192477D02*
G01X482298Y187750D01*
G01X492995Y187750D01*
G03X495120Y189875I0J2125D01*
G01Y195125D01*
G03X492995Y197250I-2125J0D01*
G01X482252D01*
G01X487025Y192477D01*
D02*
G37*
G36*
G01X611739Y310144D02*
G01X616466Y314871D01*
G01X605769Y314871D01*
G03X603644Y312746I0J-2125D01*
G01Y307496D01*
G03X605769Y305371I2125J0D01*
G01X616512D01*
G01X611739Y310144D01*
D02*
G37*
G36*
G01X625389Y314871D02*
G01X618958D01*
G01X614244Y310121D01*
G01X618958Y305371D01*
G01X625389D01*
G03X627514Y307496I0J2125D01*
G01Y312746D01*
G03X625389Y314871I-2125J0D01*
D02*
G37*
G36*
G01X541637Y781281D02*
G01Y774849D01*
G01X546387Y770135D01*
G01X551137Y774849D01*
G01Y781281D01*
G03X549012Y783406I-2125J0D01*
G01X543762D01*
G03X541637Y781281I0J-2125D01*
D02*
G37*
G36*
G01X526637D02*
G01Y774849D01*
G01X531387Y770135D01*
G01X536137Y774849D01*
G01Y781281D01*
G03X534012Y783406I-2125J0D01*
G01X528762D01*
G03X526637Y781281I0J-2125D01*
D02*
G37*
D23*
X179000Y371500D02*
D03*
Y362500D02*
D03*
X174000Y449500D02*
D03*
Y458500D02*
D03*
X829000Y292500D02*
D03*
Y283500D02*
D03*
X825000Y187500D02*
D03*
Y196500D02*
D03*
X828000Y411500D02*
D03*
Y402500D02*
D03*
X824000Y306500D02*
D03*
Y315500D02*
D03*
X599000Y86500D02*
D03*
Y77500D02*
D03*
X551000Y174500D02*
D03*
Y165500D02*
D03*
X631000Y174500D02*
D03*
Y165500D02*
D03*
X469000Y649500D02*
D03*
Y658500D02*
D03*
X459000Y649500D02*
D03*
Y658500D02*
D03*
X746000Y219500D02*
D03*
Y210500D02*
D03*
X758000Y219500D02*
D03*
Y210500D02*
D03*
X435000Y439500D02*
D03*
X410000Y710500D02*
D03*
Y701500D02*
D03*
X419000Y710500D02*
D03*
Y701500D02*
D03*
X807000Y779500D02*
D03*
Y788500D02*
D03*
X751000Y769500D02*
D03*
Y778500D02*
D03*
X467012Y690500D02*
D03*
Y681500D02*
D03*
X477000Y690500D02*
D03*
Y681500D02*
D03*
X549750Y596500D02*
D03*
X561750Y651500D02*
D03*
X519000Y771500D02*
D03*
X571500Y780500D02*
D03*
X607500Y780500D02*
D03*
X580500D02*
D03*
X660750Y627500D02*
D03*
X693750Y607500D02*
D03*
X694750Y708500D02*
D03*
X703750D02*
D03*
Y736500D02*
D03*
X639500Y771500D02*
D03*
X703750Y727500D02*
D03*
X657400Y771500D02*
D03*
X703750Y717500D02*
D03*
X694750D02*
D03*
X693750Y616500D02*
D03*
X423375Y686250D02*
D03*
X660750Y618500D02*
D03*
Y641500D02*
D03*
X584000Y855500D02*
D03*
X648500Y771500D02*
D03*
X598500Y780500D02*
D03*
X634750Y707500D02*
D03*
X589500Y780500D02*
D03*
X562500Y780500D02*
D03*
X497250Y809210D02*
D03*
X459000Y809208D02*
D03*
X508000Y712500D02*
D03*
X641622Y508000D02*
D03*
X561750Y642500D02*
D03*
X549750Y605500D02*
D03*
X682488Y342671D02*
D03*
X692488D02*
D03*
X475000Y489500D02*
D03*
X570369Y445880D02*
D03*
X563090Y247671D02*
D03*
X494000Y90500D02*
D03*
X485000D02*
D03*
X373500Y536000D02*
D03*
X358250Y809210D02*
D03*
X320000Y809208D02*
D03*
X363600Y536000D02*
D03*
X295313Y591436D02*
D03*
X239000Y817500D02*
D03*
X74000Y870500D02*
D03*
X266215Y589436D02*
D03*
X251502Y541999D02*
D03*
X240022Y448998D02*
D03*
X178502Y532499D02*
D03*
X369000Y354500D02*
D03*
X420059Y261266D02*
D03*
X451000Y90000D02*
D03*
X416000D02*
D03*
X317044Y402185D02*
D03*
X281000Y439500D02*
D03*
X244000Y436500D02*
D03*
X423375Y677250D02*
D03*
X660750Y650500D02*
D03*
X634750Y698500D02*
D03*
X369000Y345500D02*
D03*
X494000Y122000D02*
D03*
Y113000D02*
D03*
X485000Y99500D02*
D03*
X494000D02*
D03*
X471000Y98998D02*
D03*
Y89998D02*
D03*
X461000Y98998D02*
D03*
Y89998D02*
D03*
X451000Y99000D02*
D03*
X441000Y98998D02*
D03*
Y89998D02*
D03*
X426250Y98998D02*
D03*
Y89998D02*
D03*
X416000Y99000D02*
D03*
X405500Y98998D02*
D03*
Y89998D02*
D03*
X396000Y98998D02*
D03*
Y89998D02*
D03*
X383000Y439500D02*
D03*
Y430500D02*
D03*
X456500Y439502D02*
D03*
Y430502D02*
D03*
X444000Y430500D02*
D03*
Y439500D02*
D03*
X435000Y430500D02*
D03*
X416500Y430502D02*
D03*
Y439502D02*
D03*
X407500Y430502D02*
D03*
Y439502D02*
D03*
X398500Y430502D02*
D03*
Y439502D02*
D03*
X373000Y430500D02*
D03*
Y439500D02*
D03*
X355000D02*
D03*
Y430500D02*
D03*
X364000D02*
D03*
Y439500D02*
D03*
X344594Y430887D02*
D03*
Y439887D02*
D03*
X335594Y430887D02*
D03*
Y439887D02*
D03*
X326500Y430498D02*
D03*
Y439498D02*
D03*
X317500Y430502D02*
D03*
Y439502D02*
D03*
X308500Y430502D02*
D03*
Y439502D02*
D03*
X290000Y430500D02*
D03*
Y439500D02*
D03*
X281000Y430500D02*
D03*
X563090Y238671D02*
D03*
X692488Y351671D02*
D03*
X682488D02*
D03*
X475000Y480500D02*
D03*
X166000Y570500D02*
D03*
X475000Y514500D02*
D03*
Y505500D02*
D03*
X641622Y499000D02*
D03*
X570369Y454880D02*
D03*
X373500Y545000D02*
D03*
X363600D02*
D03*
X266215Y580436D02*
D03*
X261502Y532999D02*
D03*
X251502D02*
D03*
X420059Y270266D02*
D03*
X375000Y242500D02*
D03*
X508000Y721500D02*
D03*
X519000Y780500D02*
D03*
X639500Y780500D02*
D03*
X630500Y771500D02*
D03*
Y780500D02*
D03*
X166000Y561500D02*
D03*
X178502Y541499D02*
D03*
X261502Y541999D02*
D03*
X304313Y591436D02*
D03*
X675500Y771500D02*
D03*
X580500D02*
D03*
X589500D02*
D03*
X626750Y580288D02*
D03*
X532500Y587500D02*
D03*
X666400Y780500D02*
D03*
X657400Y780500D02*
D03*
X571500Y771500D02*
D03*
X562500D02*
D03*
X598500Y771500D02*
D03*
X607500D02*
D03*
X626750Y571288D02*
D03*
X684500Y771500D02*
D03*
X702500D02*
D03*
X693500D02*
D03*
X666400Y771500D02*
D03*
X693500Y780500D02*
D03*
X532500Y578500D02*
D03*
X702500Y780500D02*
D03*
X684500D02*
D03*
X675500D02*
D03*
X648500D02*
D03*
X390000Y231500D02*
D03*
X295313Y582436D02*
D03*
X304313D02*
D03*
X444000Y240500D02*
D03*
X468250Y809210D02*
D03*
X658000Y140500D02*
D03*
X426000Y231500D02*
D03*
X468250Y800210D02*
D03*
X488250Y809210D02*
D03*
X417000Y240500D02*
D03*
X658000Y131500D02*
D03*
X426000Y240500D02*
D03*
X488250Y800210D02*
D03*
X497250D02*
D03*
X584000Y846500D02*
D03*
X329250Y809210D02*
D03*
Y800210D02*
D03*
X408000Y231500D02*
D03*
X349250Y809210D02*
D03*
X408000Y240500D02*
D03*
X317044Y393185D02*
D03*
X383000Y213500D02*
D03*
X349250Y800210D02*
D03*
X358250D02*
D03*
X390000Y240500D02*
D03*
X418064Y410497D02*
D03*
X375000Y251500D02*
D03*
X399000Y240500D02*
D03*
X383000Y222500D02*
D03*
X244000Y408500D02*
D03*
X240022Y457998D02*
D03*
X244000Y427500D02*
D03*
Y417500D02*
D03*
X444000Y231500D02*
D03*
X459000Y800209D02*
D03*
X417000Y231500D02*
D03*
X320000Y800208D02*
D03*
X399000Y231500D02*
D03*
X418064Y419497D02*
D03*
X239000Y826500D02*
D03*
X74000Y861500D02*
D03*
D24*
X793500Y283000D02*
D03*
X784500D02*
D03*
X805500Y197000D02*
D03*
X796500D02*
D03*
X799500Y402000D02*
D03*
X790500D02*
D03*
X804500Y316000D02*
D03*
X795500D02*
D03*
X432500Y728000D02*
D03*
X423500D02*
D03*
X425500Y649000D02*
D03*
X434500D02*
D03*
X462500Y609000D02*
D03*
X453500D02*
D03*
X473500D02*
D03*
X482500D02*
D03*
X485251Y415373D02*
D03*
X861500Y791000D02*
D03*
X870500D02*
D03*
X587250Y591000D02*
D03*
X563250Y630000D02*
D03*
X514500Y656000D02*
D03*
X555250Y699000D02*
D03*
X510500Y755000D02*
D03*
X571250Y671000D02*
D03*
X581500Y662000D02*
D03*
X579250Y699000D02*
D03*
X566250Y744000D02*
D03*
X562500Y791000D02*
D03*
X579250Y715000D02*
D03*
X607250Y725000D02*
D03*
X609250Y610000D02*
D03*
X646250Y604000D02*
D03*
X658250Y608000D02*
D03*
X651250Y629000D02*
D03*
X653250Y727000D02*
D03*
X702250Y656000D02*
D03*
X691847Y671847D02*
D03*
X607250Y744000D02*
D03*
X666250D02*
D03*
Y753000D02*
D03*
X608500Y791000D02*
D03*
X767500Y778000D02*
D03*
X788250Y778512D02*
D03*
X767500Y787000D02*
D03*
X824500Y778000D02*
D03*
X833500Y787000D02*
D03*
X741500Y790000D02*
D03*
X650250Y650000D02*
D03*
X833500Y778000D02*
D03*
X788250Y787512D02*
D03*
X776500Y787000D02*
D03*
Y778000D02*
D03*
X662250Y727000D02*
D03*
X657250Y753000D02*
D03*
Y744000D02*
D03*
X682847Y671847D02*
D03*
X693250Y656000D02*
D03*
X667250Y608000D02*
D03*
X652500Y529000D02*
D03*
Y520000D02*
D03*
X652872Y509000D02*
D03*
X589500Y791000D02*
D03*
X616250Y744000D02*
D03*
X598250Y725000D02*
D03*
X557250Y744000D02*
D03*
X570250Y715000D02*
D03*
X564250Y699000D02*
D03*
X510500Y732580D02*
D03*
X519095Y712387D02*
D03*
X640250Y677000D02*
D03*
X631250Y687000D02*
D03*
X622250Y678000D02*
D03*
X597250Y690000D02*
D03*
X630250Y669000D02*
D03*
X622250Y653000D02*
D03*
X651250Y641000D02*
D03*
X637250Y604000D02*
D03*
X632250Y643000D02*
D03*
X621250Y621000D02*
D03*
X600250Y610000D02*
D03*
X596250Y591000D02*
D03*
X592250Y661000D02*
D03*
X581250Y680000D02*
D03*
X572500Y662000D02*
D03*
X554250Y630000D02*
D03*
X514500Y638000D02*
D03*
X751500Y312000D02*
D03*
X653000Y499000D02*
D03*
Y479000D02*
D03*
Y459000D02*
D03*
X652942Y426942D02*
D03*
Y418000D02*
D03*
X649014Y310121D02*
D03*
X660890Y279421D02*
D03*
Y254921D02*
D03*
Y245921D02*
D03*
X592495Y418006D02*
D03*
X562622Y499000D02*
D03*
X631590Y276171D02*
D03*
X631590Y267171D02*
D03*
X660890Y236921D02*
D03*
X476750Y204000D02*
D03*
X340250Y578000D02*
D03*
X340250Y569150D02*
D03*
X168500Y878000D02*
D03*
X138500D02*
D03*
X176500Y806000D02*
D03*
X137500D02*
D03*
X444000Y382000D02*
D03*
X442129Y263291D02*
D03*
X410094Y203387D02*
D03*
X322794Y344435D02*
D03*
X303794D02*
D03*
X223095Y437387D02*
D03*
X235163Y377387D02*
D03*
X295794Y265935D02*
D03*
X235242Y107653D02*
D03*
X190116Y83382D02*
D03*
X514500Y647000D02*
D03*
X505500D02*
D03*
X445500Y739000D02*
D03*
X436500D02*
D03*
X612250Y621000D02*
D03*
X622250Y687000D02*
D03*
X621250Y669000D02*
D03*
X649250Y677000D02*
D03*
X642250Y641000D02*
D03*
X258500Y430000D02*
D03*
X267500D02*
D03*
Y421000D02*
D03*
X258500D02*
D03*
X267500Y412000D02*
D03*
X258500D02*
D03*
X267523Y393750D02*
D03*
X258523D02*
D03*
X267500Y384000D02*
D03*
X258500D02*
D03*
X267500Y365000D02*
D03*
X258500D02*
D03*
X267500Y349000D02*
D03*
X258500D02*
D03*
X267500Y340000D02*
D03*
X258500D02*
D03*
X267500Y374000D02*
D03*
X258500D02*
D03*
X267500Y403000D02*
D03*
X258500D02*
D03*
X476251Y424373D02*
D03*
X485251D02*
D03*
X476251Y415373D02*
D03*
X476500Y394000D02*
D03*
X485500D02*
D03*
X476500Y376000D02*
D03*
X485500D02*
D03*
X476500Y367000D02*
D03*
X485500D02*
D03*
X476606Y349000D02*
D03*
X485606D02*
D03*
X476606Y340000D02*
D03*
X485606D02*
D03*
X476500Y322000D02*
D03*
X485500D02*
D03*
X476500Y313000D02*
D03*
X485500D02*
D03*
X476500Y295000D02*
D03*
X485500D02*
D03*
Y268000D02*
D03*
X476500D02*
D03*
X485500Y250000D02*
D03*
X476500D02*
D03*
Y403000D02*
D03*
X485500D02*
D03*
X476500Y385000D02*
D03*
X485500D02*
D03*
X476500Y358000D02*
D03*
X485500D02*
D03*
X476500Y286000D02*
D03*
X485500D02*
D03*
Y304000D02*
D03*
X476500D02*
D03*
X669890Y254921D02*
D03*
X660890Y263921D02*
D03*
X669890D02*
D03*
Y279421D02*
D03*
Y236921D02*
D03*
Y245921D02*
D03*
X631590Y247171D02*
D03*
X622590D02*
D03*
Y276171D02*
D03*
X622590Y267171D02*
D03*
X604590D02*
D03*
X595590D02*
D03*
X631590Y256171D02*
D03*
X622590D02*
D03*
Y238171D02*
D03*
X631590D02*
D03*
X214095Y437387D02*
D03*
X458500Y531250D02*
D03*
X797250Y778512D02*
D03*
X797250Y787512D02*
D03*
X824500Y787000D02*
D03*
X662000Y499000D02*
D03*
X661872Y509000D02*
D03*
X631250Y499000D02*
D03*
Y509224D02*
D03*
X662000Y479000D02*
D03*
Y459000D02*
D03*
X583000Y509000D02*
D03*
X582991Y499009D02*
D03*
X571622Y499000D02*
D03*
X611244Y479000D02*
D03*
X572750D02*
D03*
X572500Y470000D02*
D03*
X616500Y453000D02*
D03*
X601250Y449000D02*
D03*
X661942Y426942D02*
D03*
Y418000D02*
D03*
X640014Y310121D02*
D03*
X601500Y427000D02*
D03*
X612622Y426000D02*
D03*
X601495Y418006D02*
D03*
X592014Y309121D02*
D03*
X513750Y193000D02*
D03*
X373500Y567000D02*
D03*
Y558000D02*
D03*
Y526000D02*
D03*
X371500Y514000D02*
D03*
Y505000D02*
D03*
X331250Y578000D02*
D03*
X331250Y569150D02*
D03*
X441095Y193387D02*
D03*
X174978Y479502D02*
D03*
X235163Y368555D02*
D03*
X364500Y526000D02*
D03*
X362500Y514000D02*
D03*
X510498Y742830D02*
D03*
X501498D02*
D03*
X501500Y732580D02*
D03*
Y755000D02*
D03*
X613250Y678000D02*
D03*
X606250Y690000D02*
D03*
X623250Y643000D02*
D03*
X613250Y653000D02*
D03*
X601250Y661000D02*
D03*
X590250Y680000D02*
D03*
X433129Y263291D02*
D03*
X581750Y479000D02*
D03*
X592250Y449000D02*
D03*
X622250Y509224D02*
D03*
X661500Y529000D02*
D03*
X625500Y453000D02*
D03*
X622250Y499000D02*
D03*
X661500Y520000D02*
D03*
X591991Y499009D02*
D03*
X592000Y509000D02*
D03*
X592500Y427000D02*
D03*
X621622Y426000D02*
D03*
X581500Y470000D02*
D03*
X602244Y479000D02*
D03*
X188500Y878000D02*
D03*
X449500Y531250D02*
D03*
X547094Y712387D02*
D03*
X538094D02*
D03*
X760988Y382171D02*
D03*
X769988D02*
D03*
X760500Y312000D02*
D03*
X113500Y806000D02*
D03*
X115500Y878000D02*
D03*
X167500Y797000D02*
D03*
Y788000D02*
D03*
X122500Y806000D02*
D03*
X504750Y193000D02*
D03*
X485750Y204000D02*
D03*
X504750D02*
D03*
X513750D02*
D03*
X573014Y309121D02*
D03*
X564014D02*
D03*
X583014D02*
D03*
X306500Y406000D02*
D03*
X505500Y638000D02*
D03*
Y656000D02*
D03*
X617500Y791000D02*
D03*
X598500D02*
D03*
X571500D02*
D03*
X893500Y794000D02*
D03*
X902500D02*
D03*
X861500Y809000D02*
D03*
X870500D02*
D03*
X750500Y790000D02*
D03*
X740250Y640000D02*
D03*
Y620000D02*
D03*
Y671000D02*
D03*
Y660000D02*
D03*
X295500Y572000D02*
D03*
X304500D02*
D03*
X281002Y542522D02*
D03*
X272002D02*
D03*
X731250Y620000D02*
D03*
X641250Y650000D02*
D03*
X731250Y640000D02*
D03*
X580250Y671000D02*
D03*
X731250Y660000D02*
D03*
X642250Y629000D02*
D03*
X731250Y671000D02*
D03*
X588250Y699000D02*
D03*
X528094Y712387D02*
D03*
X362500Y505000D02*
D03*
X364500Y558000D02*
D03*
Y567000D02*
D03*
X312794Y344435D02*
D03*
X297500Y406000D02*
D03*
X441095Y203387D02*
D03*
X183978Y479502D02*
D03*
X419095Y203387D02*
D03*
X432094Y193387D02*
D03*
Y203387D02*
D03*
X331794Y344435D02*
D03*
X244242Y107653D02*
D03*
X304794Y265935D02*
D03*
X199116Y83382D02*
D03*
X435000Y382000D02*
D03*
X124500Y878000D02*
D03*
X176500Y788000D02*
D03*
Y797000D02*
D03*
X98500Y806000D02*
D03*
X93500Y878000D02*
D03*
X146500Y806000D02*
D03*
X147500Y878000D02*
D03*
X224500Y806000D02*
D03*
X159500Y878000D02*
D03*
X167500Y806000D02*
D03*
X179500Y878000D02*
D03*
X215500Y806000D02*
D03*
X102500Y878000D02*
D03*
X89500Y806000D02*
D03*
X244163Y377387D02*
D03*
Y368555D02*
D03*
D25*
X790000Y412000D02*
D03*
X773000Y306000D02*
D03*
Y292000D02*
D03*
X796000Y187000D02*
D03*
X702000Y102000D02*
D03*
Y63000D02*
D03*
X392000Y820000D02*
D03*
X370000D02*
D03*
X621000Y194000D02*
D03*
X621250Y205500D02*
D03*
X541000Y205330D02*
D03*
Y193330D02*
D03*
X783000Y306000D02*
D03*
X360000Y820000D02*
D03*
X800000Y412000D02*
D03*
X783000Y292000D02*
D03*
X806000Y187000D02*
D03*
X692000Y63000D02*
D03*
X702000Y89000D02*
D03*
X692000D02*
D03*
Y102000D02*
D03*
X702000Y76000D02*
D03*
X692000D02*
D03*
X572000Y205330D02*
D03*
Y193330D02*
D03*
X651250Y205500D02*
D03*
X651000Y194000D02*
D03*
X562000Y205330D02*
D03*
X551000D02*
D03*
Y193330D02*
D03*
X562000D02*
D03*
X631250Y205500D02*
D03*
X641250D02*
D03*
X641000Y194000D02*
D03*
X631000D02*
D03*
X402000Y820000D02*
D03*
D27*
X860000Y745500D02*
D03*
Y633000D02*
D03*
Y620500D02*
D03*
Y733000D02*
D03*
Y720500D02*
D03*
Y708000D02*
D03*
Y695500D02*
D03*
Y683000D02*
D03*
Y670500D02*
D03*
Y658000D02*
D03*
Y645500D02*
D03*
X859000Y463500D02*
D03*
Y426000D02*
D03*
Y488500D02*
D03*
Y476000D02*
D03*
Y538500D02*
D03*
Y526000D02*
D03*
Y513500D02*
D03*
Y501000D02*
D03*
Y451000D02*
D03*
Y438500D02*
D03*
Y413500D02*
D03*
D28*
X889000Y771000D02*
D03*
Y595000D02*
D03*
X888000Y564000D02*
D03*
Y388000D02*
D03*
D29*
X663750Y694000D02*
D03*
X679750D02*
D03*
X574750Y632000D02*
D03*
X582750Y647000D02*
D03*
X590750Y632000D02*
D03*
X598750Y647000D02*
D03*
D35*
X749090Y280171D02*
D03*
X691690Y254171D02*
D03*
X828700Y765750D02*
D03*
X771300D02*
D03*
Y759250D02*
D03*
X828700Y739750D02*
D03*
Y733250D02*
D03*
Y713750D02*
D03*
Y707250D02*
D03*
Y694250D02*
D03*
X771300D02*
D03*
X749090Y234671D02*
D03*
Y241171D02*
D03*
X771300Y733250D02*
D03*
Y726750D02*
D03*
Y707250D02*
D03*
Y700750D02*
D03*
Y746250D02*
D03*
Y739750D02*
D03*
X828700Y759250D02*
D03*
Y700750D02*
D03*
X771300Y720250D02*
D03*
Y713750D02*
D03*
X828700Y720250D02*
D03*
Y726750D02*
D03*
Y752750D02*
D03*
Y746250D02*
D03*
X771300Y752750D02*
D03*
X691690Y280171D02*
D03*
X749090Y267171D02*
D03*
X691690Y260671D02*
D03*
X749090Y247671D02*
D03*
X691690Y234671D02*
D03*
Y267171D02*
D03*
X749090Y254171D02*
D03*
X691690Y241171D02*
D03*
Y273671D02*
D03*
Y247671D02*
D03*
X749090Y260671D02*
D03*
Y273671D02*
D03*
D37*
X688250Y833000D02*
D03*
X675750D02*
D03*
X700750D02*
D03*
X456250Y825500D02*
D03*
X316250D02*
D03*
X481250D02*
D03*
X418750D02*
D03*
X443750D02*
D03*
X431250D02*
D03*
X468750D02*
D03*
X663250Y833000D02*
D03*
X278750Y825500D02*
D03*
X341250D02*
D03*
X303750D02*
D03*
X291250D02*
D03*
X328750D02*
D03*
D38*
X116000Y792000D02*
D03*
X600000Y834000D02*
D03*
X148000Y792000D02*
D03*
X584000Y834000D02*
D03*
X132000Y792000D02*
D03*
D39*
X726250Y862000D02*
D03*
X637750D02*
D03*
X506750Y854500D02*
D03*
X393250D02*
D03*
X366750D02*
D03*
X253250D02*
D03*
D49*
X455000Y147550D02*
D03*
X437000Y777450D02*
D03*
X297000D02*
D03*
X410000Y147550D02*
D03*
X446500Y777450D02*
D03*
X427500D02*
D03*
X437000Y802550D02*
D03*
X446500D02*
D03*
X427500D02*
D03*
X455000Y122450D02*
D03*
X410000D02*
D03*
X297000Y802550D02*
D03*
X445500Y147550D02*
D03*
Y122450D02*
D03*
X464500Y147550D02*
D03*
Y122450D02*
D03*
X419500D02*
D03*
Y147550D02*
D03*
X400500Y122450D02*
D03*
Y147550D02*
D03*
X287500Y802550D02*
D03*
X306500D02*
D03*
X287500Y777450D02*
D03*
X306500D02*
D03*
D50*
X342002Y739000D02*
D03*
X340000Y656000D02*
D03*
Y672000D02*
D03*
X342002Y755000D02*
D03*
D56*
X617900Y63660D02*
D03*
X711740Y341821D02*
D03*
X617900Y76360D02*
D03*
X222350Y850350D02*
D03*
X93650Y837650D02*
D03*
X670600Y76360D02*
D03*
Y63660D02*
D03*
Y89060D02*
D03*
Y101760D02*
D03*
X617900D02*
D03*
Y89060D02*
D03*
X711740Y354521D02*
D03*
X222350Y863050D02*
D03*
X764440Y329121D02*
D03*
Y341821D02*
D03*
Y367221D02*
D03*
X711740D02*
D03*
Y329121D02*
D03*
X764440Y354521D02*
D03*
X146350Y837650D02*
D03*
Y850350D02*
D03*
X169650D02*
D03*
Y837650D02*
D03*
X93650Y824950D02*
D03*
Y863050D02*
D03*
X146350Y824950D02*
D03*
Y863050D02*
D03*
X222350Y824950D02*
D03*
X169650Y863050D02*
D03*
Y824950D02*
D03*
X222350Y837650D02*
D03*
X93650Y850350D02*
D03*
D58*
X439000Y697500D02*
D03*
Y716500D02*
D03*
X459000Y707000D02*
D03*
X220022Y448998D02*
D03*
X207500Y416500D02*
D03*
X227500Y426000D02*
D03*
Y407000D02*
D03*
X220022Y467998D02*
D03*
X200022Y458498D02*
D03*
D66*
X736500Y765000D02*
D03*
X717500D02*
D03*
X727000Y785000D02*
D03*
X423500Y625000D02*
D03*
X404500D02*
D03*
X414000Y645000D02*
D03*
X457500Y625000D02*
D03*
X438500D02*
D03*
X448000Y645000D02*
D03*
X468500Y776000D02*
D03*
X524095Y727387D02*
D03*
X468500Y736000D02*
D03*
X472500Y625000D02*
D03*
X329500Y776000D02*
D03*
X543094Y727387D02*
D03*
X533595Y747387D02*
D03*
X487500Y776000D02*
D03*
X478000Y796000D02*
D03*
X487500Y736000D02*
D03*
X478000Y756000D02*
D03*
X482000Y645000D02*
D03*
X491500Y625000D02*
D03*
X339000Y796000D02*
D03*
X348500Y776000D02*
D03*
D68*
X347000Y529750D02*
D03*
Y542750D02*
D03*
X307000Y523250D02*
D03*
Y529750D02*
D03*
Y542750D02*
D03*
Y536250D02*
D03*
X347000Y523250D02*
D03*
Y536250D02*
D03*
D81*
X418625Y326000D02*
D03*
X413375D02*
D03*
X440169Y389185D02*
D03*
X437419Y373435D02*
D03*
X399181Y373686D02*
D03*
X410919Y367185D02*
D03*
X438625Y331435D02*
D03*
X437625Y351000D02*
D03*
X437419Y311935D02*
D03*
X417919Y344435D02*
D03*
X394669Y343783D02*
D03*
X417919Y318685D02*
D03*
X396625Y317000D02*
D03*
X346375Y356000D02*
D03*
X342669Y350185D02*
D03*
X440363Y273653D02*
D03*
X437419Y289685D02*
D03*
X399169Y289185D02*
D03*
X379669Y308685D02*
D03*
X341006Y302260D02*
D03*
X307669Y351935D02*
D03*
Y370435D02*
D03*
X327344Y318435D02*
D03*
X307807Y331572D02*
D03*
X304663Y312189D02*
D03*
X302517Y293197D02*
D03*
X301249Y276266D02*
D03*
X243919Y159435D02*
D03*
X201419Y139435D02*
D03*
X201169Y119435D02*
D03*
X240506Y99572D02*
D03*
X191919Y93435D02*
D03*
X184275Y179237D02*
D03*
X404419Y289185D02*
D03*
X433375Y331435D02*
D03*
X432169Y311935D02*
D03*
X391375Y317000D02*
D03*
X432169Y289685D02*
D03*
X435113Y273653D02*
D03*
X389419Y343783D02*
D03*
X313057Y331572D02*
D03*
X412669Y318685D02*
D03*
X432375Y351000D02*
D03*
X351625Y356000D02*
D03*
X412669Y344435D02*
D03*
X312919Y370435D02*
D03*
Y351935D02*
D03*
X337419Y350185D02*
D03*
X309913Y312189D02*
D03*
X195919Y119435D02*
D03*
X307767Y293197D02*
D03*
X197169Y93435D02*
D03*
X346256Y302260D02*
D03*
X249169Y159435D02*
D03*
X332594Y318435D02*
D03*
X245756Y99572D02*
D03*
X206669Y139435D02*
D03*
X384919Y308685D02*
D03*
X432169Y373435D02*
D03*
X404431Y373686D02*
D03*
X405669Y367185D02*
D03*
X434919Y389185D02*
D03*
X306499Y276266D02*
D03*
X189525Y179237D02*
D03*
D86*
X586000Y64000D02*
D03*
X838000Y412000D02*
D03*
Y293000D02*
D03*
X647000Y131000D02*
D03*
X565000Y130000D02*
D03*
X147000Y458993D02*
D03*
X586000Y130000D02*
D03*
X597000D02*
D03*
X163000Y362000D02*
D03*
X154000D02*
D03*
X838000Y283000D02*
D03*
Y402000D02*
D03*
X163000Y372000D02*
D03*
X154000D02*
D03*
X586000Y74000D02*
D03*
Y91000D02*
D03*
X819000Y412000D02*
D03*
Y402000D02*
D03*
X833000Y306000D02*
D03*
Y316000D02*
D03*
X810000Y402000D02*
D03*
Y412000D02*
D03*
X815000Y316000D02*
D03*
Y306000D02*
D03*
X820000Y293000D02*
D03*
Y283000D02*
D03*
X811000D02*
D03*
Y293000D02*
D03*
X834000Y187000D02*
D03*
Y197000D02*
D03*
X816000D02*
D03*
Y187000D02*
D03*
X586000Y101000D02*
D03*
X165000Y479000D02*
D03*
X156000D02*
D03*
Y469000D02*
D03*
X165000D02*
D03*
X165000Y448993D02*
D03*
Y458993D02*
D03*
X147000Y448993D02*
D03*
X156000D02*
D03*
Y458993D02*
D03*
X597000Y140000D02*
D03*
X586000D02*
D03*
X565000D02*
D03*
X647000Y141000D02*
D03*
D87*
X323750Y553000D02*
D03*
X317250D02*
D03*
X336750D02*
D03*
X330250Y513000D02*
D03*
X323750D02*
D03*
X317250D02*
D03*
X336750D02*
D03*
X330250Y553000D02*
D03*
D88*
X340000Y689000D02*
D03*
X328000D02*
D03*
X340000Y632000D02*
D03*
X328000D02*
D03*
Y602000D02*
D03*
X340000D02*
D03*
X328000Y719000D02*
D03*
X340000D02*
D03*
D89*
X389000Y599000D02*
D03*
Y611000D02*
D03*
X359000Y599000D02*
D03*
Y611000D02*
D03*
X167000Y585000D02*
D03*
Y597000D02*
D03*
X197000D02*
D03*
Y585000D02*
D03*
D95*
X389000Y605000D02*
D03*
X359000D02*
D03*
X197000Y591000D02*
D03*
X167000D02*
D03*
D96*
X334000Y719000D02*
D03*
Y689000D02*
D03*
Y632000D02*
D03*
Y602000D02*
D03*
D98*
X398000Y412375D02*
D03*
Y417625D02*
D03*
X418794Y367810D02*
D03*
X411501Y396367D02*
D03*
X392044Y396310D02*
D03*
X399294Y354810D02*
D03*
X353044Y396310D02*
D03*
X372544Y396188D02*
D03*
X385574Y376624D02*
D03*
X359544Y377560D02*
D03*
X347000Y402625D02*
D03*
X342000D02*
D03*
X333544Y396310D02*
D03*
X343294Y377560D02*
D03*
X360195Y353045D02*
D03*
X376000Y330625D02*
D03*
X364814Y334159D02*
D03*
X343294Y369810D02*
D03*
X336794Y364560D02*
D03*
X349786Y313226D02*
D03*
X418794Y295310D02*
D03*
X411518Y266705D02*
D03*
X408548Y304810D02*
D03*
X401740Y304811D02*
D03*
X372044Y309310D02*
D03*
X347281Y289812D02*
D03*
X385500Y287125D02*
D03*
X362794Y286560D02*
D03*
X336729Y298047D02*
D03*
X392044Y266020D02*
D03*
X353083Y262578D02*
D03*
X333502Y268536D02*
D03*
X330270Y364560D02*
D03*
X306879Y399150D02*
D03*
X330258Y298117D02*
D03*
X315044Y263810D02*
D03*
X315037Y258348D02*
D03*
X264544Y214060D02*
D03*
X180544D02*
D03*
X264544Y198060D02*
D03*
X264429Y143352D02*
D03*
X264544Y128810D02*
D03*
X206074Y164891D02*
D03*
X250544Y136810D02*
D03*
X264544Y118060D02*
D03*
X250544Y126060D02*
D03*
X264544Y102060D02*
D03*
X188544Y134060D02*
D03*
X188544Y144810D02*
D03*
Y104810D02*
D03*
X180408Y198023D02*
D03*
X177878Y176835D02*
D03*
X399294Y360060D02*
D03*
X418794Y290060D02*
D03*
X411518Y271955D02*
D03*
X359544Y372310D02*
D03*
X360195Y347795D02*
D03*
X343294Y364560D02*
D03*
X353044Y391060D02*
D03*
X392044D02*
D03*
X392044Y271270D02*
D03*
X411501Y391117D02*
D03*
X385574Y371374D02*
D03*
X372544Y390938D02*
D03*
X333544Y391060D02*
D03*
X306879Y393900D02*
D03*
X385500Y292375D02*
D03*
X372044Y314560D02*
D03*
X177878Y171585D02*
D03*
X342000Y397375D02*
D03*
X347000D02*
D03*
X343294Y382810D02*
D03*
X315037Y253098D02*
D03*
X401740Y299562D02*
D03*
X336794Y369810D02*
D03*
X408548Y299560D02*
D03*
X330270Y369810D02*
D03*
X376000Y325375D02*
D03*
X264544Y208810D02*
D03*
X180408Y192773D02*
D03*
X188544Y110060D02*
D03*
X264544Y134060D02*
D03*
X206074Y170141D02*
D03*
X264544Y192810D02*
D03*
X315044Y269060D02*
D03*
X330258Y292867D02*
D03*
X264544Y96810D02*
D03*
X250544Y142060D02*
D03*
X333502Y263287D02*
D03*
X349786Y318476D02*
D03*
X362794Y291810D02*
D03*
X188544Y150060D02*
D03*
X336729Y292797D02*
D03*
X264544Y112810D02*
D03*
X180544Y208810D02*
D03*
X364814Y328909D02*
D03*
X347281Y295062D02*
D03*
X353083Y267828D02*
D03*
X188544Y128810D02*
D03*
X250544Y120810D02*
D03*
X418794Y373060D02*
D03*
X264429Y148602D02*
D03*
D188*
X327000Y533000D02*
D03*
D195*
X695800Y810000D02*
D03*
X670400D02*
D03*
X543400D02*
D03*
X645000D02*
D03*
X619600D02*
D03*
X568800D02*
D03*
X594200D02*
D03*
X762000Y812800D02*
D03*
X787400D02*
D03*
X812800D02*
D03*
X762000Y838200D02*
D03*
X787400D02*
D03*
X812800D02*
D03*
X762000Y863600D02*
D03*
X787400D02*
D03*
X812800D02*
D03*
D196*
X893000Y850000D02*
D03*
Y50000D02*
D03*
X35700Y824600D02*
D03*
Y88000D02*
D03*
D197*
Y723000D02*
D03*
X61100D02*
D03*
Y519800D02*
D03*
X35700D02*
D03*
Y494400D02*
D03*
X61100D02*
D03*
X111900Y596000D02*
D03*
X86500D02*
D03*
Y418200D02*
D03*
X111900Y164200D02*
D03*
Y265800D02*
D03*
Y240400D02*
D03*
Y316600D02*
D03*
Y291200D02*
D03*
X35700Y443600D02*
D03*
X61100D02*
D03*
X111900Y367400D02*
D03*
X86500D02*
D03*
X111900Y646800D02*
D03*
Y621400D02*
D03*
X61100Y367400D02*
D03*
X35700D02*
D03*
Y418200D02*
D03*
X61100D02*
D03*
X86500Y443600D02*
D03*
Y672200D02*
D03*
Y697600D02*
D03*
X111900D02*
D03*
Y672200D02*
D03*
Y748400D02*
D03*
Y723000D02*
D03*
Y469000D02*
D03*
Y443600D02*
D03*
Y418200D02*
D03*
X86500Y392800D02*
D03*
X111900D02*
D03*
X86500Y164200D02*
D03*
Y138800D02*
D03*
Y469000D02*
D03*
Y316600D02*
D03*
X111900Y342000D02*
D03*
X86500D02*
D03*
X111900Y545200D02*
D03*
X86500D02*
D03*
X111900Y570600D02*
D03*
X86500D02*
D03*
Y621400D02*
D03*
Y646800D02*
D03*
Y748400D02*
D03*
X111900Y773800D02*
D03*
X86500D02*
D03*
X111900Y189600D02*
D03*
X86500D02*
D03*
X111900Y215000D02*
D03*
X86500D02*
D03*
Y265800D02*
D03*
Y291200D02*
D03*
Y240400D02*
D03*
Y494400D02*
D03*
X111900D02*
D03*
Y519800D02*
D03*
X86500D02*
D03*
Y723000D02*
D03*
X35700Y240400D02*
D03*
Y265800D02*
D03*
Y215000D02*
D03*
X61100D02*
D03*
Y189600D02*
D03*
X35700Y164200D02*
D03*
Y138800D02*
D03*
Y773800D02*
D03*
X61100D02*
D03*
X35700Y748400D02*
D03*
X61100D02*
D03*
X35700Y646800D02*
D03*
Y621400D02*
D03*
Y570600D02*
D03*
X61100D02*
D03*
X35700Y545200D02*
D03*
X61100D02*
D03*
X35700Y469000D02*
D03*
Y392800D02*
D03*
Y342000D02*
D03*
X61100D02*
D03*
X35700Y316600D02*
D03*
X61100Y164200D02*
D03*
Y392800D02*
D03*
Y469000D02*
D03*
X35700Y189600D02*
D03*
X61100Y240400D02*
D03*
Y265800D02*
D03*
Y291200D02*
D03*
Y316600D02*
D03*
Y596000D02*
D03*
X35700D02*
D03*
X61100Y621400D02*
D03*
Y672200D02*
D03*
X35700Y291200D02*
D03*
X61100Y697600D02*
D03*
X35700D02*
D03*
X61100Y646800D02*
D03*
X35700Y672200D02*
D03*
D198*
X732950Y130000D02*
D03*
X517050D02*
D03*
D199*
X721200Y810000D02*
D03*
X838200Y812800D02*
D03*
Y838200D02*
D03*
Y863600D02*
D03*
D200*
X111900Y138800D02*
D03*
X61100D02*
D03*
D205*
X603750Y757998D02*
D03*
X690750Y593002D02*
D03*
X672750D02*
D03*
X621750Y757998D02*
D03*
X568750Y616002D02*
D03*
X586750D02*
D03*
D206*
X717748Y734000D02*
D03*
X569748Y599000D02*
D03*
X717748Y716000D02*
D03*
X569748Y581000D02*
D03*
D207*
X542450Y850000D02*
D03*
X567550D02*
D03*
X542450Y859500D02*
D03*
Y840500D02*
D03*
X567550Y859500D02*
D03*
Y840500D02*
D03*
D208*
X901900Y356050D02*
D03*
Y198950D02*
D03*
D209*
X793950Y332650D02*
D03*
Y213650D02*
D03*
X832050Y266350D02*
D03*
X806650D02*
D03*
X819350D02*
D03*
X832050Y213650D02*
D03*
X819350D02*
D03*
X793950Y266350D02*
D03*
X806650Y213650D02*
D03*
X832050Y385350D02*
D03*
X806650D02*
D03*
X819350D02*
D03*
Y332650D02*
D03*
X832050D02*
D03*
X793950Y385350D02*
D03*
X806650Y332650D02*
D03*
D210*
X872920Y165653D02*
D03*
X840920Y123653D02*
D03*
X808920Y123653D02*
D03*
X304931Y739653D02*
D03*
X304922Y658162D02*
D03*
X272931Y739653D02*
D03*
X272922Y658162D02*
D03*
X206848Y740153D02*
D03*
X240931Y697653D02*
D03*
X174848Y740153D02*
D03*
X240922Y616162D02*
D03*
X174889Y658153D02*
D03*
X206889Y658153D02*
D03*
X142848Y698153D02*
D03*
X142889Y616153D02*
D03*
X872920Y137653D02*
D03*
X808920Y151653D02*
D03*
X840920Y151653D02*
D03*
X142848Y726153D02*
D03*
X206848Y712153D02*
D03*
X174848Y712153D02*
D03*
X240931Y725653D02*
D03*
X304931Y711653D02*
D03*
X272931Y711653D02*
D03*
X142889Y644153D02*
D03*
X206889Y630153D02*
D03*
X174889Y630153D02*
D03*
X240922Y644162D02*
D03*
X272922Y630162D02*
D03*
X304922Y630162D02*
D03*
D211*
X570938Y368171D02*
D03*
X644090Y342771D02*
D03*
X570938Y355471D02*
D03*
Y342771D02*
D03*
X644090Y368171D02*
D03*
Y355471D02*
D03*
X570938Y330071D02*
D03*
X644090D02*
D03*
D212*
X580540Y246171D02*
D03*
Y255671D02*
D03*
X603640D02*
D03*
Y246171D02*
D03*
Y236671D02*
D03*
X580540D02*
D03*
D213*
X688000Y155710D02*
D03*
X608000D02*
D03*
X567000D02*
D03*
Y162210D02*
D03*
Y168710D02*
D03*
X608000Y162210D02*
D03*
Y168710D02*
D03*
Y175210D02*
D03*
X567000D02*
D03*
X647000Y168710D02*
D03*
Y162210D02*
D03*
Y155710D02*
D03*
X688000Y168710D02*
D03*
Y162210D02*
D03*
Y175210D02*
D03*
X647000D02*
D03*
D214*
X390002Y713000D02*
D03*
Y749000D02*
D03*
X387000Y665000D02*
D03*
Y632000D02*
D03*
X359000D02*
D03*
Y665000D02*
D03*
X362002Y713000D02*
D03*
Y749000D02*
D03*
D215*
X454650Y518050D02*
D03*
Y479950D02*
D03*
X405350D02*
D03*
Y492650D02*
D03*
Y505350D02*
D03*
Y518050D02*
D03*
X454650Y505350D02*
D03*
Y492650D02*
D03*
D216*
X152250Y390500D02*
D03*
X158750D02*
D03*
X171750D02*
D03*
X165250D02*
D03*
X171750Y431500D02*
D03*
X165250D02*
D03*
X158750D02*
D03*
X152250D02*
D03*
D217*
X850000Y240000D02*
D03*
Y270000D02*
D03*
Y300000D02*
D03*
Y330000D02*
D03*
Y225000D02*
D03*
Y255000D02*
D03*
Y285000D02*
D03*
Y315000D02*
D03*
M02*
