G04*
G04 #@! TF.GenerationSoftware,Altium Limited,Altium Designer,26.4.1 (12)*
G04*
G04 Layer_Physical_Order=6*
G04 Layer_Color=16776960*
%FSLAX44Y44*%
%MOMM*%
G71*
G04*
G04 #@! TF.SameCoordinates,5FFEAE5A-4657-4525-8EA9-9AA3AE1B16BF*
G04*
G04*
G04 #@! TF.FilePolarity,Positive*
G04*
G01*
G75*
%ADD14C,0.1250*%
%ADD18C,0.1000*%
%ADD103C,1.0000*%
%ADD196C,0.4000*%
%ADD197C,0.1600*%
%ADD201C,1.6000*%
%ADD202C,1.5300*%
%ADD203C,3.0450*%
%ADD204R,1.6000X1.6000*%
%ADD205R,1.5300X1.5300*%
%ADD206C,0.4000*%
%ADD207C,4.4000*%
%ADD208C,0.1000*%
D14*
X366776Y135225D02*
G03*
X369427Y135225I1326J1326D01*
G01*
X372079Y135225D02*
G03*
X369427Y135225I-1326J-1326D01*
G01*
X372079Y132573D02*
G03*
X372079Y135225I-1326J1326D01*
G01*
X372079Y132573D02*
G03*
X372079Y129921I1326J-1326D01*
G01*
D02*
G03*
X374730Y129921I1326J1326D01*
G01*
X381577Y134116D02*
G03*
X378926Y134116I-1326J-1326D01*
G01*
X381577Y131465D02*
G03*
X381577Y134116I-1326J1326D01*
G01*
X377382Y127270D02*
G03*
X377382Y124618I1326J-1326D01*
G01*
X377382Y124618D02*
G03*
X380034Y124618I1326J1326D01*
G01*
X386725Y128658D02*
G03*
X384073Y128658I-1326J-1326D01*
G01*
X386725Y126006D02*
G03*
X386725Y128658I-1326J1326D01*
G01*
X382685Y121966D02*
G03*
X382685Y119315I1326J-1326D01*
G01*
X353515Y180162D02*
G03*
X356166Y180162I1326J1326D01*
G01*
X358818Y180163D02*
G03*
X356166Y180163I-1326J-1326D01*
G01*
X358818Y177511D02*
G03*
X358818Y180163I-1326J1326D01*
G01*
X352729Y171422D02*
G03*
X352729Y168770I1326J-1326D01*
G01*
D02*
G03*
X355380Y168770I1326J1326D01*
G01*
X361469Y172207D02*
G03*
X358818Y172207I-1326J-1326D01*
G01*
X369015Y162010D02*
G03*
X369015Y164662I-1326J1326D01*
G01*
X365940Y158935D02*
G03*
X365940Y156283I1326J-1326D01*
G01*
D02*
G03*
X368592Y156283I1326J1326D01*
G01*
X374672Y159712D02*
G03*
X372020Y159712I-1326J-1326D01*
G01*
X374672Y157060D02*
G03*
X374672Y159712I-1326J1326D01*
G01*
X370891Y153279D02*
G03*
X370891Y150628I1326J-1326D01*
G01*
D02*
G03*
X373543Y150628I1326J1326D01*
G01*
X379976Y154409D02*
G03*
X377324Y154409I-1326J-1326D01*
G01*
X379976Y151757D02*
G03*
X379976Y154409I-1326J1326D01*
G01*
X377690Y149472D02*
G03*
X377691Y146820I1326J-1326D01*
G01*
X377690Y146820D02*
G03*
X380342Y146820I1326J1326D01*
G01*
X384572Y148398D02*
G03*
X381920Y148398I-1326J-1326D01*
G01*
X384572Y145747D02*
G03*
X384572Y148398I-1326J1326D01*
G01*
X380506Y141681D02*
G03*
X380506Y139029I1326J-1326D01*
G01*
D02*
G03*
X383158Y139029I1326J1326D01*
G01*
X390582Y143802D02*
G03*
X387930Y143802I-1326J-1326D01*
G01*
X390582Y141150D02*
G03*
X390582Y143802I-1326J1326D01*
G01*
X385809Y136377D02*
G03*
X385809Y133726I1326J-1326D01*
G01*
D02*
G03*
X388461Y133726I1326J1326D01*
G01*
X395886Y138499D02*
G03*
X393234Y138499I-1326J-1326D01*
G01*
X395886Y135847D02*
G03*
X395886Y138499I-1326J1326D01*
G01*
X391113Y131074D02*
G03*
X391113Y128422I1326J-1326D01*
G01*
X391113Y128422D02*
G03*
X393764Y128422I1326J1326D01*
G01*
X400482Y132488D02*
G03*
X397830Y132488I-1326J-1326D01*
G01*
X400482Y129837D02*
G03*
X400482Y132488I-1326J1326D01*
G01*
X396416Y125771D02*
G03*
X396416Y123119I1326J-1326D01*
G01*
D02*
G03*
X399067Y123119I1326J1326D01*
G01*
X406492Y127892D02*
G03*
X403840Y127892I-1326J-1326D01*
G01*
X406492Y125240D02*
G03*
X406492Y127892I-1326J1326D01*
G01*
X401719Y120467D02*
G03*
X401719Y117816I1326J-1326D01*
G01*
D02*
G03*
X404371Y117816I1326J1326D01*
G01*
X411795Y122589D02*
G03*
X409144Y122589I-1326J-1326D01*
G01*
X411795Y119937D02*
G03*
X411795Y122589I-1326J1326D01*
G01*
X407022Y115164D02*
G03*
X407022Y112512I1326J-1326D01*
G01*
X407022Y112512D02*
G03*
X409674Y112512I1326J1326D01*
G01*
X416745Y116932D02*
G03*
X414093Y116932I-1326J-1326D01*
G01*
X383247Y172727D02*
G03*
X385899Y172727I1326J1326D01*
G01*
X388916Y173093D02*
G03*
X386264Y173093I-1326J-1326D01*
G01*
X388916Y170441D02*
G03*
X388916Y173093I-1326J1326D01*
G01*
X387893Y169418D02*
G03*
X387893Y166767I1326J-1326D01*
G01*
D02*
G03*
X390545Y166767I1326J1326D01*
G01*
X398273Y171843D02*
G03*
X395621Y171843I-1326J-1326D01*
G01*
X398273Y169191D02*
G03*
X398273Y171843I-1326J1326D01*
G01*
X393197Y164115D02*
G03*
X393197Y161463I1326J-1326D01*
G01*
D02*
G03*
X395848Y161463I1326J1326D01*
G01*
X403576Y166540D02*
G03*
X400925Y166540I-1326J-1326D01*
G01*
X403576Y163888D02*
G03*
X403576Y166540I-1326J1326D01*
G01*
X397793Y158105D02*
G03*
X397793Y155453I1326J-1326D01*
G01*
X397793Y155453D02*
G03*
X400445Y155453I1326J1326D01*
G01*
X408880Y161236D02*
G03*
X406228Y161236I-1326J-1326D01*
G01*
X408880Y158585D02*
G03*
X408880Y161236I-1326J1326D01*
G01*
X404460Y154165D02*
G03*
X404460Y151514I1326J-1326D01*
G01*
X375662Y171750D02*
G03*
X375662Y174402I-1326J1326D01*
G01*
X372418Y168507D02*
G03*
X372418Y165855I1326J-1326D01*
G01*
X372418Y165855D02*
G03*
X375070Y165855I1326J1326D01*
G01*
X381622Y169756D02*
G03*
X378970Y169756I-1326J-1326D01*
G01*
X381622Y167104D02*
G03*
X381622Y169756I-1326J1326D01*
G01*
X377721Y163203D02*
G03*
X377721Y160552I1326J-1326D01*
G01*
D02*
G03*
X380373Y160552I1326J1326D01*
G01*
X386622Y164149D02*
G03*
X383970Y164149I-1326J-1326D01*
G01*
X386622Y161497D02*
G03*
X386622Y164149I-1326J1326D01*
G01*
X383025Y157900D02*
G03*
X383025Y155248I1326J-1326D01*
G01*
D02*
G03*
X385676Y155248I1326J1326D01*
G01*
X391925Y158846D02*
G03*
X389274Y158846I-1326J-1326D01*
G01*
X391925Y156194D02*
G03*
X391925Y158846I-1326J1326D01*
G01*
X387975Y152243D02*
G03*
X387975Y149592I1326J-1326D01*
G01*
X387975Y149592D02*
G03*
X390626Y149592I1326J1326D01*
G01*
X396521Y152835D02*
G03*
X393870Y152835I-1326J-1326D01*
G01*
X396521Y150184D02*
G03*
X396521Y152835I-1326J1326D01*
G01*
X393631Y147294D02*
G03*
X393631Y144642I1326J-1326D01*
G01*
D02*
G03*
X396283Y144642I1326J1326D01*
G01*
X402835Y148542D02*
G03*
X400184Y148542I-1326J-1326D01*
G01*
X402835Y145891D02*
G03*
X402835Y148542I-1326J1326D01*
G01*
X398935Y141990D02*
G03*
X398935Y139339I1326J-1326D01*
G01*
D02*
G03*
X401586Y139339I1326J1326D01*
G01*
X408139Y143239D02*
G03*
X405487Y143239I-1326J-1326D01*
G01*
X408139Y140588D02*
G03*
X408139Y143239I-1326J1326D01*
G01*
X403885Y136333D02*
G03*
X403885Y133682I1326J-1326D01*
G01*
X403885Y133682D02*
G03*
X406536Y133682I1326J1326D01*
G01*
X413442Y137936D02*
G03*
X410790Y137936I-1326J-1326D01*
G01*
X413442Y135284D02*
G03*
X413442Y137936I-1326J1326D01*
G01*
X409541Y131384D02*
G03*
X409541Y128732I1326J-1326D01*
G01*
D02*
G03*
X412193Y128732I1326J1326D01*
G01*
X418745Y132633D02*
G03*
X416094Y132633I-1326J-1326D01*
G01*
X418745Y129981D02*
G03*
X418745Y132633I-1326J1326D01*
G01*
X414845Y126080D02*
G03*
X414845Y123429I1326J-1326D01*
G01*
D02*
G03*
X417496Y123429I1326J1326D01*
G01*
X424049Y127329D02*
G03*
X421397Y127329I-1326J-1326D01*
G01*
X424049Y124678D02*
G03*
X424049Y127329I-1326J1326D01*
G01*
X420148Y120777D02*
G03*
X420148Y118125I1326J-1326D01*
G01*
X420148Y118125D02*
G03*
X422799Y118125I1326J1326D01*
G01*
X429352Y122026D02*
G03*
X426700Y122026I-1326J-1326D01*
G01*
X429352Y119374D02*
G03*
X429352Y122026I-1326J1326D01*
G01*
X425451Y115474D02*
G03*
X425451Y112822I1326J-1326D01*
G01*
D02*
G03*
X428103Y112822I1326J1326D01*
G01*
X433998Y116066D02*
G03*
X431347Y116066I-1326J-1326D01*
G01*
X126465Y190694D02*
G03*
X126465Y194053I-1679J1679D01*
G01*
X123320Y200557D02*
G03*
X123320Y197198I1679J-1679D01*
G01*
X126678Y200557D02*
G03*
X123320Y200557I-1679J-1679D01*
G01*
X129824Y197412D02*
G03*
X133182Y197412I1679J1679D01*
G01*
X316429Y185571D02*
G03*
X319081Y185571I1326J1326D01*
G01*
X321733Y185571D02*
G03*
X319081Y185571I-1326J-1326D01*
G01*
X321733Y182919D02*
G03*
X321733Y185571I-1326J1326D01*
G01*
X321025Y182212D02*
G03*
X321026Y179560I1326J-1326D01*
G01*
X321025Y179560D02*
G03*
X323677Y179560I1326J1326D01*
G01*
X330472Y183704D02*
G03*
X327820Y183704I-1326J-1326D01*
G01*
X330472Y181052D02*
G03*
X330472Y183704I-1326J1326D01*
G01*
X326329Y176909D02*
G03*
X326329Y174257I1326J-1326D01*
G01*
D02*
G03*
X328980Y174257I1326J1326D01*
G01*
X336759Y179384D02*
G03*
X334107Y179384I-1326J-1326D01*
G01*
X336759Y176732D02*
G03*
X336759Y179384I-1326J1326D01*
G01*
X331632Y171605D02*
G03*
X331632Y168954I1326J-1326D01*
G01*
D02*
G03*
X334284Y168954I1326J1326D01*
G01*
X342062Y174080D02*
G03*
X339410Y174080I-1326J-1326D01*
G01*
X342062Y171429D02*
G03*
X342062Y174080I-1326J1326D01*
G01*
X336935Y166302D02*
G03*
X336935Y163650I1326J-1326D01*
G01*
X336935Y163650D02*
G03*
X339587Y163650I1326J1326D01*
G01*
X347365Y168777D02*
G03*
X344714Y168777I-1326J-1326D01*
G01*
X347365Y166125D02*
G03*
X347365Y168777I-1326J1326D01*
G01*
X342239Y160999D02*
G03*
X342239Y158347I1326J-1326D01*
G01*
D02*
G03*
X344890Y158347I1326J1326D01*
G01*
X352668Y163474D02*
G03*
X350017Y163474I-1326J-1326D01*
G01*
X352668Y160822D02*
G03*
X352668Y163474I-1326J1326D01*
G01*
X347542Y155695D02*
G03*
X347542Y153044I1326J-1326D01*
G01*
D02*
G03*
X350194Y153044I1326J1326D01*
G01*
X357972Y158170D02*
G03*
X355320Y158170I-1326J-1326D01*
G01*
X357972Y155519D02*
G03*
X357972Y158170I-1326J1326D01*
G01*
X352845Y150392D02*
G03*
X352845Y147740I1326J-1326D01*
G01*
X352845Y147741D02*
G03*
X355497Y147741I1326J1326D01*
G01*
X363275Y152867D02*
G03*
X360623Y152867I-1326J-1326D01*
G01*
X363275Y150215D02*
G03*
X363275Y152867I-1326J1326D01*
G01*
X358856Y145796D02*
G03*
X358856Y143144I1326J-1326D01*
G01*
X418899Y157127D02*
G03*
X418899Y159778I-1326J1326D01*
G01*
X417172Y155400D02*
G03*
X417172Y152748I1326J-1326D01*
G01*
D02*
G03*
X419823Y152748I1326J1326D01*
G01*
X424821Y155094D02*
G03*
X422169Y155094I-1326J-1326D01*
G01*
X424821Y152442D02*
G03*
X424821Y155094I-1326J1326D01*
G01*
X419783Y147404D02*
G03*
X419783Y144752I1326J-1326D01*
G01*
X419783Y144752D02*
G03*
X422434Y144752I1326J1326D01*
G01*
X430124Y149790D02*
G03*
X427472Y149790I-1326J-1326D01*
G01*
X430124Y147139D02*
G03*
X430124Y149790I-1326J1326D01*
G01*
X425086Y142101D02*
G03*
X425086Y139449I1326J-1326D01*
G01*
D02*
G03*
X427738Y139449I1326J1326D01*
G01*
X435427Y144487D02*
G03*
X432776Y144487I-1326J-1326D01*
G01*
X435427Y141835D02*
G03*
X435427Y144487I-1326J1326D01*
G01*
X430389Y136797D02*
G03*
X430389Y134146I1326J-1326D01*
G01*
D02*
G03*
X433041Y134146I1326J1326D01*
G01*
X440731Y139184D02*
G03*
X438079Y139184I-1326J-1326D01*
G01*
X440731Y136532D02*
G03*
X440731Y139184I-1326J1326D01*
G01*
X435692Y131494D02*
G03*
X435692Y128842I1326J-1326D01*
G01*
X435692Y128842D02*
G03*
X438344Y128842I1326J1326D01*
G01*
X446034Y133881D02*
G03*
X443382Y133881I-1326J-1326D01*
G01*
X446034Y131229D02*
G03*
X446034Y133881I-1326J1326D01*
G01*
X440996Y126191D02*
G03*
X440996Y123539I1326J-1326D01*
G01*
D02*
G03*
X443647Y123539I1326J1326D01*
G01*
X450719Y127958D02*
G03*
X448067Y127958I-1326J-1326D01*
G01*
X779474Y746453D02*
Y748474D01*
X775475Y718475D02*
Y742454D01*
X779474Y746453D01*
Y748474D02*
X784000Y753000D01*
X746000Y689000D02*
X775475Y718475D01*
X466375Y176872D02*
X496625Y146622D01*
X469625Y178218D02*
X499875Y147968D01*
Y119541D02*
Y147968D01*
X496719Y97774D02*
X498125Y96368D01*
X490219Y119077D02*
X493375Y122233D01*
X496625Y120887D02*
Y146622D01*
X493469Y117731D02*
X496625Y120887D01*
X493375Y122233D02*
Y145276D01*
X478875Y127875D02*
X484750Y133750D01*
X489250D01*
X463125Y175526D02*
X493375Y145276D01*
X490219Y98844D02*
Y119077D01*
X493469Y97497D02*
Y117731D01*
X496719Y116384D02*
X499875Y119541D01*
X496719Y97774D02*
Y116384D01*
X480875Y89500D02*
X490219Y98844D01*
X489875Y93904D02*
X493469Y97497D01*
X423742Y293900D02*
X427902Y298060D01*
X428874Y287438D02*
X431919Y284393D01*
X387919Y264393D02*
X390335Y266810D01*
X426787Y287438D02*
X428874D01*
X423742Y290483D02*
Y293900D01*
Y290483D02*
X426787Y287438D01*
X427902Y298060D02*
X429503D01*
X437169Y352335D02*
Y372143D01*
X435125Y413554D02*
Y422709D01*
X431919Y274476D02*
Y284393D01*
X416003Y258560D02*
X431919Y274476D01*
X407294Y258560D02*
X416003D01*
X412610Y445224D02*
X435125Y422709D01*
X410000Y445750D02*
X410526Y445224D01*
X412610D01*
X437169Y372143D02*
X444919Y379893D01*
Y403760D01*
X435125Y413554D02*
X444919Y403760D01*
X431166Y196000D02*
X450000D01*
X390335Y266810D02*
X399044D01*
X407294Y258560D01*
X411166Y216000D02*
X431166Y196000D01*
X407750Y219416D02*
X411166Y216000D01*
X407750Y219416D02*
Y237250D01*
X388000Y257000D02*
X407750Y237250D01*
X387919Y257081D02*
Y264393D01*
Y257081D02*
X388000Y257000D01*
X433919Y302476D02*
Y349085D01*
X437169Y352335D01*
X429503Y298060D02*
X433919Y302476D01*
X222486Y372680D02*
X232281D01*
X241877Y354123D02*
Y363084D01*
X228375Y507462D02*
X236628Y499209D01*
X241877Y354123D02*
X252000Y344000D01*
X215898Y379268D02*
Y381474D01*
Y379268D02*
X222486Y372680D01*
X232281D02*
X241877Y363084D01*
X215372Y382000D02*
X215898Y381474D01*
X228375Y507462D02*
Y527959D01*
X195616Y542384D02*
X195732Y542500D01*
X213834D01*
X228375Y527959D01*
X215372Y382000D02*
Y418117D01*
X222988Y425734D01*
Y451988D01*
X236628Y465628D01*
Y499209D01*
X621090Y367171D02*
X626875Y361386D01*
Y295291D02*
Y361386D01*
X627125Y249875D02*
Y295041D01*
X626875Y295291D02*
X627125Y295041D01*
Y249875D02*
X637000Y240000D01*
X437169Y290726D02*
Y319843D01*
X448169Y330843D02*
Y405107D01*
X437169Y290726D02*
X444919Y282976D01*
X437169Y319843D02*
X448000Y330674D01*
X448169Y330843D01*
X364614Y137386D02*
X365056Y136944D01*
X366776Y135225D01*
X369427Y135225D02*
X369427Y135225D01*
X372079Y132573D02*
X372079Y132573D01*
X372079Y132573D02*
X372079D01*
X374730Y129921D02*
X378926Y134116D01*
X377382Y127270D02*
X381577Y131465D01*
X377382Y127270D02*
X377382D01*
X377382Y124618D02*
X377382Y124618D01*
X380034Y124618D02*
X384073Y128658D01*
X384073D02*
X384073D01*
X382685Y121966D02*
X386725Y126006D01*
X382685Y119315D02*
X385337Y116663D01*
Y116663D02*
X385779Y116221D01*
X387250Y114750D01*
X342574Y191103D02*
X343016Y190661D01*
X353515Y180162D01*
X356166D02*
X356166Y180163D01*
X352729Y171422D02*
X358818Y177511D01*
X355380Y168770D02*
X358818Y172207D01*
X361469Y172207D02*
X361469Y172207D01*
X361470Y172207D01*
Y172207D02*
X361912Y171765D01*
X278125Y255552D02*
X342574Y191103D01*
X365446Y168231D02*
X365888Y167789D01*
X369015Y164662D01*
X369015Y164662D02*
X369015Y164662D01*
X365940Y158935D02*
X369015Y162010D01*
X365940Y158935D02*
X365940D01*
X368592Y156283D02*
X372021Y159712D01*
X372020D02*
X372021D01*
X370891Y153279D02*
X374672Y157060D01*
X370891Y153279D02*
X370891D01*
X373543Y150628D02*
X377324Y154409D01*
X377324D02*
X377324D01*
X377691Y149472D02*
X379976Y151757D01*
X377690Y149472D02*
X377691D01*
X377690Y146820D02*
X377691Y146820D01*
X380342Y146820D02*
X381920Y148398D01*
X381920D02*
X381920D01*
X380506Y141681D02*
X384572Y145747D01*
X380506Y141681D02*
X380506D01*
X383158Y139029D02*
X387930Y143802D01*
X387930D02*
X387930D01*
X385809Y136377D02*
X390582Y141150D01*
X385809Y136377D02*
X385809D01*
X388461Y133726D02*
X393234Y138499D01*
X393234D02*
X393234D01*
X391113Y131074D02*
X395886Y135847D01*
X391113Y131074D02*
X391113D01*
X391113Y128422D02*
X391113Y128422D01*
X393764Y128422D02*
X397830Y132488D01*
X397830D02*
X397830D01*
X396416Y125771D02*
X400482Y129837D01*
X396416Y125771D02*
X396416D01*
X399067Y123119D02*
X403840Y127892D01*
X403840D02*
X403840D01*
X401719Y120467D02*
X406492Y125240D01*
X401719Y120467D02*
X401719D01*
X404371Y117816D02*
X409144Y122589D01*
X409144D02*
X409144D01*
X407022Y115164D02*
X411795Y119937D01*
X407022Y115164D02*
X407022D01*
X407022Y112512D02*
X407022Y112512D01*
X409674Y112512D02*
X414093Y116932D01*
X416745Y116932D02*
X416745Y116932D01*
X422048Y111628D01*
Y111629D02*
X422491Y111187D01*
X361912Y171765D02*
X365446Y168231D01*
X407554Y148420D02*
X438837Y117137D01*
X374320Y181654D02*
X374762Y181212D01*
X383247Y172727D01*
X385899D02*
X386264Y173093D01*
X387893Y169418D02*
X388916Y170441D01*
X387893Y169418D02*
X387893D01*
X390545Y166767D02*
X395621Y171843D01*
X395621D02*
X395621D01*
X393197Y164115D02*
X398273Y169191D01*
X393197Y164115D02*
X393197D01*
X395848Y161463D02*
X400925Y166540D01*
X400925D02*
X400925D01*
X397793Y158105D02*
X403576Y163888D01*
X397793Y158105D02*
X397793D01*
X397793Y155453D02*
X397793Y155453D01*
X400445Y155453D02*
X406228Y161236D01*
X406228D02*
X406228D01*
X404460Y154165D02*
X408880Y158585D01*
X404460Y151514D02*
X407112Y148862D01*
Y148862D02*
X407554Y148420D01*
X364614Y185449D02*
X365056Y185007D01*
X375662Y174402D01*
X375662Y174402D02*
X375662Y174402D01*
X372418Y168507D02*
X375662Y171750D01*
X372418Y168507D02*
X372418D01*
X372418Y165855D02*
X372418Y165855D01*
X375070Y165855D02*
X378970Y169756D01*
X378970D02*
X378970D01*
X377721Y163203D02*
X381622Y167104D01*
X377721Y163203D02*
X377721D01*
X380373Y160552D02*
X383970Y164149D01*
X383970D02*
X383970D01*
X383025Y157900D02*
X386622Y161497D01*
X383025Y157900D02*
X383025D01*
X385676Y155248D02*
X389274Y158846D01*
X389274D02*
X389274D01*
X387975Y152243D02*
X391925Y156194D01*
X387975Y152243D02*
X387975D01*
X387975Y149592D02*
X387975Y149592D01*
X390626Y149592D02*
X393870Y152835D01*
X393870D02*
X393870D01*
X393631Y147294D02*
X396521Y150184D01*
X393631Y147294D02*
X393631D01*
X396283Y144642D02*
X400184Y148542D01*
X400184D02*
X400184D01*
X398935Y141990D02*
X402835Y145891D01*
X398935Y141990D02*
X398935D01*
X401586Y139339D02*
X405487Y143239D01*
X405487D02*
X405487D01*
X403885Y136333D02*
X408139Y140588D01*
X403885Y136333D02*
X403885D01*
X403885Y133682D02*
X403885Y133682D01*
X406536Y133682D02*
X410790Y137936D01*
X410790D02*
X410790D01*
X409541Y131384D02*
X413442Y135284D01*
X409541Y131384D02*
X409541D01*
X412193Y128732D02*
X416094Y132633D01*
X416094D02*
X416094D01*
X414845Y126080D02*
X418745Y129981D01*
X414845Y126080D02*
X414845D01*
X417496Y123429D02*
X421397Y127329D01*
X421397D02*
X421397D01*
X420148Y120777D02*
X424049Y124678D01*
X420148Y120777D02*
X420148D01*
X420148Y118125D02*
X420148Y118125D01*
X422799Y118125D02*
X426700Y122026D01*
X426700D02*
X426700D01*
X425451Y115474D02*
X429352Y119374D01*
X425451Y115474D02*
X425451D01*
X428103Y112822D02*
X431347Y116066D01*
X433998Y116066D02*
X433998Y116066D01*
X433998Y116066D01*
Y116066D02*
X434440Y115624D01*
X436939Y113125D01*
X467526Y403417D02*
X470125Y400818D01*
X477375Y407003D02*
X479625Y404753D01*
X482875Y375907D02*
Y406099D01*
X481375Y407599D02*
X482875Y406099D01*
X476375Y373214D02*
Y403407D01*
X474125Y405657D02*
X476375Y403407D01*
X470125Y369459D02*
Y400818D01*
X479625Y374560D02*
Y404753D01*
X482875Y375907D02*
X502481Y356300D01*
X481375Y407599D02*
Y414022D01*
X470125Y369459D02*
X472375Y367209D01*
X479625Y374560D02*
X480000Y374185D01*
X476375Y373214D02*
X480000Y369589D01*
X454175Y253983D02*
X472375Y272183D01*
X485875Y169291D02*
Y229709D01*
Y169291D02*
X494427Y160739D01*
X498771D02*
X502323Y157187D01*
X514046D01*
X494427Y160739D02*
X498771D01*
X523000Y592000D02*
Y592744D01*
X528000Y597744D01*
X515000Y680000D02*
X528000Y667000D01*
Y597744D02*
Y667000D01*
X440000Y503000D02*
X451000Y514000D01*
Y583000D01*
X410875Y545959D02*
X417125Y539709D01*
Y522253D02*
Y539709D01*
X421000Y501000D02*
X426125Y506125D01*
X426514Y509136D02*
Y512864D01*
X417125Y522253D02*
X426514Y512864D01*
X426125Y506125D02*
Y508747D01*
X426514Y509136D01*
X410875Y545959D02*
Y604125D01*
X397000Y618000D02*
X410875Y604125D01*
X125465Y396425D02*
Y402466D01*
X130875Y364695D02*
Y391015D01*
X122215Y395079D02*
Y404216D01*
X125000Y365974D02*
Y392294D01*
X122215Y395079D02*
X125000Y392294D01*
X125465Y396425D02*
X130875Y391015D01*
X125000Y365974D02*
X135125Y355849D01*
X125465Y402466D02*
X128250Y405250D01*
X87232Y149875D02*
X93471D01*
X87232Y153125D02*
X92125D01*
X101403Y157807D02*
Y170403D01*
X93471Y149875D02*
X101403Y157807D01*
X98153Y159153D02*
Y171749D01*
X92125Y153125D02*
X98153Y159153D01*
X116117Y175750D02*
X153794Y213428D01*
X98153Y171749D02*
X105404Y179000D01*
X106750Y175750D02*
X116117D01*
X101403Y170403D02*
X106750Y175750D01*
X114770Y179000D02*
X115845Y180075D01*
X105404Y179000D02*
X114770D01*
X122215Y404216D02*
X125000Y407000D01*
Y446870D01*
X128250Y405250D02*
Y505316D01*
X116032Y455838D02*
X125000Y446870D01*
Y508566D02*
X128250Y505316D01*
X130875Y364695D02*
X138375Y357195D01*
X125000Y508566D02*
Y616000D01*
X118000Y660000D02*
X140125Y637875D01*
X86500Y672200D02*
X98700Y660000D01*
X118000D01*
X140125Y605959D02*
Y637875D01*
X117000Y685000D02*
X145917Y656083D01*
Y645959D02*
Y656083D01*
X99100Y685000D02*
X117000D01*
X86500Y697600D02*
X99100Y685000D01*
X90000Y634000D02*
X100571Y623429D01*
Y464270D02*
Y623429D01*
X82000Y634000D02*
X90000D01*
X74000Y642000D02*
X82000Y634000D01*
X74000Y642000D02*
Y789603D01*
X76975Y792578D01*
X327426Y808978D02*
Y829574D01*
X340625Y704945D02*
Y795779D01*
X343875Y706291D02*
Y797125D01*
X327426Y808978D02*
X340625Y795779D01*
X330676Y810324D02*
Y830920D01*
Y810324D02*
X343875Y797125D01*
X242084Y860750D02*
X296250D01*
X243430Y864000D02*
X297596D01*
X330676Y830920D01*
X296250Y860750D02*
X327426Y829574D01*
X235945Y865375D02*
X242055D01*
X237291Y862125D02*
X240709D01*
X242084Y860750D01*
X242055Y865375D02*
X243430Y864000D01*
X132750Y873432D02*
X139010Y879692D01*
X132750Y866654D02*
X147279Y852125D01*
X136000Y868000D02*
X148625Y855375D01*
X136000Y872086D02*
X140356Y876442D01*
X136000Y868000D02*
Y872086D01*
X132750Y866654D02*
Y873432D01*
X148625Y855375D02*
X178945D01*
X147279Y852125D02*
X180291D01*
X178945Y855375D02*
X180945Y857375D01*
X227945D01*
X235945Y865375D01*
X229291Y854125D02*
X237291Y862125D01*
X180291Y852125D02*
X182291Y854125D01*
X229291D01*
X412166Y866000D02*
X413756D01*
X415230Y864526D01*
X418474D01*
X419000Y864000D01*
X344375Y491625D02*
Y542055D01*
X341125Y470966D02*
X349680Y462410D01*
X343875Y542555D02*
X344375Y542055D01*
X340625Y541209D02*
Y602104D01*
Y541209D02*
X341125Y540709D01*
X343875Y584709D02*
X353125Y593959D01*
X341125Y470966D02*
Y540709D01*
X343875Y542555D02*
Y584709D01*
X340625Y602104D02*
X344625Y606104D01*
X344375Y491625D02*
X369000Y467000D01*
X331625Y495055D02*
Y525007D01*
X329125Y527507D02*
Y543829D01*
X329108Y543847D02*
Y557800D01*
X332375Y528853D02*
X334875Y526353D01*
X332357Y545193D02*
Y558265D01*
Y545193D02*
X332375Y545175D01*
X334875Y493709D02*
Y526353D01*
X328239Y565814D02*
Y584406D01*
X329125Y527507D02*
X331625Y525007D01*
X332375Y528853D02*
Y545175D01*
X329108Y543847D02*
X329125Y543829D01*
X488875Y304125D02*
Y307709D01*
X495879Y293045D02*
X496125Y293291D01*
Y296875D01*
X492783Y310158D02*
X499231Y316606D01*
X493000Y287000D02*
X495879Y289879D01*
Y293045D01*
X488875Y304125D02*
X496125Y296875D01*
X492500Y278500D02*
Y279037D01*
X489587Y281951D02*
X492500Y279037D01*
X488049Y281951D02*
X489587D01*
X485625Y284375D02*
X488049Y281951D01*
X491324Y310158D02*
X492783D01*
X487681Y315707D02*
X488703Y316729D01*
X488925D01*
X491437Y313408D02*
X495790Y317761D01*
X499068Y309940D02*
X502481Y313353D01*
X497161Y309940D02*
X499068D01*
X493222Y306000D02*
X497161Y309940D01*
X488875Y307709D02*
X491324Y310158D01*
X488925Y316729D02*
X491665Y319469D01*
X495790Y317761D02*
Y328113D01*
X489978Y313408D02*
X491437D01*
X485625Y309055D02*
X489978Y313408D01*
X485111Y315707D02*
X487681D01*
X485625Y284375D02*
Y309055D01*
X493000Y306000D02*
X493222D01*
X499231Y316606D02*
Y354954D01*
X499129Y273129D02*
Y289661D01*
X493000Y267000D02*
X499129Y273129D01*
X506656Y262822D02*
X523375Y279541D01*
Y310349D01*
X516000Y278000D02*
X520125Y282125D01*
X454750Y760834D02*
Y767900D01*
X454625Y760709D02*
X454750Y760834D01*
X454625Y757291D02*
Y760709D01*
Y757291D02*
X454750Y757166D01*
Y721043D02*
Y757166D01*
Y721043D02*
X457125Y718668D01*
Y672555D02*
Y718668D01*
X456625Y672055D02*
X457125Y672555D01*
X456625Y584945D02*
Y672055D01*
Y584945D02*
X460125Y581445D01*
Y528656D02*
Y581445D01*
X458365Y526896D02*
X460125Y528656D01*
X458365Y475560D02*
Y526896D01*
Y475560D02*
X463140Y470785D01*
Y462437D02*
Y470785D01*
Y462437D02*
X465625Y459952D01*
Y448157D02*
Y459952D01*
Y448157D02*
X477782Y436000D01*
X480000Y433782D01*
X488907Y424875D01*
X495055D01*
X507590Y412340D01*
Y369576D02*
Y412340D01*
Y369576D02*
X515481Y361685D01*
Y328949D02*
Y361685D01*
Y328949D02*
X523375Y321055D01*
Y314945D02*
Y321055D01*
X520125Y311695D02*
X523375Y314945D01*
X520125Y282125D02*
Y311695D01*
X488875Y339709D02*
X495981Y346815D01*
X488875Y335028D02*
X495790Y328113D01*
X488875Y335028D02*
Y339709D01*
X256964Y431466D02*
Y450173D01*
X256526Y450611D02*
X256964Y450173D01*
X259375Y467805D02*
Y497292D01*
X248625Y457055D02*
X259375Y467805D01*
X251875Y455709D02*
X262625Y466459D01*
X251875Y450666D02*
Y455709D01*
Y450666D02*
X253714Y448827D01*
X256125Y469151D02*
Y495946D01*
X236410Y449436D02*
X256125Y469151D01*
X243000Y395000D02*
X255125Y407125D01*
X236410Y447613D02*
Y449436D01*
X253714Y430120D02*
Y448827D01*
X256526Y450611D02*
Y453474D01*
X248625Y455231D02*
Y457055D01*
X256000Y454000D02*
X256526Y453474D01*
X239464Y446070D02*
X248625Y455231D01*
X253714Y430120D02*
X255125Y428709D01*
X262625Y466459D02*
Y510159D01*
X239464Y405868D02*
Y446070D01*
X231000Y397404D02*
X239464Y405868D01*
X388903Y517466D02*
Y531073D01*
X389663Y536829D02*
X396125Y543291D01*
X386413Y533179D02*
Y538176D01*
X385653Y532419D02*
X386413Y533179D01*
Y538176D02*
X387875Y539637D01*
X385653Y518813D02*
Y532419D01*
X382403Y538703D02*
X383163Y537943D01*
X382403Y529220D02*
Y533765D01*
X383163Y534525D01*
X388903Y531073D02*
X389663Y531833D01*
X382403Y538703D02*
Y538762D01*
X389663Y531833D02*
Y536829D01*
X383163Y534525D02*
Y537943D01*
X560375Y361413D02*
Y396003D01*
X564465Y309083D02*
Y357323D01*
X557125Y360067D02*
Y394657D01*
Y360067D02*
X561215Y355977D01*
X553875Y358721D02*
Y393311D01*
Y358721D02*
X557090Y355505D01*
X560375Y400599D02*
X563625Y397349D01*
Y401945D02*
X566875Y398695D01*
Y364105D02*
Y398695D01*
X563625Y362759D02*
X567715Y358669D01*
X569125Y299955D02*
X575125Y305955D01*
X562625Y302647D02*
X567715Y307737D01*
X565875Y301301D02*
X570965Y306391D01*
X557525Y302143D02*
X564465Y309083D01*
X557125Y399253D02*
X560375Y396003D01*
X557090Y320171D02*
Y355505D01*
X566875Y364105D02*
X570965Y360015D01*
X551269Y307555D02*
X561215Y317501D01*
X575125Y305955D02*
Y395041D01*
X560375Y361413D02*
X564465Y357323D01*
X567715Y307737D02*
Y358669D01*
X561215Y317501D02*
Y355977D01*
X550625Y396561D02*
X553875Y393311D01*
X566875Y403291D02*
X575125Y395041D01*
X570965Y306391D02*
Y360015D01*
X553875Y397907D02*
X557125Y394657D01*
X563625Y362759D02*
Y397349D01*
X602125Y319709D02*
Y382875D01*
X599000Y386000D02*
X602125Y382875D01*
X599125Y316709D02*
X602125Y319709D01*
X590000Y294000D02*
X599000Y303000D01*
Y313166D02*
X599125Y313291D01*
Y316709D01*
X599000Y303000D02*
Y313166D01*
X562625Y292599D02*
Y302647D01*
X551269Y303564D02*
Y307555D01*
X553401Y274183D02*
X569125Y289907D01*
X550151Y275529D02*
X565875Y291253D01*
X569125Y289907D02*
Y299955D01*
X551269Y303564D02*
X556125Y298709D01*
X557525Y301905D02*
X559375Y300055D01*
Y293945D02*
Y300055D01*
X546901Y276875D02*
X562625Y292599D01*
X557525Y292095D02*
X559375Y293945D01*
X565875Y291253D02*
Y301301D01*
X556125Y295291D02*
Y298709D01*
X540401Y279567D02*
X556125Y295291D01*
X557525Y301905D02*
Y302143D01*
X474125Y652661D02*
Y677709D01*
Y635959D02*
Y646744D01*
X475375Y647994D01*
Y651411D01*
X474125Y652661D02*
X475375Y651411D01*
X525875Y729291D02*
X527125Y728041D01*
X525875Y729291D02*
Y732709D01*
X527125Y733959D01*
Y794875D01*
Y713840D02*
Y728041D01*
X469875Y716631D02*
Y738211D01*
X475125Y743461D02*
Y765041D01*
X460375Y671209D02*
Y753805D01*
X469875Y738211D02*
X475125Y743461D01*
X463875Y687959D02*
Y752709D01*
X459875Y586291D02*
X463375Y582791D01*
X469875Y686555D02*
X481500Y674930D01*
X469875Y716631D02*
X469875Y716631D01*
X469875Y686555D02*
Y716631D01*
X644355Y764663D02*
X655875Y753143D01*
X387875Y501068D02*
X395125Y493818D01*
X384625Y517785D02*
X385653Y518813D01*
X387875Y516438D02*
X388903Y517466D01*
X381000Y446000D02*
X385625Y450625D01*
X381375Y497836D02*
Y528192D01*
Y497836D02*
X381375Y497836D01*
X381375Y528192D02*
X382403Y529220D01*
X381000Y480000D02*
X381375Y480375D01*
X385625Y450625D02*
Y498182D01*
X384625Y499182D02*
Y517785D01*
Y499182D02*
X385625Y498182D01*
X387875Y501068D02*
Y516438D01*
X381375Y480375D02*
Y497836D01*
X381875Y564041D02*
X388125Y570291D01*
X392034Y456016D02*
X399622Y448429D01*
X386375Y613599D02*
X399375Y600599D01*
X392034Y456016D02*
Y483201D01*
X395125Y486291D01*
Y493818D01*
X396775Y496764D02*
X398375Y495164D01*
X396775Y496764D02*
Y539345D01*
X396439Y483009D02*
X398375Y484945D01*
X396439Y472018D02*
Y483009D01*
X396775Y539345D02*
X399375Y541945D01*
X398375Y484945D02*
Y495164D01*
X149875Y487542D02*
Y506041D01*
X176750Y460667D02*
X180917D01*
X149875Y487542D02*
X176750Y460667D01*
X180917D02*
X181250Y461000D01*
X804125Y719500D02*
Y723709D01*
X781291Y698125D02*
X786959D01*
X766409Y683242D02*
X781291Y698125D01*
X786959D02*
X795875Y707041D01*
X766409Y682409D02*
Y683242D01*
X751000Y667000D02*
X766409Y682409D01*
X795875Y707041D02*
Y711250D01*
X804125Y719500D01*
X808291Y753125D02*
X843875D01*
X844000Y753000D01*
X799875Y727959D02*
X804125Y723709D01*
X799875Y727959D02*
Y731950D01*
X804083Y736158D01*
Y748917D01*
X808291Y753125D01*
X450925Y224909D02*
Y255329D01*
Y206313D02*
Y215091D01*
Y224909D02*
X454125Y221709D01*
X454175Y226255D02*
X457375Y223055D01*
X456430Y216000D02*
X457375Y216945D01*
X454175Y213745D02*
X456430Y216000D01*
X450925Y215091D02*
X451834Y216000D01*
X454125Y218291D02*
Y221709D01*
X450925Y255329D02*
X469125Y273529D01*
X451834Y216000D02*
X454125Y218291D01*
X457375Y216945D02*
Y223055D01*
X454175Y207659D02*
Y213745D01*
Y226255D02*
Y253983D01*
X454125Y194291D02*
Y203113D01*
X450925Y206313D02*
X454125Y203113D01*
X450188Y190355D02*
X454125Y194291D01*
X534875Y367709D02*
X536125Y368959D01*
Y377709D01*
X534875Y364291D02*
X536125Y363041D01*
Y358375D02*
Y363041D01*
X534875Y364291D02*
Y367709D01*
X546375Y354134D02*
Y391618D01*
X549625Y352788D02*
Y392964D01*
X372695Y187875D02*
X375695Y184875D01*
X387125D01*
X389020Y182980D01*
X384125Y195077D02*
X392972Y186230D01*
X384125Y195077D02*
Y195709D01*
X380379Y199455D02*
X384125Y195709D01*
X366875Y229291D02*
Y257000D01*
Y229291D02*
X370758Y225409D01*
X372591D02*
X377000Y221000D01*
X366875Y257000D02*
Y259432D01*
X368419Y260976D01*
X370758Y225409D02*
X372591D01*
X368419Y260976D02*
Y273096D01*
X375000Y257000D02*
X379919Y261919D01*
Y283625D01*
X389600Y293307D01*
Y296491D01*
X395294Y302185D01*
X368419Y273096D02*
X376669Y281346D01*
Y302393D01*
X140000Y289000D02*
X153794Y302794D01*
X164875Y335247D02*
Y360945D01*
X153794Y302794D02*
X164875Y313875D01*
Y335247D01*
X369211Y199455D02*
X380379D01*
X392972Y186230D02*
X398281D01*
X389020Y182980D02*
X395697D01*
X364614Y195552D02*
X372291Y187875D01*
X364614Y204051D02*
X369211Y199455D01*
X362058Y198108D02*
X364614Y195552D01*
X370945Y184625D02*
X371349D01*
X288251Y267320D02*
X370945Y184625D01*
X372291Y187875D02*
X372695D01*
X371349Y184625D02*
X374320Y181654D01*
X288251Y267320D02*
Y271222D01*
X361921Y198108D02*
X362058D01*
X340675Y227990D02*
X352665Y216000D01*
X364614Y204051D01*
X335222Y227990D02*
X340675D01*
X427818Y250875D02*
X433943Y257000D01*
X399291Y250875D02*
X427818D01*
X396041Y254125D02*
X399291Y250875D01*
X392919Y318643D02*
Y327893D01*
X376669Y302393D02*
X392919Y318643D01*
X526000Y426026D02*
Y451000D01*
X509709Y433125D02*
X530125Y412709D01*
X509555Y437875D02*
X533375Y414055D01*
X526000Y426026D02*
X536625Y415401D01*
X506445Y433125D02*
X509709D01*
X536625Y409975D02*
Y415401D01*
X451419Y329497D02*
Y406453D01*
X457919Y377069D02*
Y409145D01*
X445554Y407722D02*
X448000Y405276D01*
X448169Y405107D01*
X454669Y328150D02*
Y407799D01*
X461946Y394053D02*
Y412189D01*
X438375Y414901D02*
X445554Y407722D01*
X468875Y474242D02*
X470992Y472125D01*
X484125Y474012D02*
X484390Y473747D01*
X487640Y468930D02*
Y475093D01*
X487375Y475358D02*
Y487298D01*
X484125Y474012D02*
Y481709D01*
X484390Y462253D02*
Y473747D01*
X484125Y461988D02*
X484390Y462253D01*
X472125Y450849D02*
Y463777D01*
X477375Y476166D02*
X481140Y472401D01*
X472125Y463777D02*
X474640Y466291D01*
X470992Y472125D02*
X472223D01*
X481140Y463599D02*
Y472401D01*
X478625Y461084D02*
X481140Y463599D01*
X472125Y450849D02*
X491599Y431375D01*
X487375Y475358D02*
X487640Y475093D01*
X478625Y453541D02*
Y461084D01*
X484125Y460041D02*
Y461988D01*
X472223Y472125D02*
X474640Y469709D01*
X474125Y474820D02*
Y475445D01*
X477375Y476166D02*
Y476791D01*
X474125Y474820D02*
X477890Y471055D01*
X475375Y452195D02*
Y462430D01*
X477890Y464945D01*
X487640Y468930D02*
X499067Y457503D01*
X477890Y464945D02*
Y471055D01*
X474640Y466291D02*
Y469709D01*
X491875Y469291D02*
X500414Y460753D01*
X484125Y460041D02*
X506291Y437875D01*
X491875Y469291D02*
Y493041D01*
X475375Y452195D02*
X492945Y434625D01*
X373125Y465291D02*
Y468709D01*
X365770Y572685D02*
Y574397D01*
X368058Y481108D02*
X369211D01*
X376375Y463945D02*
Y470055D01*
X355875Y601050D02*
Y640848D01*
X366919Y478358D02*
X368072D01*
X359125Y602396D02*
Y642194D01*
X366291Y582125D02*
X366366D01*
X366725Y475108D02*
X373125Y468709D01*
X374875Y573305D02*
Y590535D01*
X362875Y486291D02*
X368058Y481108D01*
X356875Y483806D02*
X365573Y475108D01*
X368072Y478358D02*
X376375Y470055D01*
X361875Y603535D02*
X374875Y590535D01*
X356875Y516165D02*
X363025Y522315D01*
X362875Y486291D02*
Y513680D01*
X379125Y462806D02*
Y471194D01*
X362875Y513680D02*
X369025Y519830D01*
X370349Y581485D02*
Y591173D01*
X365125Y604882D02*
X378125Y591882D01*
X372275Y482891D02*
Y566109D01*
X365125Y604882D02*
Y644679D01*
X366275Y568594D02*
X369020Y571339D01*
X372275Y482891D02*
X382375Y472791D01*
X378125Y571959D02*
Y591882D01*
X372275Y566109D02*
X378125Y571959D01*
X369025Y567455D02*
X374875Y573305D01*
X331875Y490709D02*
X334875Y493709D01*
X331875Y462709D02*
Y490709D01*
X324913Y460343D02*
X328625Y464055D01*
Y492055D01*
X331625Y495055D01*
X328163Y458997D02*
X331875Y462709D01*
X470125Y491992D02*
Y524868D01*
X474125Y528867D01*
X473115Y484286D02*
Y489003D01*
X474125Y528867D02*
Y582163D01*
X481250Y578201D02*
X485375Y582326D01*
X472625Y483797D02*
X473115Y484286D01*
X463875Y687959D02*
X474125Y677709D01*
X477375Y498459D02*
X478375Y497459D01*
X477375Y491541D02*
X478375Y492541D01*
X484875Y489798D02*
Y520445D01*
X481625Y484209D02*
Y519099D01*
X477375Y483209D02*
Y491541D01*
X478375Y492541D02*
Y497459D01*
X477375Y498459D02*
Y578922D01*
X470125Y491992D02*
X473115Y489003D01*
X484875Y489798D02*
X487375Y487298D01*
X472625Y476945D02*
Y483797D01*
X473875Y582413D02*
X474125Y582163D01*
X473875Y582413D02*
Y635709D01*
X497625Y528625D02*
Y538709D01*
Y528625D02*
X497625Y528625D01*
Y523791D02*
Y528625D01*
X494875Y521041D02*
X497625Y523791D01*
X484500Y520820D02*
Y548262D01*
X481250Y519474D02*
Y578201D01*
X487750Y522166D02*
Y546916D01*
X494125Y553291D01*
X484500Y548262D02*
X485875Y549637D01*
Y576992D01*
X486000Y577117D01*
X496000Y540334D02*
Y550570D01*
X497875Y552445D01*
X496000Y540334D02*
X497625Y538709D01*
X522875Y519291D02*
Y522709D01*
X524625Y524459D01*
Y476593D02*
Y517541D01*
X522875Y519291D02*
X524625Y517541D01*
Y524459D02*
Y575791D01*
X518875Y497058D02*
Y614250D01*
X507875Y517445D02*
Y556709D01*
X510879Y461625D02*
X530401D01*
X502942Y471539D02*
X505125Y469356D01*
X502942Y512512D02*
X507875Y517445D01*
X502942Y471539D02*
Y512512D01*
X505125Y467379D02*
Y469356D01*
Y467379D02*
X510879Y461625D01*
X507875Y556709D02*
X513125Y561959D01*
X499692Y513858D02*
X503125Y517291D01*
Y615131D01*
X484125Y711209D02*
Y757417D01*
X482875Y758667D02*
Y804875D01*
X494000Y816000D01*
X484125Y711209D02*
X487750Y707584D01*
X482875Y758667D02*
X484125Y757417D01*
X456000Y851000D02*
X473875Y833125D01*
Y766291D02*
X475125Y765041D01*
X473875Y766291D02*
Y833125D01*
X466125Y754959D02*
Y758908D01*
X460375Y753805D02*
X462875Y756305D01*
X459875Y670709D02*
X460375Y671209D01*
X462875Y756305D02*
Y763291D01*
X466125Y758908D02*
X470032Y762814D01*
X463875Y752709D02*
X466125Y754959D01*
X461615Y476906D02*
X466390Y472131D01*
X558125Y822291D02*
Y825091D01*
X557875Y822041D02*
X558125Y822291D01*
Y825091D02*
X593159Y860125D01*
X557875Y793445D02*
Y822041D01*
X367000Y745000D02*
X376000Y754000D01*
X367000Y647400D02*
Y745000D01*
X361875Y603535D02*
Y643333D01*
X343875Y706291D02*
X357750Y692416D01*
X369020Y571339D02*
Y573186D01*
X369025Y519830D02*
Y567455D01*
X368375Y617810D02*
X388125Y598060D01*
X354500Y642223D02*
X355875Y640848D01*
X351750Y641084D02*
X353125Y639709D01*
X363750Y646054D02*
Y792846D01*
X343000Y809000D02*
X360500Y791500D01*
Y644708D02*
X361875Y643333D01*
X351750Y641084D02*
Y689931D01*
X337875Y703806D02*
X351750Y689931D01*
X361875Y794721D02*
X363750Y792846D01*
X360500Y644708D02*
Y791500D01*
X357750Y643569D02*
X359125Y642194D01*
X363750Y646054D02*
X365125Y644679D01*
X357750Y643569D02*
Y692416D01*
X368375Y617810D02*
Y646025D01*
X367000Y647400D02*
X368375Y646025D01*
X354500Y642223D02*
Y691070D01*
X340625Y704945D02*
X354500Y691070D01*
X468875Y474242D02*
Y480276D01*
X466390Y463783D02*
Y472131D01*
X461615Y476906D02*
Y525550D01*
X466390Y463783D02*
X468875Y461298D01*
X459890Y461091D02*
X462375Y458606D01*
X459890Y461091D02*
Y469439D01*
X451625Y477703D02*
Y483401D01*
Y477703D02*
X459890Y469439D01*
X396875Y641657D02*
Y704709D01*
X392875Y637657D02*
X396875Y641657D01*
X393625Y643003D02*
Y740341D01*
X390375Y644349D02*
Y806349D01*
X389625Y639003D02*
X393625Y643003D01*
X383125Y641695D02*
X387125Y645695D01*
X386375Y640349D02*
X390375Y644349D01*
X387125Y645695D02*
Y807695D01*
X369020Y573186D02*
X372125Y576291D01*
X546000Y443162D02*
X554875Y434287D01*
X400025Y498110D02*
Y537999D01*
X402625Y540599D01*
X387875Y546709D02*
X391375Y550209D01*
X387875Y539637D02*
Y546709D01*
X382403Y538762D02*
X383125Y539484D01*
Y551138D01*
X355875Y601050D02*
X367099Y589827D01*
X369211Y481108D02*
X379125Y471194D01*
X415875Y677959D02*
X424125Y669709D01*
X415875Y677959D02*
Y802934D01*
X417848Y804906D02*
Y805650D01*
X424125Y611959D02*
Y669709D01*
X390375Y806349D02*
X391328Y807302D01*
X383000Y808166D02*
X387125Y812291D01*
X393625Y740341D02*
X401875Y748592D01*
X387125Y807695D02*
X390375Y810945D01*
X383000Y646166D02*
Y808166D01*
X379875Y643041D02*
X383000Y646166D01*
X230875Y429875D02*
X236214Y435214D01*
Y447416D01*
X236410Y447613D01*
X230875Y401875D02*
Y429875D01*
X226000Y397000D02*
X230875Y401875D01*
X211454Y411024D02*
Y442796D01*
X208204Y419443D02*
Y444143D01*
X256964Y431466D02*
X262125Y426305D01*
X464865Y524204D02*
X470000Y529339D01*
X463375Y527310D02*
Y582791D01*
X470000Y529339D02*
Y570000D01*
X461615Y525550D02*
X463375Y527310D01*
X464865Y484286D02*
Y524204D01*
X140956Y325526D02*
X161625Y346195D01*
X139526Y325526D02*
X140956D01*
X139000Y325000D02*
X139526Y325526D01*
X139875Y373919D02*
X143125Y377169D01*
X139875Y360291D02*
Y373919D01*
X143125Y377169D02*
Y412125D01*
X131834Y348000D02*
X135125Y351291D01*
Y355849D01*
X173625Y538582D02*
X178931Y543888D01*
X175125Y562041D02*
X178931Y558235D01*
X165625Y516235D02*
X173625Y524235D01*
Y538582D01*
X178931Y543888D02*
Y558235D01*
X168875Y514889D02*
X176875Y522889D01*
Y533521D02*
X194910Y551555D01*
X192375Y426855D02*
X195000Y424230D01*
X109003Y455838D02*
X116032D01*
X100571Y464270D02*
X109003Y455838D01*
X143125Y412125D02*
X152125Y421125D01*
X488000Y679669D02*
X491375Y683044D01*
X488000Y664042D02*
Y679669D01*
X485375Y582326D02*
Y637055D01*
X484750Y637680D02*
X485375Y637055D01*
X491375Y683044D02*
Y704055D01*
X488125Y684390D02*
Y702709D01*
X482125Y583672D02*
Y635709D01*
X481500Y636334D02*
X482125Y635709D01*
X484750Y681015D02*
X488125Y684390D01*
X491000Y704430D02*
Y707445D01*
X488000Y664042D02*
X491000Y661042D01*
Y707445D02*
X504000Y720445D01*
X484750Y637680D02*
Y681015D01*
X481500Y636334D02*
Y674930D01*
X487750Y703084D02*
Y707584D01*
Y703084D02*
X488125Y702709D01*
X491000Y633055D02*
X494125Y629930D01*
X477375Y578922D02*
X482125Y583672D01*
X491000Y704430D02*
X491375Y704055D01*
X491000Y633055D02*
Y661042D01*
X494125Y553291D02*
Y629930D01*
X593159Y860125D02*
X683875D01*
X608000Y818000D02*
X646000Y856000D01*
X676000D01*
X608000Y808166D02*
Y818000D01*
X591709Y791875D02*
X608000Y808166D01*
X587289Y791875D02*
X591709D01*
X586164Y793000D02*
X587289Y791875D01*
X392364Y807302D02*
X392791Y806875D01*
X393625Y817709D02*
X398625Y812709D01*
X393625Y817709D02*
Y818401D01*
X396875Y819055D02*
Y819747D01*
X392791Y806875D02*
X396209D01*
X398625Y809291D01*
X396875Y819055D02*
X401875Y814055D01*
X391328Y807302D02*
X392364D01*
X401875Y748592D02*
Y814055D01*
X398625Y809291D02*
Y812709D01*
X383000Y819834D02*
Y836000D01*
X396000Y820622D02*
Y835000D01*
X390375Y821651D02*
X393625Y818401D01*
X390375Y810945D02*
Y817055D01*
X387125Y820305D02*
X390375Y817055D01*
X387125Y812291D02*
Y815709D01*
X390375Y821651D02*
Y832945D01*
X387125Y820305D02*
Y834291D01*
X396000Y820622D02*
X396875Y819747D01*
X383000Y819834D02*
X387125Y815709D01*
X379875Y610907D02*
X391375Y599407D01*
X361875Y820875D02*
X377000Y836000D01*
X361875Y794721D02*
Y820875D01*
X127875Y335709D02*
X138375Y346209D01*
X287474Y450526D02*
X288000Y450000D01*
X285480Y450526D02*
X287474D01*
X272875Y440709D02*
X283500Y451334D01*
X284672D02*
X285480Y450526D01*
X283500Y451334D02*
X284672D01*
X272875Y394503D02*
Y440709D01*
X284000Y434998D02*
Y446000D01*
X286000Y422740D02*
Y432998D01*
X284000Y434998D02*
X286000Y432998D01*
X296762Y428905D02*
Y454762D01*
X302000Y460000D01*
X282625Y414769D02*
X296762Y428905D01*
X209500Y445439D02*
Y451549D01*
X195625Y430945D02*
Y447827D01*
X208204Y452845D02*
X209500Y451549D01*
X195625Y447827D02*
X198250Y450452D01*
X195000Y424000D02*
Y424230D01*
X208204Y452845D02*
Y454741D01*
X192375Y449351D02*
X192938Y449914D01*
X203834Y444369D02*
X206250Y446785D01*
Y450202D01*
X211454Y454191D02*
Y456087D01*
X202125Y454328D02*
X206250Y450202D01*
X211454Y454191D02*
X212750Y452895D01*
X211454Y442796D02*
X212750Y444093D01*
X195625Y430945D02*
X199125Y427445D01*
X208204Y444143D02*
X209500Y445439D01*
X202125Y454328D02*
Y498709D01*
X203221Y444369D02*
X203834D01*
X212750Y444093D02*
Y452895D01*
X198250Y450452D02*
Y471180D01*
X198875Y440023D02*
X203221Y444369D01*
X487750Y522166D02*
X490000Y519916D01*
X481250Y519474D02*
X481625Y519099D01*
X484500Y520820D02*
X484875Y520445D01*
X406811Y449875D02*
X412555D01*
X405365Y448429D02*
X406811Y449875D01*
X399622Y448429D02*
X405365D01*
X412555Y449875D02*
X426430Y436000D01*
X184323Y458239D02*
X185375Y459291D01*
Y460014D01*
Y467791D01*
Y445403D02*
Y454493D01*
X184323Y455545D02*
Y458239D01*
Y455545D02*
X185375Y454493D01*
X151875Y411903D02*
X185375Y445403D01*
X165625Y487541D02*
X185375Y467791D01*
X151875Y356674D02*
Y411903D01*
X332357Y558265D02*
X334625Y560532D01*
X326375D02*
X329108Y557800D01*
X381875Y552388D02*
Y564041D01*
Y552388D02*
X383125Y551138D01*
X205375Y457570D02*
Y502791D01*
X208875Y458666D02*
Y504875D01*
Y458666D02*
X211454Y456087D01*
X205375Y457570D02*
X208204Y454741D01*
X165625Y487541D02*
Y516235D01*
X198875Y432291D02*
Y440023D01*
Y432291D02*
X202375Y428791D01*
X192938Y449914D02*
Y471896D01*
X175875Y502041D02*
X183758Y509924D01*
X175875Y493555D02*
Y502041D01*
X176875Y522889D02*
Y533521D01*
X175875Y493555D02*
X198250Y471180D01*
X191055Y390625D02*
X211454Y411024D01*
X168875Y495959D02*
Y514889D01*
Y495959D02*
X192938Y471896D01*
X199125Y419557D02*
Y427445D01*
X194970Y415401D02*
X199125Y419557D01*
X371125Y463291D02*
X373125Y465291D01*
X374375Y461945D02*
X376375Y463945D01*
X381000Y460085D02*
X382375Y461460D01*
X381000Y452000D02*
Y460085D01*
X377125Y460806D02*
X379125Y462806D01*
X382375Y461460D02*
Y472791D01*
X371125Y456291D02*
Y463291D01*
X141375Y480459D02*
X152125Y469709D01*
Y421125D02*
Y469709D01*
X349680Y462410D02*
X362590D01*
X353125Y593959D02*
Y639709D01*
X362590Y462410D02*
X367000Y458000D01*
X376875Y440209D02*
Y453556D01*
X370875Y437180D02*
Y456041D01*
X374125Y436000D02*
Y454695D01*
X374375Y454945D01*
X376875Y453556D02*
X377125Y453806D01*
X374375Y454945D02*
Y461945D01*
X377125Y453806D02*
Y460806D01*
X370875Y456041D02*
X371125Y456291D01*
X376875Y440209D02*
X381084Y436000D01*
X136983Y201213D02*
X166269Y230499D01*
X115845Y180075D02*
X126465Y190694D01*
X126465Y194053D02*
X126465Y194053D01*
X123320Y197198D02*
X126465Y194053D01*
X123320Y200557D02*
X123320Y200557D01*
X126678D02*
X129824Y197412D01*
X133182D02*
X136983Y201213D01*
X306716Y409426D02*
X328163Y430872D01*
X305370Y412676D02*
X324913Y432218D01*
X328163Y430872D02*
Y436000D01*
Y458997D01*
X324913Y432218D02*
Y436000D01*
Y460343D01*
X260875Y531091D02*
Y762125D01*
X427794Y380185D02*
X431919Y384310D01*
Y389726D01*
X430169Y391476D02*
X431919Y389726D01*
X430169Y418425D02*
X431000Y419256D01*
X192375Y426855D02*
Y449351D01*
X430169Y407722D02*
Y418425D01*
Y391476D02*
Y407722D01*
X431000Y419256D02*
Y420000D01*
X182445Y393875D02*
X189709D01*
X204875Y503291D02*
Y510292D01*
X201469Y412709D02*
X208204Y419443D01*
X176000Y376667D02*
Y387430D01*
X204875Y503291D02*
X205375Y502791D01*
X193000Y522000D02*
X193167D01*
X189709Y393875D02*
X201469Y405636D01*
X161625Y362292D02*
X176000Y376667D01*
X201469Y405636D02*
Y412709D01*
X193167Y522000D02*
X204875Y510292D01*
X161625Y346195D02*
Y362292D01*
X176000Y387430D02*
X182445Y393875D01*
X516436Y377730D02*
X526125Y368041D01*
X531875Y311955D02*
X535125Y315205D01*
X516436Y377730D02*
Y412686D01*
X535125Y315205D02*
Y346291D01*
X526125Y355291D02*
Y368041D01*
Y355291D02*
X535125Y346291D01*
X531875Y280125D02*
Y311955D01*
Y280125D02*
X535000Y277000D01*
X491599Y431375D02*
X497747D01*
X516436Y412686D01*
X464865Y484286D02*
X468875Y480276D01*
X145368Y373000D02*
X148125Y370243D01*
Y357520D02*
Y370243D01*
X145875Y355270D02*
X148125Y357520D01*
X183758Y509924D02*
Y518591D01*
X158375Y347541D02*
Y374541D01*
X145875Y343291D02*
X148291Y340875D01*
X158375Y374541D02*
X194970Y411136D01*
X192166Y527000D02*
X201000D01*
X148291Y340875D02*
X151709D01*
X183758Y518591D02*
X192166Y527000D01*
X194970Y411136D02*
Y415401D01*
X145875Y343291D02*
Y355270D01*
X151709Y340875D02*
X158375Y347541D01*
X363025Y522315D02*
Y569940D01*
X341570Y407875D02*
X369695Y436000D01*
X370875Y437180D01*
X346012Y407722D02*
X374125Y435834D01*
X303875Y797555D02*
Y842878D01*
X269125Y369981D02*
X276125Y376981D01*
X269125Y355709D02*
Y369981D01*
X276125Y376981D02*
Y391253D01*
X269125Y355709D02*
X278125Y346709D01*
X265875Y444875D02*
X270000Y449000D01*
X265875Y236125D02*
Y436000D01*
Y236125D02*
X291794Y210206D01*
X265875Y436000D02*
Y444875D01*
X175125Y562041D02*
Y614450D01*
X225338Y664662D01*
X392875Y616291D02*
Y637657D01*
X386375Y613599D02*
Y640349D01*
X379875Y610907D02*
Y643041D01*
X383125Y612253D02*
Y641695D01*
X389625Y614945D02*
Y639003D01*
X240337Y695581D02*
X253047Y682871D01*
X231000Y710000D02*
X256297Y684703D01*
X223625Y758625D02*
X229000Y764000D01*
X555000Y460007D02*
Y536000D01*
Y460007D02*
X555750Y459257D01*
Y447200D02*
Y459257D01*
X548000Y462411D02*
Y542000D01*
X719807Y465896D02*
Y516436D01*
X685875Y550367D02*
X719807Y516436D01*
X690000Y436089D02*
X719807Y465896D01*
X494875Y501875D02*
Y521041D01*
X490000Y512000D02*
Y519916D01*
X676526Y548474D02*
Y609585D01*
Y548474D02*
X714000Y511000D01*
X670972Y615139D02*
X676526Y609585D01*
X670972Y615139D02*
Y718556D01*
X673125Y423810D02*
X714000Y464685D01*
Y511000D01*
X685875Y550367D02*
Y588541D01*
X690000Y404000D02*
Y436089D01*
Y316166D02*
Y404000D01*
X309055Y192945D02*
X309496Y192504D01*
X316429Y185571D01*
X319081D02*
X319081Y185571D01*
X321026Y182212D02*
X321733Y182919D01*
X321025Y182212D02*
X321026D01*
X321025Y179560D02*
X321026Y179560D01*
X323677Y179560D02*
X327820Y183704D01*
X326329Y176909D02*
X330472Y181052D01*
X326329Y176909D02*
X326329D01*
X328980Y174257D02*
X334107Y179384D01*
X334107D02*
X334107D01*
X331632Y171605D02*
X336759Y176732D01*
X331632Y171605D02*
X331632D01*
X334284Y168954D02*
X339410Y174080D01*
X339410D02*
X339410D01*
X336935Y166302D02*
X342062Y171429D01*
X336935Y166302D02*
X336935D01*
X336935Y163650D02*
X336935Y163650D01*
X339587Y163650D02*
X344714Y168777D01*
X344714D02*
X344714D01*
X342239Y160999D02*
X347365Y166125D01*
X342239Y160999D02*
X342239D01*
X344890Y158347D02*
X350017Y163474D01*
X350017D02*
X350017D01*
X347542Y155695D02*
X352668Y160822D01*
X347542Y155695D02*
X347542D01*
X350194Y153044D02*
X355320Y158170D01*
X355320D02*
X355320D01*
X352845Y150392D02*
X357972Y155519D01*
X352845Y150392D02*
X352845D01*
X352845Y147741D02*
X352845Y147740D01*
X355497Y147741D02*
X360624Y152867D01*
X360623D02*
X360624D01*
X358856Y145796D02*
X363275Y150215D01*
X358856Y143144D02*
X361507Y140493D01*
Y140493D02*
X361949Y140051D01*
X294616Y207384D02*
X309055Y192945D01*
X361949Y140051D02*
X364614Y137386D01*
X422491Y111187D02*
X426500Y107177D01*
X414838Y163839D02*
X415280Y163396D01*
X418899Y159778D01*
X418899Y159778D02*
X418899Y159778D01*
X417172Y155400D02*
X418899Y157127D01*
X419823Y152748D02*
X422169Y155094D01*
X422169D02*
X422169D01*
X419783Y147404D02*
X424821Y152442D01*
X419783Y147404D02*
X419783D01*
X419783Y144752D02*
X419783Y144752D01*
X422434Y144752D02*
X427472Y149790D01*
X427472D02*
X427472D01*
X425086Y142101D02*
X430124Y147139D01*
X425086Y142101D02*
X425086D01*
X427738Y139449D02*
X432776Y144487D01*
X432776D02*
X432776D01*
X430389Y136797D02*
X435427Y141835D01*
X430389Y136797D02*
X430389D01*
X433041Y134146D02*
X438079Y139184D01*
X438079D02*
X438079D01*
X435692Y131494D02*
X440731Y136532D01*
X435692Y131494D02*
X435692D01*
X435692Y128842D02*
X435692Y128842D01*
X438344Y128842D02*
X443382Y133881D01*
X443382D02*
X443382D01*
X440996Y126191D02*
X446034Y131229D01*
X440996Y126191D02*
X440996D01*
X443647Y123539D02*
X448067Y127958D01*
X450718Y127958D02*
X450719Y127958D01*
X450719Y127958D01*
Y127958D02*
X451161Y127516D01*
X395697Y182980D02*
X414838Y163839D01*
X451161Y127516D02*
X471500Y107177D01*
X455373Y117137D02*
X464625Y107886D01*
X453552Y113125D02*
X460500Y106177D01*
X436939Y113125D02*
X453552D01*
X438837Y117137D02*
X455373D01*
X290501Y269529D02*
X298000Y262030D01*
X303030Y257000D01*
X344030Y216000D02*
X361921Y198108D01*
X286875Y272598D02*
X288251Y271222D01*
X306212Y257000D02*
X335222Y227990D01*
X286875Y272598D02*
Y353709D01*
X303030Y257000D02*
X344030Y216000D01*
X292751Y270461D02*
X298000Y265212D01*
X292751Y270461D02*
Y324319D01*
X290501Y269529D02*
Y325252D01*
X298000Y265212D02*
X306212Y257000D01*
X283625Y266439D02*
Y355055D01*
Y266439D02*
X364614Y185449D01*
X464625Y104468D02*
Y107886D01*
X518875Y632291D02*
Y670291D01*
Y632291D02*
X522125Y629041D01*
Y617500D02*
Y629041D01*
X518875Y614250D02*
X522125Y617500D01*
X510875Y678291D02*
X518875Y670291D01*
X568800Y793366D02*
Y810000D01*
X636847Y716847D02*
Y725319D01*
X568800Y793366D02*
X636847Y725319D01*
X581000Y793000D02*
X586164D01*
X556663Y792233D02*
X557875Y793445D01*
X554875Y414706D02*
Y434287D01*
X521875Y677721D02*
Y708590D01*
X543651Y278221D02*
X557525Y292095D01*
X521875Y677721D02*
X531250Y668346D01*
X527000Y267000D02*
X531164D01*
X533039Y265125D02*
X536459D01*
X458875Y767291D02*
X462875Y763291D01*
X690972Y593639D02*
Y666889D01*
X680973Y676889D02*
X690972Y666889D01*
X685875Y588541D02*
X690972Y593639D01*
X472625Y476945D02*
X474125Y475445D01*
X475875Y478291D02*
Y481709D01*
Y478291D02*
X477375Y476791D01*
X475875Y481709D02*
X477375Y483209D01*
X459875Y586291D02*
Y670709D01*
X431000Y528000D02*
X444125Y541125D01*
Y605131D01*
X481625Y484209D02*
X484125Y481709D01*
X450205Y436000D02*
X474125Y412080D01*
Y405657D02*
Y412080D01*
X477375Y407003D02*
Y413426D01*
X424950Y452416D02*
X441366Y436000D01*
X446125Y440079D02*
X450205Y436000D01*
X480000Y369589D02*
X495981Y353608D01*
X418450Y449724D02*
X432173Y436000D01*
X452625Y442772D02*
X459397Y436000D01*
X463993D02*
X480000Y419993D01*
X421700Y451070D02*
X436769Y436000D01*
X533000Y429378D02*
Y449834D01*
X436769Y436000D02*
X444875Y427895D01*
X480000Y374185D02*
X499231Y354954D01*
X561375Y417398D02*
Y436979D01*
X501695Y437875D02*
X506445Y433125D01*
X536250Y430724D02*
Y451180D01*
X459397Y436000D02*
X480000Y415397D01*
X449375Y441426D02*
X454801Y436000D01*
X455875Y444118D02*
X463993Y436000D01*
X441366D02*
X448125Y429241D01*
X432173Y436000D02*
X441625Y426548D01*
X426430Y436000D02*
X438375Y424055D01*
X454801Y436000D02*
X477375Y413426D01*
X414189Y497381D02*
Y497381D01*
X413625Y504221D02*
X416875Y507471D01*
X422375Y471195D02*
Y489195D01*
X406875Y772566D02*
X408233Y771209D01*
X406875Y772566D02*
Y827709D01*
X413625Y497945D02*
X414189Y497381D01*
X408233Y716066D02*
Y771209D01*
X396875Y704709D02*
X408233Y716066D01*
X387125Y834291D02*
X388625Y835791D01*
X406752Y463415D02*
X415015D01*
X391375Y550209D02*
Y599407D01*
X495981Y346815D02*
Y353608D01*
X399375Y541945D02*
Y600599D01*
X415015Y463415D02*
X421700Y456730D01*
X388125Y570291D02*
Y598060D01*
X413669Y460165D02*
X418450Y455384D01*
X400285Y465286D02*
X405406Y460165D01*
X442481Y453352D02*
X446125Y449709D01*
X418450Y449724D02*
Y455384D01*
X403625Y537003D02*
X405875Y539253D01*
X403625Y524945D02*
Y537003D01*
X406875Y535657D02*
X411000Y539782D01*
Y540000D01*
X406875Y526291D02*
Y535657D01*
X396125Y543291D02*
Y599253D01*
X400285Y465286D02*
Y468173D01*
X405406Y460165D02*
X413669D01*
X488750Y817639D02*
Y853084D01*
X403625Y524945D02*
X410181Y518389D01*
X441291Y862125D02*
X479709D01*
X433014Y506444D02*
Y515556D01*
X435875Y504709D02*
X436264Y505098D01*
X423625Y524945D02*
X433014Y515556D01*
X435875Y499151D02*
Y504709D01*
X436264Y505098D02*
Y516903D01*
X429764Y507790D02*
Y514210D01*
X420375Y523599D02*
X429764Y514210D01*
X426875Y526291D02*
X436264Y516903D01*
X429375Y507401D02*
X429764Y507790D01*
X416875Y502875D02*
X420125Y506125D01*
X449375Y441426D02*
Y451055D01*
X441564Y456602D02*
X443827D01*
X416875Y499291D02*
Y502875D01*
X432625Y506055D02*
X433014Y506444D01*
X429375Y496459D02*
X445125Y480709D01*
X426875Y526291D02*
Y535875D01*
X420375Y523599D02*
Y541055D01*
X423625Y524945D02*
Y611459D01*
X406875Y526291D02*
X411527Y521639D01*
X413625Y497945D02*
Y504221D01*
X479709Y862125D02*
X488750Y853084D01*
X414189Y497381D02*
X422375Y489195D01*
X400025Y498110D02*
X404689Y493446D01*
Y472018D02*
Y493446D01*
X404150Y498581D02*
Y511846D01*
X407939Y494792D02*
X416125Y486606D01*
X404150Y498581D02*
X407939Y494792D01*
Y494792D02*
Y494792D01*
X446125Y440079D02*
Y449709D01*
X443827Y456602D02*
X449375Y451055D01*
X420125Y506125D02*
Y514609D01*
X411527Y521639D02*
X413095D01*
X416875Y507471D02*
Y513263D01*
X455875Y444118D02*
Y453747D01*
X486125Y377253D02*
Y407445D01*
X484625Y408945D02*
X486125Y407445D01*
X437875Y470291D02*
X445064Y463102D01*
X512231Y327602D02*
Y360339D01*
X448375Y468010D02*
X459125Y457260D01*
X445125Y475125D02*
Y480709D01*
X442000Y472000D02*
X445125Y475125D01*
X432625Y497805D02*
Y506055D01*
X429375Y496459D02*
Y507401D01*
X416125Y468606D02*
Y486606D01*
X402625Y540599D02*
Y601945D01*
X403875Y466291D02*
Y471203D01*
Y466291D02*
X406752Y463415D01*
X444875Y417593D02*
Y427895D01*
X396439Y472018D02*
X400285Y468173D01*
X403875Y471203D02*
X404689Y472018D01*
X421700Y451070D02*
Y456730D01*
X484625Y408945D02*
Y415368D01*
X432000Y478000D02*
X437875Y472125D01*
X425625Y472541D02*
Y490541D01*
X445174Y459852D02*
X452625Y452401D01*
X499129Y289661D02*
X505731Y296264D01*
X389625Y614945D02*
X402625Y601945D01*
X416875Y499291D02*
X425625Y490541D01*
X501090Y366884D02*
Y399744D01*
X424950Y452416D02*
Y459782D01*
X459125Y445464D02*
Y457260D01*
X462375Y446810D02*
Y458606D01*
X468875Y449503D02*
Y461298D01*
X531625Y400709D02*
X533375Y402459D01*
X531625Y382209D02*
Y400709D01*
X478625Y453541D02*
X494291Y437875D01*
X468875Y449503D02*
X490253Y428125D01*
X510840Y378730D02*
Y413686D01*
X441625Y416247D02*
Y426548D01*
X448125Y418939D02*
Y429241D01*
X459125Y445464D02*
X468589Y436000D01*
X531625Y382209D02*
X536125Y377709D01*
X462375Y446810D02*
X473186Y436000D01*
X506291Y437875D02*
X509555D01*
X532500Y354750D02*
X536125Y358375D01*
X487561Y421625D02*
X493709D01*
X494291Y437875D02*
X501695D01*
X492945Y434625D02*
X499093D01*
X490253Y428125D02*
X496401D01*
X480000Y429185D02*
X487561Y421625D01*
X487875Y410291D02*
Y416714D01*
X480000Y424589D02*
X487875Y416714D01*
X480000Y419993D02*
X484625Y415368D01*
X480000Y415397D02*
X481375Y414022D01*
X467526Y403417D02*
Y406474D01*
X467000Y407000D02*
X467526Y406474D01*
X468589Y436000D02*
X480000Y424589D01*
X473186Y436000D02*
X480000Y429185D01*
X505731Y296264D02*
Y357646D01*
X445064Y463102D02*
X446520D01*
X487875Y410291D02*
X491041Y407125D01*
X452625Y442772D02*
Y452401D01*
X446520Y463102D02*
X455875Y453747D01*
X457919Y377069D02*
X469125Y365863D01*
Y273529D02*
Y365863D01*
X472375Y272183D02*
Y367209D01*
X443718Y459852D02*
X445174D01*
X437875Y470291D02*
Y472125D01*
X406875Y827709D02*
X441291Y862125D01*
X526125Y322901D02*
Y339709D01*
X523375Y342459D02*
X526125Y339709D01*
X523375Y342459D02*
Y344895D01*
X521000Y347270D02*
X523375Y344895D01*
X522000Y358000D02*
Y367570D01*
X510840Y378730D02*
X522000Y367570D01*
X526125Y322901D02*
X526625Y322401D01*
X516000Y288000D02*
Y312166D01*
X504340Y368230D02*
Y410994D01*
Y368230D02*
X512231Y360339D01*
X521000Y347270D02*
Y348000D01*
X425625Y472541D02*
X441564Y456602D01*
X486125Y377253D02*
X505731Y357646D01*
X516000Y312166D02*
X520125Y316291D01*
X432000Y471570D02*
X443718Y459852D01*
X493709Y407125D02*
X501090Y399744D01*
X512231Y327602D02*
X520125Y319709D01*
X502481Y313353D02*
Y356300D01*
X508981Y294917D02*
Y358993D01*
X432625Y497805D02*
X448375Y482055D01*
X478625Y335769D02*
X480000Y337144D01*
X491856Y349000D01*
X405875Y539253D02*
Y603291D01*
X411749Y518389D02*
X416875Y513263D01*
X413095Y521639D02*
X420125Y514609D01*
X440218Y453352D02*
X442481D01*
X435875Y499151D02*
X451625Y483401D01*
X523375Y310349D02*
X526625Y313599D01*
X520125Y316291D02*
Y319709D01*
X526625Y313599D02*
Y322401D01*
X392875Y616291D02*
X405875Y603291D01*
X422375Y471195D02*
X440218Y453352D01*
X503406Y289342D02*
X508981Y294917D01*
X432000Y471570D02*
Y472000D01*
X481875Y312471D02*
X485111Y315707D01*
X481875Y257845D02*
Y312471D01*
X410181Y518389D02*
X411749D01*
X291794Y209507D02*
Y210206D01*
X262125Y235279D02*
Y335247D01*
X281404Y216000D02*
X364614Y132789D01*
X263000Y234404D02*
X281404Y216000D01*
X262125Y235279D02*
X263000Y234404D01*
X364614Y132789D02*
X384000Y113404D01*
X293918Y207384D02*
X294616D01*
X384000Y88166D02*
Y113404D01*
X387250Y112747D02*
Y114750D01*
X291794Y209507D02*
X293918Y207384D01*
X387250Y112747D02*
X394000Y105997D01*
X384000Y88166D02*
X394291Y77875D01*
X262125Y335247D02*
Y426305D01*
X394291Y77875D02*
X472709D01*
X231000Y389000D02*
Y397404D01*
X359125Y602396D02*
X370349Y591173D01*
X360125Y514819D02*
X366275Y520969D01*
X367099Y582857D02*
Y589827D01*
X363875Y579709D02*
X366291Y582125D01*
X366275Y520969D02*
Y568594D01*
X363025Y569940D02*
X365770Y572685D01*
X356875Y483806D02*
Y516165D01*
X365573Y475108D02*
X366725D01*
X363875Y576291D02*
Y579709D01*
Y576291D02*
X365770Y574397D01*
X370349Y581485D02*
X372125Y579709D01*
X360125Y485152D02*
Y514819D01*
X372125Y576291D02*
Y579709D01*
X136875Y491291D02*
X138125Y490041D01*
X136875Y491291D02*
Y544709D01*
X140125Y547959D01*
Y594709D01*
X137875Y596959D02*
X140125Y594709D01*
X137875Y596959D02*
Y603709D01*
X140125Y605959D01*
X480875Y57875D02*
Y89500D01*
X477000Y54000D02*
X480875Y57875D01*
X484807Y56853D02*
Y75974D01*
X488932Y58561D02*
Y71098D01*
X498125Y80291D01*
Y96368D01*
X141000Y493000D02*
X141375Y492625D01*
Y480459D02*
Y492625D01*
X149875Y506041D02*
X158125Y514291D01*
Y633751D01*
X134000Y469000D02*
X138125Y473125D01*
Y490041D01*
X145917Y645959D02*
X158125Y633751D01*
X542750Y433416D02*
Y453872D01*
X539500Y432070D02*
Y452526D01*
X546000Y443162D02*
Y455218D01*
X542750Y433416D02*
X551625Y424541D01*
X539500Y432070D02*
X546375Y425195D01*
X551625Y413360D02*
X553875Y411110D01*
X530401Y461625D02*
X539500Y452526D01*
X564625Y421256D02*
Y438325D01*
X549250Y444508D02*
Y456564D01*
X552500Y445854D02*
Y457911D01*
X549250Y444508D02*
X558125Y435633D01*
X552500Y445854D02*
X561375Y436979D01*
X555750Y447200D02*
X564625Y438325D01*
X541712Y381783D02*
X543125Y383196D01*
X541712Y374064D02*
Y381783D01*
X543125Y383196D02*
Y390272D01*
X533000Y429378D02*
X539875Y422503D01*
X543125Y412667D02*
X547375Y408417D01*
X539365Y347124D02*
X546375Y354134D01*
X528375Y379625D02*
Y402055D01*
X533375Y402459D02*
Y414055D01*
X528375Y402055D02*
X530125Y403805D01*
X540875Y392522D02*
X543125Y390272D01*
X540875Y392522D02*
Y405725D01*
X536625Y409975D02*
X540875Y405725D01*
X528375Y379625D02*
X532000Y376000D01*
X546375Y414013D02*
Y425195D01*
X551625Y413360D02*
Y424541D01*
X566875Y403291D02*
Y416494D01*
X565879Y417491D02*
X566875Y416494D01*
X547375Y395214D02*
X549625Y392964D01*
X565879Y417491D02*
Y420002D01*
X563625Y401945D02*
Y415148D01*
X561375Y417398D02*
X563625Y415148D01*
X544125Y393868D02*
X546375Y391618D01*
X548000Y462411D02*
X552500Y457911D01*
X560375Y400599D02*
Y413802D01*
X553875Y397907D02*
Y411110D01*
X536250Y430724D02*
X543125Y423849D01*
X547375Y395214D02*
Y408417D01*
X544125Y393868D02*
Y407071D01*
X557125Y399253D02*
Y412456D01*
X550625Y396561D02*
Y409764D01*
X507411Y472904D02*
X523718D01*
X554875Y414706D02*
X557125Y412456D01*
X546375Y414013D02*
X550625Y409764D01*
X543125Y412667D02*
Y423849D01*
X542616Y345778D02*
X549625Y352788D01*
X438375Y414901D02*
Y424055D01*
X448000Y326077D02*
X451419Y329497D01*
X445618Y323695D02*
X448000Y326077D01*
X448868Y295419D02*
Y322349D01*
X454669Y328150D01*
X445618Y294073D02*
Y323695D01*
X443000Y252000D02*
X451419Y260419D01*
X173375Y335247D02*
Y350131D01*
Y307945D02*
Y335247D01*
X169519Y229152D02*
Y304089D01*
X153794Y86795D02*
X171769Y104769D01*
Y303157D01*
X194579Y248710D02*
Y335247D01*
X176269Y98839D02*
Y230400D01*
X188603Y245916D02*
Y335247D01*
X153794Y80961D02*
X174019Y101185D01*
X166269Y230499D02*
Y305435D01*
X138055Y60625D02*
X153794Y76365D01*
X169519Y304089D02*
X173375Y307945D01*
X174019Y101185D02*
Y231332D01*
X170125Y309291D02*
Y350131D01*
X166269Y305435D02*
X170125Y309291D01*
X153794Y213428D02*
X169519Y229152D01*
X153794Y76365D02*
X176269Y98839D01*
X194579Y335247D02*
Y347304D01*
X441625Y416247D02*
X451419Y406453D01*
X480000Y255970D02*
X481875Y257845D01*
X463875Y239845D02*
X480000Y255970D01*
X463875Y216000D02*
Y239845D01*
X282625Y388541D02*
X288375Y382791D01*
X374125Y435834D02*
Y436000D01*
X178625Y310013D02*
Y335247D01*
X399419Y334393D02*
Y350893D01*
X396041Y257000D02*
Y257959D01*
X334111Y408111D02*
X334500Y407722D01*
X381084Y436000D02*
X397669Y419415D01*
X433943Y257000D02*
X444919Y267976D01*
X198704Y249653D02*
Y335247D01*
X153794Y56795D02*
X180769Y83769D01*
X261125Y455529D02*
X289125Y483529D01*
X396041Y254125D02*
Y257000D01*
X296125Y335247D02*
Y386709D01*
Y330876D02*
Y335247D01*
X294125Y397020D02*
X298000Y393145D01*
X299375Y391770D01*
X298000Y329569D02*
X299375Y330944D01*
Y335247D02*
Y391770D01*
X178519Y94519D02*
Y229468D01*
X260875Y531091D02*
X289125Y502841D01*
X445618Y294073D02*
X448000Y291690D01*
X438539Y257000D02*
X448000Y266461D01*
X418000Y215000D02*
Y216000D01*
X178625Y335247D02*
Y369625D01*
X418000Y236461D02*
X438539Y257000D01*
X198704Y335247D02*
Y380552D01*
X204000Y251767D02*
Y335247D01*
X342916Y404625D02*
X346012Y407722D01*
X293787Y416620D02*
X313166Y436000D01*
X334500Y407722D02*
X334637Y407585D01*
X448000Y291690D02*
X448169Y291521D01*
X180769Y83769D02*
Y228536D01*
X418000Y216000D02*
Y236461D01*
X292751Y324319D02*
X298000Y329569D01*
X299375Y330944D02*
Y335247D01*
X153794Y69795D02*
X178519Y94519D01*
X278125Y255552D02*
Y346709D01*
X313166Y436000D02*
X322163Y444997D01*
X298698Y848055D02*
X303875Y842878D01*
X337375Y588945D02*
Y602743D01*
X326375Y563950D02*
X328239Y565814D01*
X330380Y687214D02*
Y703060D01*
X315625Y713219D02*
X327130Y701714D01*
X341875Y607243D02*
Y645444D01*
X328239Y584406D02*
X334125Y590291D01*
X331489Y583060D02*
X337375Y588945D01*
X331489Y567085D02*
Y583060D01*
X318875Y714565D02*
X330380Y703060D01*
X334125Y590291D02*
Y604089D01*
X338625Y608589D01*
X304335Y412676D02*
X305370D01*
X286875Y353709D02*
X288375Y355209D01*
X282625Y393945D02*
Y414769D01*
X290501Y325252D02*
X296125Y330876D01*
X282625Y388541D02*
Y393945D01*
X282625Y393945D02*
X282625Y393945D01*
X288375Y355209D02*
Y382791D01*
X279375Y416115D02*
X286000Y422740D01*
X290166Y391000D02*
X291834D01*
X366366Y582125D02*
X367099Y582857D01*
X139010Y879692D02*
X142738D01*
X142124Y872868D02*
Y875710D01*
X327130Y688560D02*
Y701714D01*
X300625Y796209D02*
Y841531D01*
X334625Y560532D02*
Y563950D01*
X326375Y560532D02*
Y563950D01*
X388625Y842459D02*
X412166Y866000D01*
X460625Y205805D02*
Y216000D01*
X466375Y176872D02*
Y200055D01*
X460625Y205805D02*
X466375Y200055D01*
X463875Y207151D02*
X469625Y201401D01*
X463875Y207151D02*
Y216000D01*
X463125Y175526D02*
Y198709D01*
X460625Y216000D02*
Y241191D01*
X416125Y468606D02*
X424950Y459782D01*
X534750Y269250D02*
X540401Y274901D01*
Y279567D01*
X521875Y708590D02*
X527125Y713840D01*
X546901Y270971D02*
Y276875D01*
X528023Y262125D02*
X528273Y261875D01*
X550151Y269625D02*
Y275529D01*
X523000Y215000D02*
X528834D01*
X541875Y256753D02*
X553401Y268279D01*
X528273Y261875D02*
X537805D01*
X534000Y227000D02*
Y253474D01*
X558125Y416052D02*
Y435633D01*
X541875Y228041D02*
Y256753D01*
X537805Y261875D02*
X546901Y270971D01*
X531164Y267000D02*
X533039Y265125D01*
X518791Y262125D02*
X528023D01*
X523718Y472904D02*
X542750Y453872D01*
X179250Y386084D02*
X183791Y390625D01*
X198220Y414055D02*
X202375Y418210D01*
Y428791D01*
X198220Y408219D02*
Y414055D01*
X188000Y398000D02*
X198220Y408219D01*
X164875Y360945D02*
X179250Y375321D01*
X272875Y394503D02*
X276125Y391253D01*
X142738Y879692D02*
X145374Y877056D01*
Y873020D02*
Y877056D01*
X419500Y541930D02*
Y561000D01*
X461946Y394053D02*
X466000Y390000D01*
X458419Y415716D02*
X461946Y412189D01*
X542616Y314812D02*
X545382Y312046D01*
X491875Y493041D02*
X499692Y500858D01*
X383125Y612253D02*
X396125Y599253D01*
X444875Y417593D02*
X454669Y407799D01*
X448125Y418939D02*
X457919Y409145D01*
X419500Y541930D02*
X420375Y541055D01*
X448375Y468010D02*
Y482055D01*
X503406Y251406D02*
Y289342D01*
X391875Y834445D02*
Y839875D01*
X426875Y535875D02*
X431000Y540000D01*
X423625Y611459D02*
X424125Y611959D01*
X501090Y366884D02*
X508981Y358993D01*
X493709Y421625D02*
X504340Y410994D01*
X477625Y90846D02*
X478875Y92096D01*
X261089Y436346D02*
X261125Y436382D01*
Y455529D01*
X289125Y483529D02*
Y502841D01*
X257000Y766000D02*
X260875Y762125D01*
X236875Y652643D02*
X256297Y672066D01*
X257625Y515159D02*
Y536138D01*
X239585Y695581D02*
X240337D01*
X225875Y570959D02*
Y608523D01*
X327402Y732722D02*
X337875Y722249D01*
Y703806D02*
Y722249D01*
X141392Y876442D02*
X142124Y875710D01*
X146498Y871152D02*
Y871896D01*
X145374Y873020D02*
X146498Y871896D01*
X141000Y871000D02*
Y871744D01*
X142124Y872868D01*
X338526Y409883D02*
X340534Y407875D01*
X341570D01*
X338000Y412000D02*
X338526Y411474D01*
Y409883D02*
Y411474D01*
X336228Y407585D02*
X339188Y404625D01*
X334637Y407585D02*
X336228D01*
X339188Y404625D02*
X342916D01*
X360125Y485152D02*
X366919Y478358D01*
X140356Y876442D02*
X141392D01*
X534150Y102156D02*
Y137083D01*
X391875Y839875D02*
X412000Y860000D01*
X395945Y190355D02*
X450188D01*
X499093Y434625D02*
X522192Y411526D01*
X443000Y221000D02*
Y252000D01*
X448868Y295419D02*
X451419Y292867D01*
X448169Y266630D02*
Y291521D01*
X460625Y241191D02*
X478625Y259191D01*
Y335769D01*
X448000Y266461D02*
X448169Y266630D01*
X396000Y258000D02*
X396041Y257959D01*
X444919Y267976D02*
Y282976D01*
X468959Y98802D02*
X475625Y105468D01*
X412875Y98802D02*
X468959D01*
X398281Y186230D02*
X475625Y108886D01*
X233625Y616273D02*
Y653989D01*
X294125Y397020D02*
Y404709D01*
X527875Y477940D02*
X549250Y456564D01*
X524625Y476593D02*
X546000Y455218D01*
X513125Y561959D02*
Y623363D01*
X558125Y416052D02*
X560375Y413802D01*
X527875Y477940D02*
Y494110D01*
X553401Y268279D02*
Y274183D01*
X502986Y455125D02*
X527709D01*
X536459Y265125D02*
X543651Y272317D01*
X531250Y582416D02*
Y668346D01*
X522000Y800000D02*
X527125Y794875D01*
X527875Y494110D02*
X531390Y497625D01*
X528834Y215000D02*
X541875Y228041D01*
X501955Y460753D02*
X504333Y458375D01*
X539365Y308896D02*
X547090Y301171D01*
X500609Y457503D02*
X502986Y455125D01*
X499067Y457503D02*
X500609D01*
X524625Y575791D02*
X531250Y582416D01*
X500414Y460753D02*
X501955D01*
X527709Y455125D02*
X533000Y449834D01*
X514046Y157187D02*
X534150Y137083D01*
X545382Y312046D02*
X548965D01*
X542616Y314812D02*
Y345778D01*
X504333Y458375D02*
X529055D01*
X539875Y411321D02*
X544125Y407071D01*
X529055Y458375D02*
X536250Y451180D01*
X539365Y308896D02*
Y347124D01*
X530125Y403805D02*
Y412709D01*
X564625Y421256D02*
X565879Y420002D01*
X534000Y253474D02*
X550151Y269625D01*
X509906Y253240D02*
X518791Y262125D01*
X197000Y382256D02*
X198704Y380552D01*
X197000Y382256D02*
Y383000D01*
X200750Y500084D02*
Y504000D01*
Y500084D02*
X202125Y498709D01*
X179250Y375321D02*
Y386084D01*
X183791Y390625D02*
X191055D01*
X240250Y516417D02*
X259375Y497292D01*
X228125Y561041D02*
X240250Y548916D01*
X228125Y561041D02*
Y568709D01*
X226875Y708291D02*
Y753131D01*
X208875Y504875D02*
X209000Y505000D01*
X178625Y369625D02*
X190000Y381000D01*
X171769Y303157D02*
X178625Y310013D01*
X155125Y408571D02*
X179000Y432446D01*
X154000Y353974D02*
X155125Y355099D01*
X138375Y346209D02*
Y357195D01*
X127875Y310125D02*
Y335709D01*
X131875Y328041D02*
X141625Y337791D01*
X131875Y316291D02*
X140000Y308166D01*
X155125Y355099D02*
Y408571D01*
X154000Y350000D02*
Y353974D01*
X122875Y344709D02*
X126166Y348000D01*
X122875Y307125D02*
Y344709D01*
X127875Y310125D02*
X133000Y305000D01*
X131875Y316291D02*
Y328041D01*
X126166Y348000D02*
X131834D01*
X141625Y337791D02*
Y358541D01*
X298698Y848055D02*
Y849646D01*
X318625Y680055D02*
X327130Y688560D01*
X318625Y664098D02*
Y680055D01*
X321875Y665444D02*
Y678709D01*
X337375Y602743D02*
X341875Y607243D01*
X315625Y713219D02*
Y781209D01*
X323277Y714053D02*
X333130Y704199D01*
X344625Y606104D02*
Y692460D01*
X323277Y714053D02*
Y742275D01*
X388625Y835791D02*
Y842459D01*
X390375Y832945D02*
X391875Y834445D01*
X149875Y354674D02*
X151875Y356674D01*
X169000Y351256D02*
X170125Y350131D01*
X173375D02*
X174500Y351256D01*
X140000Y297000D02*
Y308166D01*
X139875Y360291D02*
X141625Y358541D01*
X174019Y231332D02*
X188603Y245916D01*
Y335247D02*
Y338381D01*
X178519Y229468D02*
X198704Y249653D01*
X176269Y230400D02*
X194579Y248710D01*
X180769Y228536D02*
X204000Y251767D01*
X135000Y68000D02*
X153794Y86795D01*
X136709Y63875D02*
X153794Y80961D01*
X148000Y51000D02*
X153794Y56795D01*
X204000Y335247D02*
Y384000D01*
X133875Y63875D02*
X136709D01*
X135000Y51000D02*
X153794Y69795D01*
X122000Y52000D02*
X133875Y63875D01*
X135744Y59000D02*
X137369Y60625D01*
X135000Y59000D02*
X135744D01*
X137369Y60625D02*
X138055D01*
X86500Y138800D02*
Y149143D01*
X87232Y149875D01*
X174500Y351256D02*
Y352000D01*
X86500Y153857D02*
Y164200D01*
Y153857D02*
X87232Y153125D01*
X169000Y351256D02*
Y352000D01*
X279375Y392599D02*
Y416115D01*
X283625Y355055D02*
X285125Y356555D01*
X279375Y387195D02*
X285125Y381445D01*
Y356555D02*
Y381445D01*
X285875Y413305D02*
X308570Y436000D01*
X279375Y392599D02*
X279375Y392599D01*
Y387195D02*
Y392599D01*
X285875Y395291D02*
Y413305D01*
X291834Y391000D02*
X296125Y386709D01*
X285875Y395291D02*
X290166Y391000D01*
X293787Y405047D02*
X294125Y404709D01*
X293787Y405047D02*
Y416620D01*
X308570Y436000D02*
X312000Y439430D01*
X525474Y411526D02*
X526000Y411000D01*
X522192Y411526D02*
X525474D01*
X504000Y720445D02*
Y835000D01*
X507625Y660791D02*
Y776221D01*
X497875Y651041D02*
X507625Y660791D01*
X434000Y802834D02*
X458875Y777959D01*
Y767291D02*
Y777959D01*
X415875Y802934D02*
X417848Y804906D01*
X506656Y248822D02*
Y262822D01*
X122875Y307125D02*
X133000Y297000D01*
X223625Y692209D02*
Y758625D01*
X225875Y608523D02*
X233625Y616273D01*
X230125Y617369D02*
Y685709D01*
X208875Y596119D02*
X230125Y617369D01*
X237000Y515071D02*
Y543334D01*
X303875Y797555D02*
X318875Y782555D01*
X318625Y664098D02*
X338625Y644098D01*
X331489Y567085D02*
X334625Y563950D01*
X300625Y796209D02*
X315625Y781209D01*
X229000Y755256D02*
Y756000D01*
X226875Y708291D02*
X239585Y695581D01*
X233625Y653989D02*
X253047Y673412D01*
X226875Y753131D02*
X229000Y755256D01*
X257625Y515159D02*
X262625Y510159D01*
X256297Y672066D02*
Y684703D01*
X236875Y556888D02*
X257625Y536138D01*
X236875Y556888D02*
Y652643D01*
X255125Y407125D02*
Y428709D01*
X225875Y570959D02*
X228125Y568709D01*
X240250Y516417D02*
Y548916D01*
X223625Y692209D02*
X230125Y685709D01*
X253047Y673412D02*
Y682871D01*
X208875Y569791D02*
Y596119D01*
X286875Y509687D02*
X298875Y497687D01*
X286875Y555152D02*
X289125Y557402D01*
X281622Y609022D02*
Y689955D01*
X301380Y709714D01*
X281622Y609022D02*
X289125Y601519D01*
X301380Y709714D02*
Y761208D01*
X286875Y509687D02*
Y555152D01*
X298875Y480287D02*
Y497687D01*
X296400Y845757D02*
X300625Y841531D01*
X318875Y714565D02*
Y782555D01*
X323277Y742275D02*
X330752Y749750D01*
X298875Y480287D02*
X318038Y461124D01*
X237000Y515071D02*
X256125Y495946D01*
X281000Y771000D02*
X287125Y764875D01*
X297713D01*
X301380Y761208D01*
X289125Y557402D02*
Y601519D01*
X322000Y466000D02*
X322163Y465837D01*
X333130Y703955D02*
Y704199D01*
X149875Y345125D02*
X150000Y345000D01*
X321875Y678709D02*
X330380Y687214D01*
X321875Y665444D02*
X341875Y645444D01*
X298172Y850172D02*
X298698Y849646D01*
X338625Y608589D02*
Y644098D01*
X294283Y846283D02*
X294809Y845757D01*
X296400D01*
X297912Y412912D02*
X298438Y412385D01*
X300029D02*
X302989Y409426D01*
X298438Y412385D02*
X300029D01*
X302989Y409426D02*
X306716D01*
X302327Y414683D02*
Y416274D01*
X301801Y416801D02*
X302327Y416274D01*
Y414683D02*
X304335Y412676D01*
X149875Y345125D02*
Y354674D01*
X443000Y606256D02*
X444125Y605131D01*
X443000Y606256D02*
Y607000D01*
X542125Y522125D02*
Y791875D01*
X502000Y616256D02*
X503125Y615131D01*
X491041Y407125D02*
X493709D01*
X333130Y703955D02*
X344625Y692460D01*
X451875Y819959D02*
X470032Y801802D01*
X473875Y635709D02*
X474125Y635959D01*
X516375Y800209D02*
X520291Y804125D01*
X509986Y626502D02*
X513125Y623363D01*
X510875Y774875D02*
X516375Y780375D01*
Y800209D01*
X539310Y800125D02*
X545875D01*
X510788Y827256D02*
X513125Y824919D01*
X545875Y800125D02*
X550000Y796000D01*
X507625Y776221D02*
X513125Y781721D01*
X510788Y827256D02*
Y828000D01*
X489000Y496000D02*
X494875Y501875D01*
X535310Y804125D02*
X539310Y800125D01*
X510875Y678291D02*
Y774875D01*
X543651Y272317D02*
Y278221D01*
X499692Y500858D02*
Y513858D01*
X490430Y228000D02*
X509906Y247476D01*
Y253240D01*
X496401Y428125D02*
X510840Y413686D01*
X493993Y62000D02*
X534150Y102156D01*
X454175Y207659D02*
X463125Y198709D01*
X222104Y556563D02*
X223771D01*
X208875Y569791D02*
X222104Y556563D01*
X223771D02*
X237000Y543334D01*
X673000Y381000D02*
X673125Y381125D01*
X667709Y800125D02*
X676125Y791709D01*
X668875Y720653D02*
X670972Y718556D01*
X666310Y800125D02*
X667709D01*
X660525Y805910D02*
X666310Y800125D01*
X673125Y381125D02*
Y423810D01*
X676125Y759806D02*
Y791709D01*
X680355Y719174D02*
X680973Y718556D01*
X680355Y719174D02*
Y829355D01*
X697000Y846000D01*
X680973Y676889D02*
Y718556D01*
X532000Y512000D02*
X542125Y522125D01*
X644355Y764663D02*
Y789028D01*
X646125Y790798D01*
Y808875D01*
X655875Y725875D02*
Y753143D01*
X660525Y805910D02*
Y838525D01*
X668000Y846000D01*
X645000Y810000D02*
X646125Y808875D01*
X539875Y411321D02*
Y422503D01*
X497875Y552445D02*
Y651041D01*
X513125Y781721D02*
Y824919D01*
X502000Y616256D02*
Y617000D01*
X554125Y794291D02*
Y799275D01*
X556663Y787412D02*
Y792233D01*
X552538Y792704D02*
X554125Y794291D01*
X552538Y785323D02*
Y792704D01*
X543400Y810000D02*
X554125Y799275D01*
X552538Y785323D02*
X625139Y712722D01*
X539000Y795000D02*
X542125Y791875D01*
X507067Y485250D02*
X518875Y497058D01*
X520291Y804125D02*
X535310D01*
X686750Y314820D02*
X719462Y282108D01*
X668875Y720653D02*
Y752556D01*
X673000Y381000D02*
X686750Y367250D01*
X719462Y271543D02*
Y282108D01*
X686750Y314820D02*
Y367250D01*
X723587Y269834D02*
Y282580D01*
X668875Y752556D02*
X676125Y759806D01*
X722000Y268248D02*
X723587Y269834D01*
X690000Y316166D02*
X723587Y282580D01*
X731331Y370079D02*
X741090Y360320D01*
X312000Y439430D02*
Y455000D01*
X741090Y307171D02*
Y360320D01*
X722000Y262000D02*
Y268248D01*
X704003Y370079D02*
X731331D01*
X701090Y367511D02*
X701435D01*
X704003Y370079D01*
X490000Y228000D02*
X490430D01*
X491709Y233875D02*
X506656Y248822D01*
X490041Y233875D02*
X491709D01*
X485875Y229709D02*
X490041Y233875D01*
X484807Y75974D02*
X489875Y81041D01*
X486575Y50000D02*
Y55085D01*
X484807Y56853D02*
X486575Y55085D01*
X489875Y81041D02*
Y93904D01*
X469625Y178218D02*
Y201401D01*
X478875Y92096D02*
Y127875D01*
X477625Y82791D02*
Y90846D01*
X472709Y77875D02*
X477625Y82791D01*
X475625Y105468D02*
Y108886D01*
X404500Y107177D02*
X412875Y98802D01*
X322163Y444997D02*
Y465837D01*
X445500Y108177D02*
X451625Y102052D01*
X462209D02*
X464625Y104468D01*
X451625Y102052D02*
X462209D01*
X490000Y238000D02*
X503406Y251406D01*
X451875Y819959D02*
Y852709D01*
X470032Y762814D02*
Y801802D01*
X451875Y852709D02*
X457166Y858000D01*
X478000D01*
X397669Y383643D02*
Y407722D01*
Y419415D01*
X404169Y371976D02*
X405919Y370226D01*
X404169Y371976D02*
Y377143D01*
X405919Y357393D02*
Y370226D01*
X399419Y350893D02*
X405919Y357393D01*
X397669Y383643D02*
X404169Y377143D01*
X392919Y327893D02*
X399419Y334393D01*
X619600Y749163D02*
Y810000D01*
X683875Y860125D02*
X688000Y856000D01*
X640972Y716889D02*
Y727790D01*
X619600Y749163D02*
X640972Y727790D01*
Y716889D02*
X645139Y712722D01*
X646806D01*
X650972Y708556D01*
Y700972D02*
Y708556D01*
X646847Y696847D02*
X650972Y700972D01*
X646847Y716847D02*
X655875Y725875D01*
X625139Y712722D02*
X640543D01*
X646418Y706847D01*
X646847D01*
X548965Y312046D02*
X553090Y316171D01*
X451419Y260419D02*
Y292867D01*
X434000Y802834D02*
Y845000D01*
D18*
X794724Y558000D02*
G03*
X799474Y553250I4750J0D01*
G01*
X794724Y560743D02*
G03*
X792974Y562493I-1750J0D01*
G01*
X792974D02*
G03*
X791224Y560743I0J-1750D01*
G01*
X786474Y553250D02*
G03*
X791224Y558000I0J4750D01*
G01*
X797724D02*
G03*
X799474Y556250I1750J0D01*
G01*
X797724Y560743D02*
G03*
X792974Y565493I-4750J0D01*
G01*
X792974D02*
G03*
X788224Y560743I0J-4750D01*
G01*
X786474Y556250D02*
G03*
X788224Y558000I0J1750D01*
G01*
X851757Y531993D02*
G03*
X849282Y531993I-1237J-1237D01*
G01*
X842211Y527397D02*
G03*
X844686Y527397I1237J1237D01*
G01*
X842211Y529872D02*
G03*
X842211Y527397I1237J-1237D01*
G01*
X846807Y534468D02*
G03*
X846807Y536943I-1237J1237D01*
G01*
X840009Y494348D02*
G03*
X839723Y495048I-1000J0D01*
G01*
X843009Y494348D02*
G03*
X841853Y497161I-4000J0D01*
G01*
X807073Y501185D02*
G03*
X808229Y500384I2820J2837D01*
G01*
X806919Y501339D02*
G03*
X806782Y501451I-700J-714D01*
G01*
X808812Y503824D02*
G03*
X809043Y503457I942J336D01*
G01*
X809189Y503311D02*
G03*
X809474Y503113I703J711D01*
G01*
X810834Y502497D02*
G03*
X810827Y502500I-1239J-2732D01*
G01*
X809595Y499765D02*
G03*
X809605Y499760I5469J12101D01*
G01*
X813844Y497838D02*
G03*
X814255Y497750I410J912D01*
G01*
X838367Y461010D02*
G03*
X838373Y461016I-2115J2128D01*
G01*
X834666Y461966D02*
G03*
X835370Y462256I0J1000D01*
G01*
X825399Y466601D02*
G03*
X830034Y461966I4636J0D01*
G01*
X836252Y463137D02*
G03*
X836245Y463131I2121J-2121D01*
G01*
X822399Y466601D02*
G03*
X830034Y458966I7635J0D01*
G01*
X834666D02*
G03*
X837484Y460127I0J4000D01*
G01*
X838670Y461313D02*
G03*
X838677Y461320I-2115J2128D01*
G01*
X836555Y463441D02*
G03*
X836549Y463434I2121J-2121D01*
G01*
X839719Y466605D02*
G03*
X840009Y467309I-710J704D01*
G01*
X841844Y464487D02*
G03*
X843009Y467309I-2835J2822D01*
G01*
X834331Y500423D02*
G03*
X833686Y500666I-653J-757D01*
G01*
X823122Y501622D02*
G03*
X823115Y501615I2115J-2128D01*
G01*
X826822Y503666D02*
G03*
X824005Y502505I0J-4000D01*
G01*
X836291Y502694D02*
G03*
X833690Y503666I-2613J-3029D01*
G01*
X836629Y502389D02*
G03*
X836412Y502590I-2829J-2828D01*
G01*
X825237Y499494D02*
G03*
X825243Y499500I-2121J2121D01*
G01*
X834501Y500274D02*
G03*
X834446Y500324I-702J-712D01*
G01*
X826822Y500666D02*
G03*
X826118Y500376I0J-1000D01*
G01*
X813175Y474372D02*
G03*
X812835Y474221I229J-973D01*
G01*
X812497Y477295D02*
G03*
X812477Y477290I670J-2924D01*
G01*
X825399Y470437D02*
G03*
X824238Y473255I-4000J0D01*
G01*
X822399Y470437D02*
G03*
X822111Y471139I-1000J0D01*
G01*
X820317Y477176D02*
G03*
X816584Y478243I-2828J-2828D01*
G01*
X818196Y475054D02*
G03*
X817262Y475321I-707J-707D01*
G01*
X812477Y477290D02*
G03*
X811721Y477028I928J-3891D01*
G01*
X823078Y497750D02*
G03*
X823782Y498040I0J1000D01*
G01*
X817238Y495000D02*
G03*
X817225Y495000I-12J-3000D01*
G01*
X828925Y494997D02*
G03*
X828857Y494998I-71J-3999D01*
G01*
X821320Y495000D02*
G03*
X821305Y495000I-15J-4000D01*
G01*
X817225Y492000D02*
G03*
X817234Y492000I0J1500D01*
G01*
X828882Y491997D02*
G03*
X828855Y491998I-27J-1000D01*
G01*
X824669Y495000D02*
G03*
X824668Y495000I-16J-4000D01*
G01*
X828946Y494997D02*
G03*
X828925Y494997I-34J-1500D01*
G01*
X828806Y487000D02*
G03*
X828796Y487000I-10J-3000D01*
G01*
X828796Y484000D02*
G03*
X828801Y484000I6J1500D01*
G01*
D02*
G03*
X828946Y494997I-2J5499D01*
G01*
X828806Y487000D02*
G03*
X828882Y491997I-7J2499D01*
G01*
X791787Y494560D02*
G03*
X794635Y492000I2826J280D01*
G01*
X794636Y497808D02*
G03*
X794558Y499923I-3894J915D01*
G01*
X795371Y495052D02*
G03*
X795441Y495032I314J950D01*
G01*
X791717Y498500D02*
G03*
X791696Y499022I-975J223D01*
G01*
X795487Y495022D02*
G03*
X795463Y495027I-338J-1461D01*
G01*
X794565Y497503D02*
G03*
X794543Y497178I974J-229D01*
G01*
X794668Y495911D02*
G03*
X795352Y495059I995J99D01*
G01*
X791500Y500260D02*
G03*
X791412Y500671I-1000J0D01*
G01*
X791644Y498189D02*
G03*
X791557Y496886I3894J-915D01*
G01*
X795371Y495052D02*
G03*
X795352Y495059I-485J-1420D01*
G01*
X795463Y495027D02*
G03*
X795451Y495030I-335J-1462D01*
G01*
X795487Y495022D02*
G03*
X795694Y495000I207J978D01*
G01*
X794588Y500671D02*
G03*
X794546Y499960I912J-411D01*
G01*
X795441Y495032D02*
G03*
X795451Y495030I242J970D01*
G01*
X791500Y500260D02*
G03*
X791684Y499060I4000J0D01*
G01*
X774540Y479831D02*
G03*
X774028Y479172I9561J-7965D01*
G01*
X773907Y474272D02*
G03*
X773891Y473773I3982J-383D01*
G01*
X820333Y487000D02*
G03*
X820324Y487000I-9J-1500D01*
G01*
X820315Y484000D02*
G03*
X820324Y484000I9J1500D01*
G01*
X785067Y484000D02*
G03*
X784448Y483786I0J-1000D01*
G01*
X776755Y477724D02*
G03*
X776623Y477597I622J-783D01*
G01*
X776594Y477565D02*
G03*
X776413Y476302I672J-741D01*
G01*
X773907Y474272D02*
G03*
X773783Y474857I-996J93D01*
G01*
X774028Y479172D02*
G03*
X773783Y474857I3238J-2349D01*
G01*
X774852Y480046D02*
G03*
X774899Y480080I-569J823D01*
G01*
X785067Y487000D02*
G03*
X782592Y486142I0J-4000D01*
G01*
X775716Y487440D02*
G03*
X775717Y487514I-2999J74D01*
G01*
X770144Y477598D02*
G03*
X770000Y477110I856J-516D01*
G01*
X770000Y477093D02*
Y477094D01*
X772557Y486982D02*
G03*
X772717Y487501I-839J544D01*
G01*
X769314Y482022D02*
G03*
X769129Y481727I7952J-5198D01*
G01*
X772717Y487511D02*
G03*
X772717Y487514I-1000J14D01*
G01*
X767001Y477166D02*
G03*
X767000Y477093I2999J-73D01*
G01*
X772310Y458282D02*
G03*
X775115Y457133I2806J2851D01*
G01*
X775068Y485340D02*
G03*
X775716Y487436I-3350J2185D01*
G01*
X767574Y479147D02*
G03*
X767001Y477166I3426J-2065D01*
G01*
X772717Y487511D02*
G03*
X772717Y487501I1500J-34D01*
G01*
X775716Y487436D02*
G03*
X775716Y487440I-1499J41D01*
G01*
X771825Y480380D02*
G03*
X771699Y480179I5441J-3557D01*
G01*
X770000Y477094D02*
G03*
X770000Y477110I-1499J44D01*
G01*
X768139Y462453D02*
G03*
X768172Y462421I2861J2795D01*
G01*
X770000Y465249D02*
G03*
X770285Y464550I1000J0D01*
G01*
X767000Y465249D02*
G03*
X768139Y462453I4000J0D01*
G01*
X770285Y464550D02*
G03*
X770293Y464542I715J699D01*
G01*
X772287Y458305D02*
G03*
X772310Y458282I2121J2121D01*
G01*
X796522Y457133D02*
G03*
X799336Y458291I0J4000D01*
G01*
D02*
G03*
X799362Y458316I-2110J2132D01*
G01*
X800216Y459171D02*
G03*
X800229Y459184I-2115J2128D01*
G01*
X794617Y480976D02*
G03*
X789750Y476600I-452J-4392D01*
G01*
X797033Y479826D02*
G03*
X794617Y480976I-2828J-2828D01*
G01*
X789750Y475036D02*
G03*
X789750Y475040I-1000J3D01*
G01*
X792750Y474990D02*
G03*
X792838Y474579I1000J0D01*
G01*
X792750Y475026D02*
G03*
X792750Y475040I-4000J14D01*
G01*
X804024Y471178D02*
G03*
X802852Y474007I-4000J0D01*
G01*
X794912Y477705D02*
G03*
X794308Y477992I-707J-707D01*
G01*
D02*
G03*
X792750Y476593I-144J-1407D01*
G01*
X801024Y471178D02*
G03*
X800731Y471885I-1000J0D01*
G01*
X789662Y474579D02*
G03*
X789750Y474990I-912J411D01*
G01*
X774908Y460155D02*
G03*
X775115Y460133I207J978D01*
G01*
X778008D02*
G03*
X779758Y461883I0J1750D01*
G01*
X781508Y466033D02*
G03*
X779758Y464283I0J-1750D01*
G01*
X783258D02*
G03*
X781508Y466033I-1750J0D01*
G01*
X783258Y461883D02*
G03*
X785008Y460133I1750J0D01*
G01*
X785008D02*
G03*
X786758Y461883I0J1750D01*
G01*
X788508Y466300D02*
G03*
X786758Y464551I0J-1750D01*
G01*
X790258D02*
G03*
X788508Y466300I-1750J0D01*
G01*
X790258Y461883D02*
G03*
X792008Y460133I1750J0D01*
G01*
X774408Y460426D02*
G03*
X774908Y460155I707J707D01*
G01*
X796522Y460133D02*
G03*
X797226Y460423I0J1000D01*
G01*
X798108Y461305D02*
G03*
X798101Y461298I2121J-2121D01*
G01*
X776848Y500502D02*
G03*
X776556Y500375I247J-969D01*
G01*
X776555Y500374D02*
G03*
X776556Y500375I-1612J2530D01*
G01*
X774548Y502649D02*
G03*
X772717Y499289I2170J-3360D01*
G01*
X774939Y502902D02*
G03*
X775079Y503012I-547J837D01*
G01*
X776175Y500129D02*
G03*
X775717Y499289I542J-840D01*
G01*
X799420Y462617D02*
G03*
X799413Y462610I2121J-2121D01*
G01*
X801535Y460489D02*
G03*
X801541Y460495I-2115J2128D01*
G01*
X800734Y463931D02*
G03*
X801024Y464635I-710J704D01*
G01*
X802858Y461812D02*
G03*
X804024Y464635I-2834J2823D01*
G01*
X802849Y461803D02*
G03*
X802858Y461812I-2115J2128D01*
G01*
X711840Y319750D02*
G03*
X713590Y321500I0J1750D01*
G01*
X708835Y319750D02*
G03*
X707085Y318000I0J-1750D01*
G01*
Y318000D02*
G03*
X708835Y316250I1750J0D01*
G01*
X713590Y314500D02*
G03*
X711840Y316250I-1750J0D01*
G01*
X294243Y574518D02*
G03*
X295993Y576268I0J1750D01*
G01*
X293916Y574518D02*
G03*
X292166Y572767I0J-1750D01*
G01*
Y572767D02*
G03*
X293916Y571017I1750J0D01*
G01*
X295993Y569268D02*
G03*
X294243Y571017I-1750J0D01*
G01*
Y567518D02*
G03*
X295993Y569268I0J1750D01*
G01*
X293500Y567518D02*
G03*
X291750Y565768I0J-1750D01*
G01*
Y565768D02*
G03*
X293500Y564017I1750J0D01*
G01*
X295993Y562268D02*
G03*
X294243Y564017I-1750J0D01*
G01*
X304007Y525893D02*
G03*
X305757Y524143I1750J0D01*
G01*
X315500Y522393D02*
G03*
X313750Y524143I-1750J0D01*
G01*
Y520643D02*
G03*
X315500Y522393I0J1750D01*
G01*
X305757Y520643D02*
G03*
X304007Y518893I0J-1750D01*
G01*
X884750Y489500D02*
X888496Y485754D01*
X891497Y482754D02*
X897000Y488257D01*
X890254Y485754D02*
X894000Y489500D01*
X888496Y485754D02*
X890254D01*
X843493Y544500D02*
X867993Y520000D01*
X887253Y482754D02*
X891497D01*
X881750Y488257D02*
X887253Y482754D01*
X881750Y488257D02*
Y502390D01*
X884750Y489500D02*
Y503632D01*
X897000Y488257D02*
Y511743D01*
X894000Y489500D02*
Y510500D01*
X888743Y520000D02*
X897000Y511743D01*
X879632Y508750D02*
X884750Y503632D01*
X799474Y553250D02*
X807212D01*
X794724Y558000D02*
Y560743D01*
X792974Y562493D02*
X792974D01*
X791224Y558000D02*
Y560743D01*
X784474Y553250D02*
X786474D01*
X799474Y556250D02*
X807212D01*
X797724Y558000D02*
Y560743D01*
X792974Y565493D02*
X792974D01*
X788224Y558000D02*
Y560743D01*
X784474Y556250D02*
X786474D01*
X807212Y553250D02*
X813993D01*
X780837D02*
X784474D01*
X807212Y556250D02*
X812750D01*
X782080D02*
X784474D01*
X813993Y553250D02*
X818993Y558250D01*
X812750Y556250D02*
X817750Y561250D01*
X856875Y526875D02*
X866750Y517000D01*
X851757Y531993D02*
X856875Y526875D01*
X844686Y527397D02*
X849282Y531993D01*
X844686Y527397D02*
Y527397D01*
X842211Y529872D02*
X846807Y534468D01*
X843979Y539771D02*
X846807Y536943D01*
X842250Y541500D02*
X843979Y539771D01*
X878390Y505750D02*
X881750Y502390D01*
X877312Y505750D02*
X878390D01*
X877312Y508750D02*
X879632D01*
X866750Y517000D02*
X887500D01*
X867993Y520000D02*
X888743D01*
X771024Y570712D02*
X772595Y569141D01*
Y561492D02*
Y569141D01*
X771024Y570712D02*
Y571226D01*
X865750Y539343D02*
X871343Y533750D01*
X874938Y529500D02*
X875750D01*
X871343Y533750D02*
X873688D01*
X874938Y535000D02*
X875750D01*
X873688Y530750D02*
X874938Y529500D01*
X870100Y530750D02*
X873688D01*
X862750Y538101D02*
X870100Y530750D01*
X873688Y533750D02*
X874938Y535000D01*
X772595Y561492D02*
X780837Y553250D01*
X775595Y562735D02*
X782080Y556250D01*
X775595Y562735D02*
Y566641D01*
X776181Y567226D01*
X782609D01*
X786524Y571141D01*
X754857Y523297D02*
X769460D01*
X750371Y517574D02*
Y518812D01*
X754857Y523297D01*
X749797Y517000D02*
X750371Y517574D01*
X769460Y523297D02*
X776007Y516750D01*
X770654Y526346D02*
X777250Y519750D01*
X749954Y531500D02*
X755108Y526346D01*
X770654D01*
X749797Y535000D02*
X749954Y534843D01*
Y531500D02*
Y534843D01*
X875250Y510000D02*
X876062D01*
X877312Y508750D01*
X875250Y504500D02*
X876062D01*
X877312Y505750D01*
X887500Y517000D02*
X894000Y510500D01*
X840836Y541500D02*
X842250D01*
X836824Y534574D02*
Y537488D01*
X836250Y534000D02*
X836824Y534574D01*
Y537488D02*
X840836Y541500D01*
Y544500D02*
X843493D01*
X836824Y548512D02*
X840836Y544500D01*
X836824Y548512D02*
Y551426D01*
X836250Y552000D02*
X836824Y551426D01*
X786524Y571141D02*
X789938D01*
X790024Y571226D01*
X817750Y561250D02*
X848743D01*
X865750Y539343D02*
Y544243D01*
X848743Y561250D02*
X865750Y544243D01*
X818993Y558250D02*
X847500D01*
X862750Y538101D02*
Y543000D01*
X847500Y558250D02*
X862750Y543000D01*
X854125Y510375D02*
X870007Y494493D01*
Y484336D02*
Y494493D01*
X870593Y483750D02*
X872938D01*
X874188Y485000D01*
X875000D01*
X870007Y484336D02*
X870593Y483750D01*
X826250Y519750D02*
X835625Y510375D01*
X854125D01*
X777250Y519750D02*
X826250D01*
X867007Y483093D02*
X869351Y480750D01*
X872938D02*
X874188Y479500D01*
X869351Y480750D02*
X872938D01*
X867007Y483093D02*
Y493250D01*
X874188Y479500D02*
X875000D01*
X852882Y507375D02*
X867007Y493250D01*
X834382Y507375D02*
X852882D01*
X776007Y516750D02*
X825007D01*
X834382Y507375D01*
X840009Y467309D02*
Y494348D01*
X843009Y467309D02*
Y494348D01*
X803611Y503611D02*
X806782Y501451D01*
X806919Y501339D02*
X806923Y501334D01*
X808229Y500384D02*
X809595Y499765D01*
X809474Y503113D02*
X810827Y502500D01*
X807500Y507500D02*
X808812Y503824D01*
X809045Y503455D02*
X809189Y503311D01*
X809043Y503457D02*
X809045Y503455D01*
X810834Y502497D02*
X814660Y500762D01*
X806923Y501334D02*
X807073Y501185D01*
X809605Y499760D02*
X813251Y498107D01*
X813844Y497838D01*
X814660Y500762D02*
X822262D01*
X814255Y497750D02*
X823078D01*
X837484Y460127D02*
X838367Y461010D01*
X835370Y462256D02*
X836245Y463131D01*
X830034Y458966D02*
X834666D01*
X838373Y461016D02*
X838670Y461313D01*
X836252Y463137D02*
X836549Y463434D01*
X830034Y461966D02*
X834666D01*
X836555Y463441D02*
X839719Y466605D01*
X838677Y461320D02*
X841844Y464487D01*
X822399Y466601D02*
Y468510D01*
X825399Y466601D02*
Y468510D01*
X826822Y503666D02*
X833690D01*
X836628Y502389D02*
X841853Y497161D01*
X825243Y499500D02*
X826118Y500376D01*
X823122Y501622D02*
X824005Y502505D01*
X826822Y500666D02*
X833686D01*
X834331Y500423D02*
X834446Y500324D01*
X834501Y500274D02*
X839723Y495048D01*
X836291Y502694D02*
X836412Y502590D01*
X823782Y498040D02*
X825237Y499494D01*
X822262Y500762D02*
X823115Y501615D01*
X822399Y470437D02*
X822399Y468510D01*
X818196Y475054D02*
X822111Y471139D01*
X825399Y468510D02*
Y470437D01*
X813175Y474372D02*
X817262Y475321D01*
X812497Y477295D02*
X816584Y478243D01*
X807111Y474889D02*
X811721Y477028D01*
X812002Y473645D02*
X812835Y474221D01*
X820317Y477176D02*
X824238Y473255D01*
X811000Y471000D02*
X812002Y473645D01*
X821320Y495000D02*
X824668Y495000D01*
X817234Y492000D02*
X821305Y492000D01*
X821305D02*
X824654Y492000D01*
X824669Y495000D02*
X828857Y494998D01*
X817238Y495000D02*
X821305Y495000D01*
X821078Y484000D02*
X828796Y484000D01*
X816619Y492000D02*
X817225Y492000D01*
X824654Y492000D02*
X828855Y491998D01*
X821078Y487000D02*
X828796Y487000D01*
X820333Y487000D02*
X821078D01*
X816619Y495000D02*
X817225Y495000D01*
X820324Y484000D02*
X821078D01*
X791697Y495468D02*
X791787Y494560D01*
X794635Y492000D02*
X795519Y492000D01*
X791557Y496884D02*
X791697Y495468D01*
X795519Y492000D02*
X816619D01*
X794543Y497178D02*
X794668Y495911D01*
X794565Y497503D02*
X794636Y497808D01*
X795694Y495000D02*
X816619D01*
X794546Y499960D02*
X794558Y499923D01*
X794588Y500671D02*
X795750Y503250D01*
X791644Y498189D02*
X791717Y498500D01*
X791684Y499060D02*
X791696Y499022D01*
X791557Y496886D02*
X791557Y496884D01*
X790250Y503250D02*
X791412Y500671D01*
X785067Y484000D02*
X820315D01*
X785067Y487000D02*
X820324D01*
X776755Y477724D02*
X784448Y483786D01*
X776594Y477565D02*
X776623Y477597D01*
X776594Y477565D02*
X776594Y477565D01*
X776413Y476302D02*
X777889Y473889D01*
X773891Y473773D02*
X774000Y470000D01*
X774540Y479831D02*
X774852Y480046D01*
X774899Y480080D02*
X782592Y486142D01*
X770144Y477598D02*
X771699Y480179D01*
X767574Y479147D02*
X769129Y481727D01*
X769314Y482022D02*
X772557Y486982D01*
X771825Y480380D02*
X775068Y485340D01*
X770000Y465249D02*
Y477093D01*
X767000Y465249D02*
Y477093D01*
X775717Y487514D02*
Y499289D01*
X772717Y487514D02*
Y499289D01*
X770293Y464542D02*
X774408Y460426D01*
X768172Y462421D02*
X772287Y458305D01*
X799362Y458316D02*
X800216Y459171D01*
X775115Y457133D02*
X796522D01*
X789750Y474990D02*
Y475036D01*
X789750Y475040D02*
Y476600D01*
X794912Y477704D02*
X800731Y471885D01*
X792750Y475040D02*
Y476593D01*
X797033Y479826D02*
X802852Y474007D01*
X804024Y464635D02*
Y471178D01*
X801024Y464635D02*
Y471178D01*
X792750Y474990D02*
Y475026D01*
X792838Y474579D02*
X794000Y472000D01*
X788500D02*
X789662Y474579D01*
X775115Y460133D02*
X778008D01*
X779758Y461883D02*
Y464283D01*
X781508Y466033D02*
X781508D01*
X783258Y461883D02*
Y464283D01*
X785008Y460133D02*
X785008D01*
X786758Y461883D02*
Y464551D01*
X788508Y466300D02*
X788508D01*
X790258Y461883D02*
Y464551D01*
X792008Y460133D02*
X796008D01*
X796522D01*
X800229Y459184D02*
X801535Y460489D01*
X798108Y461305D02*
X799413Y462610D01*
X797226Y460423D02*
X798101Y461298D01*
X774938Y502901D02*
X774939Y502902D01*
X775079Y503012D02*
X777861Y505639D01*
X776848Y500502D02*
X781750Y501750D01*
X776175Y500129D02*
X776555Y500374D01*
X774548Y502649D02*
X774938Y502901D01*
X801541Y460495D02*
X802849Y461803D01*
X799420Y462617D02*
X800734Y463931D01*
X471000Y404362D02*
X473250Y402112D01*
Y371920D02*
Y402112D01*
Y371920D02*
X475500Y369670D01*
X307000Y571899D02*
Y592863D01*
X309000Y549343D02*
Y565657D01*
X304000Y594105D02*
X314247Y604352D01*
X304000Y570657D02*
X309000Y565657D01*
X307000Y571899D02*
X312000Y566899D01*
X304710Y540811D02*
X312000Y548101D01*
X307000Y592863D02*
X317247Y603109D01*
X304000Y570657D02*
Y594105D01*
X301007Y541351D02*
X309000Y549343D01*
X312000Y548101D02*
Y566899D01*
X729212Y169997D02*
Y231747D01*
X716590Y305309D02*
X729212Y292688D01*
X713590Y304067D02*
X726212Y291445D01*
X725900Y230816D02*
Y260243D01*
X728900Y259001D02*
X729212Y259312D01*
X726212Y260555D02*
Y291445D01*
X728900Y232059D02*
Y259001D01*
X725900Y230816D02*
X726212Y230505D01*
X716590Y305309D02*
Y355750D01*
X728900Y232059D02*
X729212Y231747D01*
X726212Y168755D02*
Y230505D01*
X725900Y260243D02*
X726212Y260555D01*
X729212Y259312D02*
Y292688D01*
X383000Y228350D02*
X388163D01*
X393000Y233187D01*
Y246500D01*
X396044Y271044D02*
Y280599D01*
X395868Y280775D02*
X396044Y280599D01*
X395868Y280775D02*
Y282111D01*
X395294Y282685D02*
X395868Y282111D01*
X384000Y255500D02*
X393000Y246500D01*
X384000Y255500D02*
Y264894D01*
X389041Y269935D01*
X394935D01*
X396044Y271044D01*
X713590Y321500D02*
Y335513D01*
X708835Y319750D02*
X711840D01*
X707085Y318000D02*
Y318000D01*
X708835Y316250D02*
X711840D01*
X713590Y314000D02*
Y314500D01*
Y335513D02*
Y356992D01*
Y304067D02*
Y314000D01*
X295993Y576268D02*
Y588686D01*
X293916Y574518D02*
X294243D01*
X292166Y572767D02*
Y572767D01*
X293916Y571017D02*
X294243D01*
X295993Y569268D02*
Y569268D01*
X293500Y567518D02*
X294243D01*
X291750Y565768D02*
Y565768D01*
X293500Y564017D02*
X294243D01*
X295993Y561767D02*
Y562268D01*
Y588686D02*
Y598363D01*
Y552780D02*
Y561767D01*
X287247Y611352D02*
Y687625D01*
X304007Y540108D02*
X304710Y540811D01*
X304007Y525893D02*
Y540108D01*
X305757Y524143D02*
X313750D01*
X315500Y522393D02*
Y522393D01*
X305757Y520643D02*
X313750D01*
X304007Y514893D02*
Y518893D01*
Y512436D02*
Y514893D01*
X317247Y603109D02*
Y608153D01*
X317750Y647000D02*
X321021D01*
X326000Y650515D02*
Y650889D01*
X324289Y648803D02*
X326000Y650515D01*
X336000Y610657D02*
Y636264D01*
X321021Y647000D02*
X333000Y635021D01*
X324289Y647975D02*
X336000Y636264D01*
X324289Y647975D02*
Y648803D01*
X428075Y453710D02*
X445785Y436000D01*
X471000Y404362D02*
Y409862D01*
X445785Y436000D02*
X451250Y430535D01*
X410500Y496651D02*
X411064Y496087D01*
X419250Y469901D02*
X428075Y461076D01*
X410500Y496651D02*
Y508854D01*
X411064Y496087D02*
Y496087D01*
X419250Y469901D02*
Y487901D01*
X411064Y496087D02*
X419250Y487901D01*
X412750Y511104D02*
Y511554D01*
X428075Y453710D02*
Y461076D01*
X410500Y508854D02*
X412750Y511104D01*
X451250Y429612D02*
X471000Y409862D01*
X451250Y429612D02*
Y430535D01*
X475500Y261900D02*
Y369670D01*
X752000Y118000D02*
Y142966D01*
X744243Y106000D02*
X755000Y116757D01*
X726212Y168755D02*
X752000Y142966D01*
X729212Y169997D02*
X755000Y144209D01*
X743000Y109000D02*
X752000Y118000D01*
X755000Y116757D02*
Y144209D01*
X706100Y109000D02*
X743000D01*
X707343Y106000D02*
X744243D01*
X483676Y43000D02*
X644343D01*
X643101Y46000D02*
X706100Y109000D01*
X484918Y46000D02*
X643101D01*
X644343Y43000D02*
X707343Y106000D01*
X456836Y48075D02*
X482843D01*
X456836Y45075D02*
X481601D01*
X313521Y499076D02*
X318000Y503555D01*
X321000Y502312D02*
Y595657D01*
X318000Y503555D02*
Y596899D01*
X314763Y496076D02*
X321000Y502312D01*
X301007Y511193D02*
X303351Y508850D01*
X317247Y608153D02*
X324593Y615500D01*
X301007Y511193D02*
Y541351D01*
X721121Y361210D02*
X722586Y359746D01*
X716590Y355750D02*
X719050Y358210D01*
X720465Y348546D02*
Y357624D01*
X720090Y348171D02*
X720465Y348546D01*
X481601Y45075D02*
X483676Y43000D01*
X719050Y358210D02*
X719879D01*
X720465Y357624D01*
X454750Y43250D02*
X455011D01*
X456836Y45075D01*
X713590Y356992D02*
X717808Y361210D01*
X722586Y359746D02*
X723414D01*
X482843Y48075D02*
X484918Y46000D01*
X723414Y359746D02*
X729623Y365954D01*
X717808Y361210D02*
X721121D01*
X454750Y49900D02*
X455011D01*
X456836Y48075D01*
X458300Y244700D02*
X475500Y261900D01*
X502000Y169000D02*
Y199657D01*
X321000Y595657D02*
X336000Y610657D01*
X311725Y496076D02*
X314763D01*
X310481Y494831D02*
X311725Y496076D01*
X309669Y494831D02*
X310481D01*
X333000Y611899D02*
Y635021D01*
X318000Y596899D02*
X333000Y611899D01*
X310021Y500320D02*
X310832D01*
X312077Y499076D01*
X313521D01*
X303351Y508850D02*
X306938D01*
X314247Y609396D02*
X323350Y618500D01*
X306938Y511850D02*
X308188Y513100D01*
X304007Y512436D02*
X304593Y511850D01*
X291812Y553444D02*
X293062Y552194D01*
X284247Y688868D02*
X295031Y699653D01*
X313788Y698695D02*
X320919D01*
X322230Y700005D01*
X291000Y553444D02*
X291812D01*
X322230Y700005D02*
X323005D01*
X287247Y687625D02*
X296274Y696653D01*
X320820Y694220D02*
X321431D01*
X291812Y547944D02*
X293062Y549194D01*
X312545Y695695D02*
X319345D01*
X320820Y694220D01*
X311588Y696653D02*
X312545Y695695D01*
X291000Y547944D02*
X291812D01*
X295031Y699653D02*
X312830D01*
X296274Y696653D02*
X311588D01*
X298993Y551537D02*
Y599606D01*
X284247Y610109D02*
Y688868D01*
X295407Y552194D02*
X295993Y552780D01*
X312830Y699653D02*
X313788Y698695D01*
X293062Y549194D02*
X296649D01*
X287247Y611352D02*
X298993Y599606D01*
X296649Y549194D02*
X298993Y551537D01*
X284247Y610109D02*
X295993Y598363D01*
X293062Y552194D02*
X295407D01*
X304593Y511850D02*
X306938D01*
X308188Y513100D02*
X309000D01*
X326938Y615500D02*
X328188Y614250D01*
X324593Y615500D02*
X326938D01*
X328188Y614250D02*
X329000D01*
X306938Y508850D02*
X308188Y507600D01*
X314247Y604352D02*
Y609396D01*
X308188Y507600D02*
X309000D01*
X328188Y619750D02*
X329000D01*
X326938Y618500D02*
X328188Y619750D01*
X323350Y618500D02*
X326938D01*
X528000Y225657D02*
Y253000D01*
X502000Y199657D02*
X528000Y225657D01*
D103*
X915994Y880697D02*
G03*
X909356Y886883I-17994J-12658D01*
G01*
X920000Y868098D02*
G03*
X915994Y880697I-22000J-58D01*
G01*
X909356Y886883D02*
G03*
X898151Y890040I-11356J-18843D01*
G01*
X920000Y774999D02*
G03*
X908706Y769247I2000J-17889D01*
G01*
D02*
G03*
X904000Y757111I13294J-12136D01*
G01*
X729884Y883772D02*
G03*
X731782Y890036I-15991J8264D01*
G01*
X723279Y876677D02*
G03*
X729884Y883772I-9385J15359D01*
G01*
X717494Y874400D02*
G03*
X723279Y876677I-3601J17636D01*
G01*
X714287Y874041D02*
G03*
X717494Y874400I-394J17996D01*
G01*
X911965Y133097D02*
G03*
X920000Y130152I10035J14943D01*
G01*
X917041Y21020D02*
G03*
X920000Y32040I-19041J11020D01*
G01*
X910979Y14276D02*
G03*
X917041Y21020I-12979J17764D01*
G01*
X904000Y147992D02*
G03*
X905844Y140105I18000J48D01*
G01*
D02*
G03*
X911965Y133097I16156J7936D01*
G01*
X898000Y10040D02*
G03*
X910979Y14276I0J22000D01*
G01*
X728231Y19061D02*
G03*
X721864Y24232I-14231J-11021D01*
G01*
X731889Y10040D02*
G03*
X728231Y19061I-17889J-2000D01*
G01*
X721864Y24232D02*
G03*
X714285Y26038I-7864J-16192D01*
G01*
X198005Y890036D02*
G03*
X202958Y879519I17889J2000D01*
G01*
D02*
G03*
X215608Y874038I12935J12518D01*
G01*
X31627Y890037D02*
G03*
X19612Y886220I373J-21997D01*
G01*
D02*
G03*
X13326Y879672I12388J-18180D01*
G01*
D02*
G03*
X10000Y868040I18674J-11632D01*
G01*
X215606Y26036D02*
G03*
X207965Y24147I394J-17996D01*
G01*
D02*
G03*
X200994Y17982I8035J-16107D01*
G01*
D02*
G03*
X198111Y10040I15006J-9942D01*
G01*
X10000Y32040D02*
G03*
X12068Y22729I22000J0D01*
G01*
D02*
G03*
X17524Y15474I19932J9311D01*
G01*
X25439Y11041D02*
G03*
X32000Y10040I6561J20999D01*
G01*
X17524Y15474D02*
G03*
X25439Y11041I14476J16566D01*
G01*
X920000Y868098D02*
Y868098D01*
Y850000D02*
Y868098D01*
Y774999D02*
Y850000D01*
X893000D02*
X920000D01*
X920000Y51000D02*
Y130152D01*
Y32040D02*
Y51000D01*
X894000D02*
X920000D01*
X893000Y50000D02*
X894000Y51000D01*
X9999Y32173D02*
Y94565D01*
X10000Y817127D02*
Y868040D01*
X31745Y890036D02*
X198005D01*
X32000Y10040D02*
X198111D01*
X369872Y26040D02*
X509746D01*
X420147Y874036D02*
X561902D01*
X904000Y311019D02*
Y329019D01*
X904000Y338019D02*
Y446019D01*
X904000Y455019D02*
Y572019D01*
X904000Y581019D02*
Y689018D01*
X904000Y698018D02*
Y757056D01*
X731889Y10040D02*
X898000D01*
X904000Y148950D02*
Y203019D01*
X904000Y212019D02*
Y306050D01*
X570902Y874036D02*
X713993D01*
X731782Y890036D02*
X897893D01*
X215900Y26040D02*
X360872D01*
X723279Y876677D02*
Y877428D01*
X714287Y874041D02*
X714397Y874150D01*
X714897D01*
X904000Y689018D02*
X904000Y698018D01*
X904000Y572019D02*
X904000Y581019D01*
X561902Y874036D02*
X570902Y874036D01*
X904000Y446019D02*
X904000Y455019D01*
X904000Y329019D02*
X904000Y338019D01*
X903829Y311019D02*
X904000D01*
X904000Y203019D02*
X904000Y212019D01*
X903989Y148950D02*
X904000D01*
X903919Y149020D02*
X903989Y148950D01*
X711872Y26042D02*
X713994Y26042D01*
X702872Y26042D02*
X711872Y26042D01*
X693872Y26042D02*
X702872Y26042D01*
X684872Y26042D02*
X693872Y26042D01*
X675872Y26042D02*
X684872Y26042D01*
X666872Y26042D02*
X675872Y26042D01*
X657872Y26042D02*
X666872Y26042D01*
X648872Y26041D02*
X657872Y26042D01*
X639872Y26041D02*
X648872Y26041D01*
X630872Y26041D02*
X639872Y26041D01*
X621872Y26041D02*
X630872Y26041D01*
X620260Y26041D02*
X621872Y26041D01*
X612872Y26041D02*
X620260Y26041D01*
X603872Y26041D02*
X612872Y26041D01*
X594872Y26041D02*
X603872Y26041D01*
X585872Y26041D02*
X594872Y26041D01*
X576872Y26041D02*
X585872Y26041D01*
X567872Y26041D02*
X576872Y26041D01*
X558872Y26040D02*
X567872Y26041D01*
X549872Y26040D02*
X558872Y26040D01*
X540872Y26040D02*
X549872Y26040D01*
X531872Y26040D02*
X540872Y26040D01*
X522872Y26040D02*
X531872Y26040D01*
X513872Y26040D02*
X522872Y26040D01*
X509746Y26040D02*
X513872Y26040D01*
X417902Y874036D02*
X420147Y874036D01*
X408902Y874036D02*
X417902Y874036D01*
X408538Y874036D02*
X408902D01*
X406751Y874036D02*
X408538Y874036D01*
X400266Y874036D02*
X406751Y874036D01*
X399902Y874036D02*
X400266D01*
X390902Y874036D02*
X399902Y874036D01*
X381902Y874036D02*
X390902Y874036D01*
X381190Y874036D02*
X381902D01*
X372902Y874036D02*
X381190Y874036D01*
X363902Y874036D02*
X372902Y874036D01*
X354902Y874035D02*
X363902Y874036D01*
X345902Y874035D02*
X354902Y874035D01*
X336902Y874035D02*
X345902Y874035D01*
X327902Y874035D02*
X336902Y874035D01*
X318902Y874035D02*
X327902Y874035D01*
X309902Y874035D02*
X318902Y874035D01*
X300902Y874035D02*
X309902Y874035D01*
X291902Y874035D02*
X300902Y874035D01*
X282902Y874035D02*
X291902Y874035D01*
X273902Y874035D02*
X282902Y874035D01*
X264902Y874035D02*
X273902Y874035D01*
X255902Y874035D02*
X255902Y874035D01*
X264902D01*
X246902Y874035D02*
X255902Y874035D01*
X237902Y874034D02*
X246902Y874035D01*
X228902Y874034D02*
X237902Y874034D01*
X264902Y873864D02*
Y874035D01*
X255902Y873864D02*
Y874035D01*
X219902Y874034D02*
X228902Y874034D01*
X215899Y874034D02*
X219902Y874034D01*
X360872Y26040D02*
X369872Y26040D01*
D196*
X759856Y476624D02*
G03*
X759530Y475041I3674J-1583D01*
G01*
X825024Y425570D02*
G03*
X823857Y428393I-4000J0D01*
G01*
X811181Y441012D02*
G03*
X808781Y441813I-2400J-3200D01*
G01*
X811603Y440648D02*
G03*
X811181Y441012I-2822J-2835D01*
G01*
X777833Y442974D02*
G03*
X778251Y442612I2818J2839D01*
G01*
X777832Y442975D02*
G03*
X777833Y442974I2814J2842D01*
G01*
X778251Y442612D02*
G03*
X780651Y441813I2400J3200D01*
G01*
X760330Y460534D02*
G03*
X760691Y460116I3200J2400D01*
G01*
X759530Y462934D02*
G03*
X760330Y460534I4000J0D01*
G01*
X760691Y460116D02*
G03*
X760692Y460115I2844J2813D01*
G01*
X759856Y476624D02*
X763250Y484500D01*
X759530Y462934D02*
Y475041D01*
X811603Y440648D02*
X823857Y428393D01*
X780651Y441813D02*
X808781D01*
X825024Y420000D02*
Y425570D01*
X777823Y442984D02*
X777832Y442975D01*
X760702Y460106D02*
X777823Y442984D01*
X760692Y460115D02*
X760702Y460106D01*
X247000Y406778D02*
Y421970D01*
X569250Y423172D02*
X588590Y403832D01*
Y300368D02*
Y403832D01*
X577350Y286500D02*
Y289012D01*
X584500Y296162D01*
X575500Y284650D02*
X577350Y286500D01*
X575500Y259737D02*
Y284650D01*
X564212Y243838D02*
Y248449D01*
X545500Y225126D02*
X564212Y243838D01*
Y248449D02*
X575500Y259737D01*
X545500Y101500D02*
Y225126D01*
X248000Y436985D02*
Y438633D01*
X249089Y439722D01*
Y444278D01*
X248000Y445367D02*
X249089Y444278D01*
X248000Y445367D02*
Y448000D01*
X583000Y824000D02*
X591000Y832000D01*
Y849000D01*
X155042Y653000D02*
X169000Y639042D01*
Y603000D02*
Y639042D01*
X332435Y90435D02*
X364614Y122614D01*
X253247Y335247D02*
X257500Y339500D01*
X229544Y311544D02*
X253247Y335247D01*
X364614Y122614D02*
X366000Y124000D01*
X229544Y97364D02*
Y311544D01*
Y97364D02*
X236473Y90435D01*
X332435D01*
X245500Y434485D02*
X248000Y436985D01*
X253750Y354000D02*
X257500Y350250D01*
X245500Y423471D02*
Y434485D01*
X237500Y378500D02*
X253750Y362250D01*
X237500Y397278D02*
X247000Y406778D01*
X257500Y339500D02*
Y350250D01*
X253750Y354000D02*
Y362250D01*
X237500Y378500D02*
Y397278D01*
X245500Y423471D02*
X247000Y421970D01*
X728467Y134483D02*
X732950Y130000D01*
X728467Y134483D02*
Y147533D01*
X685680Y190320D02*
X728467Y147533D01*
X667680Y190320D02*
X685680D01*
X616000Y242000D02*
X667680Y190320D01*
X616000Y242000D02*
Y284303D01*
X617178Y285481D01*
Y290037D01*
X614000Y293214D02*
X617178Y290037D01*
X614000Y293214D02*
Y318371D01*
X561250Y454363D02*
Y497306D01*
X565500Y501556D01*
X561250Y454363D02*
X569250Y446363D01*
X565500Y501556D02*
Y544500D01*
X570000Y549000D01*
X569250Y423172D02*
Y446363D01*
X584500Y296278D02*
X588590Y300368D01*
X508000Y64000D02*
X545500Y101500D01*
X584500Y296162D02*
Y296278D01*
D197*
X732000Y461000D02*
X760900Y432100D01*
X756317Y327365D02*
Y356362D01*
X737300Y441643D02*
X757300Y421643D01*
Y357346D02*
Y421643D01*
X756317Y356362D02*
X757300Y357346D01*
X759917Y332418D02*
X760900Y333401D01*
Y432100D01*
X852000Y805081D02*
X855300Y801781D01*
X852000Y805081D02*
Y824400D01*
X838200Y838200D02*
X852000Y824400D01*
X855300Y736219D02*
Y801781D01*
X795000Y731919D02*
Y757000D01*
X800000Y762000D02*
Y825400D01*
X795000Y757000D02*
X800000Y762000D01*
X741700Y678619D02*
X795000Y731919D01*
X800000Y825400D02*
X812800Y838200D01*
X738100Y709922D02*
X774000Y745823D01*
X762000Y838200D02*
X774000Y826200D01*
Y745823D02*
Y826200D01*
X749000Y843000D02*
X756000Y850000D01*
X775600D01*
X749000Y799997D02*
Y843000D01*
Y799997D02*
X752300Y796697D01*
X775600Y850000D02*
X787400Y838200D01*
X408902Y873866D02*
Y874036D01*
X408538D02*
X408902Y874400D01*
X399902D02*
X400266Y874036D01*
X408367Y873866D02*
X408538Y874036D01*
X399902Y873865D02*
Y874036D01*
X400437Y873866D02*
X408367D01*
X400266Y874036D02*
X400437Y873866D01*
X811000Y700000D02*
X819081D01*
X801762Y690762D02*
X811000Y700000D01*
X819081D02*
X855300Y736219D01*
X801762Y682681D02*
Y690762D01*
X754081Y635000D02*
X801762Y682681D01*
X571000Y405000D02*
X578550Y397450D01*
X572550Y291000D02*
X578550Y297000D01*
Y397450D01*
X759630Y284792D02*
Y325587D01*
X756030Y327078D02*
X756317Y327365D01*
X756030Y303949D02*
Y327078D01*
X759630Y325587D02*
X759917Y325873D01*
Y332418D01*
X562700Y278638D02*
X572550Y288488D01*
Y291000D01*
X737300Y441643D02*
Y442781D01*
X733643Y445300D02*
X734781D01*
X737300Y442781D01*
X726000Y452943D02*
X733643Y445300D01*
X779700Y408300D02*
X791755Y396245D01*
Y217755D02*
Y396245D01*
X843300Y249381D02*
Y264719D01*
X833700Y298692D02*
Y368381D01*
X845661Y267080D02*
Y286731D01*
X843300Y264719D02*
X845661Y267080D01*
X833700Y298692D02*
X845661Y286731D01*
X839119Y245200D02*
X840781D01*
X835700Y241781D02*
X839119Y245200D01*
X843300Y247719D02*
Y249381D01*
X840781Y245200D02*
X843300Y247719D01*
X835700Y200300D02*
Y241781D01*
X754209Y302128D02*
X756030Y303949D01*
X754209Y284463D02*
Y302128D01*
X559412Y247412D02*
Y250438D01*
X562700Y253725D02*
Y278638D01*
X546000Y234000D02*
X559412Y247412D01*
Y250438D02*
X562700Y253725D01*
X732012Y231988D02*
X738000Y226000D01*
X731700Y233219D02*
Y242781D01*
Y233219D02*
X732012Y232907D01*
Y231988D02*
Y232907D01*
X731700Y242781D02*
X733861Y244942D01*
Y348733D01*
X779700Y408300D02*
Y411300D01*
X772200Y428719D02*
Y439484D01*
X785781Y416300D02*
X833700Y368381D01*
X784619Y416300D02*
X785781D01*
X772200Y428719D02*
X784619Y416300D01*
X768600Y422400D02*
X779700Y411300D01*
X649700Y311781D02*
X650790Y312871D01*
X649700Y308219D02*
X652219Y305700D01*
X653219D01*
X649700Y308219D02*
Y311781D01*
X653219Y305700D02*
X666619Y292300D01*
X650790Y312871D02*
Y393790D01*
X654000Y397000D01*
X672300Y286619D02*
Y289781D01*
X666619Y292300D02*
X669781D01*
X672300Y286619D02*
X674619Y284300D01*
X669781Y292300D02*
X672300Y289781D01*
X643700Y279219D02*
Y391051D01*
X768600Y422400D02*
Y431400D01*
X725000Y486684D02*
Y496000D01*
Y486684D02*
X772200Y439484D01*
X697117Y458036D02*
Y470488D01*
X659790Y420709D02*
X697117Y458036D01*
X729000Y471000D02*
X768600Y431400D01*
X654300Y241300D02*
Y268619D01*
X650000Y237000D02*
X654300Y241300D01*
X643700Y391051D02*
X645000Y392351D01*
X676880Y284300D02*
X707009Y254171D01*
X694700Y335490D02*
X701090Y329100D01*
X694700Y408751D02*
X699366Y413417D01*
X694700Y335490D02*
Y408751D01*
X751000Y276162D02*
X759630Y284792D01*
X726000Y452943D02*
Y453000D01*
X742300Y272553D02*
X754209Y284463D01*
X835700Y200300D02*
X850000Y186000D01*
X729723Y352871D02*
X733861Y348733D01*
X742300Y224219D02*
Y272553D01*
X737700Y171300D02*
Y219619D01*
X738100Y622900D02*
Y709922D01*
X659790Y334971D02*
Y420709D01*
Y334971D02*
X664090Y330671D01*
X645000Y392351D02*
Y393000D01*
X674619Y284300D02*
X676880D01*
X707009Y254171D02*
X707090D01*
X643700Y279219D02*
X654300Y268619D01*
X751000Y163000D02*
Y276162D01*
X767000Y286081D02*
Y398000D01*
X761090Y280171D02*
X767000Y286081D01*
X786000Y212000D02*
X791755Y217755D01*
X737700Y219619D02*
X742300Y224219D01*
X737700Y171300D02*
X741000Y168000D01*
X741700Y630300D02*
Y678619D01*
X734500Y607500D02*
X740000Y602000D01*
X752300Y751381D02*
Y796697D01*
X734500Y733581D02*
X752300Y751381D01*
X734500Y607500D02*
Y733581D01*
X741700Y630300D02*
X746000Y626000D01*
X738100Y622900D02*
X746000Y615000D01*
Y635000D02*
X754081D01*
D201*
X670400Y810000D02*
D03*
X543400D02*
D03*
X645000D02*
D03*
X619600D02*
D03*
X568800D02*
D03*
X594200D02*
D03*
X695800D02*
D03*
X762000Y812800D02*
D03*
X787400D02*
D03*
X812800D02*
D03*
X762000Y838200D02*
D03*
X787400D02*
D03*
X812800D02*
D03*
X762000Y863600D02*
D03*
X787400D02*
D03*
X812800D02*
D03*
D202*
X35700Y723000D02*
D03*
X61100D02*
D03*
Y519800D02*
D03*
X35700D02*
D03*
Y494400D02*
D03*
X61100D02*
D03*
X111900Y596000D02*
D03*
X86500D02*
D03*
Y418200D02*
D03*
X111900Y164200D02*
D03*
Y265800D02*
D03*
Y240400D02*
D03*
Y316600D02*
D03*
Y291200D02*
D03*
X35700Y443600D02*
D03*
X61100D02*
D03*
X111900Y367400D02*
D03*
X86500D02*
D03*
X111900Y646800D02*
D03*
Y621400D02*
D03*
X61100Y367400D02*
D03*
X35700D02*
D03*
Y418200D02*
D03*
X61100D02*
D03*
X86500Y443600D02*
D03*
Y672200D02*
D03*
Y697600D02*
D03*
X111900D02*
D03*
Y672200D02*
D03*
Y748400D02*
D03*
Y723000D02*
D03*
Y469000D02*
D03*
Y443600D02*
D03*
Y418200D02*
D03*
X86500Y392800D02*
D03*
X111900D02*
D03*
X86500Y164200D02*
D03*
Y138800D02*
D03*
Y469000D02*
D03*
Y316600D02*
D03*
X111900Y342000D02*
D03*
X86500D02*
D03*
X111900Y545200D02*
D03*
X86500D02*
D03*
X111900Y570600D02*
D03*
X86500D02*
D03*
Y621400D02*
D03*
Y646800D02*
D03*
Y748400D02*
D03*
X111900Y773800D02*
D03*
X86500D02*
D03*
X111900Y189600D02*
D03*
X86500D02*
D03*
X111900Y215000D02*
D03*
X86500D02*
D03*
Y265800D02*
D03*
Y291200D02*
D03*
Y240400D02*
D03*
Y494400D02*
D03*
X111900D02*
D03*
Y519800D02*
D03*
X86500D02*
D03*
Y723000D02*
D03*
X35700Y240400D02*
D03*
Y265800D02*
D03*
Y215000D02*
D03*
X61100D02*
D03*
Y189600D02*
D03*
X35700Y164200D02*
D03*
Y138800D02*
D03*
Y773800D02*
D03*
X61100D02*
D03*
X35700Y748400D02*
D03*
X61100D02*
D03*
X35700Y646800D02*
D03*
Y621400D02*
D03*
Y570600D02*
D03*
X61100D02*
D03*
X35700Y545200D02*
D03*
X61100D02*
D03*
X35700Y469000D02*
D03*
Y392800D02*
D03*
Y342000D02*
D03*
X61100D02*
D03*
X35700Y316600D02*
D03*
X61100Y164200D02*
D03*
Y392800D02*
D03*
Y469000D02*
D03*
X35700Y189600D02*
D03*
X61100Y240400D02*
D03*
Y265800D02*
D03*
Y291200D02*
D03*
Y316600D02*
D03*
Y596000D02*
D03*
X35700D02*
D03*
X61100Y621400D02*
D03*
Y672200D02*
D03*
X35700Y291200D02*
D03*
X61100Y697600D02*
D03*
X35700D02*
D03*
X61100Y646800D02*
D03*
X35700Y672200D02*
D03*
D203*
X732950Y130000D02*
D03*
X517050D02*
D03*
D204*
X721200Y810000D02*
D03*
X838200Y812800D02*
D03*
Y838200D02*
D03*
Y863600D02*
D03*
D205*
X111900Y138800D02*
D03*
X61100D02*
D03*
D206*
X744233Y370253D02*
D03*
X731000Y389000D02*
D03*
X883000Y526000D02*
D03*
X879000Y462000D02*
D03*
X880000Y453000D02*
D03*
X879000Y412000D02*
D03*
X883000Y476000D02*
D03*
X882000Y513000D02*
D03*
X875000Y498000D02*
D03*
X882000Y539000D02*
D03*
X764000Y568000D02*
D03*
X745000Y539000D02*
D03*
X744528Y529962D02*
D03*
X746000Y512000D02*
D03*
X560000Y581000D02*
D03*
X915867Y880608D02*
D03*
X898250Y889888D02*
D03*
X909253Y886712D02*
D03*
X919391Y872327D02*
D03*
X889250Y889866D02*
D03*
X919829Y827337D02*
D03*
Y818337D02*
D03*
Y845337D02*
D03*
Y836337D02*
D03*
Y800337D02*
D03*
Y791337D02*
D03*
Y809337D02*
D03*
Y863337D02*
D03*
Y854337D02*
D03*
X909000Y803000D02*
D03*
X853250Y889866D02*
D03*
X862250D02*
D03*
X835250D02*
D03*
X844250D02*
D03*
X880250D02*
D03*
X871250D02*
D03*
X790250D02*
D03*
X799250D02*
D03*
X772250D02*
D03*
X781250D02*
D03*
X817250D02*
D03*
X826250D02*
D03*
X808250D02*
D03*
X825341Y794172D02*
D03*
X882000Y793000D02*
D03*
X816000Y794000D02*
D03*
X788000D02*
D03*
X919829Y782337D02*
D03*
X916575Y773947D02*
D03*
X909184Y768811D02*
D03*
X904767Y760969D02*
D03*
X903829Y752018D02*
D03*
Y734018D02*
D03*
Y725018D02*
D03*
Y743018D02*
D03*
X840750Y778000D02*
D03*
X840050Y740000D02*
D03*
X754250Y889866D02*
D03*
X736250D02*
D03*
X745250D02*
D03*
X763250D02*
D03*
X729410Y884016D02*
D03*
X723279Y877428D02*
D03*
X714897Y874150D02*
D03*
X705901Y873866D02*
D03*
X678901Y873866D02*
D03*
X687901D02*
D03*
X660901D02*
D03*
X669901D02*
D03*
X696901D02*
D03*
X705000Y845000D02*
D03*
X760000Y778000D02*
D03*
X696847Y726847D02*
D03*
X655750Y833000D02*
D03*
X655200Y765356D02*
D03*
X686847Y716847D02*
D03*
X903829Y689018D02*
D03*
Y680018D02*
D03*
Y707018D02*
D03*
Y698018D02*
D03*
Y653018D02*
D03*
Y644018D02*
D03*
Y671018D02*
D03*
Y662018D02*
D03*
Y716018D02*
D03*
Y635019D02*
D03*
X903829Y608018D02*
D03*
Y626018D02*
D03*
Y617019D02*
D03*
Y590019D02*
D03*
Y581019D02*
D03*
Y599019D02*
D03*
X872000Y621000D02*
D03*
X840050Y714000D02*
D03*
X841500Y590000D02*
D03*
X823000Y684000D02*
D03*
X816000Y694000D02*
D03*
X903829Y554019D02*
D03*
Y545019D02*
D03*
Y572019D02*
D03*
Y563019D02*
D03*
Y527019D02*
D03*
Y518019D02*
D03*
Y536019D02*
D03*
X903829Y500019D02*
D03*
Y491019D02*
D03*
Y509019D02*
D03*
Y482019D02*
D03*
Y473019D02*
D03*
X875000Y490500D02*
D03*
X815000Y565000D02*
D03*
X797024Y534000D02*
D03*
X792024Y529000D02*
D03*
X787024Y534000D02*
D03*
Y524000D02*
D03*
X873250Y524000D02*
D03*
X840000Y517000D02*
D03*
X815000Y505000D02*
D03*
X797024Y524000D02*
D03*
X800000Y499000D02*
D03*
X804000Y480000D02*
D03*
X786750Y498000D02*
D03*
X783000Y694000D02*
D03*
X708611Y695388D02*
D03*
X766000Y662000D02*
D03*
X686847Y656847D02*
D03*
X676847Y676847D02*
D03*
X656847Y716847D02*
D03*
Y686847D02*
D03*
Y666847D02*
D03*
X656847Y636847D02*
D03*
X706847Y586847D02*
D03*
X785000Y584000D02*
D03*
X686847Y616847D02*
D03*
X785000Y477000D02*
D03*
X775024Y543000D02*
D03*
X771000Y506000D02*
D03*
X748024Y491000D02*
D03*
X666847Y616847D02*
D03*
X624902Y873866D02*
D03*
X633901D02*
D03*
X606902D02*
D03*
X615901D02*
D03*
X642901D02*
D03*
X588901D02*
D03*
X597901D02*
D03*
X651901D02*
D03*
X611545Y832152D02*
D03*
X590000Y796000D02*
D03*
X552902Y873866D02*
D03*
X584000Y862000D02*
D03*
X579902Y873866D02*
D03*
X570902D02*
D03*
X561902D02*
D03*
X554000Y824000D02*
D03*
X651750Y748000D02*
D03*
X616847Y736847D02*
D03*
X626847Y706847D02*
D03*
X596847Y716847D02*
D03*
X596847Y696847D02*
D03*
X552000Y759000D02*
D03*
X566847Y706847D02*
D03*
X556847Y736847D02*
D03*
X534902Y873866D02*
D03*
X543902D02*
D03*
X516902D02*
D03*
X525902D02*
D03*
X534000Y849000D02*
D03*
X531876Y825761D02*
D03*
X518000Y814000D02*
D03*
X507902Y873866D02*
D03*
X498902D02*
D03*
X471902D02*
D03*
X480902D02*
D03*
X453902D02*
D03*
X462902D02*
D03*
X489902D02*
D03*
X453000Y813000D02*
D03*
X530000Y731000D02*
D03*
X487000Y765900D02*
D03*
X463000Y769000D02*
D03*
X468000Y751000D02*
D03*
X480000Y733000D02*
D03*
X475000D02*
D03*
X471000Y746000D02*
D03*
X646847Y686847D02*
D03*
X636847D02*
D03*
X626847Y676847D02*
D03*
X596847Y666847D02*
D03*
X586847Y656847D02*
D03*
X616847Y646847D02*
D03*
Y626847D02*
D03*
X606847Y636847D02*
D03*
X647000Y504000D02*
D03*
X645000Y530000D02*
D03*
X647000Y494000D02*
D03*
Y484000D02*
D03*
Y474000D02*
D03*
X636847Y596847D02*
D03*
X596847Y616847D02*
D03*
X596847Y596847D02*
D03*
X637000Y484000D02*
D03*
X607000Y494000D02*
D03*
X566847Y686847D02*
D03*
X556847Y636847D02*
D03*
X516666Y628666D02*
D03*
X492125Y665751D02*
D03*
X453000Y687000D02*
D03*
Y681000D02*
D03*
Y675000D02*
D03*
X497486Y665000D02*
D03*
X471250Y649702D02*
D03*
X556847Y606847D02*
D03*
X572450Y513750D02*
D03*
X518000Y620000D02*
D03*
X493500Y537000D02*
D03*
X527000Y521000D02*
D03*
X474250Y495000D02*
D03*
X470515Y468000D02*
D03*
X903829Y464019D02*
D03*
Y437019D02*
D03*
Y428019D02*
D03*
Y455019D02*
D03*
Y446019D02*
D03*
Y410019D02*
D03*
Y401019D02*
D03*
Y419019D02*
D03*
X875250Y436000D02*
D03*
X874500Y457000D02*
D03*
X903829Y392019D02*
D03*
X847500Y459750D02*
D03*
X816000Y467000D02*
D03*
X835400Y422300D02*
D03*
X842000Y412000D02*
D03*
X903829Y356019D02*
D03*
Y347019D02*
D03*
Y374019D02*
D03*
Y365019D02*
D03*
Y329019D02*
D03*
Y320019D02*
D03*
Y338019D02*
D03*
Y383019D02*
D03*
X811000Y363000D02*
D03*
X903829Y302019D02*
D03*
Y311019D02*
D03*
X840873Y297600D02*
D03*
X821000Y320000D02*
D03*
X801024Y451000D02*
D03*
X797024Y467000D02*
D03*
X800000Y425000D02*
D03*
X791024Y451000D02*
D03*
X782024D02*
D03*
X783000Y424000D02*
D03*
X733000Y441000D02*
D03*
X800300Y393068D02*
D03*
X784000Y412000D02*
D03*
X781500Y318000D02*
D03*
X773000Y312000D02*
D03*
X752017Y329146D02*
D03*
X751000Y305000D02*
D03*
X773000Y298000D02*
D03*
X747000Y300000D02*
D03*
X903829Y284019D02*
D03*
Y275019D02*
D03*
Y293019D02*
D03*
X903829Y266019D02*
D03*
Y158019D02*
D03*
X903919Y149020D02*
D03*
X903829Y176019D02*
D03*
Y167019D02*
D03*
Y248019D02*
D03*
Y239019D02*
D03*
Y257019D02*
D03*
Y221019D02*
D03*
Y212019D02*
D03*
Y230019D02*
D03*
X841361Y268861D02*
D03*
X903829Y194019D02*
D03*
Y185019D02*
D03*
Y203019D02*
D03*
X867920Y153653D02*
D03*
Y148653D02*
D03*
X862920D02*
D03*
X855920Y180653D02*
D03*
X862920Y153653D02*
D03*
X919829Y128666D02*
D03*
Y119666D02*
D03*
Y92666D02*
D03*
Y56666D02*
D03*
Y110666D02*
D03*
Y101666D02*
D03*
Y38666D02*
D03*
Y47666D02*
D03*
X906356Y140356D02*
D03*
X919829Y83666D02*
D03*
X912304Y133602D02*
D03*
X840595Y109806D02*
D03*
Y103806D02*
D03*
X919829Y74666D02*
D03*
Y65666D02*
D03*
X919681Y29667D02*
D03*
X916874Y21116D02*
D03*
X910898Y14387D02*
D03*
X902669Y10741D02*
D03*
X857685Y10210D02*
D03*
X866685D02*
D03*
X840000Y77000D02*
D03*
X848685Y10210D02*
D03*
X884685D02*
D03*
X893685D02*
D03*
X875685D02*
D03*
X839000Y265000D02*
D03*
X825700Y274067D02*
D03*
X839000Y249500D02*
D03*
X829000Y241000D02*
D03*
X786000Y272000D02*
D03*
X771000Y269000D02*
D03*
X802000Y226000D02*
D03*
X799000Y204000D02*
D03*
X736000Y241000D02*
D03*
Y235000D02*
D03*
X825000Y203000D02*
D03*
X822596Y103806D02*
D03*
Y109806D02*
D03*
X816596D02*
D03*
Y103806D02*
D03*
X816000Y77000D02*
D03*
X830685Y10210D02*
D03*
X839685D02*
D03*
X821685D02*
D03*
X812685D02*
D03*
X790000Y197000D02*
D03*
X772000Y110000D02*
D03*
X767685Y10210D02*
D03*
X776685D02*
D03*
X749685D02*
D03*
X758685D02*
D03*
X794685D02*
D03*
X803685D02*
D03*
X785685D02*
D03*
X731693Y10590D02*
D03*
X740685Y10210D02*
D03*
X727720Y18665D02*
D03*
X664090Y384171D02*
D03*
X674515Y341510D02*
D03*
X647000Y454000D02*
D03*
Y464000D02*
D03*
Y434000D02*
D03*
X637000D02*
D03*
X689000Y301000D02*
D03*
X668000Y288000D02*
D03*
X702579Y286421D02*
D03*
X678000Y156000D02*
D03*
X654000Y310000D02*
D03*
X632670Y291921D02*
D03*
X633000Y283000D02*
D03*
X661000Y231000D02*
D03*
X635500Y160000D02*
D03*
X597000Y464000D02*
D03*
X617000Y444000D02*
D03*
X575450Y438750D02*
D03*
X583450Y416750D02*
D03*
X627090Y370171D02*
D03*
X571000Y387000D02*
D03*
X522000Y378000D02*
D03*
X552000Y344000D02*
D03*
X539000Y366000D02*
D03*
X490000Y328069D02*
D03*
X462000Y307000D02*
D03*
X631000Y297000D02*
D03*
X594000Y288250D02*
D03*
X597000Y156000D02*
D03*
X569712Y246171D02*
D03*
X552000Y297000D02*
D03*
X492000Y295000D02*
D03*
X465000Y298000D02*
D03*
X476518Y209242D02*
D03*
X551000Y158000D02*
D03*
X497500Y156177D02*
D03*
X709000Y102000D02*
D03*
Y63000D02*
D03*
X711872Y26212D02*
D03*
X702872Y26212D02*
D03*
X648000Y123000D02*
D03*
X610000Y144000D02*
D03*
X625000Y130000D02*
D03*
X610000Y115000D02*
D03*
X693872Y26212D02*
D03*
X684872Y26212D02*
D03*
X675872Y26212D02*
D03*
X666872Y26212D02*
D03*
X657872Y26212D02*
D03*
X648872Y26212D02*
D03*
X639872Y26212D02*
D03*
X630872Y26212D02*
D03*
X621872Y26212D02*
D03*
X612872Y26212D02*
D03*
X720652Y21738D02*
D03*
X599000Y70000D02*
D03*
X603872Y26211D02*
D03*
X594872Y26211D02*
D03*
X585872Y26211D02*
D03*
X576872Y26211D02*
D03*
X558000Y130000D02*
D03*
X494000Y82000D02*
D03*
X485000D02*
D03*
X451000Y82000D02*
D03*
X567872Y26211D02*
D03*
X558872Y26211D02*
D03*
X549872Y26211D02*
D03*
X540872Y26211D02*
D03*
X531872Y26211D02*
D03*
X522872Y26211D02*
D03*
X513872Y26211D02*
D03*
X468872Y26210D02*
D03*
X477872D02*
D03*
X450872D02*
D03*
X459872D02*
D03*
X495872D02*
D03*
X504872D02*
D03*
X486872D02*
D03*
X435902Y873866D02*
D03*
X444902D02*
D03*
X417902D02*
D03*
X426902D02*
D03*
X408902Y873866D02*
D03*
X399902Y873865D02*
D03*
X390902Y873865D02*
D03*
X381902Y873865D02*
D03*
X372902Y873865D02*
D03*
X363902Y873865D02*
D03*
X354902Y873865D02*
D03*
X345902Y873865D02*
D03*
X336902Y873865D02*
D03*
X327902Y873865D02*
D03*
X318902Y873865D02*
D03*
X309902Y873865D02*
D03*
X300902Y873865D02*
D03*
X291902Y873864D02*
D03*
X351000Y854000D02*
D03*
X447000Y813000D02*
D03*
X437000Y769000D02*
D03*
X443497Y687000D02*
D03*
X435000D02*
D03*
X443497Y681000D02*
D03*
X420000Y713000D02*
D03*
X394500Y811000D02*
D03*
X376000Y814000D02*
D03*
X383000D02*
D03*
X399117Y740000D02*
D03*
X404108D02*
D03*
X373000Y742000D02*
D03*
X378000D02*
D03*
Y737000D02*
D03*
X373000D02*
D03*
X443497Y675000D02*
D03*
X435000Y681000D02*
D03*
Y675000D02*
D03*
X401675Y674737D02*
D03*
X402125Y659029D02*
D03*
X407117Y637000D02*
D03*
X441791Y518090D02*
D03*
X444000Y499225D02*
D03*
X412108Y637000D02*
D03*
X415000Y565000D02*
D03*
X400000Y636000D02*
D03*
X378000Y672000D02*
D03*
X400359Y624349D02*
D03*
X378000Y677000D02*
D03*
X372000D02*
D03*
Y672000D02*
D03*
X392000Y545000D02*
D03*
X379038Y536234D02*
D03*
X366000Y812000D02*
D03*
X323000Y770000D02*
D03*
X314000Y813100D02*
D03*
X308000Y813000D02*
D03*
X297255Y753499D02*
D03*
Y759499D02*
D03*
X297247Y678009D02*
D03*
Y672009D02*
D03*
X297000Y769000D02*
D03*
X368000Y578000D02*
D03*
X367000Y488000D02*
D03*
X354000Y533000D02*
D03*
X337000Y539000D02*
D03*
X325000Y534000D02*
D03*
X336000Y489000D02*
D03*
X325000Y524000D02*
D03*
X291500Y523000D02*
D03*
X282902Y873864D02*
D03*
X273902Y873864D02*
D03*
X264902Y873864D02*
D03*
X203387Y879933D02*
D03*
X255902Y873864D02*
D03*
X246902Y873864D02*
D03*
X237902Y873864D02*
D03*
X228902Y873864D02*
D03*
X210990Y875118D02*
D03*
X219902Y873864D02*
D03*
X269000Y854000D02*
D03*
X262401Y814200D02*
D03*
X273255Y759499D02*
D03*
X291255D02*
D03*
X235000Y851000D02*
D03*
X234000Y813000D02*
D03*
X216000Y817000D02*
D03*
X201000Y820000D02*
D03*
X145023Y889866D02*
D03*
X136023D02*
D03*
X190023D02*
D03*
X198744Y887643D02*
D03*
X172023Y889866D02*
D03*
X181023D02*
D03*
X169000Y884500D02*
D03*
X154023Y889866D02*
D03*
X163023D02*
D03*
X131000Y878000D02*
D03*
X64023Y889866D02*
D03*
X73023D02*
D03*
X46023D02*
D03*
X55023D02*
D03*
X91023D02*
D03*
X100023D02*
D03*
X82023D02*
D03*
X37023D02*
D03*
X118023D02*
D03*
X127023D02*
D03*
X109023D02*
D03*
X74000Y876000D02*
D03*
X28030Y889507D02*
D03*
X19710Y886077D02*
D03*
X13495Y879566D02*
D03*
X10375Y871125D02*
D03*
X158000Y859500D02*
D03*
X179000Y811000D02*
D03*
X193172Y759999D02*
D03*
X199172D02*
D03*
X175172Y759556D02*
D03*
X140000Y800021D02*
D03*
X10171Y853127D02*
D03*
X82000Y837000D02*
D03*
X81935Y847787D02*
D03*
X10171Y844127D02*
D03*
Y835127D02*
D03*
X81935Y829787D02*
D03*
X10171Y817127D02*
D03*
Y826127D02*
D03*
X291255Y753499D02*
D03*
X273255D02*
D03*
X291247Y678009D02*
D03*
X273247D02*
D03*
X267931Y682653D02*
D03*
X291247Y672009D02*
D03*
X273247D02*
D03*
X250931Y714653D02*
D03*
Y709653D02*
D03*
X245931D02*
D03*
X250922Y633162D02*
D03*
Y628162D02*
D03*
X245931Y714653D02*
D03*
X245922Y633162D02*
D03*
Y628162D02*
D03*
X250000Y602000D02*
D03*
X232500Y580500D02*
D03*
Y585693D02*
D03*
Y572778D02*
D03*
Y567500D02*
D03*
X291500Y541500D02*
D03*
Y532500D02*
D03*
X244500Y542001D02*
D03*
Y530001D02*
D03*
X291500Y513500D02*
D03*
X244500Y518001D02*
D03*
X243589Y442000D02*
D03*
X232500Y562500D02*
D03*
Y542001D02*
D03*
X232502Y530000D02*
D03*
X232503Y474307D02*
D03*
Y497500D02*
D03*
Y492500D02*
D03*
X232500Y518001D02*
D03*
X232503Y487222D02*
D03*
Y479500D02*
D03*
X193172Y753999D02*
D03*
X199172D02*
D03*
X199214Y677999D02*
D03*
X175214D02*
D03*
X193214D02*
D03*
X175172Y753999D02*
D03*
X169848Y683153D02*
D03*
X220500Y542001D02*
D03*
X193214Y672000D02*
D03*
X199214D02*
D03*
X175214D02*
D03*
X152848Y715153D02*
D03*
Y710153D02*
D03*
X147848Y715153D02*
D03*
Y710153D02*
D03*
X152889Y633153D02*
D03*
Y628153D02*
D03*
X150889Y601153D02*
D03*
X147889Y628153D02*
D03*
Y633153D02*
D03*
X220500Y530000D02*
D03*
Y518001D02*
D03*
X181000Y524000D02*
D03*
X220000Y458000D02*
D03*
X180000Y455000D02*
D03*
X168211Y525060D02*
D03*
X132000Y534000D02*
D03*
Y524000D02*
D03*
X141000Y459000D02*
D03*
X440794Y393185D02*
D03*
X441294Y370435D02*
D03*
X414794Y367185D02*
D03*
Y360685D02*
D03*
X411544Y400185D02*
D03*
X392044D02*
D03*
X395294Y373685D02*
D03*
X441294Y350935D02*
D03*
X442935Y331442D02*
D03*
X421022Y344357D02*
D03*
X441294Y311935D02*
D03*
X420785Y318574D02*
D03*
X402294Y331435D02*
D03*
X395294Y354185D02*
D03*
Y347685D02*
D03*
X389625Y421625D02*
D03*
X373277Y399921D02*
D03*
X361500Y381250D02*
D03*
X385500Y380000D02*
D03*
X353044Y400185D02*
D03*
X333294Y401185D02*
D03*
X343773Y373684D02*
D03*
X372544Y361185D02*
D03*
X356294Y354185D02*
D03*
X375181Y335072D02*
D03*
X369294Y334685D02*
D03*
X343294Y354185D02*
D03*
X342794Y331435D02*
D03*
X441294Y292435D02*
D03*
X414794Y295685D02*
D03*
X440794Y269685D02*
D03*
X411544Y262685D02*
D03*
X408294Y308685D02*
D03*
X395294D02*
D03*
Y289185D02*
D03*
X392044Y262685D02*
D03*
X450000Y220000D02*
D03*
X430728Y226642D02*
D03*
X441872Y26210D02*
D03*
X418500Y108177D02*
D03*
X423872Y26210D02*
D03*
X432872D02*
D03*
X393523Y201144D02*
D03*
X416000Y82000D02*
D03*
X414872Y26210D02*
D03*
X402804Y198107D02*
D03*
X405872Y26210D02*
D03*
X396872D02*
D03*
X375794Y308685D02*
D03*
X356022Y308871D02*
D03*
X349794Y308685D02*
D03*
X385475Y283348D02*
D03*
X362930Y282685D02*
D03*
X336794Y302439D02*
D03*
X343899Y290113D02*
D03*
X373500Y145177D02*
D03*
X378872Y26210D02*
D03*
X387872D02*
D03*
X372544Y262685D02*
D03*
X333262Y272108D02*
D03*
X353119Y258185D02*
D03*
X362332Y257822D02*
D03*
X342872Y26210D02*
D03*
X360872D02*
D03*
X369872D02*
D03*
X351872D02*
D03*
X333872D02*
D03*
X330294Y360685D02*
D03*
X310794Y399685D02*
D03*
X318752Y345376D02*
D03*
X323554Y318435D02*
D03*
X303794Y370435D02*
D03*
Y350935D02*
D03*
X303544Y331435D02*
D03*
X330368Y301621D02*
D03*
X310629Y263074D02*
D03*
X300544Y312189D02*
D03*
X299044Y292435D02*
D03*
X229613Y437387D02*
D03*
X203000Y434000D02*
D03*
X272000Y389000D02*
D03*
X205595Y411000D02*
D03*
X221000Y380000D02*
D03*
X146250Y431530D02*
D03*
X138000Y419000D02*
D03*
X139000Y402000D02*
D03*
X198000Y389000D02*
D03*
X189000Y368000D02*
D03*
X135000Y390000D02*
D03*
Y384000D02*
D03*
X296376Y272390D02*
D03*
X274000Y345000D02*
D03*
X295419Y211009D02*
D03*
X260544Y215435D02*
D03*
X188809Y353809D02*
D03*
X211000Y340000D02*
D03*
X173100Y362000D02*
D03*
X184394Y215675D02*
D03*
X260273Y199334D02*
D03*
X260544Y143435D02*
D03*
X250544Y131435D02*
D03*
X250515Y187486D02*
D03*
X242544Y163435D02*
D03*
X202544Y163435D02*
D03*
Y131435D02*
D03*
X202544Y147435D02*
D03*
X260544Y119435D02*
D03*
Y127435D02*
D03*
X288873Y26210D02*
D03*
X297873D02*
D03*
X270873D02*
D03*
X279873D02*
D03*
X315872D02*
D03*
X324873D02*
D03*
X306873D02*
D03*
X260544Y103435D02*
D03*
X261873Y26210D02*
D03*
X252873D02*
D03*
X202544Y123435D02*
D03*
X234544Y99435D02*
D03*
X234873Y26210D02*
D03*
X243873D02*
D03*
X225873D02*
D03*
X216873Y26111D02*
D03*
X208221Y23633D02*
D03*
X201502Y17645D02*
D03*
X196430Y10210D02*
D03*
X190544Y89435D02*
D03*
X184508Y199447D02*
D03*
X184544Y183435D02*
D03*
Y143435D02*
D03*
Y103435D02*
D03*
Y135435D02*
D03*
X10170Y94565D02*
D03*
Y85565D02*
D03*
Y67565D02*
D03*
Y76565D02*
D03*
X97000Y51000D02*
D03*
X151431Y10210D02*
D03*
X160431D02*
D03*
X133431D02*
D03*
X142431D02*
D03*
X178431D02*
D03*
X187430D02*
D03*
X169431D02*
D03*
X106431D02*
D03*
X115431D02*
D03*
X88431D02*
D03*
X97431D02*
D03*
X124431D02*
D03*
X10170Y40565D02*
D03*
Y58565D02*
D03*
Y49565D02*
D03*
X43431Y10210D02*
D03*
X52431D02*
D03*
X25484Y11185D02*
D03*
X34431Y10210D02*
D03*
X70431D02*
D03*
X79431D02*
D03*
X61431D02*
D03*
X17654Y15623D02*
D03*
X10170Y31565D02*
D03*
X12229Y22804D02*
D03*
X489250Y133750D02*
D03*
X637000Y247000D02*
D03*
X374000Y193000D02*
D03*
X450000Y196000D02*
D03*
X643000Y243000D02*
D03*
X410000Y445750D02*
D03*
X655090Y384171D02*
D03*
X838000Y274893D02*
D03*
X171875Y378375D02*
D03*
X742000Y175000D02*
D03*
X510000D02*
D03*
X528000Y220000D02*
D03*
X511000Y108000D02*
D03*
X570000Y237000D02*
D03*
X428000Y610000D02*
D03*
Y600000D02*
D03*
Y605000D02*
D03*
X433000Y610000D02*
D03*
Y600000D02*
D03*
Y605000D02*
D03*
X144000Y362000D02*
D03*
X204079Y439393D02*
D03*
X746000Y203000D02*
D03*
X758000D02*
D03*
X770000Y211000D02*
D03*
X825500Y225500D02*
D03*
X840000Y240000D02*
D03*
X858000Y300000D02*
D03*
X842786Y333579D02*
D03*
X772000Y277000D02*
D03*
X837000Y393893D02*
D03*
X779000Y394000D02*
D03*
X751730Y349421D02*
D03*
X699000Y357000D02*
D03*
X573815Y298346D02*
D03*
X555394Y305846D02*
D03*
X557526Y272474D02*
D03*
X648000Y299000D02*
D03*
X663000Y302000D02*
D03*
X675000Y280000D02*
D03*
X650000Y264000D02*
D03*
X705000Y247000D02*
D03*
X480000Y480000D02*
D03*
X456000Y562000D02*
D03*
X491875Y523875D02*
D03*
X656000Y823000D02*
D03*
X825926Y322732D02*
D03*
X622760Y295000D02*
D03*
X215372Y382000D02*
D03*
X252000Y344000D02*
D03*
X637000Y240000D02*
D03*
X195048Y542500D02*
D03*
X621090Y367171D02*
D03*
X217000Y426000D02*
D03*
X848319Y494750D02*
D03*
X763250Y484500D02*
D03*
X495000Y166000D02*
D03*
X851000Y791000D02*
D03*
X835000Y796600D02*
D03*
X840000Y787000D02*
D03*
X782750Y778000D02*
D03*
X816000Y772000D02*
D03*
X708250Y833000D02*
D03*
X767000Y793000D02*
D03*
X612401Y797401D02*
D03*
X634922Y766078D02*
D03*
X696847Y736847D02*
D03*
X673000Y736000D02*
D03*
X606847Y736847D02*
D03*
X646847Y726847D02*
D03*
X838000Y677000D02*
D03*
X781000Y668000D02*
D03*
X814000Y662000D02*
D03*
X696847Y646847D02*
D03*
X686847Y706847D02*
D03*
X687000Y678000D02*
D03*
X656847Y696847D02*
D03*
X606847Y716847D02*
D03*
X666847Y626847D02*
D03*
X646847Y616847D02*
D03*
X686847Y606847D02*
D03*
X646847Y596847D02*
D03*
X581000Y787000D02*
D03*
X565000Y763000D02*
D03*
X566847Y736847D02*
D03*
X586847Y666847D02*
D03*
X576847Y706847D02*
D03*
X566847Y656847D02*
D03*
X562000Y798000D02*
D03*
X522005Y764010D02*
D03*
X509000Y815000D02*
D03*
X546847Y696847D02*
D03*
X526000Y696000D02*
D03*
X484000Y701000D02*
D03*
X482500Y707000D02*
D03*
X474000Y701000D02*
D03*
X479000D02*
D03*
X511819Y666341D02*
D03*
X606000Y616000D02*
D03*
X566847Y636847D02*
D03*
X586847Y596847D02*
D03*
X509000Y620000D02*
D03*
X556847Y596847D02*
D03*
X523000Y601000D02*
D03*
Y580000D02*
D03*
X519000Y466000D02*
D03*
X512000Y555000D02*
D03*
X490000D02*
D03*
X380032Y595808D02*
D03*
X384000Y573000D02*
D03*
X386000Y560000D02*
D03*
X455765Y467730D02*
D03*
X501000Y466000D02*
D03*
X392000Y510000D02*
D03*
X391000Y488000D02*
D03*
X384000Y583000D02*
D03*
X440000Y601000D02*
D03*
X515000Y680000D02*
D03*
X523000Y592000D02*
D03*
X451000Y583000D02*
D03*
X440000Y503000D02*
D03*
X397000Y618000D02*
D03*
X421000Y501000D02*
D03*
X432000Y588000D02*
D03*
X384000Y592000D02*
D03*
X239000Y857000D02*
D03*
X131000Y397000D02*
D03*
X419000Y864000D02*
D03*
X492500Y278500D02*
D03*
X493000Y287000D02*
D03*
Y306000D02*
D03*
Y267000D02*
D03*
X516000Y278000D02*
D03*
X256000Y454000D02*
D03*
X235325Y417000D02*
D03*
X311000Y574000D02*
D03*
X751000Y667000D02*
D03*
X844000Y753000D02*
D03*
X748000Y761000D02*
D03*
X802000Y756000D02*
D03*
X786000Y746000D02*
D03*
X874000Y737000D02*
D03*
X753429Y719170D02*
D03*
X882000Y681000D02*
D03*
X786000Y740000D02*
D03*
X884000Y732000D02*
D03*
X753000Y712000D02*
D03*
X888000Y671791D02*
D03*
X800000Y707000D02*
D03*
Y722000D02*
D03*
X663000Y555000D02*
D03*
X653000D02*
D03*
X796000Y698000D02*
D03*
X804000Y730000D02*
D03*
X746000Y689000D02*
D03*
X804250Y661250D02*
D03*
X784000Y753000D02*
D03*
X806500Y761500D02*
D03*
X273000Y454900D02*
D03*
X231625Y357029D02*
D03*
X595000Y315000D02*
D03*
X378000Y189000D02*
D03*
X383000Y228350D02*
D03*
X377000Y231000D02*
D03*
X371000D02*
D03*
X384000Y237000D02*
D03*
X377000Y221000D02*
D03*
X368000Y209000D02*
D03*
X375000Y257000D02*
D03*
X428211Y331435D02*
D03*
X352000Y495000D02*
D03*
X376000Y754000D02*
D03*
X349000Y630500D02*
D03*
Y623000D02*
D03*
Y638000D02*
D03*
X639000Y303000D02*
D03*
X253000Y803000D02*
D03*
X667000Y504000D02*
D03*
X667000Y494000D02*
D03*
X636622Y494000D02*
D03*
X667000Y464000D02*
D03*
Y484000D02*
D03*
X667000Y474000D02*
D03*
X667000Y454000D02*
D03*
X608000Y514000D02*
D03*
X577000Y504000D02*
D03*
X617000Y484000D02*
D03*
X607000Y454000D02*
D03*
X577000Y454000D02*
D03*
X566750Y474000D02*
D03*
X667000Y444000D02*
D03*
X647000D02*
D03*
X667000Y434000D02*
D03*
X607000D02*
D03*
X669000Y418000D02*
D03*
X602000Y412000D02*
D03*
X514000Y186000D02*
D03*
X459000Y197000D02*
D03*
X501000Y113000D02*
D03*
X485000Y106000D02*
D03*
X500844Y99483D02*
D03*
X454000Y106754D02*
D03*
X471000Y82000D02*
D03*
X461000D02*
D03*
X378666Y566666D02*
D03*
X379000Y545000D02*
D03*
X378154Y530805D02*
D03*
X376400Y504702D02*
D03*
X354046Y539934D02*
D03*
X330500Y562241D02*
D03*
X174806Y552723D02*
D03*
X438000Y109000D02*
D03*
X441000Y82000D02*
D03*
X426000D02*
D03*
X412000Y106000D02*
D03*
X396000Y82000D02*
D03*
X172000Y487000D02*
D03*
X142000Y468000D02*
D03*
X148000D02*
D03*
X233000Y341000D02*
D03*
X230572Y368555D02*
D03*
X84000Y51000D02*
D03*
X288000Y450000D02*
D03*
X284000Y446000D02*
D03*
X305000Y455000D02*
D03*
X851000Y798750D02*
D03*
X401330Y452554D02*
D03*
X395294Y380185D02*
D03*
X188813Y457011D02*
D03*
X327500Y499500D02*
D03*
X377250Y491750D02*
D03*
X377000Y498000D02*
D03*
X381000Y480000D02*
D03*
X377000Y484455D02*
D03*
X181250Y461000D02*
D03*
X147000Y439914D02*
D03*
X366042Y445911D02*
D03*
X357306Y445832D02*
D03*
X367000Y458000D02*
D03*
X336000Y461000D02*
D03*
X847000Y430500D02*
D03*
X740500Y479750D02*
D03*
X766500Y411250D02*
D03*
X272330Y580301D02*
D03*
X180000Y497000D02*
D03*
X186000D02*
D03*
X192000D02*
D03*
X198000D02*
D03*
X219000Y493000D02*
D03*
X224000D02*
D03*
Y498000D02*
D03*
X427794Y380185D02*
D03*
X195000Y424000D02*
D03*
X431000Y420000D02*
D03*
X195177Y551823D02*
D03*
X193000Y522000D02*
D03*
X567000Y271000D02*
D03*
X139000Y325000D02*
D03*
X356000Y549000D02*
D03*
X194667Y514667D02*
D03*
X401000Y255000D02*
D03*
X535000Y277000D02*
D03*
X470000Y570000D02*
D03*
X273250Y364000D02*
D03*
X136000Y318000D02*
D03*
X145368Y373000D02*
D03*
X201000Y527000D02*
D03*
X581000Y271000D02*
D03*
X348000Y555000D02*
D03*
X266000Y512617D02*
D03*
X811000Y471000D02*
D03*
X807111Y474889D02*
D03*
X777889Y473889D02*
D03*
X169000Y603000D02*
D03*
X267000D02*
D03*
X225338Y664662D02*
D03*
X240000Y687653D02*
D03*
X420000Y668000D02*
D03*
X464000Y669000D02*
D03*
X377000Y646000D02*
D03*
X373111Y649889D02*
D03*
X326000Y650889D02*
D03*
X332000Y672000D02*
D03*
X229000Y764000D02*
D03*
X138848Y763153D02*
D03*
X146000Y783750D02*
D03*
X236922Y681162D02*
D03*
X174821Y770827D02*
D03*
Y776327D02*
D03*
X555000Y536000D02*
D03*
X548000Y542000D02*
D03*
X627000Y529564D02*
D03*
X725000Y496000D02*
D03*
X532000Y538000D02*
D03*
X499000Y519000D02*
D03*
X697130Y470488D02*
D03*
X700000Y513000D02*
D03*
X672000Y555000D02*
D03*
X681000D02*
D03*
X705000Y502000D02*
D03*
X788274Y428000D02*
D03*
X793774D02*
D03*
X776500Y434000D02*
D03*
X782000D02*
D03*
X523000Y634000D02*
D03*
X581000Y793000D02*
D03*
X478000Y768000D02*
D03*
X606847Y696847D02*
D03*
X606847Y666847D02*
D03*
X626847Y636847D02*
D03*
X606847Y646847D02*
D03*
X523000Y743000D02*
D03*
X428000Y748000D02*
D03*
Y743000D02*
D03*
X422000Y739500D02*
D03*
X596847Y676847D02*
D03*
X428000Y738000D02*
D03*
X495000Y738062D02*
D03*
X458750Y759000D02*
D03*
X488750Y817639D02*
D03*
X412750Y511554D02*
D03*
X432000Y478000D02*
D03*
Y472000D02*
D03*
X442000D02*
D03*
X412000D02*
D03*
X408000Y468000D02*
D03*
X522000Y358000D02*
D03*
X491856Y349000D02*
D03*
X366000Y124000D02*
D03*
X248000Y448000D02*
D03*
X614000Y318371D02*
D03*
X602000Y826000D02*
D03*
X892000Y346000D02*
D03*
X435233Y638812D02*
D03*
X138000Y270000D02*
D03*
X142000Y602000D02*
D03*
X160000Y800000D02*
D03*
X108000Y790000D02*
D03*
Y796000D02*
D03*
X142000Y516000D02*
D03*
X148000D02*
D03*
X154000D02*
D03*
X148000Y544000D02*
D03*
X154000D02*
D03*
X142000D02*
D03*
X412000Y246000D02*
D03*
X343672Y360793D02*
D03*
X537750Y487500D02*
D03*
X543250Y498000D02*
D03*
X532000Y491750D02*
D03*
X548000Y434000D02*
D03*
X507750Y508500D02*
D03*
X541712Y374064D02*
D03*
X532500Y354750D02*
D03*
X535750Y399000D02*
D03*
X408294Y289185D02*
D03*
X408112Y282461D02*
D03*
X427794Y276185D02*
D03*
X421294D02*
D03*
X428281Y311935D02*
D03*
X427868Y292192D02*
D03*
X395294Y360685D02*
D03*
X434294Y269685D02*
D03*
X414794Y289185D02*
D03*
X411544Y275685D02*
D03*
X361250Y368000D02*
D03*
X357000Y586000D02*
D03*
Y581000D02*
D03*
X351000D02*
D03*
Y586000D02*
D03*
X356294Y347685D02*
D03*
X388794D02*
D03*
X388794Y321685D02*
D03*
X316794Y331578D02*
D03*
X394000Y295000D02*
D03*
X427435Y424565D02*
D03*
X414325Y453675D02*
D03*
X526000Y451000D02*
D03*
X408294Y380185D02*
D03*
X310312Y258027D02*
D03*
X382579Y328396D02*
D03*
X429935Y350935D02*
D03*
X382648Y335038D02*
D03*
X560000Y511000D02*
D03*
X617000Y494000D02*
D03*
X627000Y484000D02*
D03*
X617000Y434000D02*
D03*
X617000Y515000D02*
D03*
X597369Y473880D02*
D03*
X598000Y504000D02*
D03*
X677000Y494000D02*
D03*
X597000D02*
D03*
X587000Y484000D02*
D03*
X586450Y433750D02*
D03*
X627000Y444000D02*
D03*
X577369Y464880D02*
D03*
X587000Y444000D02*
D03*
X492000Y412000D02*
D03*
X490000Y448000D02*
D03*
X521000Y439000D02*
D03*
X493000Y338000D02*
D03*
X539000Y386000D02*
D03*
X511630Y466708D02*
D03*
X515000Y368000D02*
D03*
X498900Y453378D02*
D03*
X531000Y328000D02*
D03*
X492000Y403000D02*
D03*
X496000Y491000D02*
D03*
X508000Y442000D02*
D03*
X522000Y338000D02*
D03*
X414794Y380185D02*
D03*
X375794Y347685D02*
D03*
X131000Y585918D02*
D03*
Y592984D02*
D03*
X136000Y586000D02*
D03*
Y593000D02*
D03*
X206172Y687999D02*
D03*
X200172D02*
D03*
X205848Y693153D02*
D03*
X212172Y687999D02*
D03*
X150848Y763153D02*
D03*
X144848D02*
D03*
X199848Y693153D02*
D03*
X211848D02*
D03*
X291000Y341000D02*
D03*
Y352000D02*
D03*
X115500Y856705D02*
D03*
X108000Y806000D02*
D03*
X111000Y878000D02*
D03*
X839000Y386000D02*
D03*
X421052Y772003D02*
D03*
X122121Y799000D02*
D03*
X98000Y817000D02*
D03*
X481000Y813000D02*
D03*
X419000Y814000D02*
D03*
X84000Y878000D02*
D03*
X340709Y814000D02*
D03*
X279000D02*
D03*
X297000Y794000D02*
D03*
X469000Y597000D02*
D03*
X465319Y586681D02*
D03*
X400564Y473726D02*
D03*
X396160Y464841D02*
D03*
X457114Y415784D02*
D03*
X466000Y390000D02*
D03*
X356383Y559073D02*
D03*
X419500Y561000D02*
D03*
X441000Y479000D02*
D03*
X377000Y836000D02*
D03*
X261089Y436346D02*
D03*
X141000Y871000D02*
D03*
X146498Y871152D02*
D03*
X153000Y878000D02*
D03*
X479000Y838000D02*
D03*
X423000D02*
D03*
X343000Y837000D02*
D03*
X275000Y838000D02*
D03*
X454750Y49900D02*
D03*
Y43250D02*
D03*
X404150Y511846D02*
D03*
X395945Y190355D02*
D03*
X777861Y505639D02*
D03*
X781750Y501750D02*
D03*
X790250Y503250D02*
D03*
X795750D02*
D03*
X803611Y503611D02*
D03*
X807500Y507500D02*
D03*
X230000Y604300D02*
D03*
Y598800D02*
D03*
X385284Y277843D02*
D03*
X385475Y295823D02*
D03*
X392044Y274185D02*
D03*
X507411Y472904D02*
D03*
X534750Y269250D02*
D03*
X335250Y387250D02*
D03*
X336750Y373250D02*
D03*
X336794Y380185D02*
D03*
X362794Y341185D02*
D03*
X373263Y387563D02*
D03*
X384500Y385500D02*
D03*
X314044Y312189D02*
D03*
X421294Y354185D02*
D03*
X432794Y294685D02*
D03*
X336474Y335881D02*
D03*
X356250Y341000D02*
D03*
X458359Y311641D02*
D03*
X454000Y316000D02*
D03*
X362794Y315185D02*
D03*
X362930Y276185D02*
D03*
X234544Y163435D02*
D03*
X295642Y229377D02*
D03*
X184394Y207195D02*
D03*
X184438Y191404D02*
D03*
X184544Y151435D02*
D03*
X260544Y207435D02*
D03*
Y191435D02*
D03*
X202544Y171435D02*
D03*
X250544Y163435D02*
D03*
X184544Y127435D02*
D03*
X210544Y139435D02*
D03*
X194544Y123435D02*
D03*
X184544Y111435D02*
D03*
X198544Y89435D02*
D03*
X250544Y147435D02*
D03*
Y115435D02*
D03*
X260544Y135435D02*
D03*
X250544Y107435D02*
D03*
X260544Y111435D02*
D03*
Y95435D02*
D03*
X336294Y318260D02*
D03*
X343294Y295685D02*
D03*
X349794Y302185D02*
D03*
X356294Y315185D02*
D03*
X363022Y295370D02*
D03*
X312191Y293318D02*
D03*
X330294Y289185D02*
D03*
X310794Y269685D02*
D03*
X336618Y288884D02*
D03*
X353208Y271319D02*
D03*
X333544Y259185D02*
D03*
X349971Y334435D02*
D03*
X260544Y151435D02*
D03*
X194544Y179435D02*
D03*
X303919Y271956D02*
D03*
X330521Y308871D02*
D03*
X336827Y276227D02*
D03*
X311099Y283066D02*
D03*
Y276018D02*
D03*
X318544Y318260D02*
D03*
X355784Y295697D02*
D03*
X323794Y276443D02*
D03*
X343901Y282840D02*
D03*
X336881Y282619D02*
D03*
X343154Y315112D02*
D03*
X349819Y282647D02*
D03*
X323794Y289185D02*
D03*
Y295685D02*
D03*
X317294Y295685D02*
D03*
X323794Y302185D02*
D03*
X317544Y282935D02*
D03*
X356294Y328185D02*
D03*
X343294Y308685D02*
D03*
X356294Y302185D02*
D03*
X323794Y282685D02*
D03*
X330294D02*
D03*
X356294Y321685D02*
D03*
X337021Y308621D02*
D03*
X184544Y221185D02*
D03*
X187044Y211435D02*
D03*
X202544Y195435D02*
D03*
X194544Y203435D02*
D03*
X250284Y211435D02*
D03*
X210544Y163435D02*
D03*
Y171435D02*
D03*
X184544D02*
D03*
X242544Y219435D02*
D03*
Y211435D02*
D03*
X250544Y203435D02*
D03*
X250544Y179435D02*
D03*
X242544Y171435D02*
D03*
X234544Y171435D02*
D03*
X194544Y195435D02*
D03*
X194544Y187435D02*
D03*
X242544Y203435D02*
D03*
X184544Y227185D02*
D03*
X194544Y163435D02*
D03*
X202544Y179435D02*
D03*
X210544D02*
D03*
X202544Y187435D02*
D03*
X242544Y179435D02*
D03*
X242794Y187185D02*
D03*
X242544Y195435D02*
D03*
X250544Y195435D02*
D03*
X194579Y347304D02*
D03*
X200750Y504000D02*
D03*
X188000Y398000D02*
D03*
X231000Y389000D02*
D03*
X650000Y237000D02*
D03*
X173000Y505000D02*
D03*
X209000D02*
D03*
X154000Y350000D02*
D03*
X150000Y345000D02*
D03*
X125000Y354000D02*
D03*
X131000Y353000D02*
D03*
X140000Y289000D02*
D03*
X179000Y432446D02*
D03*
X132000Y334000D02*
D03*
X133000Y305000D02*
D03*
X140000Y297000D02*
D03*
X133000D02*
D03*
X317750Y647000D02*
D03*
X135000Y68000D02*
D03*
Y59000D02*
D03*
X122000Y52000D02*
D03*
X135000Y51000D02*
D03*
X148000D02*
D03*
X188603Y338381D02*
D03*
X197000Y383000D02*
D03*
X190000Y381000D02*
D03*
X204000Y384000D02*
D03*
X292000Y385000D02*
D03*
X290000Y397000D02*
D03*
X396000Y258000D02*
D03*
X385500Y245498D02*
D03*
X458300Y244700D02*
D03*
X76975Y792578D02*
D03*
X125000Y616000D02*
D03*
X223922Y617000D02*
D03*
X393000Y195000D02*
D03*
X443000Y221000D02*
D03*
X430000Y212000D02*
D03*
X442000Y211000D02*
D03*
X231000Y710000D02*
D03*
X243000Y395000D02*
D03*
X226000Y397000D02*
D03*
X223000Y419000D02*
D03*
X225129Y413871D02*
D03*
X323005Y700005D02*
D03*
X321431Y694220D02*
D03*
X291000Y553444D02*
D03*
Y547944D02*
D03*
X309669Y494831D02*
D03*
X310021Y500320D02*
D03*
X303000Y493500D02*
D03*
Y499000D02*
D03*
X309000Y507600D02*
D03*
Y513100D02*
D03*
X543000Y288000D02*
D03*
X536000Y287000D02*
D03*
X135000Y436000D02*
D03*
X251000Y427000D02*
D03*
X342000Y461000D02*
D03*
X126000Y233000D02*
D03*
X281000Y771000D02*
D03*
X318038Y461124D02*
D03*
X322000Y466000D02*
D03*
X182000Y405000D02*
D03*
X369000Y467000D02*
D03*
X281000Y359000D02*
D03*
X174500Y352000D02*
D03*
X169000D02*
D03*
X418000Y215000D02*
D03*
X408000Y210000D02*
D03*
X412500Y226498D02*
D03*
X141000Y493000D02*
D03*
X184750Y600000D02*
D03*
X179250D02*
D03*
X330000Y594000D02*
D03*
X328000Y590000D02*
D03*
X325000Y594000D02*
D03*
X329000Y619750D02*
D03*
Y614250D02*
D03*
X297931Y692653D02*
D03*
X248931Y762653D02*
D03*
X298255Y687499D02*
D03*
X304255D02*
D03*
X242931Y762653D02*
D03*
X236931D02*
D03*
X303931Y692653D02*
D03*
X310255Y687499D02*
D03*
X309931Y692653D02*
D03*
X326000Y677000D02*
D03*
X332000D02*
D03*
X326000Y672000D02*
D03*
X332000Y756000D02*
D03*
X326000D02*
D03*
X332000Y761000D02*
D03*
X326000D02*
D03*
X317000Y490000D02*
D03*
X298172Y850172D02*
D03*
X294283Y846283D02*
D03*
X383000Y836000D02*
D03*
X411000Y826000D02*
D03*
X396000Y835000D02*
D03*
X127000Y343000D02*
D03*
X519000Y268000D02*
D03*
X528134Y276134D02*
D03*
X527000Y267000D02*
D03*
X251617Y395242D02*
D03*
X138889Y681153D02*
D03*
X150889D02*
D03*
X206214Y605999D02*
D03*
X144889Y681153D02*
D03*
X212214Y605999D02*
D03*
X211889Y611153D02*
D03*
X205889D02*
D03*
X134000Y484000D02*
D03*
X353000Y718000D02*
D03*
Y713000D02*
D03*
X348000D02*
D03*
Y708000D02*
D03*
X353000D02*
D03*
X329823Y411555D02*
D03*
X324425Y410503D02*
D03*
X334111Y408111D02*
D03*
X338000Y412000D02*
D03*
X301801Y416801D02*
D03*
X297912Y412912D02*
D03*
X305000Y556500D02*
D03*
Y551000D02*
D03*
X153000Y570750D02*
D03*
Y565250D02*
D03*
X154000Y494750D02*
D03*
Y489250D02*
D03*
X538000Y701000D02*
D03*
X599000Y386000D02*
D03*
X590000Y294000D02*
D03*
X493000Y397000D02*
D03*
X502000Y617000D02*
D03*
X509986Y626502D02*
D03*
X89000Y798000D02*
D03*
X522000Y800000D02*
D03*
X520500Y258000D02*
D03*
X515000Y722000D02*
D03*
X518000Y747000D02*
D03*
X570000Y549000D02*
D03*
X468990Y485995D02*
D03*
X502000Y169000D02*
D03*
X528000Y253000D02*
D03*
X327402Y732722D02*
D03*
X330752Y749750D02*
D03*
X660000Y795000D02*
D03*
X659000Y788000D02*
D03*
X672000D02*
D03*
X666000Y796000D02*
D03*
X685000Y795000D02*
D03*
X539000D02*
D03*
X615000Y781000D02*
D03*
X624000Y777000D02*
D03*
X642000Y794000D02*
D03*
X478000Y634000D02*
D03*
X503000Y662000D02*
D03*
X504000Y835000D02*
D03*
X510788Y828000D02*
D03*
X489000Y496000D02*
D03*
X490000Y512000D02*
D03*
X550000Y796000D02*
D03*
X532000Y512000D02*
D03*
X507067Y485250D02*
D03*
X673000Y381000D02*
D03*
X669000Y362000D02*
D03*
X583000Y824000D02*
D03*
X591000Y849000D02*
D03*
X573000Y825000D02*
D03*
X567500D02*
D03*
X831000Y419000D02*
D03*
X749000Y363000D02*
D03*
X725000Y337000D02*
D03*
X229000Y756000D02*
D03*
X641847Y761337D02*
D03*
X866000Y776000D02*
D03*
X641000Y265000D02*
D03*
X899000Y93000D02*
D03*
X571000Y405000D02*
D03*
X546000Y234000D02*
D03*
X655000Y274000D02*
D03*
X664090Y330671D02*
D03*
X305000Y564000D02*
D03*
X526000Y411000D02*
D03*
X654000Y397000D02*
D03*
X645000Y393000D02*
D03*
X670000Y353000D02*
D03*
X184000Y385000D02*
D03*
X190000Y412000D02*
D03*
X312000Y455000D02*
D03*
X302000Y460000D02*
D03*
X729723Y352871D02*
D03*
X738000Y226000D02*
D03*
X532000Y376000D02*
D03*
X492000Y383000D02*
D03*
X845000Y391000D02*
D03*
X690000Y404000D02*
D03*
X767000Y398000D02*
D03*
X722000Y262000D02*
D03*
X729623Y365954D02*
D03*
X720090Y348171D02*
D03*
X699366Y413417D02*
D03*
X701090Y329100D02*
D03*
X442000Y448000D02*
D03*
X701090Y367511D02*
D03*
X741090Y307171D02*
D03*
X786000Y212000D02*
D03*
X874000Y179000D02*
D03*
X794000Y472000D02*
D03*
X788500D02*
D03*
X850000Y186000D02*
D03*
X729000Y471000D02*
D03*
X732000Y461000D02*
D03*
X726000Y453000D02*
D03*
X741000Y89000D02*
D03*
Y76000D02*
D03*
X508000Y64000D02*
D03*
X506469Y91531D02*
D03*
X751000Y163000D02*
D03*
X741000Y168000D02*
D03*
X523000Y215000D02*
D03*
X534000Y227000D02*
D03*
X477000Y54000D02*
D03*
X467000Y407000D02*
D03*
X521000Y348000D02*
D03*
X493993Y62000D02*
D03*
X486575Y50000D02*
D03*
X491665Y319469D02*
D03*
X488932Y58561D02*
D03*
X471500Y107177D02*
D03*
X460500Y106177D02*
D03*
X394000Y105997D02*
D03*
X404500Y107177D02*
D03*
X445500Y108177D02*
D03*
X426500Y107177D02*
D03*
X270000Y449000D02*
D03*
X131000Y823000D02*
D03*
X429000Y637500D02*
D03*
X435000Y634000D02*
D03*
Y629000D02*
D03*
X401000Y703000D02*
D03*
X500868Y711479D02*
D03*
X421000Y695000D02*
D03*
X426000Y697000D02*
D03*
X444000Y705000D02*
D03*
X470000Y669000D02*
D03*
Y663000D02*
D03*
X447000Y658000D02*
D03*
X434000D02*
D03*
X440457Y658922D02*
D03*
X196573Y532500D02*
D03*
X271000Y551000D02*
D03*
X265000D02*
D03*
X343000Y809000D02*
D03*
X515000Y228000D02*
D03*
X490000Y218000D02*
D03*
X357000Y472000D02*
D03*
X351000D02*
D03*
X357000Y467000D02*
D03*
X351000D02*
D03*
X194502Y504594D02*
D03*
X272500Y525300D02*
D03*
Y529692D02*
D03*
X134000Y469000D02*
D03*
X241000Y498000D02*
D03*
Y493000D02*
D03*
X246000D02*
D03*
X252000Y484000D02*
D03*
Y479500D02*
D03*
Y488500D02*
D03*
X267000Y497000D02*
D03*
X273000D02*
D03*
X279000D02*
D03*
X285000D02*
D03*
X213000Y484000D02*
D03*
Y479500D02*
D03*
Y488500D02*
D03*
X241000Y562000D02*
D03*
Y567000D02*
D03*
X246000D02*
D03*
X252000Y576000D02*
D03*
Y580500D02*
D03*
Y571500D02*
D03*
X267000Y563000D02*
D03*
X273000D02*
D03*
X279000D02*
D03*
X285000D02*
D03*
X180000D02*
D03*
X186000D02*
D03*
X192000D02*
D03*
X198000D02*
D03*
X213000Y571500D02*
D03*
Y580500D02*
D03*
Y576000D02*
D03*
X219000Y567000D02*
D03*
X224000D02*
D03*
Y562000D02*
D03*
X774000Y470000D02*
D03*
X771000Y259000D02*
D03*
X762090Y267171D02*
D03*
X695090Y292171D02*
D03*
X707090Y260171D02*
D03*
X771000Y203000D02*
D03*
X761090Y280171D02*
D03*
X697000Y846000D02*
D03*
X492000Y417500D02*
D03*
X707090Y254171D02*
D03*
X668000Y846000D02*
D03*
X719462Y271543D02*
D03*
X553090Y316171D02*
D03*
X557090Y320171D02*
D03*
X583090Y316171D02*
D03*
X594090Y330171D02*
D03*
X611678Y287759D02*
D03*
X749909Y321171D02*
D03*
X547090Y316171D02*
D03*
X546740Y327822D02*
D03*
X516000Y318000D02*
D03*
X688000Y856000D02*
D03*
X676000D02*
D03*
X556663Y787412D02*
D03*
X694000Y794000D02*
D03*
X705000Y787000D02*
D03*
X870000Y817000D02*
D03*
X859000D02*
D03*
X902000Y803000D02*
D03*
X892000D02*
D03*
X532000Y787000D02*
D03*
X547000Y786750D02*
D03*
X648480Y787319D02*
D03*
X684480D02*
D03*
X740000Y602000D02*
D03*
X746000Y615000D02*
D03*
Y626000D02*
D03*
Y635000D02*
D03*
X646847Y716847D02*
D03*
X749797Y517000D02*
D03*
X749797Y526000D02*
D03*
Y535000D02*
D03*
Y544000D02*
D03*
X771024Y571226D02*
D03*
X780024D02*
D03*
X790024D02*
D03*
X799024D02*
D03*
X836250Y552000D02*
D03*
Y543000D02*
D03*
Y534000D02*
D03*
X836250Y525000D02*
D03*
X875000Y485000D02*
D03*
Y479500D02*
D03*
X875250Y510000D02*
D03*
Y504500D02*
D03*
X875750Y535000D02*
D03*
Y529500D02*
D03*
X875250Y422500D02*
D03*
Y417000D02*
D03*
Y447500D02*
D03*
Y442000D02*
D03*
X875000Y472500D02*
D03*
Y467000D02*
D03*
X810000Y749000D02*
D03*
X817000Y721000D02*
D03*
X810000Y727000D02*
D03*
Y740000D02*
D03*
X817000Y733000D02*
D03*
X809875Y713875D02*
D03*
X817000Y707000D02*
D03*
X874000Y708000D02*
D03*
X875000Y699000D02*
D03*
X873691Y715000D02*
D03*
X881000Y719000D02*
D03*
X884000Y725000D02*
D03*
X889000Y738000D02*
D03*
X893000Y746000D02*
D03*
X817000Y636000D02*
D03*
X810000Y630000D02*
D03*
X817000Y623000D02*
D03*
X810000Y617000D02*
D03*
X817000Y610000D02*
D03*
X810000Y604000D02*
D03*
Y591000D02*
D03*
X817000Y597000D02*
D03*
X784875Y636125D02*
D03*
X796875Y642125D02*
D03*
X784875Y623125D02*
D03*
X796875Y629125D02*
D03*
X784875Y610125D02*
D03*
X796875Y616125D02*
D03*
X797000Y603000D02*
D03*
X785000Y597000D02*
D03*
X717000Y555000D02*
D03*
X708000D02*
D03*
X699000D02*
D03*
X690000D02*
D03*
X644000D02*
D03*
X635000D02*
D03*
X786000Y715000D02*
D03*
X791000Y708000D02*
D03*
X759125Y739875D02*
D03*
X759000Y753000D02*
D03*
X740000Y754000D02*
D03*
X753000Y746000D02*
D03*
Y733000D02*
D03*
X740000Y745465D02*
D03*
X862000Y295000D02*
D03*
Y310000D02*
D03*
Y340000D02*
D03*
Y325000D02*
D03*
X787455Y299167D02*
D03*
X806708Y298898D02*
D03*
X797450Y299165D02*
D03*
X815500Y298750D02*
D03*
X354530Y519653D02*
D03*
X494000Y816000D02*
D03*
X257000Y766000D02*
D03*
X666847Y716847D02*
D03*
X606847Y626847D02*
D03*
X656847Y676847D02*
D03*
X616847Y636847D02*
D03*
X616847Y686847D02*
D03*
X636847Y636847D02*
D03*
X626847Y696847D02*
D03*
X656847Y656847D02*
D03*
X616847Y666847D02*
D03*
X596847Y636847D02*
D03*
X606847Y706847D02*
D03*
X646847Y706847D02*
D03*
X606847Y656847D02*
D03*
X666847Y656847D02*
D03*
X646847Y696847D02*
D03*
X626847Y626847D02*
D03*
X586847Y686847D02*
D03*
X636847Y656847D02*
D03*
X676847D02*
D03*
X606847Y676847D02*
D03*
X666847Y666847D02*
D03*
X634000Y794000D02*
D03*
X596847Y706847D02*
D03*
X626000Y790000D02*
D03*
X616847Y706847D02*
D03*
X636847Y626847D02*
D03*
X443000Y607000D02*
D03*
X431000Y528000D02*
D03*
X656847Y706847D02*
D03*
X666847D02*
D03*
X676847Y666847D02*
D03*
X676847Y716847D02*
D03*
X616847Y696847D02*
D03*
X626847Y726847D02*
D03*
X411000Y528000D02*
D03*
X646847Y666847D02*
D03*
X646847Y656847D02*
D03*
X636847Y666847D02*
D03*
X636847Y716847D02*
D03*
X150042Y658000D02*
D03*
Y653000D02*
D03*
X155042Y658000D02*
D03*
Y653000D02*
D03*
X248075Y658009D02*
D03*
Y653009D02*
D03*
X253075Y658009D02*
D03*
Y653009D02*
D03*
X248083Y739500D02*
D03*
Y734500D02*
D03*
X253083Y739500D02*
D03*
Y734500D02*
D03*
X155000Y735000D02*
D03*
Y740000D02*
D03*
X150000Y735000D02*
D03*
Y740000D02*
D03*
X160000Y487000D02*
D03*
X181000Y449000D02*
D03*
X486000Y577117D02*
D03*
X547090Y301171D02*
D03*
X516000Y288000D02*
D03*
X520000Y248000D02*
D03*
X805887Y433998D02*
D03*
X800388Y434113D02*
D03*
X531390Y497625D02*
D03*
X490000Y228000D02*
D03*
X417848Y805650D02*
D03*
X454750Y767900D02*
D03*
X490000Y238000D02*
D03*
X434500Y787000D02*
D03*
X440000D02*
D03*
X163000Y814000D02*
D03*
X127651Y799792D02*
D03*
X131270Y803934D02*
D03*
X146500Y814045D02*
D03*
X168000Y871000D02*
D03*
X159000D02*
D03*
X412000Y860000D02*
D03*
X478000Y858000D02*
D03*
X456000Y851000D02*
D03*
X434000Y845000D02*
D03*
X381000Y452000D02*
D03*
Y446000D02*
D03*
X382294Y321683D02*
D03*
X820024Y508000D02*
D03*
X458351Y299486D02*
D03*
X452993Y297127D02*
D03*
X421294Y308685D02*
D03*
Y302185D02*
D03*
X825024Y420000D02*
D03*
X309922Y611162D02*
D03*
X298247Y606009D02*
D03*
X303922Y611162D02*
D03*
X297922D02*
D03*
X310247Y606009D02*
D03*
X304247D02*
D03*
X248922Y681162D02*
D03*
X242922D02*
D03*
X808024Y549000D02*
D03*
X815024Y422000D02*
D03*
X748024Y437000D02*
D03*
X427794Y360685D02*
D03*
X408294Y353935D02*
D03*
X401794Y276185D02*
D03*
X847262Y180262D02*
D03*
X876920Y100653D02*
D03*
X870920D02*
D03*
X864920D02*
D03*
X815595Y175806D02*
D03*
X803920Y170653D02*
D03*
X809595Y175806D02*
D03*
X803596D02*
D03*
X815920Y170653D02*
D03*
X809920D02*
D03*
X865920Y127653D02*
D03*
Y122653D02*
D03*
X860920Y127653D02*
D03*
X388794Y334685D02*
D03*
Y302185D02*
D03*
X299044Y398935D02*
D03*
X408794Y318435D02*
D03*
X302044Y394935D02*
D03*
X385544Y367685D02*
D03*
X411544Y387185D02*
D03*
X353044D02*
D03*
X349794Y360685D02*
D03*
X376044Y315185D02*
D03*
X408794Y344435D02*
D03*
X316794Y370435D02*
D03*
X392044Y387185D02*
D03*
X316794Y350935D02*
D03*
X310794Y393185D02*
D03*
X290000Y403000D02*
D03*
X349544Y347854D02*
D03*
X323794Y360685D02*
D03*
X375794Y341185D02*
D03*
X389250Y412250D02*
D03*
X426294Y318435D02*
D03*
X343294Y393185D02*
D03*
X349794Y380185D02*
D03*
X323794Y354185D02*
D03*
X343294Y386685D02*
D03*
X395294Y367185D02*
D03*
X401794Y386685D02*
D03*
X369294Y321685D02*
D03*
X421294Y360685D02*
D03*
Y386685D02*
D03*
X427794D02*
D03*
X323794Y367185D02*
D03*
X317294Y360685D02*
D03*
X277000Y424000D02*
D03*
X323794Y373685D02*
D03*
Y380185D02*
D03*
X356294Y360685D02*
D03*
X323794Y386685D02*
D03*
X330294Y380185D02*
D03*
X349794Y367185D02*
D03*
X362794Y321685D02*
D03*
X330363Y354035D02*
D03*
X395294Y302185D02*
D03*
X401794Y315185D02*
D03*
X414794Y308685D02*
D03*
Y302185D02*
D03*
X427794D02*
D03*
Y282685D02*
D03*
X395294D02*
D03*
X426544Y344435D02*
D03*
X414794Y354185D02*
D03*
X336294Y344435D02*
D03*
X401794Y295685D02*
D03*
X408294D02*
D03*
X330294Y373685D02*
D03*
X336794Y354185D02*
D03*
X375794Y321685D02*
D03*
X388794Y308685D02*
D03*
X369294Y328185D02*
D03*
X408294Y373685D02*
D03*
X414794D02*
D03*
X434294Y393185D02*
D03*
X401794Y367185D02*
D03*
X428000Y371000D02*
D03*
X368000Y290000D02*
D03*
X131404Y860046D02*
D03*
X184000Y850000D02*
D03*
X182350Y837650D02*
D03*
X437000Y794000D02*
D03*
X463000D02*
D03*
X114717Y838890D02*
D03*
X114626Y829850D02*
D03*
X98000Y872000D02*
D03*
X140500Y814000D02*
D03*
X465906Y786943D02*
D03*
X135000Y814000D02*
D03*
X460093Y786943D02*
D03*
X294250Y787000D02*
D03*
X150551Y780662D02*
D03*
X299750Y787000D02*
D03*
X325750Y788000D02*
D03*
X320250D02*
D03*
X323000Y795000D02*
D03*
X247000Y827000D02*
D03*
X132000Y783000D02*
D03*
X431000Y540000D02*
D03*
X411000D02*
D03*
D207*
X893000Y850000D02*
D03*
Y50000D02*
D03*
X35700Y824600D02*
D03*
Y88000D02*
D03*
D208*
X821305Y492000D02*
D03*
X828882Y491997D02*
D03*
X795694Y495000D02*
D03*
M02*
